<svg width="43" height="43" viewBox="0 0 43 43" fill="none" xmlns="http://www.w3.org/2000/svg">
<path fill-rule="evenodd" clip-rule="evenodd" d="M26.6493 5.48909C26.513 5.21611 26.3202 4.97527 26.0837 4.78256C25.8471 4.58985 25.5723 4.44969 25.2774 4.37139C24.9825 4.2931 24.6743 4.27846 24.3734 4.32845C24.0724 4.37844 23.7855 4.49192 23.5318 4.66134C22.79 5.15584 22.2117 5.86104 21.7645 6.55334C21.3044 7.26284 20.898 8.08629 20.539 8.95274C19.8209 10.6813 19.2189 12.7539 18.733 14.8308C18.1453 17.3689 17.7053 19.9389 17.415 22.5278C16.5403 21.9639 15.8374 21.1703 15.3833 20.2338C14.6781 18.7718 14.5276 16.9357 14.5276 14.5277C14.5275 14.1025 14.4013 13.6869 14.1651 13.3335C13.9288 12.98 13.5931 12.7045 13.2003 12.5418C12.8075 12.3791 12.3753 12.3365 11.9583 12.4194C11.5413 12.5024 11.1582 12.707 10.8575 13.0076C9.45822 14.4039 8.34853 16.0629 7.59216 17.8892C6.83579 19.7156 6.44765 21.6734 6.45002 23.6501C6.4502 26.125 7.06072 28.5617 8.22751 30.7443C9.3943 32.9269 11.0813 34.7881 13.1392 36.163C15.1971 37.5379 17.5623 38.3841 20.0253 38.6266C22.4883 38.8691 24.973 38.5005 27.2596 37.5534C29.5461 36.6062 31.5637 35.1098 33.1338 33.1967C34.7039 31.2836 35.7779 29.0128 36.2608 26.5855C36.7437 24.1581 36.6205 21.6491 35.9021 19.2808C35.1838 16.9124 33.8925 14.7578 32.1425 13.0076C30.8697 11.737 30.0355 10.8899 29.2443 9.85359C28.4639 8.83019 27.6877 7.56814 26.6493 5.48909ZM26.058 32.5081C25.156 33.409 24.0072 34.0224 22.7568 34.2708C21.5064 34.5192 20.2104 34.3915 19.0325 33.9038C17.8546 33.4161 16.8477 32.5903 16.1388 31.5306C15.43 30.4709 15.0511 29.225 15.05 27.9501C15.05 27.9501 16.9399 29.0251 20.425 29.0251C20.425 26.8751 21.5 20.4251 23.1125 19.3501C24.1875 21.5001 24.8024 22.1301 26.0602 23.39C26.6601 23.9881 27.1359 24.6988 27.4602 25.4814C27.7846 26.264 27.951 27.103 27.95 27.9501C27.951 28.7973 27.7846 29.6362 27.4602 30.4188C27.1359 31.2014 26.6601 31.9122 26.0602 32.5103L26.058 32.5081Z" fill="#F54E37"/>
</svg>
