<svg width="176" height="176" viewBox="0 0 176 176" fill="none" xmlns="http://www.w3.org/2000/svg">
<path d="M139.425 160.6H66.8252C58.4883 160.6 51.7002 153.818 51.7002 145.475V54.7249C51.7002 46.3819 58.4883 39.5999 66.8252 39.5999H139.425C147.762 39.5999 154.55 46.3819 154.55 54.7249V145.475C154.55 153.818 147.762 160.6 139.425 160.6ZM66.8252 45.6499C61.8219 45.6499 57.7502 49.7215 57.7502 54.7249V145.475C57.7502 150.478 61.8219 154.55 66.8252 154.55H139.425C144.429 154.55 148.5 150.478 148.5 145.475V54.7249C148.5 49.7215 144.429 45.6499 139.425 45.6499H66.8252Z" fill="#E8E8E8"/>
<path d="M42.6252 142.45H36.5752C28.2383 142.45 21.4502 135.668 21.4502 127.325V30.5249C21.4502 22.182 28.2383 15.3999 36.5752 15.3999H109.175C117.512 15.3999 124.3 22.182 124.3 30.5249C124.3 32.1947 122.945 33.5499 121.275 33.5499C119.606 33.5499 118.25 32.1947 118.25 30.5249C118.25 25.5216 114.179 21.4499 109.175 21.4499H36.5752C31.5719 21.4499 27.5002 25.5216 27.5002 30.5249V127.325C27.5002 132.329 31.5719 136.4 36.5752 136.4H42.6252C44.295 136.4 45.6502 137.755 45.6502 139.425C45.6502 141.095 44.295 142.45 42.6252 142.45Z" fill="#E8E8E8"/>
<path d="M127.326 118.25H78.9254C77.2556 118.25 75.9004 116.895 75.9004 115.225C75.9004 113.555 77.2556 112.2 78.9254 112.2H127.326C128.995 112.2 130.351 113.555 130.351 115.225C130.351 116.895 128.995 118.25 127.326 118.25Z" fill="#E8E8E8"/>
<path d="M127.326 142.45H78.9254C77.2556 142.45 75.9004 141.095 75.9004 139.425C75.9004 137.755 77.2556 136.4 78.9254 136.4H127.326C128.995 136.4 130.351 137.755 130.351 139.425C130.351 141.095 128.995 142.45 127.326 142.45Z" fill="#E8E8E8"/>
<path d="M127.326 94.05H78.9254C77.2556 94.05 75.9004 92.6948 75.9004 91.025C75.9004 89.3552 77.2556 88 78.9254 88H127.326C128.995 88 130.351 89.3552 130.351 91.025C130.351 92.6948 128.995 94.05 127.326 94.05Z" fill="#E8E8E8"/>
<path d="M127.326 69.8501H78.9254C77.2556 69.8501 75.9004 68.4949 75.9004 66.8251C75.9004 65.1553 77.2556 63.8 78.9254 63.8H127.326C128.995 63.8 130.351 65.1553 130.351 66.8251C130.351 68.4949 128.995 69.8501 127.326 69.8501Z" fill="#E8E8E8"/>
</svg>
