<svg width="24" height="25" viewBox="0 0 24 25" fill="none" xmlns="http://www.w3.org/2000/svg">
<path d="M17.496 14.4354C17.1952 14.2831 15.7305 13.5684 15.4567 13.4664C15.183 13.3689 14.9842 13.3179 14.7847 13.6186C14.5897 13.9119 14.0152 14.5831 13.8397 14.7789C13.6642 14.9746 13.4917 14.9896 13.1955 14.8569C12.8947 14.7046 11.934 14.3919 10.7933 13.3689C9.90225 12.5761 9.309 11.5996 9.13275 11.2989C8.95725 11.0019 9.11325 10.8339 9.26175 10.6854C9.39825 10.5489 9.5625 10.3419 9.71475 10.1619C9.8595 9.98186 9.906 9.86111 10.0118 9.66611C10.1093 9.45536 10.059 9.29111 9.98475 9.14261C9.9105 8.99411 9.31275 7.52186 9.063 6.93536C8.8245 6.35336 8.57475 6.42761 8.391 6.42761C8.21925 6.41186 8.01975 6.41186 7.821 6.41186C7.62225 6.41186 7.2975 6.48611 7.02375 6.77111C6.75 7.07186 5.97675 7.79036 5.97675 9.24386C5.97675 10.7011 7.047 12.1111 7.1955 12.3219C7.34775 12.5169 9.30075 15.5169 12.297 16.8061C13.0118 17.1069 13.5667 17.2869 14.0002 17.4354C14.715 17.6619 15.3675 17.6304 15.8827 17.5561C16.4527 17.4624 17.6483 16.8331 17.8988 16.1304C18.153 15.4231 18.153 14.8374 18.0788 14.7046C18.0045 14.5681 17.8095 14.4939 17.5087 14.3611L17.496 14.4354ZM12.0465 21.8026C10.2727 21.8026 8.51925 21.3219 6.98775 20.4234L6.6285 20.2089L2.8785 21.1854L3.8865 17.5366L3.64425 17.1616C2.65385 15.5869 2.12842 13.7644 2.1285 11.9041C2.1285 6.45911 6.58575 2.01761 12.0697 2.01761C14.7263 2.01761 17.2185 3.05261 19.0935 4.92761C20.0185 5.84156 20.7521 6.93055 21.2518 8.13106C21.7514 9.33156 22.0069 10.6195 22.0035 11.9199C21.996 17.3611 17.5425 21.8026 12.066 21.8026H12.0465ZM20.5192 3.50186C18.2377 1.29836 15.2378 0.0526123 12.0465 0.0526123C5.4645 0.0526123 0.105 5.38886 0.10125 11.9469C0.10125 14.0409 0.648 16.0839 1.695 17.8921L0 24.0526L6.336 22.4004C8.09123 23.3467 10.0532 23.8444 12.0472 23.8494H12.051C18.6368 23.8494 23.9963 18.5131 24 11.9506C24 8.77511 22.7618 5.78636 20.5042 3.54011L20.5192 3.50186Z" fill="white"/>
</svg>
