<svg width="40" height="40" viewBox="0 0 40 40" fill="none" xmlns="http://www.w3.org/2000/svg">
<path d="M17.4995 12.4999C17.4995 10.8749 17.8955 9.2744 18.6532 7.83686C19.4109 6.39932 20.5075 5.16809 21.8481 4.24972C23.1887 3.33136 24.7329 2.75354 26.3471 2.56626C27.9613 2.37899 29.5968 2.58791 31.112 3.17495C31.3056 3.2502 31.4774 3.37251 31.6119 3.53082C31.7464 3.68913 31.8393 3.87846 31.8822 4.08169C31.9251 4.28492 31.9167 4.49564 31.8578 4.69481C31.7988 4.89399 31.6912 5.07533 31.5445 5.22245L26.7695 9.99995L29.9995 13.2324L34.7745 8.45745C34.9215 8.31019 35.1028 8.20192 35.3021 8.14246C35.5015 8.083 35.7125 8.07422 35.9161 8.11692C36.1196 8.15962 36.3094 8.25246 36.468 8.387C36.6266 8.52155 36.7492 8.69356 36.8245 8.88745C37.4974 10.6228 37.6726 12.5115 37.3305 14.3411C36.9883 16.1706 36.1423 17.8683 34.8877 19.2432C33.6331 20.6181 32.0197 21.6156 30.2291 22.1233C28.4384 22.6311 26.5416 22.6291 24.752 22.1174L12.242 34.7999C11.7867 35.2666 11.2439 35.6391 10.6446 35.896C10.0453 36.1529 9.40126 36.2892 8.74928 36.2972C7.43254 36.3134 6.16331 35.8058 5.22079 34.8862C4.27828 33.9666 3.73969 32.7102 3.72352 31.3934C3.70734 30.0767 4.2149 28.8075 5.13454 27.8649L17.762 14.7799C17.5876 14.0325 17.4995 13.2675 17.4995 12.4999ZM27.4995 4.99995C26.3211 4.9995 25.1591 5.27678 24.1078 5.80929C23.0564 6.3418 22.1454 7.11456 21.4485 8.06492C20.7517 9.01528 20.2885 10.1165 20.0967 11.2792C19.9049 12.442 19.9898 13.6336 20.3445 14.7574C20.4124 14.9721 20.4211 15.201 20.3696 15.4202C20.3181 15.6393 20.2084 15.8405 20.052 16.0024L6.93204 29.5999C6.50139 30.0722 6.27102 30.6933 6.28952 31.3322C6.30802 31.9711 6.57396 32.5778 7.03123 33.0244C7.4885 33.4709 8.10134 33.7224 8.74048 33.7258C9.37962 33.7292 9.99509 33.4842 10.457 33.0424L23.5195 19.8099C23.6895 19.6383 23.9056 19.5195 24.1416 19.468C24.3776 19.4166 24.6235 19.4346 24.8495 19.5199C26.0403 19.9693 27.3259 20.1083 28.5852 19.9237C29.8445 19.7391 31.0361 19.2371 32.0479 18.4649C33.0596 17.6927 33.8582 16.6758 34.3685 15.5098C34.8787 14.3438 35.0838 13.0671 34.9645 11.7999L30.882 15.8849C30.6476 16.1193 30.3297 16.2509 29.9983 16.2509C29.6668 16.2509 29.349 16.1193 29.1145 15.8849L24.1145 10.8849C23.8802 10.6505 23.7486 10.3327 23.7486 10.0012C23.7486 9.66974 23.8802 9.35186 24.1145 9.11745L28.1995 5.03245C27.9668 5.01087 27.7333 5.00003 27.4995 4.99995Z" fill="#F54E37"/>
</svg>
