<svg width="40" height="40" viewBox="0 0 40 40" fill="none" xmlns="http://www.w3.org/2000/svg">
<path d="M16.4852 3.75L16.2889 4.76625L15.5464 8.47625C14.375 8.94623 13.282 9.59198 12.3052 10.3912L8.67268 9.14125L7.69518 8.82875L7.18767 9.72625L4.68768 14.0238L4.18018 14.9225L4.92268 15.585L7.73518 18.0475C7.63018 18.685 7.50017 19.325 7.50017 20C7.50017 20.675 7.63143 21.3125 7.73518 21.9538L4.92268 24.4137L4.18018 25.0788L4.68768 25.9762L7.18767 30.2738L7.69518 31.1712L8.67268 30.8587L12.3052 29.6087C13.2824 30.4081 14.3758 31.0539 15.5477 31.5238L16.2889 35.2337L16.4839 36.25H23.5164L23.7114 35.2337L24.4527 31.5238C25.6245 31.0539 26.7179 30.4081 27.6952 29.6087L31.3289 30.8587L32.3039 31.1712L32.8127 30.2738L35.3127 25.9762L35.8202 25.0788L35.0789 24.4137L32.2664 21.9538C32.3689 21.3125 32.5002 20.6725 32.5002 20C32.5002 19.325 32.3689 18.6875 32.2652 18.0463L35.0777 15.5863L35.8202 14.9225L35.3127 14.0225L32.8127 9.72625L32.3052 8.82875L31.3277 9.14125L27.6952 10.3912C26.7183 9.59198 25.6253 8.94623 24.4539 8.47625L23.7114 4.76625L23.5152 3.75H16.4852ZM18.5152 6.25H21.4852L22.1102 9.4925L22.2664 10.2338L22.9689 10.4688C24.3775 10.91 25.6713 11.6569 26.7577 12.6562L27.3052 13.1637L28.0077 12.93L31.1727 11.8363L32.6564 14.375L30.1564 16.6012L29.5702 17.07L29.7664 17.8125C29.9264 18.525 30.0002 19.2525 30.0002 20C30.0002 20.7475 29.9264 21.475 29.7652 22.1875L29.6089 22.93L30.1564 23.3988L32.6564 25.625L31.1714 28.1637L28.0089 27.07L27.3052 26.8363L26.7577 27.3438C25.6713 28.3431 24.3775 29.09 22.9689 29.5312L22.2652 29.7663L22.1089 30.5075L21.4839 33.75H18.5152L17.8902 30.5075L17.7352 29.7663L17.0314 29.5312C15.6228 29.09 14.3291 28.3431 13.2427 27.3438L12.6952 26.8363L11.9927 27.07L8.82893 28.1637L7.34392 25.625L9.84392 23.3988L10.4302 22.93L10.2352 22.1875C10.0756 21.4694 9.99679 20.7356 10.0002 20C10.0002 19.2525 10.0739 18.525 10.2352 17.8125L10.4302 17.07L9.84392 16.6012L7.34392 14.375L8.82893 11.8363L11.9914 12.93L12.6952 13.1637L13.2427 12.6562C14.3291 11.6569 15.6228 10.91 17.0314 10.4688L17.7352 10.2338L17.8902 9.4925L18.5152 6.25ZM20.0002 13.75C16.5627 13.75 13.7502 16.5625 13.7502 20C13.7502 23.4375 16.5627 26.25 20.0002 26.25C23.4377 26.25 26.2502 23.4375 26.2502 20C26.2502 16.5625 23.4377 13.75 20.0002 13.75ZM20.0002 16.25C22.0852 16.25 23.7502 17.915 23.7502 20C23.7502 22.085 22.0852 23.75 20.0002 23.75C17.9152 23.75 16.2502 22.085 16.2502 20C16.2502 17.915 17.9152 16.25 20.0002 16.25Z" fill="#F54E37"/>
</svg>
