<svg width="40" height="40" viewBox="0 0 40 40" fill="none" xmlns="http://www.w3.org/2000/svg">
<path d="M36.4062 18.9516C36.4062 5.7616 36.4431 6.60191 36.3202 6.29848C36.5834 5.64824 36.2209 4.92254 35.5563 4.73262L19.1501 0.0451172C18.9397 -0.0150391 18.7166 -0.0150391 18.5063 0.0451172L2.1 4.73262C1.5968 4.87629 1.25 5.33613 1.25 5.85941C1.25 6.38269 1.5968 6.84246 2.09992 6.98621L8.28125 8.75222C8.28125 8.80527 8.28125 8.85426 8.28125 8.89996C8.28125 9.29707 8.28125 9.42769 8.28125 9.42551C8.28125 10.0716 8.28125 11.4239 8.28125 14.0625C8.28125 18.6154 10.6303 22.57 14.0523 24.5092L13.4059 25.8021C10.2431 25.9831 7.28805 27.3306 5.01805 29.6425C2.5882 32.1171 1.25 35.3793 1.25 38.8282C1.25 39.4753 1.77469 40 2.42188 40H35.2344C35.8816 40 36.4062 39.4753 36.4062 38.8282C36.4062 35.3793 35.068 32.1172 32.6382 29.6426C30.3684 27.3309 27.4133 25.9843 24.2508 25.8031L23.6038 24.5093C27.0259 22.57 29.375 18.6155 29.375 14.0625C29.375 13.7736 29.375 8.83074 29.375 8.7523L34.0625 7.41301V18.9516C32.6985 19.4353 31.7188 20.7379 31.7188 22.2657V24.6094C31.7188 25.2566 32.2434 25.7813 32.8906 25.7813H37.5781C38.2253 25.7813 38.75 25.2566 38.75 24.6094V22.2657C38.75 20.7379 37.7702 19.4353 36.4062 18.9516ZM17.6562 37.6563H3.65656C4.21148 32.5073 8.38 28.4454 13.5259 28.1437L17.6562 34.3393V37.6563ZM15.4929 26.8689L16.2184 25.4179C17.0533 25.655 17.9277 25.7813 18.8281 25.7813C19.7286 25.7813 20.6029 25.655 21.4378 25.418L22.1633 26.8689L18.8281 31.8718L15.4929 26.8689ZM24.1303 28.1438C29.2763 28.4453 33.4448 32.5073 33.9997 37.6563H20V34.3393L24.1303 28.1438ZM18.8281 23.4375C14.8525 23.4375 11.5288 20.1884 10.7822 15.8917C13.257 16.9958 16.0233 17.5782 18.8281 17.5782C21.6328 17.5782 24.3991 16.9959 26.874 15.8919C26.1273 20.1885 22.8037 23.4375 18.8281 23.4375ZM27.0056 12.7397C26.9375 13.0783 26.7368 13.3636 26.4559 13.5016C24.1486 14.6352 21.511 15.2343 18.8281 15.2343C16.145 15.2343 13.5073 14.635 11.2002 13.5013C10.818 13.3136 10.625 12.8789 10.625 12.4832V9.42183C19.1298 11.8518 18.5937 11.7187 18.8281 11.7187C19.0625 11.7187 18.5248 11.8523 27.0312 9.42183C27.0312 12.7857 27.0405 12.5678 27.0056 12.7397ZM18.8281 9.32816L6.68758 5.85941L18.8281 2.39059L30.9687 5.85933L18.8281 9.32816ZM36.4062 23.4375H34.0625V22.2657C34.0625 21.6195 34.5882 21.0938 35.2344 21.0938C35.8805 21.0938 36.4062 21.6195 36.4062 22.2657V23.4375Z" fill="#F54E37"/>
</svg>
