<svg width="80" height="88" viewBox="0 0 80 88" fill="none" xmlns="http://www.w3.org/2000/svg">
<g clip-path="url(#clip0)">
<path d="M67.9289 39.2937L67.2386 39.293V34.4549C67.2386 30.6955 68.5926 27.1016 70.3923 24.8853C72.7948 21.9288 74.118 18.1148 74.118 14.1458C74.118 8.64308 71.5184 3.40072 67.3337 0.464577C65.549 -0.787533 63.2061 0.640061 63.2061 2.96725V13.1235C63.2061 15.3945 61.5266 17.242 59.462 17.242C57.3975 17.242 55.7178 15.3945 55.7178 13.1235V2.96742C55.7178 0.634733 53.3701 -0.784611 51.5901 0.464749C47.4055 3.40072 44.8059 8.64308 44.8059 14.146C44.8059 18.1149 46.129 21.929 48.5311 24.8846C50.0745 26.7884 51.3609 29.8451 51.6284 33.1126C48.3859 33.4361 45.5381 35.0388 43.6883 37.6226L41.6883 40.4164C40.6872 41.815 39.1847 42.6171 37.5662 42.6171H35.7903C35.7236 39.907 33.7 37.7245 31.2206 37.7245C29.1069 37.7245 27.3242 39.3107 26.8026 41.4576H9.65232C7.57342 41.4576 5.88232 43.318 5.88232 45.6046V67.2863C5.88232 69.5731 7.57357 71.4333 9.65232 71.4333H27.1809C27.9498 73.0242 29.4719 74.1103 31.2209 74.1103C33.4784 74.1103 35.358 72.3009 35.7269 69.9315H40.1976C40.8655 69.9315 41.5187 70.0693 42.1392 70.3412C45.6533 71.7478 47.3919 73.0367 51.6856 73.8702V79.4463C51.6856 84.1631 55.1742 88.0005 59.4622 88.0005C63.7501 88.0005 67.2386 84.1631 67.2386 79.4463V71.9878C67.8039 71.0485 68.084 69.9411 68.0347 68.7866C67.9901 67.7452 67.6562 66.7559 67.1055 65.9304C68.8987 65.1905 70.1773 63.3117 70.18 61.1165C70.1817 59.5561 69.6583 58.1692 68.7903 57.1713C70.0375 56.2322 70.8798 54.6954 70.9323 52.9626C70.9711 51.6873 70.5914 50.4874 69.9269 49.533C71.6214 48.6932 72.8036 46.82 72.8036 44.649C72.8036 41.6958 70.6164 39.2937 67.9289 39.2937ZM33.45 69.0797C33.45 70.4318 32.45 71.5318 31.2208 71.5318C29.9915 71.5318 28.9917 70.4318 28.9917 69.0797V65.9373C28.9917 65.2254 28.467 64.6482 27.8198 64.6482C27.1726 64.6482 26.648 65.2254 26.648 65.9373V68.855H9.65232C8.86592 68.855 8.22607 68.1512 8.22607 67.2861V45.6045C8.22607 44.7394 8.86592 44.0356 9.65232 44.0356H26.648V59.907C26.648 60.6189 27.1726 61.1961 27.8198 61.1961C28.467 61.1961 28.9917 60.6189 28.9917 59.907V42.7591C28.9917 42.757 28.9917 42.7549 28.9917 42.7529C28.9925 41.4016 29.9922 40.3025 31.2208 40.3025C32.45 40.3025 33.4498 41.4025 33.4498 42.7546V69.0797H33.45ZM50.2792 23.167C48.2612 20.6838 47.1498 17.48 47.1498 14.1458C47.1498 9.51483 49.3342 5.10537 52.8506 2.63828C53.0772 2.47912 53.3742 2.66922 53.3742 2.96742V13.1237C53.3742 16.8163 56.1051 19.8203 59.462 19.8203C62.8189 19.8203 65.5498 16.8163 65.5498 13.1237V2.96742C65.5498 2.66973 65.8462 2.47878 66.0734 2.63828C69.5898 5.10555 71.7742 9.515 71.7742 14.1458C71.7742 17.48 70.6628 20.6838 68.6445 23.1674C66.4761 25.8392 64.8947 30.0384 64.8947 34.4549V39.291L62.8412 39.2893V36.6293C62.8412 35.9174 62.3166 35.3403 61.6694 35.3403C61.0222 35.3403 60.4975 35.9174 60.4975 36.6293V39.2872L58.4262 39.2853V29.6811C58.4262 29.0529 58.8909 28.5419 59.4619 28.5419C60.033 28.5419 60.4975 29.0529 60.4975 29.6811V30.5989C60.4975 31.3108 61.0222 31.888 61.6694 31.888C62.3166 31.888 62.8412 31.3108 62.8412 30.5989V29.6811C62.8412 27.6313 61.3253 25.9638 59.4619 25.9638C57.5984 25.9638 56.0825 27.6313 56.0825 29.6811V39.2832L55.2226 39.2826C54.4891 39.2826 54.0278 38.6535 54.028 37.874C54.0292 34.8172 54.5531 28.4348 50.2792 23.167ZM64.8948 79.4458C64.8948 82.741 62.4576 85.4219 59.462 85.4219C56.4664 85.4219 54.0292 82.741 54.0292 79.4458V74.2132C54.7112 74.2811 55.3959 74.3222 56.0826 74.3349V79.068C56.0826 81.1178 57.5987 82.7853 59.462 82.7853C61.3255 82.7853 62.8414 81.1178 62.8414 79.068V74.3951C62.9772 74.3848 63.865 74.4822 64.8948 74.0549V79.4458ZM58.4264 79.068V74.3566L60.4976 74.3746V79.068C60.4976 79.6962 60.0331 80.2072 59.462 80.2072C58.8911 80.2072 58.4264 79.6962 58.4264 79.068ZM67.928 47.4253H66.4853C65.8381 47.4253 65.3134 48.0025 65.3134 48.7144V48.7408C65.3134 49.3969 65.7614 49.9483 66.354 50.0218C67.6516 50.1827 68.6336 51.4364 68.5898 52.8763C68.545 54.3543 67.3698 55.5569 65.9695 55.5569L65.4676 55.5572C64.8206 55.5576 64.2964 56.1392 64.2964 56.8508C64.2964 57.5432 64.7937 58.112 65.4228 58.1388C66.8231 58.1986 67.8381 59.4493 67.8362 61.1129C67.8345 62.5331 66.7466 63.6885 65.4111 63.6885H64.6228C63.89 63.6885 63.2937 64.3442 63.2937 65.1503C63.2937 65.7401 63.614 66.2692 64.1098 66.4978C65.0415 66.9274 65.6484 67.8509 65.6936 68.9074C65.7617 70.5 64.6081 71.82 63.1815 71.82C56.8537 71.7149 55.6184 71.8917 52.9983 71.4888C52.9897 71.4876 52.9812 71.4859 52.9725 71.4851C48.4012 70.7771 46.2325 69.2146 43.0065 67.946C42.1089 67.5527 41.1639 67.3532 40.1976 67.3532H35.7937V45.1951H37.5665C39.908 45.1951 42.0815 44.0346 43.53 42.0112L45.5298 39.2176C46.9481 37.2366 49.1494 35.9893 51.6845 35.6959V37.874C51.6839 40.0809 53.1944 41.861 55.222 41.861C56.7461 41.8624 64.5539 41.8693 66.0659 41.8706H66.0669H66.0678L67.9281 41.8724C69.3242 41.8724 70.46 43.1179 70.46 44.6492C70.4598 46.1797 69.3241 47.4253 67.928 47.4253Z" fill="#F54E37"/>
</g>
<defs>
<clipPath id="clip0">
<rect width="80" height="88" fill="white"/>
</clipPath>
</defs>
</svg>
