<svg width="80" height="80" viewBox="0 0 80 80" fill="none" xmlns="http://www.w3.org/2000/svg">
<g clip-path="url(#clip0)">
<path d="M79.3416 10.0969C79.2941 10.0522 69.8971 1.09046 69.8971 1.09046C69.5378 0.745776 69.1663 0.389526 68.4725 0.389526H30.6413C29.5363 0.389526 28.6372 1.28843 28.6372 2.39343V8.54702L15.3036 10.8326C14.2349 11.0201 13.5161 12.043 13.7013 13.1106L14.378 17.0562C10.0441 18.5147 5.59457 20.0181 1.2991 21.5611C0.284098 21.9322 -0.248558 23.0608 0.11363 24.0819L8.65816 47.8344C8.83004 48.3123 9.2805 48.61 9.76097 48.61C9.89254 48.61 10.0266 48.5876 10.1575 48.5404C10.7666 48.3214 11.0827 47.6501 10.8636 47.0411L2.4455 23.6398C6.49238 22.1909 10.6833 20.7728 14.7791 19.3942L18.8058 42.87L23.4393 69.9062C23.6066 70.8606 24.4455 71.5397 25.3924 71.5397C25.4996 71.5397 25.6083 71.5309 25.7174 71.5129L38.2668 69.3593L48.073 67.6784L33.3244 72.9795L21.6939 77.1612L12.6614 52.0379C12.4425 51.4289 11.7714 51.1128 11.1622 51.3317C10.5532 51.5506 10.2371 52.2219 10.456 52.8309L19.6166 78.3112C19.9096 79.1125 20.6686 79.6106 21.471 79.6106C21.6927 79.6106 21.9178 79.5725 22.1372 79.4923L34.1171 75.1851L61.3193 65.4079L66.516 64.5172H77.9958C79.1008 64.5172 79.9999 63.6162 79.9999 62.5087V11.4173C80 10.7159 79.6194 10.3581 79.3416 10.0969ZM76.2368 10.3744H70.3727L70.2274 10.375C69.9466 10.3769 69.2893 10.3817 69.1225 10.2161C69.0841 10.1778 69.0391 10.05 69.0391 9.81265L69.0255 3.49781L76.2368 10.3744ZM77.6563 62.1731H30.981V39.3345C30.981 38.6873 30.4563 38.1626 29.8091 38.1626C29.1619 38.1626 28.6372 38.6873 28.6372 39.3345V62.5084C28.6372 63.6158 29.5363 64.5168 30.6413 64.5168H52.6432L37.8705 67.049L25.6858 69.1401L21.1158 42.4737L16.0738 13.0784L28.6371 10.9248V33.897C28.6371 34.5442 29.1618 35.0689 29.8089 35.0689C30.4561 35.0689 30.9808 34.5442 30.9808 33.897V2.73312H66.68L66.6954 9.8153C66.6954 10.6737 66.9564 11.3681 67.4713 11.8794C68.2624 12.6648 69.3807 12.7195 70.0749 12.7195C70.1346 12.7195 70.1911 12.7191 70.2441 12.7187L77.6563 12.7183V62.1731Z" fill="#F54E37"/>
<path d="M36.6299 18.5858C36.6299 19.233 37.1546 19.7577 37.8018 19.7577H71.3074C71.9546 19.7577 72.4793 19.233 72.4793 18.5858C72.4793 17.9386 71.9546 17.4139 71.3074 17.4139H37.8018C37.1546 17.4139 36.6299 17.9386 36.6299 18.5858Z" fill="#F54E37"/>
<path d="M71.3074 25.7392H37.8018C37.1546 25.7392 36.6299 26.2639 36.6299 26.9111C36.6299 27.5583 37.1546 28.0829 37.8018 28.0829H71.3074C71.9546 28.0829 72.4793 27.5583 72.4793 26.9111C72.4793 26.2639 71.9546 25.7392 71.3074 25.7392Z" fill="#F54E37"/>
<path d="M71.3074 34.0645H37.8018C37.1546 34.0645 36.6299 34.5892 36.6299 35.2364C36.6299 35.8836 37.1546 36.4083 37.8018 36.4083H71.3074C71.9546 36.4083 72.4793 35.8836 72.4793 35.2364C72.4793 34.5892 71.9546 34.0645 71.3074 34.0645Z" fill="#F54E37"/>
<path d="M71.3074 42.3899H37.8018C37.1546 42.3899 36.6299 42.9145 36.6299 43.5617C36.6299 44.2089 37.1546 44.7336 37.8018 44.7336H71.3074C71.9546 44.7336 72.4793 44.2089 72.4793 43.5617C72.4793 42.9145 71.9546 42.3899 71.3074 42.3899Z" fill="#F54E37"/>
<path d="M71.3074 50.7153H37.8018C37.1546 50.7153 36.6299 51.24 36.6299 51.8872C36.6299 52.5344 37.1546 53.0591 37.8018 53.0591H71.3074C71.9546 53.0591 72.4793 52.5344 72.4793 51.8872C72.4793 51.24 71.9546 50.7153 71.3074 50.7153Z" fill="#F54E37"/>
</g>
<defs>
<clipPath id="clip0">
<rect width="80" height="80" fill="white"/>
</clipPath>
</defs>
</svg>
