<svg width="80" height="80" viewBox="0 0 80 80" fill="none" xmlns="http://www.w3.org/2000/svg">
<path d="M20.5971 17.084C19.0968 15.5333 17.0295 14.6605 14.8718 14.6666H14.4612C12.3057 14.6623 10.2413 15.535 8.74251 17.084C7.33252 18.5336 6.58385 20.5011 6.67318 22.5213L6.82918 26.1106C7.06552 30.2179 10.5023 33.4059 14.6158 33.3333H14.7172C18.8307 33.4059 22.2675 30.2179 22.5038 26.1106L22.6665 22.5213C22.7558 20.5011 22.0071 18.5336 20.5971 17.084ZM19.8398 25.9999C19.6591 28.6771 17.3995 30.7356 14.7172 30.6666H14.6158C11.9335 30.7356 9.67384 28.6771 9.49318 25.9999L9.44651 24.9106C11.9882 24.7974 14.4287 23.8816 16.4172 22.2946C17.2372 23.5073 18.475 24.3754 19.8945 24.7333L19.8398 25.9999ZM18.1678 19.6973C18.0937 19.1286 17.664 18.6711 17.1012 18.5613C16.5403 18.4453 15.9687 18.7036 15.6852 19.2013C15.6678 19.2293 14.0132 21.8466 9.34384 22.2466C9.33234 21.0113 9.80751 19.8211 10.6665 18.9333C11.662 17.9075 13.0317 17.33 14.4612 17.3333H14.8718C16.3013 17.33 17.671 17.9075 18.6665 18.9333C19.4443 19.7438 19.906 20.8063 19.9678 21.9279C19.0451 21.5156 18.3758 20.6863 18.1678 19.6973Z" fill="#F54E37"/>
<path d="M72.5972 49.0839C71.0969 47.5332 69.0295 46.6604 66.8719 46.6666H66.4612C64.3057 46.6622 62.2414 47.5349 60.7425 49.0839C59.3325 50.5336 58.5837 52.5011 58.6732 54.5212L58.8292 58.1105C59.0655 62.2179 62.5024 65.4059 66.6159 65.3332H66.7172C70.8307 65.4059 74.2675 62.2179 74.5039 58.1105L74.6665 54.5212C74.7559 52.5011 74.0072 50.5336 72.5972 49.0839ZM71.9999 54.4132L71.8399 57.9999C71.6592 60.677 69.3995 62.7355 66.7172 62.6665H66.6159C63.9335 62.7355 61.6739 60.677 61.4932 57.9999L61.3332 54.4065C61.2817 53.1147 61.7639 51.8587 62.6665 50.9332C63.662 49.9074 65.0317 49.3299 66.4612 49.3332H66.8719C68.3014 49.3299 69.671 49.9074 70.6665 50.9332C71.5709 51.8604 72.0532 53.1192 71.9999 54.4132Z" fill="#F54E37"/>
<path d="M41.1889 19.3906C39.7582 18.0068 37.4879 18.0068 36.0572 19.3906L21.1719 34.2759C20.9216 34.5263 20.582 34.6669 20.228 34.6666H6.66665C2.98666 34.6709 0.00433332 37.6532 0 41.3332V59.9999C0 62.209 1.79083 63.9998 3.99999 63.9998C4.45416 63.9998 4.90499 63.9227 5.33332 63.7718V65.3332C5.33332 66.0695 5.93032 66.6665 6.66665 66.6665H22.6666C23.4029 66.6665 23.9999 66.0695 23.9999 65.3332V43.7146C23.9998 43.3772 24.1274 43.0522 24.3573 42.8052L41.2759 24.6093C42.6931 23.1443 42.6541 20.8078 41.1889 19.3906ZM39.3717 22.7448C39.3669 22.7494 39.3621 22.7541 39.3572 22.7586L22.3999 40.9906C21.7133 41.7314 21.3321 42.7044 21.3333 43.7146V63.9998H7.99998V43.9999C7.99998 43.2636 7.40298 42.6666 6.66665 42.6666C5.93032 42.6666 5.33332 43.2636 5.33332 43.9999V59.9999C5.33332 60.7362 4.73632 61.3332 3.99999 61.3332C3.26366 61.3332 2.66666 60.7362 2.66666 59.9999V41.3332C2.66666 39.1241 4.45749 37.3332 6.66665 37.3332H20.228C21.2898 37.3366 22.3088 36.9146 23.0573 36.1613L37.9426 21.276C38.3484 20.891 38.9847 20.891 39.3906 21.276C39.7909 21.6868 39.7826 22.3444 39.3717 22.7448Z" fill="#F54E37"/>
<path d="M14.6668 38.6666C13.9305 38.6666 13.3335 39.2636 13.3335 39.9999V55.9999C13.3335 56.7362 13.9305 57.3332 14.6668 57.3332C15.4032 57.3332 16.0002 56.7362 16.0002 55.9999V39.9999C16.0002 39.2636 15.4032 38.6666 14.6668 38.6666Z" fill="#F54E37"/>
<path d="M43.257 49.0839C41.7582 47.5349 39.6939 46.6622 37.5384 46.6666H37.1277C34.9722 46.6622 32.9079 47.5349 31.409 49.0839C29.999 50.5336 29.2502 52.5011 29.3397 54.5212L29.4957 58.1105C29.732 62.2179 33.1689 65.4059 37.2824 65.3332H37.3837C41.4972 65.4059 44.934 62.2179 45.1703 58.1105L45.3263 54.5212C45.4158 52.5011 44.667 50.5336 43.257 49.0839ZM42.6664 54.4132L42.5063 57.9999C42.3257 60.677 40.066 62.7355 37.3837 62.6665H37.2824C34.6 62.7355 32.3404 60.677 32.1597 57.9999L31.9997 54.4066C31.9482 53.1147 32.4304 51.8587 33.333 50.9332C34.3285 49.9074 35.6982 49.3299 37.1277 49.3332H37.5384C38.9679 49.3299 40.3375 49.9074 41.333 50.9332C42.2374 51.8604 42.7197 53.1192 42.6664 54.4132Z" fill="#F54E37"/>
<path d="M44.2226 66.6665H30.444C26.8867 66.6702 24.0037 69.5532 24 73.1105V78.6665C24 79.4028 24.597 79.9998 25.3333 79.9998C26.0697 79.9998 26.6667 79.4028 26.6667 78.6665V73.1105C26.6688 71.0252 28.3588 69.3353 30.444 69.3332H44.2226C46.308 69.3353 47.9978 71.0252 48 73.1105V78.6665C48 79.4028 48.597 79.9998 49.3333 79.9998C50.0696 79.9998 50.6666 79.4028 50.6666 78.6665V73.1105C50.6629 69.5532 47.78 66.6702 44.2226 66.6665Z" fill="#F54E37"/>
<path d="M73.5556 66.6665H59.777C56.2197 66.6702 53.3367 69.5532 53.333 73.1105V78.6665C53.333 79.4028 53.93 79.9998 54.6663 79.9998C55.4027 79.9998 55.9997 79.4028 55.9997 78.6665V73.1105C56.0018 71.0252 57.6918 69.3353 59.777 69.3332H73.5556C75.641 69.3353 77.3308 71.0252 77.333 73.1105V78.6665C77.333 79.4028 77.93 79.9998 78.6663 79.9998C79.4026 79.9998 79.9996 79.4028 79.9996 78.6665V73.1105C79.996 69.5532 77.113 66.6702 73.5556 66.6665Z" fill="#F54E37"/>
<path d="M76.0663 0H29.2664C27.0769 0.0213333 25.3176 1.8105 25.3331 3.99999V23.9999C25.3331 24.7363 25.9301 25.3333 26.6664 25.3333C27.4028 25.3333 27.9998 24.7363 27.9998 23.9999V7.99998H77.333V39.9999C77.3502 40.7174 76.7838 41.3136 76.0663 41.3332H30.5664C29.8301 41.3332 29.2331 41.9302 29.2331 42.6666C29.2331 43.4029 29.8301 43.9999 30.5664 43.9999H76.0663C78.2558 43.9786 80.0152 42.1894 79.9997 39.9999V3.99999C80.0152 1.8105 78.2558 0.0213333 76.0663 0ZM77.333 5.33332H27.9998V3.99999C27.9826 3.28249 28.5489 2.68633 29.2664 2.66666H76.0663C76.7838 2.68633 77.3502 3.28249 77.333 3.99999V5.33332Z" fill="#F54E37"/>
<path d="M73.3333 17C72.597 17 72 17.597 72 18.3333V37.3333C72 38.0696 72.597 38.6666 73.3333 38.6666C74.0697 38.6666 74.6666 38.0696 74.6666 37.3333V18.3333C74.6666 17.597 74.0697 17 73.3333 17Z" fill="#F54E37"/>
<path d="M67.9998 25.3333C67.2635 25.3333 66.6665 25.9303 66.6665 26.6666V37.3333C66.6665 38.0696 67.2635 38.6666 67.9998 38.6666C68.7362 38.6666 69.3332 38.0696 69.3332 37.3333V26.6666C69.3332 25.9303 68.7362 25.3333 67.9998 25.3333Z" fill="#F54E37"/>
<path d="M62.6663 22.6666C61.93 22.6666 61.333 23.2636 61.333 24V37.3333C61.333 38.0696 61.93 38.6666 62.6663 38.6666C63.4027 38.6666 63.9997 38.0696 63.9997 37.3333V24C63.9997 23.2636 63.4027 22.6666 62.6663 22.6666Z" fill="#F54E37"/>
<path d="M57.3333 30.6666C56.597 30.6666 56 31.2636 56 31.9999V37.3332C56 38.0696 56.597 38.6666 57.3333 38.6666C58.0697 38.6666 58.6667 38.0696 58.6667 37.3332V31.9999C58.6667 31.2636 58.0697 30.6666 57.3333 30.6666Z" fill="#F54E37"/>
<path d="M47.9998 10.6667H31.9998C31.2635 10.6667 30.6665 11.2637 30.6665 12C30.6665 12.7363 31.2635 13.3333 31.9998 13.3333H47.9998C48.7361 13.3333 49.3331 12.7363 49.3331 12C49.3331 11.2637 48.7361 10.6667 47.9998 10.6667Z" fill="#F54E37"/>
<path d="M56 10.6667H53.3333C52.597 10.6667 52 11.2637 52 12C52 12.7363 52.597 13.3333 53.3333 13.3333H56C56.7363 13.3333 57.3333 12.7363 57.3333 12C57.3333 11.2637 56.7363 10.6667 56 10.6667Z" fill="#F54E37"/>
</svg>
