<svg width="80" height="80" viewBox="0 0 80 80" fill="none" xmlns="http://www.w3.org/2000/svg">
<g clip-path="url(#clip0)">
<path d="M38.0983 62.6497C38.1754 62.3901 38.2598 62.1375 38.352 61.9001L38.0983 62.6497ZM38.0983 62.6497C37.9793 62.5448 37.8437 62.4569 37.6944 62.3908C37.3968 62.259 37.0648 62.2232 36.7438 62.2915L36.7438 62.2915C36.4238 62.3595 36.1396 62.5255 35.923 62.7568L38.0983 62.6497ZM41.4484 60.2956C41.6207 60.4458 41.7568 60.6295 41.8512 60.8318C42.1184 61.4039 42.3 61.712 42.4644 61.9427C42.6354 62.1821 42.8177 62.3827 43.1682 62.757L43.1688 62.7576C43.7563 63.386 44.1849 64.154 44.4224 64.9913C44.6598 65.8285 44.7003 66.7139 44.5409 67.5705C44.3816 68.4273 44.0262 69.2341 43.5011 69.9184C42.9758 70.6029 42.2955 71.1451 41.5161 71.4903C40.7362 71.8358 39.8852 71.9715 39.0399 71.8825C38.1948 71.7935 37.3883 71.4834 36.6915 70.9855C35.9951 70.4879 35.4309 69.8193 35.0433 69.0438C34.6558 68.2686 34.4547 67.4071 34.4546 66.5349M41.4484 60.2956L35.9227 62.7571C35.4527 63.2587 35.0833 63.851 34.8325 64.4985C34.5818 65.1459 34.4539 65.8378 34.4546 66.5349M41.4484 60.2956C41.2757 60.1452 41.0707 60.032 40.8454 59.9681M41.4484 60.2956L40.8454 59.9681M34.4546 66.5349C34.4546 66.5348 34.4546 66.5346 34.4546 66.5344L35.4546 66.5344L34.4546 66.5355C34.4546 66.5353 34.4546 66.5351 34.4546 66.5349ZM40.8454 59.9681C40.62 59.904 40.383 59.8918 40.1516 59.9329M40.8454 59.9681L40.1516 59.9329M40.1516 59.9329C39.9207 59.974 39.7046 60.0664 39.5172 60.2001L40.1516 59.9329ZM40.2534 68.0832C40.2544 67.9853 40.2661 67.8288 40.2885 67.6396C40.2953 67.6868 40.2988 67.7348 40.2987 67.7833L40.2987 67.7855C40.2989 67.8879 40.2832 67.9886 40.2534 68.0832ZM40.785 66.4587C40.9481 66.6326 41.0775 66.8392 41.1656 67.0667C41.2538 67.2942 41.299 67.5381 41.2987 67.7844C41.299 68.0306 41.2538 68.2745 41.1656 68.502C41.0775 68.7295 40.9475 68.9355 40.7845 69.1094C40.5393 69.3713 40.227 69.5496 39.8871 69.6218C39.5472 69.694 39.1949 69.6569 38.8748 69.5151C38.6119 69.3987 38.3803 69.216 38.1992 68.9838L40.785 66.4587ZM39.5167 60.2005C39.1595 60.4553 38.9183 60.7878 38.7623 61.0458C38.5974 61.3177 38.4628 61.6141 38.3521 61.8997L39.5167 60.2005Z" stroke="#F54E37" stroke-width="2"/>
<path d="M40.1686 34.5611L55.4714 49.8639C55.7903 50.1828 55.8878 50.6434 55.7593 51.0464C55.5112 52.0917 55.4626 53.1725 55.6087 54.2311C55.755 55.2984 56.1003 56.3437 56.6451 57.3048C56.964 57.8673 56.7648 58.5804 56.2021 58.8994C55.644 59.2183 54.931 59.0189 54.6121 58.4608C53.9167 57.2339 53.4782 55.9008 53.2923 54.5411C53.1328 53.3895 53.1595 52.2201 53.3676 51.0729L38.5121 36.2175L36.2178 38.5119L38.0559 40.3454C39.017 41.3111 39.4998 42.5733 39.4998 43.84C39.4998 45.1069 39.017 46.3736 38.0559 47.3347C37.0948 48.2958 35.8281 48.7786 34.5612 48.7786C33.6709 48.7786 32.7807 48.5394 31.9967 48.0611L17.2254 62.8325C16.4193 63.6431 15.3564 64.0461 14.2932 64.0461C13.2303 64.0461 12.1673 63.6429 11.3612 62.8325L6.03293 57.504C5.22246 56.6979 4.81934 55.635 4.81934 54.572C4.81934 53.509 5.22246 52.4461 6.03293 51.6398L20.7998 36.8686C20.3259 36.0847 20.0867 35.1944 20.0867 34.304C20.0867 33.0373 20.5695 31.7706 21.5306 30.8095C22.4917 29.8484 23.7584 29.3656 25.0251 29.3656C26.2875 29.3656 27.5543 29.8484 28.5153 30.8095L30.3534 32.6476L32.6478 30.3533L28.2806 25.9906C26.097 26.655 23.7717 26.7436 21.5526 26.2519C19.1609 25.7247 16.8843 24.5333 15.024 22.6731C13.0309 20.68 11.804 18.204 11.3434 15.6173C10.8739 12.9908 11.2017 10.2492 12.3265 7.7778C12.3842 7.62717 12.4728 7.48545 12.5967 7.36577C13.0529 6.90967 13.7925 6.90967 14.2532 7.36577L20.2459 13.3584L23.5856 12.4461L24.4936 9.10639L18.5007 3.11811C17.9339 2.5467 18.0976 1.5678 18.8418 1.22686C20.8793 0.283424 23.1028 -0.11517 25.2997 0.0310799C27.4745 0.172799 29.627 0.854986 31.5404 2.0728C32.0807 2.41842 32.2446 3.1403 31.8948 3.68514C31.5493 4.22545 30.8273 4.38483 30.287 4.03952C28.719 3.04295 26.9473 2.48499 25.1492 2.3653C23.9089 2.28108 22.6554 2.40952 21.4509 2.75061L26.6286 7.92827C26.9653 8.26483 27.0537 8.75202 26.8989 9.16842L25.6587 13.7039C25.5479 14.1247 25.2157 14.4259 24.8261 14.5278L20.202 15.7901C19.7812 15.9053 19.3561 15.7769 19.0681 15.489L19.0637 15.4934L13.8859 10.3114C13.4386 11.9059 13.3589 13.5847 13.6467 15.2145C14.0276 17.3361 15.0375 19.3736 16.6806 21.0169C18.2131 22.5494 20.0867 23.5326 22.0532 23.9665C24.0906 24.4139 26.23 24.2765 28.1965 23.5501C28.6395 23.3908 29.1134 23.5103 29.4278 23.8247V23.8203L34.3043 28.6969L36.24 26.7612L30.9559 21.4728C30.4953 21.0167 30.4953 20.2769 30.9559 19.8162C31.412 19.3601 32.1517 19.3601 32.6125 19.8162L37.8965 25.1047L39.832 23.1647L34.9598 18.2925C34.61 17.9426 34.5257 17.4289 34.7073 17.0036C35.2787 15.4269 35.4736 13.7526 35.2964 12.1094C35.1192 10.4615 34.5745 8.85389 33.6576 7.41436C33.3121 6.86952 33.4717 6.14764 34.0164 5.80217C34.5611 5.4567 35.2831 5.61608 35.6286 6.16092C36.7446 7.91483 37.409 9.86811 37.6217 11.8612C37.8121 13.6328 37.6482 15.4311 37.1256 17.1451L41.4882 21.5078L53.2123 9.78827L54.5234 5.85514C54.6076 5.59827 54.7714 5.38124 54.9973 5.23514L62.8546 0.185924C63.3153 -0.110795 63.9265 -0.0487639 64.3162 0.340924L68.5239 4.54858C68.9357 4.96499 68.9756 5.61608 68.639 6.07217L63.6296 13.8631C63.4614 14.1244 63.2132 14.2928 62.9387 14.3636L59.0765 15.6525L54.7714 19.9576C54.3151 20.4137 53.5711 20.4137 53.1148 19.9576C52.6586 19.497 52.6586 18.7572 53.1148 18.3011L56.7776 14.6337L54.2268 12.0876C46.8214 19.4933 39.4157 26.8987 32.0101 34.3042L34.5614 36.8555L49.3637 22.0531C49.82 21.5969 50.5597 21.5969 51.0203 22.0531C51.4765 22.5094 51.4765 23.2534 51.0203 23.7097L47.3529 27.377L62.2084 42.2281C63.8471 41.9314 65.5346 42.0065 67.1425 42.4584C68.9096 42.95 70.5796 43.889 71.9614 45.2709C74.1096 47.419 75.1814 50.2315 75.1814 53.0486C75.1814 55.8611 74.1096 58.6779 71.9614 60.8217C70.1942 62.589 67.9795 63.6253 65.6764 63.9398C63.3289 64.2587 60.8928 63.8203 58.7712 62.62C58.2087 62.3011 58.0139 61.5881 58.3328 61.0254C58.6471 60.4628 59.3646 60.268 59.9228 60.5869C61.5926 61.5303 63.5104 61.8759 65.3618 61.6233C67.1689 61.3797 68.9095 60.5603 70.3048 59.1651C71.9923 57.4776 72.8382 55.2631 72.8382 53.0484C72.8382 50.8337 71.9923 48.6148 70.3048 46.9273C69.2064 45.8334 67.8997 45.0936 66.5179 44.7083C65.0784 44.3051 63.5592 44.2831 62.1065 44.6419C61.7125 44.7394 61.2915 44.6242 60.9993 44.3362L45.6965 29.0334L43.7609 30.969L59.0639 46.2719C59.52 46.7279 59.52 47.4722 59.0639 47.9284C58.6076 48.3845 57.8636 48.3845 57.4073 47.9284L42.1045 32.6256L40.1686 34.5611ZM35.7351 57.5353C35.2789 57.9959 34.5346 57.9959 34.0786 57.5353C33.6179 57.0792 33.6179 56.3394 34.0786 55.8787L38.0293 51.9278C38.5742 51.3829 39.2871 51.1128 40.0003 51.1128C40.7134 51.1128 41.4264 51.3829 41.9712 51.9278L53.6289 63.5854C54.1736 64.1303 54.4439 64.8433 54.4439 65.5564C54.4439 66.2695 54.1736 66.9826 53.6289 67.5273L41.9712 79.1848C41.4265 79.7298 40.7134 80 40.0003 80C39.2871 80 38.5742 79.7298 38.0293 79.185L26.3717 67.5275C25.827 66.9826 25.5567 66.2695 25.5567 65.5565C25.5567 64.8434 25.8268 64.1304 26.3717 63.5856L30.3226 59.6347C30.7832 59.174 31.5229 59.174 31.9792 59.6347C32.4398 60.0909 32.4398 60.8351 31.9792 61.2912L28.0284 65.2422C27.9442 65.3264 27.9 65.4414 27.9 65.5567C27.9 65.6719 27.9442 65.787 28.0284 65.8712L39.6859 77.5287C39.7701 77.6129 39.8853 77.6572 40.0004 77.6572C40.1156 77.6572 40.2307 77.6129 40.315 77.5287L51.9725 65.8712C52.0567 65.787 52.1009 65.6719 52.1009 65.5567C52.1009 65.4415 52.0567 65.3264 51.9725 65.2422L40.315 53.5847C40.2307 53.5004 40.1156 53.4562 40.0004 53.4562C39.8853 53.4562 39.7701 53.5004 39.6859 53.5847L35.7351 57.5353ZM22.5184 44.6864C22.979 44.2301 23.7187 44.2301 24.1793 44.6864C24.6354 45.147 24.6354 45.8867 24.1793 46.3429L14.1339 56.3883C13.6732 56.8489 12.9336 56.8489 12.4729 56.3883C12.0168 55.9322 12.0168 55.1925 12.4729 54.7317L22.5184 44.6864ZM30.2384 46.5067L22.3589 38.6272L7.68934 53.2967C7.33949 53.6465 7.1623 54.1073 7.1623 54.5723C7.1623 55.0329 7.33949 55.4979 7.68934 55.8479L13.0178 61.1764C13.3676 61.5262 13.8282 61.7034 14.2934 61.7034C14.7586 61.7034 15.2192 61.5262 15.569 61.1764L30.2384 46.5067ZM32.7231 45.6784H32.7275C33.2279 46.1833 33.8967 46.4314 34.5611 46.4314C35.2298 46.4314 35.8943 46.1834 36.3993 45.6784C36.9042 45.1736 37.1523 44.509 37.1523 43.8401C37.1523 43.1758 36.9043 42.507 36.3993 42.0065C33.219 38.8264 30.039 35.6462 26.8587 32.4661C26.3539 31.9612 25.6895 31.7087 25.0251 31.7087C24.3564 31.7087 23.692 31.9612 23.187 32.4661C22.6821 32.9709 22.4296 33.6353 22.4296 34.3042C22.4296 34.9686 22.6821 35.6373 23.187 36.138L32.7231 45.6784ZM58.7578 13.3011L61.8804 12.2559L66.1989 5.54124L63.3243 2.6667L56.6053 6.98514L55.5643 10.1076L58.7578 13.3011ZM62.3101 54.922C62.8282 55.4359 63.5059 55.6972 64.1836 55.6972C64.8612 55.6972 65.5389 55.4403 66.0572 54.922C66.5753 54.4039 66.8321 53.7262 66.8321 53.0486C66.8321 52.3708 66.5753 51.6887 66.0572 51.175C65.539 50.6568 64.8614 50.3955 64.1836 50.3955C63.5059 50.3955 62.8282 50.6567 62.3101 51.175C61.7918 51.6887 61.535 52.3708 61.535 53.0486C61.535 53.7262 61.7918 54.4039 62.3101 54.922ZM64.1836 58.0401C62.9036 58.0401 61.6279 57.5529 60.6536 56.5784C59.679 55.604 59.1875 54.324 59.1875 53.0484C59.1875 51.7683 59.679 50.4928 60.6536 49.5139C61.6279 48.5395 62.9036 48.0523 64.1836 48.0523C65.4592 48.0523 66.7392 48.5395 67.7135 49.5139C68.6879 50.4928 69.1753 51.7683 69.1753 53.0484C69.1753 54.324 68.6879 55.604 67.7135 56.5784C66.7392 57.5529 65.4592 58.0401 64.1836 58.0401Z" fill="#F54E37"/>
</g>
<defs>
<clipPath id="clip0">
<rect width="80" height="80" fill="white"/>
</clipPath>
</defs>
</svg>
