<svg width="80" height="80" viewBox="0 0 80 80" fill="none" xmlns="http://www.w3.org/2000/svg">
<path d="M77.7775 70.0312L55.1425 64.8862C52.85 64.3662 51.25 62.3612 51.25 60.0112V53.1738C53.805 50.7988 55.5325 47.61 56.0387 44.0713L56.0838 43.75H57.5C58.0863 43.75 58.5938 43.3425 58.72 42.7712L61.22 31.5212C61.24 31.4325 61.25 31.3412 61.25 31.25V23.1612C63.5975 21.5 65.51 19.275 66.7975 16.7L67.3675 15.56C67.59 15.1163 67.5275 14.5825 67.21 14.2013L66.9688 13.9112C62.8675 8.98875 57.4137 5.56625 51.1987 4.0125L40.3037 1.2875C40.105 1.2375 39.8962 1.2375 39.6975 1.2875L28.8025 4.01125C22.5875 5.565 17.1337 8.9875 13.0325 13.91L12.7913 14.2C12.4738 14.5812 12.4113 15.115 12.6338 15.5587L13.2037 16.6988C14.4913 19.275 16.4038 21.5 18.7513 23.16V31.25C18.7513 31.3412 18.7612 31.4325 18.7812 31.5212L21.2812 42.7712C21.4062 43.3425 21.9137 43.75 22.5 43.75H23.9162L23.9625 44.0713C24.4688 47.61 26.1962 50.7988 28.7512 53.1738V60.0112C28.7512 62.3612 27.1512 64.3662 24.8587 64.8862L2.2225 70.0312C1.65375 70.16 1.25 70.6663 1.25 71.25V78.75H3.75V76.0938L19.245 74.0275C21.1 73.7812 22.5 72.1838 22.5 70.3112V67.9863L24.585 67.5125L30.22 75.7088C30.4213 76.0013 30.7375 76.1937 31.0888 76.24C31.1425 76.2463 31.1963 76.25 31.25 76.25C31.5462 76.25 31.835 76.145 32.0637 75.9487L34.55 73.8175L37.8662 77.1338C38.1 77.3688 38.4188 77.5 38.75 77.5H41.25C41.5812 77.5 41.9 77.3688 42.1338 77.1338L45.45 73.8175L47.9362 75.9487C48.165 76.145 48.4538 76.25 48.75 76.25C48.8037 76.25 48.8575 76.2463 48.9113 76.24C49.2625 76.1937 49.5788 76.0013 49.78 75.7088L55.415 67.5125L57.5 67.9863V70.3112C57.5 72.1838 58.9 73.7812 60.755 74.0287L76.25 76.095V78.75H78.75V71.25C78.75 70.6663 78.3463 70.16 77.7775 70.0312ZM67.5 70.2588V72.405L65 72.0713V69.69L67.5 70.2588ZM50.1038 28.3337C43.5375 27.2388 36.5962 27.2162 29.8962 28.3337L21.25 29.775V23.5588L30.3075 22.05C36.6025 21 43.2638 20.9775 49.6925 22.05L58.75 23.5588V29.775L50.1038 28.3337ZM52.1087 31.2025C50.9212 32.0362 49.4912 32.5 47.9938 32.5H32.0062C30.5087 32.5 29.0788 32.0362 27.89 31.2025L30.3063 30.8C36.6012 29.75 43.2625 29.7275 49.6912 30.8L52.1087 31.2025ZM15.4387 15.5813L15.2362 15.1762C18.9625 10.8438 23.8538 7.82625 29.4088 6.4375L40 3.78875L50.5912 6.4375C56.1462 7.82625 61.0375 10.8438 64.7638 15.1762L64.5612 15.5813C63.4387 17.8275 61.7512 19.75 59.6912 21.1812L50.1038 19.5837C43.5375 18.4888 36.5962 18.4662 29.8962 19.5837L20.3088 21.1812C18.2475 19.75 16.5612 17.8275 15.4387 15.5813ZM26.4363 43.7175L26.2375 42.3238C26.1488 41.7075 25.6225 41.25 25 41.25H23.5025L21.5063 32.2663L24.7587 31.7237C26.5812 33.7925 29.205 35 32.0062 35H47.9925C50.7938 35 53.4188 33.7925 55.24 31.7237L58.4925 32.2663L56.4975 41.25H55C54.3775 41.25 53.8512 41.7075 53.7625 42.3238L53.5638 43.7175C52.9638 47.9187 50.3387 51.5588 46.545 53.455C42.5013 55.4775 37.5 55.4775 33.455 53.455C29.6612 51.5588 27.0363 47.9175 26.4363 43.7175ZM32.3375 55.6913C34.705 56.875 37.3537 57.5 40 57.5C42.6463 57.5 45.295 56.875 47.6625 55.6913C48.04 55.5025 48.3925 55.2787 48.75 55.0625V59.3862L40 65.9388L31.25 59.3862V55.0625C31.6075 55.2787 31.96 55.5025 32.3375 55.6913ZM15 69.6912V72.0725L12.5 72.4062V70.26L15 69.6912ZM3.75 72.2475L10 70.8275V72.7388L3.75 73.5725V72.2475ZM20 70.3112C20 70.935 19.5338 71.4675 18.915 71.55L17.5 71.7387V69.1225L20 68.5537V70.3112ZM31.4925 73.1462L27.07 66.7137C28.9175 65.805 30.2925 64.1975 30.8962 62.245L38.0025 67.5675L31.4925 73.1462ZM40.7325 75H39.2675L36.4538 72.1862L40 69.1463L43.5463 72.1862L40.7325 75ZM48.5075 73.1462L41.9975 67.5663L49.1038 62.2437C49.7075 64.1962 51.0825 65.805 52.93 66.7125L48.5075 73.1462ZM60 70.3112V68.5537L62.5 69.1225V71.7387L61.085 71.55C60.4663 71.4675 60 70.935 60 70.3112ZM70 72.7388V70.8275L76.25 72.2475V73.5713L70 72.7388Z" fill="#F54E37"/>
<path d="M39.43 18.6462L39.6962 18.7125C39.7962 18.7375 39.8975 18.75 40 18.75C40.1025 18.75 40.2038 18.7375 40.3038 18.7125L40.57 18.6462C43.9138 17.81 46.25 14.8175 46.25 11.37V7.5C46.25 6.81 45.69 6.25 45 6.25H35C34.31 6.25 33.75 6.81 33.75 7.5V11.37C33.75 14.8175 36.0863 17.81 39.43 18.6462ZM36.25 8.75H43.75V11.37C43.75 13.6562 42.21 15.6412 40 16.2113C37.79 15.64 36.25 13.6562 36.25 11.37V8.75Z" fill="#F54E37"/>
</svg>
