<svg width="70" height="70" viewBox="0 0 70 70" fill="none" xmlns="http://www.w3.org/2000/svg">
<path d="M32.1326 44.146C31.6471 43.8545 31.017 44.0116 30.7255 44.4971L29.2356 46.9778C28.944 47.4633 29.1014 48.0933 29.5868 48.3849C30.0704 48.6752 30.7011 48.5214 30.9939 48.0338L32.4838 45.5531C32.7754 45.0676 32.6182 44.4377 32.1326 44.146Z" fill="#F54E37"/>
<path d="M44.5271 25.5013L46.017 23.0208C46.3086 22.5353 46.1512 21.9054 45.6658 21.6137C45.1804 21.3223 44.5505 21.4793 44.2587 21.9648L42.7688 24.4453C42.4772 24.9309 42.6346 25.5608 43.12 25.8525C43.6098 26.1466 44.2378 25.9828 44.5271 25.5013Z" fill="#F54E37"/>
<path d="M39.7357 40.7089L38.8212 42.2929L37.1668 41.3377L38.0813 39.7537L36.9901 39.1237L36.0756 40.7077L34.2452 39.6509L35.1597 38.067L29.1406 34.5918L31.5285 30.4558C32.382 28.9774 33.3835 28.0694 34.5327 27.7317C35.677 27.3755 36.8476 27.5429 38.0444 28.2338C39.2412 28.9248 39.9773 29.8582 40.2527 31.0341C40.5231 32.1915 40.2316 33.5094 39.378 34.9878L38.2095 37.0117L39.3007 37.6417L41.6378 33.5938L43.2922 34.5489L40.9551 38.5969L42.6799 39.5927L41.4605 41.7047L39.7357 40.7089ZM37.446 34.107C37.988 33.1683 38.1972 32.413 38.0737 31.8411C37.9453 31.2507 37.529 30.7523 36.825 30.3458C36.121 29.9394 35.4871 29.8315 34.9233 30.0222C34.3546 30.1945 33.7992 30.7499 33.2573 31.6886L32.1903 33.5366L36.3791 35.955L37.446 34.107Z" fill="#F54E37"/>
<path d="M35.3789 60.9927C34.8932 60.7012 34.2635 60.8582 33.9716 61.3435C33.6798 61.829 33.8371 62.4589 34.3223 62.7507L34.5612 62.8943C34.7267 62.9937 34.9086 63.0409 35.0885 63.0409C35.4366 63.0409 35.776 62.8635 35.9685 62.5434C36.2603 62.0579 36.103 61.428 35.6178 61.1362L35.3789 60.9927Z" fill="#F54E37"/>
<path d="M15.7363 49.1948L15.4974 49.0513C15.0116 48.7597 14.3819 48.9169 14.0903 49.4027C13.7987 49.8884 13.9561 50.5182 14.4417 50.8099L14.6805 50.9533C14.8459 51.0526 15.0277 51.0996 15.2075 51.0996C15.5558 51.0996 15.8953 50.9221 16.0878 50.6018C16.3792 50.1162 16.2219 49.4863 15.7363 49.1948Z" fill="#F54E37"/>
<path d="M59.5162 20.8032L59.7551 20.9468C59.9205 21.0462 60.1025 21.0933 60.2823 21.0933C60.6305 21.0933 60.9698 20.916 61.1624 20.5959C61.4542 20.1104 61.2969 19.4804 60.8116 19.1886L60.5728 19.0451C60.0871 18.7534 59.4573 18.9104 59.1655 19.3958C58.8737 19.8812 59.0308 20.5114 59.5162 20.8032Z" fill="#F54E37"/>
<path d="M39.874 9.00656C40.0393 9.10583 40.2212 9.15287 40.401 9.15287C40.7493 9.15287 41.0888 8.97539 41.2813 8.65502C41.5728 8.16934 41.4154 7.53954 40.9299 7.24789L40.691 7.10445C40.2052 6.81294 39.5755 6.97018 39.2839 7.45586C38.9923 7.94154 39.1497 8.57134 39.6353 8.86299L39.874 9.00656Z" fill="#F54E37"/>
<path d="M56.6533 15.913L45.5359 9.23571C45.3027 9.09596 45.0235 9.05399 44.7596 9.11975C44.4957 9.18552 44.2687 9.35357 44.1287 9.58684C42.6651 12.0236 39.4918 12.8155 37.0551 11.3519C36.5695 11.0606 35.9397 11.2175 35.6479 11.7031L16.1317 44.1971C15.9917 44.4303 15.95 44.7095 16.0159 44.9734C16.0817 45.2374 16.2497 45.4643 16.4828 45.6043C18.9197 47.0679 19.7116 50.2411 18.2479 52.6779C17.9563 53.1635 18.1137 53.7934 18.5991 54.0851L29.7165 60.7624C30.2 61.0528 30.8309 60.8985 31.1237 60.4112C31.8326 59.2308 32.9589 58.3971 34.2948 58.0636C35.6308 57.7301 37.0166 57.9372 38.1973 58.6463C38.6856 58.9396 39.3146 58.7777 39.6045 58.2951L43.46 51.8759C43.7516 51.3903 43.5942 50.7604 43.1088 50.4687C42.6234 50.1775 41.9935 50.3345 41.7017 50.8199L38.3372 56.4217C36.9088 55.8174 35.3303 55.6914 33.7985 56.0737C32.2668 56.4559 30.9322 57.3086 29.9551 58.5132L20.4721 52.8176C21.7094 49.8806 20.8527 46.4477 18.3807 44.4364L36.9156 13.5759C39.8524 14.813 43.2854 13.9565 45.2966 11.4846L54.7805 17.1808C53.5432 20.1176 54.3998 23.5505 56.8718 25.5618L43.813 47.3043C43.5214 47.7898 43.6787 48.4198 44.1641 48.7114C44.6497 49.0029 45.2795 48.8457 45.5713 48.3603L59.1205 25.8012C59.4122 25.3157 59.2548 24.6857 58.7694 24.3941C56.3327 22.9305 55.5408 19.7573 57.0044 17.3204C57.2961 16.8347 57.1389 16.2046 56.6533 15.913Z" fill="#F54E37"/>
<path d="M64.4204 29.8968L63.0774 27.3279L67.3034 20.2916C67.9983 19.1345 67.6224 17.6277 66.4652 16.9326L49.9164 6.99315C49.431 6.70191 48.8009 6.85874 48.5093 7.34428C48.2176 7.82983 48.375 8.45976 48.8604 8.75142L65.4092 18.6908C65.5968 18.8034 65.6577 19.0478 65.545 19.2355L36.8267 67.0509C36.7142 67.2384 36.4707 67.3002 36.282 67.1867L9.84344 51.3078C9.65571 51.195 9.59473 50.9505 9.7074 50.7629L38.4254 2.94759C38.5384 2.75999 38.783 2.69928 38.9704 2.81154L45.3048 6.61617C45.7862 6.90537 46.4287 6.78654 46.7323 6.31399C47.0464 5.82517 46.8924 5.17705 46.3978 4.88006L40.0264 1.05328C38.869 0.358531 37.3623 0.73455 36.6673 1.8916L32.4414 8.92767L29.5425 8.949C22.2003 9.00314 14.8338 10.7454 8.23983 13.987C7.73145 14.2368 7.52211 14.8514 7.77192 15.3596C7.95022 15.7224 8.31435 15.933 8.69296 15.933C8.84474 15.933 8.99911 15.8991 9.1446 15.8275C15.4634 12.7214 22.5221 11.052 29.5577 11L31.2039 10.9878L17.4974 33.8092C16.8148 34.9456 15.7706 35.82 14.5321 36.2924C14.1142 36.4517 13.6392 36.4249 13.261 36.1863C12.9487 35.9893 12.7329 35.6834 12.6521 35.3216C12.569 34.9497 12.6399 34.5704 12.8523 34.2536L16.1857 29.2774C16.5654 28.7105 16.5274 27.9769 16.0912 27.4523C15.6552 26.9278 14.9414 26.7571 14.3145 27.0262L9.16401 29.2425C7.95624 29.7621 6.55991 28.8935 6.46064 27.5985C6.41812 27.0458 6.60804 26.523 6.99513 26.1264L9.95379 23.0959C10.4284 22.6096 10.4964 21.8754 10.119 21.3103C9.74158 20.7455 9.0374 20.527 8.40691 20.7791C7.1614 21.277 5.49994 21.9412 4.29012 22.4257C3.17847 22.8713 1.96263 21.952 2.05657 20.7961C2.12234 19.9885 2.74967 19.6304 2.76635 19.6125C3.61629 19.0126 4.51491 18.4236 5.43814 17.8616C5.88471 17.5898 6.09077 17.0294 5.87801 16.552C5.62095 15.9751 4.9284 15.7716 4.40662 16.0886C2.8324 17.045 1.84353 17.7615 1.52631 17.9773C0.651075 18.5952 0.0992154 19.562 0.0123891 20.6297C-0.204608 23.2958 2.52556 25.3417 5.05255 24.3298C5.46562 24.1644 5.93134 23.978 6.41511 23.7845L5.52757 24.6935C4.7341 25.5064 4.32868 26.6223 4.41564 27.7551C4.62211 30.4503 7.47808 32.2011 9.97471 31.1265L13.4923 29.6128L11.1483 33.112C10.5452 34.0122 10.4004 35.1158 10.7626 36.1635C10.9664 36.7532 11.3347 37.279 11.8193 37.6719C12.4566 38.1888 13.2212 38.4527 13.9936 38.4526C14.2509 38.4526 14.5088 38.4197 14.7637 38.3608L7.94913 49.7069C7.25424 50.8641 7.63026 52.3707 8.78745 53.0659L35.2258 68.945C36.3857 69.6421 37.8883 69.2673 38.585 68.1069L45.3979 56.7636C45.6265 57.616 46.1714 58.3456 46.9419 58.8083C48.6184 59.8152 50.8021 59.2232 51.7313 57.4871L53.7191 53.7736L54.0354 57.59C54.2646 60.3511 57.1942 61.9765 59.6232 60.9136C60.6639 60.4582 61.4586 59.5761 61.8034 58.4937L62.1889 57.2832C62.2453 57.8011 62.2996 58.2998 62.3476 58.742C62.6383 61.4176 65.7057 62.9129 67.9818 61.4532C68.8835 60.8748 69.4776 59.9335 69.6123 58.8689C69.5824 57.7213 72.1569 44.6967 64.4204 29.8968ZM67.5777 58.6135C67.456 59.5757 66.4927 60.191 65.5713 59.9014C65.5576 59.8922 64.5084 59.6377 64.387 58.5205C64.2463 57.2247 64.0523 55.4462 63.9065 54.1129C63.8327 53.4377 63.3091 52.9188 62.6333 52.8509C61.9572 52.7822 61.3411 53.1881 61.1348 53.8354L59.8495 57.871C59.2169 59.8583 56.2506 59.482 56.0799 57.4205L55.6166 51.8326C55.5601 51.1526 55.0734 50.6028 54.4055 50.4642C53.7381 50.3264 53.0723 50.6368 52.7502 51.2383L49.9234 56.519C49.543 57.2296 48.637 57.4663 47.9548 57.0228C47.6048 56.7953 47.3867 56.4116 47.3349 55.9975L47.3345 55.9936C47.1696 54.6783 47.451 53.3456 48.1335 52.2092L61.8403 29.3878L62.603 30.8467C70.0682 45.1282 67.5572 57.835 67.5777 58.6135Z" fill="#F54E37"/>
<path d="M14.9154 20.1082C14.9653 20.0766 19.973 16.9707 24.6606 18.1587C25.2094 18.2983 25.7676 17.9657 25.9066 17.4167C26.0459 16.8676 25.7137 16.3097 25.1647 16.1707C19.6339 14.7679 14.0571 18.2246 13.8222 18.3727C13.3429 18.6746 13.1991 19.3078 13.5009 19.787C13.8014 20.2638 14.4338 20.4114 14.9154 20.1082Z" fill="#F54E37"/>
<path d="M57.7979 38.4195C57.3206 38.7243 57.1804 39.3584 57.4852 39.8357C60.0715 43.8874 58.7167 49.6246 58.6981 49.7008C58.5386 50.3495 59.0312 50.9716 59.6948 50.9716C60.1553 50.9716 60.5741 50.659 60.6895 50.1918C60.756 49.9224 62.2837 43.5411 59.214 38.7321C58.9093 38.2548 58.2751 38.1148 57.7979 38.4195Z" fill="#F54E37"/>
</svg>
