<svg width="70" height="70" viewBox="0 0 70 70" fill="none" xmlns="http://www.w3.org/2000/svg">
<path d="M66.4273 48.5316C62.996 45.108 57.8047 44.0537 53.3061 45.8031L51.3366 43.8379C51.4929 43.7202 51.6434 43.5913 51.7857 43.4492L56.6998 38.5458C57.5053 37.7422 57.9488 36.6704 57.9488 35.5277C57.9488 34.3851 57.5053 33.3132 56.6998 32.5096H56.6999C55.8069 31.6187 54.6141 31.2055 53.4425 31.2691C53.4718 31.0546 53.4877 30.8368 53.4877 30.6164C53.4877 29.3495 52.9954 28.1616 52.1014 27.2716C51.2341 26.4063 50.1115 25.9475 48.9734 25.8948C49.5161 24.2477 49.1347 22.3534 47.8345 21.0527C46.7716 19.9921 45.3251 19.5432 43.9364 19.7037C43.9566 19.5244 43.9682 19.3429 43.9682 19.1596C43.9682 17.8927 43.4769 16.7048 42.5848 15.8146C40.7381 13.972 37.7332 13.9721 35.8865 15.8146L32.7456 18.9485L32.5025 18.706C31.3271 17.533 29.4122 17.5346 28.2343 18.7099L27.192 19.7499L24.1543 16.7164C25.907 12.2259 24.8495 7.04629 21.4179 3.62228C18.5608 0.771508 14.4684 -0.48025 10.4728 0.274141C9.9009 0.381735 8.16093 0.709166 7.80383 2.04049C7.45467 3.34256 8.69631 4.40989 9.2932 4.92284C9.35363 4.97479 14.1973 9.79863 14.1973 9.79863C15.4549 11.0535 15.5394 13.0733 14.4018 14.4274C13.0431 15.5639 11.0158 15.4799 9.75639 14.2233C9.75639 14.2233 4.92189 9.39026 4.86967 9.32983C4.35548 8.73444 3.28501 7.49608 1.98294 7.84566C0.65189 8.20358 0.323776 9.93876 0.216044 10.5084C-0.540123 14.4983 0.714642 18.5828 3.57279 21.4345C7.00405 24.858 12.1952 25.9123 16.694 24.1631L20.2108 27.672C19.7815 28.781 19.5814 30.0016 19.6548 31.2274C19.8216 33.9785 18.3633 36.6768 14.7782 40.2504L11.0438 43.9764C9.77991 43.3281 8.18746 43.5303 7.12983 44.5855L1.89968 49.804C1.26587 50.4363 0.91698 51.2794 0.91698 52.1781C0.91698 53.0767 1.26601 53.9198 1.89955 54.552L16.3425 68.9626C16.9975 69.6161 17.858 69.9429 18.7184 69.9429C19.5789 69.9429 20.4394 69.6161 21.0945 68.9625L26.3247 63.744C26.9585 63.1117 27.3074 62.2685 27.3074 61.3699C27.3074 60.8266 27.179 60.304 26.9381 59.8356L33.2906 53.4972C35.1735 51.6186 35.4795 51.6695 37.4739 52.0024C37.8095 52.0584 38.19 52.122 38.618 52.183C40.359 52.433 42.3804 51.5485 43.5275 50.9359L45.8456 53.2495C45.2337 54.8197 44.9496 56.5275 45.0213 58.2316C45.0444 58.7827 45.4985 59.2139 46.0449 59.2139C46.0594 59.2139 46.0742 59.2137 46.0888 59.213C46.6545 59.1892 47.0939 58.7114 47.0701 58.1455C47.0019 56.5211 47.3202 54.8949 47.9908 53.4427C48.171 53.0522 48.0885 52.5908 47.7841 52.287L31.3766 35.9123C32.0439 34.655 32.4216 33.3176 32.4632 32.0046C33.6441 33.0199 35.1975 33.847 36.7161 34.2552C37.9596 34.5895 39.1232 34.6439 40.1681 34.4276C40.168 34.4392 40.1673 34.4507 40.1673 34.4623C40.1681 35.7275 40.6607 36.9142 41.5526 37.8016C42.3916 38.6409 43.4944 39.1251 44.6786 39.1794C44.5568 39.5795 44.4936 40.0004 44.4936 40.4311C44.4936 41.5738 44.9371 42.6456 45.7425 43.4491C46.5757 44.2803 47.6696 44.6959 48.764 44.6958C48.9307 44.6958 49.0972 44.685 49.263 44.6656L52.3457 47.7414C52.6489 48.044 53.1081 48.1261 53.4974 47.9476C57.3663 46.1737 61.9805 46.9915 64.9786 49.983C67.3557 52.3546 68.3988 55.7536 67.769 59.0759C67.6636 59.6324 67.5441 59.9239 67.4671 60.0663C67.3197 59.9697 67.0779 59.7534 66.6827 59.2956C66.5939 59.1927 61.6922 54.2908 61.6922 54.2908C59.6577 52.2606 56.366 52.1492 54.1984 54.0374C54.1636 54.0679 54.1309 54.1004 54.1003 54.1353C52.2062 56.2997 52.3179 59.5869 54.3544 61.6189L60.1395 67.3762C59.9954 67.4533 59.7028 67.572 59.1475 67.6766C55.8163 68.3048 52.408 67.2642 50.0321 64.8933C49.2784 64.138 48.6522 63.279 48.171 62.34C47.9126 61.836 47.2949 61.6371 46.7907 61.8953C46.2868 62.1537 46.0877 62.7717 46.3461 63.2756C46.9245 64.404 47.6762 65.4357 48.5819 66.3433C50.8915 68.6476 54.0075 69.9073 57.2275 69.9072C57.9913 69.9072 58.7611 69.8362 59.5272 69.6917C60.099 69.5841 61.839 69.2567 62.1961 67.9254C62.5453 66.6234 61.3036 65.556 60.7067 65.043C60.6463 64.9911 55.8026 60.1672 55.8026 60.1672C54.545 58.9123 54.4605 56.8925 55.5981 55.5385C56.9568 54.402 58.9841 54.4861 60.2435 55.7426C60.2435 55.7426 65.078 60.5756 65.1303 60.636C65.6446 61.2316 66.7157 62.4703 68.017 62.1202C69.3478 61.7623 69.6759 60.0271 69.7836 59.4574C70.5402 55.468 69.2853 51.3835 66.4273 48.5316ZM46.3851 22.5038C47.4119 23.5309 47.4281 25.212 46.4225 26.2548L43.1266 29.5435C42.5608 28.7236 39.4472 25.6355 39.4472 25.6355L42.5848 22.5047C43.633 21.4589 45.3382 21.4591 46.3851 22.5038ZM37.3351 17.2667C38.3832 16.2209 40.0888 16.2212 41.1363 17.2667C41.6403 17.7694 41.9177 18.4417 41.9177 19.1599C41.9177 19.878 41.6403 20.5504 41.1363 21.0531L37.9954 24.187L34.1974 20.3974L37.3351 17.2667ZM17.6542 22.2245C17.3513 21.9221 16.8922 21.8399 16.5027 22.0183C12.6334 23.792 8.01943 22.9743 5.02142 19.9829C2.64437 17.6113 1.60124 14.2123 2.23108 10.89C2.33649 10.3335 2.45597 10.042 2.53294 9.89952C2.68032 9.99618 2.92217 10.2125 3.31741 10.6703C3.40614 10.7731 8.3079 15.675 8.3079 15.675C10.3426 17.7054 13.6342 17.8168 15.8016 15.9285C15.8365 15.8981 15.8692 15.8653 15.8998 15.8306C17.7938 13.6661 17.6821 10.379 15.6456 8.34699C15.6456 8.34699 9.95832 2.73692 9.86057 2.58967C10.0047 2.51257 10.2972 2.3939 10.8526 2.28931C14.1833 1.6607 17.5919 2.70164 19.9696 5.07419C22.9666 8.0644 23.7862 12.6658 22.0092 16.5243C21.8295 16.9145 21.9121 17.3752 22.216 17.6787L25.7406 21.1987L21.9199 25.0108C21.6745 25.2558 21.4489 25.5216 21.2399 25.8017L17.6542 22.2245ZM41.5537 31.1128C41.2882 31.3778 41.0591 31.6694 40.8667 31.9808C38.6826 33.3342 35.229 31.8434 33.5104 30.1879L33.2973 29.9756C31.7263 28.41 30.8907 27.5764 30.8136 27.4974C30.8122 27.496 30.8108 27.4949 30.8095 27.4936C30.8056 27.4897 30.8021 27.4856 30.7983 27.4818C30.7928 27.4764 30.7873 27.4724 30.7818 27.4675C30.3897 27.092 29.7684 27.0855 29.3694 27.4625C28.9579 27.8516 28.9399 28.5006 29.329 28.9121C29.3327 28.916 29.3388 28.9224 29.3496 28.9333C30.0495 29.6317 30.4194 30.6098 30.4194 31.7621C30.4194 33.5746 29.4932 35.5809 27.9416 37.1289C27.5408 37.529 27.5401 38.1781 27.94 38.5789C28.1404 38.7796 28.4032 38.8801 28.6659 38.8801C28.928 38.8801 29.1901 38.7803 29.3902 38.5806C29.6873 38.2842 29.9627 37.9741 30.2204 37.6554L41.9997 49.4112C40.8056 49.9716 39.6498 50.2595 38.9086 50.1529C38.5035 50.0951 38.1357 50.0337 37.8113 49.9796C35.4353 49.5831 34.3706 49.5225 31.8419 52.0454L25.6004 58.2732L20.443 53.1274C20.0421 52.7274 19.3928 52.7281 18.993 53.129C18.5929 53.5299 18.5938 54.1792 18.9947 54.579L24.8741 60.4453C24.8743 60.4455 24.8745 60.4457 24.8747 60.446L24.8754 60.4467L24.8765 60.4478C25.1217 60.6925 25.2568 61.0201 25.2568 61.3701C25.2568 61.72 25.1217 62.0476 24.8763 62.2923L19.6459 67.511C19.1343 68.0213 18.3021 68.0212 17.7908 67.511L3.34804 53.1005C3.10277 52.8556 2.9677 52.528 2.9677 52.1782C2.9677 51.8283 3.10277 51.5006 3.34817 51.2559L8.57832 46.0373C9.08991 45.527 9.92209 45.5272 10.4334 46.0373L15.6052 51.1975C16.0062 51.5974 16.6553 51.5969 17.0553 51.1959C17.4553 50.7951 17.4545 50.1458 17.0537 49.7459L12.6092 45.3114L16.2263 41.7023C20.27 37.6714 21.9076 34.5017 21.7017 31.1041C21.5979 29.3703 22.2365 27.5916 23.368 26.4623L29.6827 20.1619C30.0553 19.7897 30.6834 19.7882 31.0539 20.1579L32.0195 21.1213L38.7021 27.7892C38.8825 27.9691 39.0624 28.1471 39.2398 28.3226C40.0891 29.1627 41.3134 30.374 41.6463 31.0199L41.5537 31.1128ZM44.903 37.1343C44.1822 37.1343 43.5075 36.8565 43.0013 36.3499C42.4968 35.8479 42.2186 35.1771 42.218 34.4611C42.2176 33.7432 42.4961 33.0696 43.0021 32.5646L46.8518 28.7236C47.3757 28.2008 48.0641 27.9394 48.7523 27.9394C49.4406 27.9394 50.129 28.2008 50.6529 28.7236C50.6533 28.7239 50.6536 28.7243 50.654 28.7246C51.1589 29.2271 51.4371 29.8991 51.4371 30.6168C51.4371 31.334 51.1593 32.0057 50.6538 32.5092C50.6534 32.5096 50.653 32.5099 50.6527 32.5103L46.8025 36.352C46.2983 36.8565 45.6236 37.1343 44.903 37.1343ZM47.1911 41.9978C46.774 41.5817 46.5445 41.0254 46.5445 40.4314C46.5445 39.8374 46.7742 39.2811 47.1914 38.8648L52.1017 33.9617C52.5359 33.5284 53.1062 33.3119 53.6766 33.3119C54.247 33.3119 54.8173 33.5284 55.2516 33.9617H55.2517C55.6687 34.3777 55.8982 34.934 55.8982 35.528C55.8982 36.122 55.6685 36.6783 55.2516 37.0944L50.3375 41.9978C49.4698 42.8632 48.0582 42.863 47.1911 41.9978Z" fill="#F54E37"/>
</svg>
