<svg width="70" height="70" viewBox="0 0 70 70" fill="none" xmlns="http://www.w3.org/2000/svg">
<path d="M61.25 43.8652V13.125C61.25 10.1097 58.7965 7.65625 55.7812 7.65625H53.5938V5.46875C53.5938 3.65936 52.1219 2.1875 50.3125 2.1875C48.5031 2.1875 47.0312 3.65936 47.0312 5.46875V7.65625H41.5625V5.46875C41.5625 3.65936 40.0906 2.1875 38.2812 2.1875C36.4719 2.1875 35 3.65936 35 5.46875V7.65625H28.4375V5.46875C28.4375 3.65936 26.9656 2.1875 25.1562 2.1875C23.3469 2.1875 21.875 3.65936 21.875 5.46875V7.65625H16.4062V5.46875C16.4062 3.65936 14.9344 2.1875 13.125 2.1875C11.3156 2.1875 9.84375 3.65936 9.84375 5.46875V7.65625H7.65625C4.64096 7.65625 2.1875 10.1097 2.1875 13.125V56.875C2.1875 59.8903 4.64096 62.3438 7.65625 62.3438H44.4319C46.7055 66.2603 50.9355 68.9062 55.7812 68.9062C63.0188 68.9062 68.9062 63.0188 68.9062 55.7812C68.9062 50.4969 65.7611 45.944 61.25 43.8652ZM49.2188 5.46875C49.2188 4.86526 49.709 4.375 50.3125 4.375C50.916 4.375 51.4062 4.86526 51.4062 5.46875V12.0312C51.4062 12.6347 50.916 13.125 50.3125 13.125C49.709 13.125 49.2188 12.6347 49.2188 12.0312V5.46875ZM37.1875 5.46875C37.1875 4.86526 37.6778 4.375 38.2812 4.375C38.8847 4.375 39.375 4.86526 39.375 5.46875V12.0312C39.375 12.6347 38.8847 13.125 38.2812 13.125C37.6778 13.125 37.1875 12.6347 37.1875 12.0312V5.46875ZM24.0625 5.46875C24.0625 4.86526 24.5528 4.375 25.1562 4.375C25.7597 4.375 26.25 4.86526 26.25 5.46875V12.0312C26.25 12.6347 25.7597 13.125 25.1562 13.125C24.5528 13.125 24.0625 12.6347 24.0625 12.0312V5.46875ZM12.0312 5.46875C12.0312 4.86526 12.5215 4.375 13.125 4.375C13.7285 4.375 14.2188 4.86526 14.2188 5.46875V12.0312C14.2188 12.6347 13.7285 13.125 13.125 13.125C12.5215 13.125 12.0312 12.6347 12.0312 12.0312V5.46875ZM7.65625 9.84375H9.84375V12.0312C9.84375 13.8406 11.3156 15.3125 13.125 15.3125C14.9344 15.3125 16.4062 13.8406 16.4062 12.0312V9.84375H21.875V12.0312C21.875 13.8406 23.3469 15.3125 25.1562 15.3125C26.9656 15.3125 28.4375 13.8406 28.4375 12.0312V9.84375H35V12.0312C35 13.8406 36.4719 15.3125 38.2812 15.3125C40.0906 15.3125 41.5625 13.8406 41.5625 12.0312V9.84375H47.0312V12.0312C47.0312 13.8406 48.5031 15.3125 50.3125 15.3125C52.1219 15.3125 53.5938 13.8406 53.5938 12.0312V9.84375H55.7812C57.5906 9.84375 59.0625 11.3156 59.0625 13.125V18.5938H4.375V13.125C4.375 11.3156 5.84686 9.84375 7.65625 9.84375ZM7.65625 60.1562C5.84686 60.1562 4.375 58.6844 4.375 56.875V20.7812H59.0625V43.0881C58.0116 42.8161 56.9161 42.6562 55.7812 42.6562C55.0344 42.6562 54.3068 42.7334 53.5938 42.8538V37.1875C53.5938 36.583 53.1045 36.0938 52.5 36.0938H45.9375C45.333 36.0938 44.8438 36.583 44.8438 37.1875V43.75C44.8438 44.3545 45.333 44.8438 45.9375 44.8438H48.5416C44.9988 47.1965 42.6562 51.2186 42.6562 55.7812C42.6562 57.317 42.9351 58.7854 43.4219 60.1562H7.65625ZM51.4062 42.6562H47.0312V38.2812H51.4062V42.6562ZM55.7812 66.7188C49.7507 66.7188 44.8438 61.8118 44.8438 55.7812C44.8438 49.7507 49.7507 44.8438 55.7812 44.8438C61.8118 44.8438 66.7188 49.7507 66.7188 55.7812C66.7188 61.8118 61.8118 66.7188 55.7812 66.7188Z" fill="#F54E37"/>
<path d="M56.875 53.8972V47.0312H54.6875V53.8972C54.0364 54.2761 53.5938 54.9735 53.5938 55.7812C53.5938 55.892 53.6104 55.9982 53.6263 56.1045L49.6289 59.3018L50.9961 61.0107L54.99 57.8155C55.2361 57.9113 55.5014 57.9688 55.7812 57.9688C56.9894 57.9688 57.9688 56.9894 57.9688 55.7812C57.9688 54.9736 57.5261 54.2761 56.875 53.8972Z" fill="#F54E37"/>
<path d="M15.4677 24.0625H9.70968C9.17923 24.0625 8.75 24.4917 8.75 25.0222V30.7802C8.75 31.3107 9.17923 31.7399 9.70968 31.7399H15.4677C15.9982 31.7399 16.4274 31.3107 16.4274 30.7802V25.0222C16.4274 24.4917 15.9982 24.0625 15.4677 24.0625ZM14.5081 29.8206H10.6694V25.9819H14.5081V29.8206Z" fill="#F54E37"/>
<path d="M27.499 24.0625H21.7409C21.2105 24.0625 20.7812 24.4917 20.7812 25.0222V30.7802C20.7812 31.3107 21.2105 31.7399 21.7409 31.7399H27.499C28.0294 31.7399 28.4587 31.3107 28.4587 30.7802V25.0222C28.4587 24.4917 28.0294 24.0625 27.499 24.0625ZM26.5393 29.8206H22.7006V25.9819H26.5393V29.8206Z" fill="#F54E37"/>
<path d="M39.5302 24.0625H33.7722C33.2417 24.0625 32.8125 24.4917 32.8125 25.0222V30.7802C32.8125 31.3107 33.2417 31.7399 33.7722 31.7399H39.5302C40.0607 31.7399 40.4899 31.3107 40.4899 30.7802V25.0222C40.4899 24.4917 40.0607 24.0625 39.5302 24.0625ZM38.5706 29.8206H34.7319V25.9819H38.5706V29.8206Z" fill="#F54E37"/>
<path d="M45.8034 31.7399H51.5615C52.0919 31.7399 52.5212 31.3107 52.5212 30.7802V25.0222C52.5212 24.4917 52.0919 24.0625 51.5615 24.0625H45.8034C45.273 24.0625 44.8438 24.4917 44.8438 25.0222V30.7802C44.8438 31.3107 45.273 31.7399 45.8034 31.7399ZM46.7631 25.9819H50.6018V29.8206H46.7631V25.9819Z" fill="#F54E37"/>
<path d="M15.4677 36.0938H9.70968C9.17923 36.0938 8.75 36.523 8.75 37.0534V42.8115C8.75 43.3419 9.17923 43.7712 9.70968 43.7712H15.4677C15.9982 43.7712 16.4274 43.3419 16.4274 42.8115V37.0534C16.4274 36.523 15.9982 36.0938 15.4677 36.0938ZM14.5081 41.8518H10.6694V38.0131H14.5081V41.8518Z" fill="#F54E37"/>
<path d="M27.499 36.0938H21.7409C21.2105 36.0938 20.7812 36.523 20.7812 37.0534V42.8115C20.7812 43.3419 21.2105 43.7712 21.7409 43.7712H27.499C28.0294 43.7712 28.4587 43.3419 28.4587 42.8115V37.0534C28.4587 36.523 28.0294 36.0938 27.499 36.0938ZM26.5393 41.8518H22.7006V38.0131H26.5393V41.8518Z" fill="#F54E37"/>
<path d="M39.5302 36.0938H33.7722C33.2417 36.0938 32.8125 36.523 32.8125 37.0534V42.8115C32.8125 43.3419 33.2417 43.7712 33.7722 43.7712H39.5302C40.0607 43.7712 40.4899 43.3419 40.4899 42.8115V37.0534C40.4899 36.523 40.0607 36.0938 39.5302 36.0938ZM38.5706 41.8518H34.7319V38.0131H38.5706V41.8518Z" fill="#F54E37"/>
<path d="M15.4677 48.125H9.70968C9.17923 48.125 8.75 48.5542 8.75 49.0847V54.8427C8.75 55.3732 9.17923 55.8024 9.70968 55.8024H15.4677C15.9982 55.8024 16.4274 55.3732 16.4274 54.8427V49.0847C16.4274 48.5542 15.9982 48.125 15.4677 48.125ZM14.5081 53.8831H10.6694V50.0444H14.5081V53.8831Z" fill="#F54E37"/>
<path d="M27.499 48.125H21.7409C21.2105 48.125 20.7812 48.5542 20.7812 49.0847V54.8427C20.7812 55.3732 21.2105 55.8024 21.7409 55.8024H27.499C28.0294 55.8024 28.4587 55.3732 28.4587 54.8427V49.0847C28.4587 48.5542 28.0294 48.125 27.499 48.125ZM26.5393 53.8831H22.7006V50.0444H26.5393V53.8831Z" fill="#F54E37"/>
<path d="M39.5302 48.125H33.7722C33.2417 48.125 32.8125 48.5542 32.8125 49.0847V54.8427C32.8125 55.3732 33.2417 55.8024 33.7722 55.8024H39.5302C40.0607 55.8024 40.4899 55.3732 40.4899 54.8427V49.0847C40.4899 48.5542 40.0607 48.125 39.5302 48.125ZM38.5706 53.8831H34.7319V50.0444H38.5706V53.8831Z" fill="#F54E37"/>
</svg>
