<svg width="40" height="40" viewBox="0 0 40 40" fill="none" xmlns="http://www.w3.org/2000/svg">
<path d="M20.4069 4.77771C20.1457 4.67254 19.8543 4.67254 19.5931 4.77771L6.53813 10.0245L11.7969 12.1368L25.2588 6.72739L20.4069 4.77771ZM28.2031 7.91214L14.7413 13.3216L20 15.4339L33.4619 10.0245L28.2031 7.91214ZM35.3125 11.6488L21.0938 17.3638V34.7768L35.3125 29.0619V11.651V11.6488ZM18.9062 34.779V17.3616L4.6875 11.6488V29.0641L18.9062 34.779ZM18.7816 2.73571C19.5637 2.42139 20.4363 2.42139 21.2184 2.73571L36.8131 9.00458C37.0159 9.08623 37.1897 9.22701 37.3121 9.40878C37.4345 9.59055 37.5 9.805 37.5 10.0245V29.0641C37.4997 29.5033 37.3685 29.9324 37.1233 30.2959C36.878 30.6595 36.53 30.9409 36.1241 31.1039L20.4069 37.4211C20.1457 37.5263 19.8543 37.5263 19.5931 37.4211L3.87812 31.1039C3.4718 30.9413 3.12331 30.66 2.87765 30.2964C2.632 29.9328 2.50045 29.5035 2.5 29.0641V10.0245C2.50005 9.805 2.5655 9.59055 2.68792 9.40878C2.81034 9.22701 2.98412 9.08623 3.18688 9.00458L18.7816 2.73571Z" fill="#F54E37"/>
</svg>
