<svg width="40" height="40" viewBox="0 0 40 40" fill="none" xmlns="http://www.w3.org/2000/svg">
<path d="M5 20H20V22.5H5V20Z" fill="#F54E37"/>
<path d="M2.5 13.75H15V16.25H2.5V13.75Z" fill="#F54E37"/>
<path d="M37.3987 20.7575L33.6487 12.0075C33.5524 11.7826 33.3923 11.5909 33.1881 11.4562C32.9838 11.3216 32.7446 11.2499 32.4999 11.25H28.7499V8.75C28.7499 8.41848 28.6182 8.10054 28.3838 7.86612C28.1494 7.6317 27.8315 7.5 27.4999 7.5H7.49993V10H26.2499V25.695C25.6803 26.0257 25.1819 26.466 24.7833 26.9903C24.3846 27.5146 24.0938 28.1127 23.9274 28.75H16.0724C15.7682 27.5717 15.0446 26.5448 14.0374 25.8617C13.0302 25.1787 11.8084 24.8865 10.6012 25.0399C9.39391 25.1932 8.28401 25.7816 7.47953 26.6947C6.67504 27.6078 6.2312 28.783 6.2312 30C6.2312 31.217 6.67504 32.3922 7.47953 33.3053C8.28401 34.2184 9.39391 34.8068 10.6012 34.9601C11.8084 35.1135 13.0302 34.8213 14.0374 34.1383C15.0446 33.4552 15.7682 32.4283 16.0724 31.25H23.9274C24.1993 32.3228 24.8212 33.2743 25.6947 33.954C26.5681 34.6336 27.6432 35.0027 28.7499 35.0027C29.8567 35.0027 30.9318 34.6336 31.8052 33.954C32.6786 33.2743 33.3005 32.3228 33.5724 31.25H36.2499C36.5815 31.25 36.8994 31.1183 37.1338 30.8839C37.3682 30.6495 37.4999 30.3315 37.4999 30V21.25C37.5 21.0807 37.4655 20.9131 37.3987 20.7575ZM11.2499 32.5C10.7555 32.5 10.2721 32.3534 9.861 32.0787C9.44988 31.804 9.12945 31.4135 8.94023 30.9567C8.75101 30.4999 8.7015 29.9972 8.79797 29.5123C8.89443 29.0273 9.13253 28.5819 9.48216 28.2322C9.83179 27.8826 10.2773 27.6445 10.7622 27.548C11.2472 27.4516 11.7498 27.5011 12.2066 27.6903C12.6635 27.8795 13.0539 28.2 13.3286 28.6111C13.6033 29.0222 13.7499 29.5055 13.7499 30C13.7493 30.6628 13.4857 31.2983 13.017 31.767C12.5483 32.2357 11.9128 32.4993 11.2499 32.5ZM28.7499 13.75H31.6749L34.3549 20H28.7499V13.75ZM28.7499 32.5C28.2555 32.5 27.7721 32.3534 27.361 32.0787C26.9499 31.804 26.6295 31.4135 26.4402 30.9567C26.251 30.4999 26.2015 29.9972 26.298 29.5123C26.3944 29.0273 26.6325 28.5819 26.9822 28.2322C27.3318 27.8826 27.7773 27.6445 28.2622 27.548C28.7472 27.4516 29.2498 27.5011 29.7066 27.6903C30.1635 27.8795 30.5539 28.2 30.8286 28.6111C31.1033 29.0222 31.2499 29.5055 31.2499 30C31.2493 30.6628 30.9857 31.2983 30.517 31.767C30.0483 32.2357 29.4128 32.4993 28.7499 32.5ZM34.9999 28.75H33.5724C33.2971 27.6793 32.6742 26.7302 31.8015 26.0516C30.9287 25.3729 29.8555 25.0031 28.7499 25V22.5H34.9999V28.75Z" fill="#F54E37"/>
</svg>
