<svg width="40" height="40" viewBox="0 0 40 40" fill="none" xmlns="http://www.w3.org/2000/svg">
<path d="M17.4995 12.5C17.4995 10.875 17.8955 9.27447 18.6532 7.83692C19.4109 6.39938 20.5075 5.16815 21.8481 4.24978C23.1887 3.33142 24.7329 2.7536 26.3471 2.56633C27.9613 2.37905 29.5968 2.58797 31.112 3.17501C31.3056 3.25026 31.4774 3.37257 31.6119 3.53088C31.7464 3.6892 31.8393 3.87852 31.8822 4.08175C31.9251 4.28498 31.9167 4.4957 31.8578 4.69488C31.7988 4.89405 31.6912 5.07539 31.5445 5.22251L26.7695 10L29.9995 13.2325L34.7745 8.45751C34.9215 8.31025 35.1028 8.20198 35.3021 8.14252C35.5015 8.08306 35.7125 8.07428 35.9161 8.11698C36.1196 8.15968 36.3094 8.25252 36.468 8.38707C36.6266 8.52161 36.7492 8.69362 36.8245 8.88751C37.4974 10.6229 37.6726 12.5116 37.3305 14.3411C36.9883 16.1707 36.1423 17.8684 34.8877 19.2433C33.6331 20.6182 32.0197 21.6156 30.2291 22.1234C28.4384 22.6312 26.5416 22.6291 24.752 22.1175L12.242 34.8C11.7867 35.2667 11.2439 35.6391 10.6446 35.896C10.0453 36.1529 9.40126 36.2893 8.74928 36.2973C7.43254 36.3135 6.16331 35.8059 5.22079 34.8863C4.27828 33.9666 3.73969 32.7102 3.72352 31.3935C3.70734 30.0768 4.2149 28.8075 5.13454 27.865L17.762 14.78C17.5876 14.0326 17.4995 13.2675 17.4995 12.5ZM27.4995 5.00001C26.3211 4.99956 25.1591 5.27684 24.1078 5.80935C23.0564 6.34186 22.1454 7.11462 21.4485 8.06498C20.7517 9.01534 20.2885 10.1165 20.0967 11.2793C19.9049 12.4421 19.9898 13.6337 20.3445 14.7575C20.4124 14.9721 20.4211 15.2011 20.3696 15.4202C20.3181 15.6394 20.2084 15.8406 20.052 16.0025L6.93204 29.6C6.50139 30.0723 6.27102 30.6934 6.28952 31.3323C6.30802 31.9711 6.57396 32.5779 7.03123 33.0244C7.4885 33.471 8.10134 33.7225 8.74048 33.7259C9.37962 33.7292 9.99509 33.4842 10.457 33.0425L23.5195 19.81C23.6895 19.6383 23.9056 19.5196 24.1416 19.4681C24.3776 19.4166 24.6235 19.4347 24.8495 19.52C26.0403 19.9694 27.3259 20.1083 28.5852 19.9237C29.8445 19.7392 31.0361 19.2372 32.0479 18.465C33.0596 17.6928 33.8582 16.6758 34.3685 15.5098C34.8787 14.3438 35.0838 13.0672 34.9645 11.8L30.882 15.885C30.6476 16.1193 30.3297 16.251 29.9983 16.251C29.6668 16.251 29.349 16.1193 29.1145 15.885L24.1145 10.885C23.8802 10.6506 23.7486 10.3327 23.7486 10.0013C23.7486 9.6698 23.8802 9.35192 24.1145 9.11751L28.1995 5.03251C27.9668 5.01093 27.7333 5.00009 27.4995 5.00001Z" fill="#F54E37"/>
</svg>
