<svg width="40" height="40" viewBox="0 0 40 40" fill="none" xmlns="http://www.w3.org/2000/svg">
<path d="M30.0002 16.6667C31.2839 16.666 32.5404 17.036 33.619 17.7322C34.6975 18.4284 35.5521 19.4211 36.0801 20.5912C36.6081 21.7613 36.7871 23.0589 36.5955 24.3282C36.4039 25.5975 35.85 26.7846 35.0002 27.7467V35.4133C35.0006 35.6274 34.9461 35.8379 34.8418 36.0248C34.7376 36.2117 34.5871 36.3687 34.4047 36.4807C34.2224 36.5928 34.0144 36.6562 33.8006 36.6648C33.5867 36.6735 33.3743 36.627 33.1835 36.53L33.0335 36.4383L30.0002 34.3183L26.9668 36.4383C26.7917 36.5607 26.588 36.636 26.3754 36.6573C26.1628 36.6785 25.9484 36.6449 25.7524 36.5597C25.5565 36.4744 25.3857 36.3404 25.2564 36.1703C25.127 36.0003 25.0434 35.7999 25.0135 35.5883L25.0018 35.4133V27.7433C24.1532 26.7812 23.6002 25.5947 23.4091 24.3261C23.2181 23.0574 23.3972 21.7606 23.9248 20.5913C24.4525 19.4219 25.3064 18.4296 26.384 17.7335C27.4616 17.0373 28.7172 16.6669 30.0002 16.6667ZM32.5002 29.5167C31.7059 29.8379 30.857 30.0026 30.0002 30.0017C29.1434 30.0026 28.2945 29.8379 27.5002 29.5167V33.015L29.2852 31.77C29.4679 31.642 29.6816 31.5651 29.904 31.5476C30.1265 31.53 30.3496 31.5723 30.5502 31.67L30.7168 31.77L32.5002 33.015V29.5167ZM32.0835 5.00668C33.2506 5.00663 34.3738 5.45184 35.224 6.25151C36.0741 7.05117 36.5872 8.14505 36.6585 9.31002L36.6668 9.59002L36.6685 18.3333C35.9926 17.4335 35.1424 16.6791 34.1685 16.115L34.1668 9.59002C34.1671 9.07425 33.976 8.57674 33.6305 8.19374C33.2851 7.81074 32.8099 7.5695 32.2968 7.51668L32.0835 7.50668H7.91683C7.40107 7.50645 6.90355 7.69754 6.52055 8.04297C6.13756 8.38841 5.89631 8.86363 5.8435 9.37668L5.8335 9.59002V25.4233C5.8335 26.5017 6.6535 27.39 7.7035 27.495L7.91683 27.5067L22.7868 27.5083L22.9918 27.8467L23.2152 28.1733L23.3335 28.33L23.3318 30.0067H7.91683C6.74941 30.0067 5.62598 29.5613 4.77579 28.7613C3.9256 27.9612 3.41272 26.8669 3.34183 25.7017L3.3335 25.4233V9.59002C3.33344 8.42287 3.77865 7.29967 4.57832 6.44952C5.37799 5.59937 6.47186 5.08632 7.63683 5.01502L7.91683 5.00668H32.0835ZM30.0002 19.1667C28.8949 19.1667 27.8349 19.6058 27.0533 20.3873C26.2717 21.1689 25.8327 22.2289 25.8327 23.3342C25.8327 24.4395 26.2717 25.4995 27.0533 26.281C27.8349 27.0626 28.8949 27.5017 30.0002 27.5017C31.1055 27.5017 32.1655 27.0626 32.947 26.281C33.7286 25.4995 34.1677 24.4395 34.1677 23.3342C34.1677 22.2289 33.7286 21.1689 32.947 20.3873C32.1655 19.6058 31.1055 19.1667 30.0002 19.1667ZM18.7502 20.8333C19.0669 20.8334 19.3717 20.9538 19.6031 21.17C19.8346 21.3862 19.9753 21.6822 19.9969 21.9981C20.0185 22.3141 19.9193 22.6265 19.7194 22.8722C19.5196 23.1179 19.2339 23.2785 18.9202 23.3217L18.7502 23.3333H11.2502C10.9335 23.3333 10.6286 23.2129 10.3972 22.9967C10.1658 22.7805 10.025 22.4845 10.0035 22.1685C9.98187 21.8526 10.081 21.5402 10.2809 21.2945C10.4807 21.0488 10.7664 20.8882 11.0802 20.845L11.2502 20.8333H18.7502ZM28.7502 11.6667C29.0669 11.6668 29.3717 11.7871 29.6031 12.0033C29.8346 12.2195 29.9753 12.5155 29.9969 12.8315C30.0185 13.1475 29.9193 13.4598 29.7194 13.7055C29.5196 13.9512 29.2339 14.1118 28.9202 14.155L28.7502 14.1667H11.2502C10.9335 14.1666 10.6286 14.0463 10.3972 13.8301C10.1658 13.6138 10.025 13.3179 10.0035 13.0019C9.98187 12.6859 10.081 12.3735 10.2809 12.1279C10.4807 11.8822 10.7664 11.7215 11.0802 11.6783L11.2502 11.6667H28.7502Z" fill="#F54E37"/>
</svg>
