<svg width="28" height="34" viewBox="0 0 28 34" fill="none" xmlns="http://www.w3.org/2000/svg">
<path d="M20.3459 1.83333L20.9319 0.932L20.6653 0.75H20.3459V1.83333ZM26.6921 6.16667H27.7498V5.586L27.278 5.26533L26.6921 6.16667ZM24.5767 26.75H7.6536V28.9167H24.5767V26.75ZM6.59591 25.6667V4H4.48053V25.6667H6.59591ZM7.6536 2.91667H20.3459V0.75H7.6536V2.91667ZM25.6344 6.16667V25.6667H27.7498V6.16667H25.6344ZM19.7599 2.73467L26.1061 7.068L27.278 5.26533L20.9319 0.932L19.7599 2.73467ZM7.6536 26.75C7.37308 26.75 7.10406 26.6359 6.9057 26.4327C6.70735 26.2295 6.59591 25.954 6.59591 25.6667H4.48053C4.48053 26.5286 4.81483 27.3553 5.4099 27.9648C6.00497 28.5743 6.81205 28.9167 7.6536 28.9167V26.75ZM24.5767 28.9167C25.4182 28.9167 26.2253 28.5743 26.8204 27.9648C27.4155 27.3553 27.7498 26.5286 27.7498 25.6667H25.6344C25.6344 25.954 25.5229 26.2295 25.3246 26.4327C25.1262 26.6359 24.8572 26.75 24.5767 26.75V28.9167ZM6.59591 4C6.59591 3.71268 6.70735 3.43713 6.9057 3.23397C7.10406 3.0308 7.37308 2.91667 7.6536 2.91667V0.75C6.81205 0.75 6.00497 1.09241 5.4099 1.7019C4.81483 2.3114 4.48053 3.13805 4.48053 4H6.59591ZM0.249756 8.33333V30H2.36514V8.33333H0.249756ZM3.42283 33.25H20.3459V31.0833H3.42283V33.25ZM3.42283 7.25H5.53822V5.08333H3.42283V7.25ZM23.519 30V27.8333H21.4036V30H23.519ZM20.3459 33.25C21.1875 33.25 21.9945 32.9076 22.5896 32.2981C23.1847 31.6886 23.519 30.862 23.519 30H21.4036C21.4036 30.2873 21.2922 30.5629 21.0938 30.766C20.8955 30.9692 20.6264 31.0833 20.3459 31.0833V33.25ZM0.249756 30C0.249756 30.862 0.584061 31.6886 1.17913 32.2981C1.7742 32.9076 2.58128 33.25 3.42283 33.25V31.0833C3.14232 31.0833 2.87329 30.9692 2.67493 30.766C2.47658 30.5629 2.36514 30.2873 2.36514 30H0.249756ZM2.36514 8.33333C2.36514 8.04602 2.47658 7.77047 2.67493 7.5673C2.87329 7.36414 3.14232 7.25 3.42283 7.25V5.08333C2.58128 5.08333 1.7742 5.42574 1.17913 6.03524C0.584061 6.64473 0.249756 7.47138 0.249756 8.33333H2.36514Z" fill="#F54E37"/>
</svg>
