<svg width="80" height="80" viewBox="0 0 80 80" fill="none" xmlns="http://www.w3.org/2000/svg">
<path d="M63.3751 73.0001H30.375C26.5855 73.0001 23.5 69.9174 23.5 66.1251V24.875C23.5 21.0828 26.5855 18 30.375 18H63.3751C67.1646 18 70.2501 21.0828 70.2501 24.875V66.1251C70.2501 69.9174 67.1646 73.0001 63.3751 73.0001ZM30.375 20.75C28.1008 20.75 26.25 22.6008 26.25 24.875V66.1251C26.25 68.3994 28.1008 70.2501 30.375 70.2501H63.3751C65.6493 70.2501 67.5001 68.3994 67.5001 66.1251V24.875C67.5001 22.6008 65.6493 20.75 63.3751 20.75H30.375Z" fill="#F54E37"/>
<path d="M19.375 64.7501H16.625C12.8355 64.7501 9.75 61.6674 9.75 57.8751V13.875C9.75 10.0828 12.8355 7 16.625 7H49.6251C53.4146 7 56.5001 10.0828 56.5001 13.875C56.5001 14.634 55.8841 15.25 55.1251 15.25C54.3661 15.25 53.7501 14.634 53.7501 13.875C53.7501 11.6008 51.8993 9.75001 49.6251 9.75001H16.625C14.3508 9.75001 12.5 11.6008 12.5 13.875V57.8751C12.5 60.1494 14.3508 62.0001 16.625 62.0001H19.375C20.134 62.0001 20.75 62.6161 20.75 63.3751C20.75 64.1341 20.134 64.7501 19.375 64.7501Z" fill="#F54E37"/>
<path d="M57.8751 53.75H35.8751C35.1161 53.75 34.5001 53.134 34.5001 52.375C34.5001 51.616 35.1161 51 35.8751 51H57.8751C58.6341 51 59.2501 51.616 59.2501 52.375C59.2501 53.134 58.6341 53.75 57.8751 53.75Z" fill="#F54E37"/>
<path d="M57.8751 64.7502H35.8751C35.1161 64.7502 34.5001 64.1342 34.5001 63.3752C34.5001 62.6162 35.1161 62.0002 35.8751 62.0002H57.8751C58.6341 62.0002 59.2501 62.6162 59.2501 63.3752C59.2501 64.1342 58.6341 64.7502 57.8751 64.7502Z" fill="#F54E37"/>
<path d="M57.8751 42.75H35.8751C35.1161 42.75 34.5001 42.134 34.5001 41.375C34.5001 40.616 35.1161 40 35.8751 40H57.8751C58.6341 40 59.2501 40.616 59.2501 41.375C59.2501 42.134 58.6341 42.75 57.8751 42.75Z" fill="#F54E37"/>
<path d="M57.8751 31.75H35.8751C35.1161 31.75 34.5001 31.134 34.5001 30.375C34.5001 29.616 35.1161 29 35.8751 29H57.8751C58.6341 29 59.2501 29.616 59.2501 30.375C59.2501 31.134 58.6341 31.75 57.8751 31.75Z" fill="#F54E37"/>
</svg>
