<svg width="80" height="80" viewBox="0 0 80 80" fill="none" xmlns="http://www.w3.org/2000/svg">
<path d="M49.5398 3C44.3496 3 39.2943 4.45687 34.9204 7.21292C34.2451 7.63857 34.0426 8.5309 34.4682 9.20629C34.8937 9.88183 35.7863 10.0843 36.4615 9.65853C40.3735 7.19356 44.8959 5.89061 49.5399 5.89061C63.0877 5.89061 74.1097 16.9128 74.1097 30.4608C74.1097 44.0089 63.0877 55.031 49.5399 55.031C35.9921 55.031 24.9701 44.0089 24.9701 30.4608C24.9701 25.816 26.273 21.2935 28.7381 17.3824C29.1637 16.707 28.9612 15.8145 28.286 15.389C27.6108 14.9632 26.7182 15.1657 26.2927 15.8411C23.5364 20.2146 22.0795 25.2699 22.0795 30.4608C22.0795 36.4704 24.0214 42.0341 27.3084 46.5607L24.8367 49.0324C23.2253 48.2648 21.2349 48.5464 19.9028 49.8785L4.26786 65.5136C2.57745 67.2041 2.57731 69.9548 4.26786 71.6456L8.3557 75.7335C9.17242 76.5501 10.2613 77 11.4216 77C12.582 77 13.6709 76.5502 14.4875 75.7335L30.1221 60.0986C30.9387 59.2818 31.3886 58.1929 31.3886 57.0325C31.3886 56.3742 31.2435 55.7391 30.9692 55.1636L33.44 52.6925C37.9665 55.9797 43.5301 57.9215 49.5396 57.9215C64.6814 57.9215 77 45.6027 77 30.4607C77 15.3186 64.6816 3 49.5398 3ZM28.0783 58.0546L12.4437 73.6894C12.173 73.9601 11.8101 74.1092 11.4217 74.1092C11.0334 74.1092 10.6705 73.9601 10.3998 73.6894L6.31192 69.6015C5.7484 69.0381 5.7484 68.121 6.31192 67.5575L21.9466 51.9225C22.2282 51.6408 22.5982 51.4999 22.9684 51.4999C23.3385 51.4999 23.7087 51.6408 23.9903 51.9225L28.0783 56.0105C28.349 56.2812 28.498 56.6442 28.498 57.0324C28.498 57.4206 28.3492 57.7838 28.0783 58.0546ZM29.1003 52.9446L27.0564 50.9005L29.137 48.8198C29.7823 49.5363 30.4645 50.2185 31.1809 50.8638L29.1003 52.9446Z" fill="#F54E37"/>
<path d="M66.6531 41.3576C67.3545 41.7378 68.232 41.4772 68.6123 40.7756C70.3177 37.6284 71.219 34.0615 71.219 30.4608C71.219 18.5067 61.4937 8.78123 49.5398 8.78123C37.5858 8.78123 27.8605 18.5067 27.8605 30.4608C27.8605 42.415 37.5858 52.1404 49.5398 52.1404C53.1407 52.1404 56.7075 51.239 59.8543 49.5335C60.556 49.1531 60.8167 48.276 60.4363 47.5741C60.0561 46.8723 59.1784 46.612 58.477 46.9921C55.7516 48.4692 52.6611 49.2498 49.5396 49.2498C39.1795 49.2498 30.7509 40.8212 30.7509 30.4608C30.7509 20.1004 39.1795 11.6718 49.5396 11.6718C59.8998 11.6718 68.3283 20.1004 68.3283 30.4608C68.3283 33.5821 67.5477 36.6726 66.0708 39.3983C65.6905 40.1002 65.9512 40.9773 66.6531 41.3576Z" fill="#F54E37"/>
<path d="M64.6771 31.2964C65.0318 30.7957 65.0318 30.1258 64.6771 29.6252C61.5356 25.1911 55.7354 22.4366 49.5399 22.4366C43.3444 22.4366 37.5441 25.1912 34.4026 29.6252C34.0479 30.1258 34.0479 30.7957 34.4026 31.2964C37.5441 35.7304 43.3444 38.4847 49.5399 38.4847C55.7354 38.4847 61.5356 35.7304 64.6771 31.2964ZM54.6733 30.4607C54.6733 33.2913 52.3703 35.5943 49.5398 35.5943C46.7093 35.5943 44.4064 33.2913 44.4064 30.4607C44.4064 27.6302 46.7093 25.3272 49.5398 25.3272C52.3703 25.3272 54.6733 27.6302 54.6733 30.4607ZM37.4122 30.4608C38.712 28.9389 40.4265 27.7013 42.3918 26.8224C41.8332 27.9154 41.516 29.1514 41.516 30.4607C41.516 31.7701 41.8334 33.0062 42.392 34.0992C40.4265 33.2204 38.712 31.9827 37.4122 30.4608ZM56.6878 34.0991C57.2464 33.006 57.5638 31.7701 57.5638 30.4605C57.5638 29.1512 57.2466 27.9152 56.688 26.8223C58.6531 27.7012 60.3677 28.9388 61.6674 30.4607C60.3675 31.9827 58.6531 33.2202 56.6878 34.0991Z" fill="#F54E37"/>
<path d="M49.5392 31.9062H49.5404C50.3385 31.9062 50.9851 31.259 50.9851 30.4609C50.9851 29.6627 50.3375 29.0155 49.5392 29.0155C48.741 29.0155 48.0939 29.6627 48.0939 30.4609C48.0939 31.259 48.7411 31.9062 49.5392 31.9062Z" fill="#F54E37"/>
</svg>
