<svg width="80" height="80" viewBox="0 0 80 80" fill="none" xmlns="http://www.w3.org/2000/svg">
<path fill-rule="evenodd" clip-rule="evenodd" d="M11.2542 6.19464C8.80628 6.77672 6.85164 8.68663 6.20267 11.1305C6.02712 11.7918 6.00098 15.5718 6.00098 40.3336C6.00098 71.852 5.93474 69.563 6.89187 71.1083C7.41555 71.954 8.35494 72.8348 9.16808 73.2426C10.4406 73.8808 10.4059 73.8788 19.8304 73.8803C28.5635 73.8817 28.7198 73.8772 28.9624 73.6143C29.3005 73.2477 29.2768 72.6048 28.912 72.2467L28.6149 71.9552L19.7123 71.8888C11.5611 71.8279 10.7692 71.8025 10.3303 71.588C9.53815 71.2008 8.92697 70.6285 8.50231 69.8767L8.10055 69.1651V40.3336V11.5022L8.39544 10.8761C8.80655 10.0032 9.34092 9.37832 10.1324 8.84501C11.4872 7.93197 10.1528 7.98126 33.5436 7.98126H54.6628L54.4386 8.2802C53.4984 9.53391 53.0881 11.2294 53.1618 13.5564C53.2138 15.1988 53.3899 15.5545 54.1508 15.5545C55.0344 15.5545 55.0952 15.4081 55.1826 13.0742C55.2464 11.3653 55.3126 10.8572 55.5354 10.366C56.9274 7.29794 61.3833 7.25237 62.7817 10.2922C63.0756 10.9312 63.0965 11.1622 63.1391 14.2591L63.1844 17.5475L48.3076 17.5504C34.1927 17.5532 33.403 17.5657 32.8861 17.796C31.7393 18.307 31.03 19.3443 30.8531 20.7694L30.7583 21.5334H27.9908C25.2332 21.5334 25.2222 21.5346 24.891 21.8596C24.7082 22.0389 24.5585 22.3405 24.5585 22.5299C24.5585 22.7192 24.7082 23.0208 24.891 23.2001C25.2224 23.5253 25.2322 23.5263 28.0065 23.5263H30.7895V28.3094V33.0925H28.0065C25.2322 33.0925 25.2224 33.0936 24.891 33.4187C24.4672 33.8343 24.4672 34.3437 24.891 34.7593C25.2224 35.0844 25.2322 35.0855 28.0065 35.0855H30.7895V41.0644V47.0432H28.236C26.721 47.0432 25.5079 47.1029 25.2531 47.19C24.5131 47.4431 24.3187 48.2374 24.8719 48.7473C25.173 49.0246 25.297 49.0362 27.9874 49.0362H30.7895V55.2144V61.3925H28.0065C25.2322 61.3925 25.2224 61.3936 24.891 61.7187C24.4922 62.1097 24.4653 62.5787 24.8172 63.0054C25.0721 63.3144 25.1176 63.3196 27.9223 63.3596L30.7686 63.4002L30.8151 67.4119C30.8556 70.9111 30.8924 71.4916 31.1033 71.9552C31.4067 72.6223 32.0512 73.2885 32.7536 73.6609L33.2954 73.9482L52.1848 73.9832C72.9596 74.0218 71.7556 74.0665 72.8068 73.2166C73.0771 72.998 73.4561 72.5084 73.6492 72.1286L74 71.438V52.3567C74 33.3377 73.9991 33.2745 73.7238 32.9848C73.3234 32.5632 72.6116 32.5918 72.249 33.044L71.9682 33.3941V52.1831C71.9682 72.8603 72.0223 71.5724 71.1393 71.8744C70.8322 71.9794 65.4355 72.0215 52.3407 72.0211C34.3665 72.0207 33.9633 72.0151 33.5394 71.7615C33.2399 71.5824 33.0616 71.3406 32.9623 70.9788C32.8628 70.6161 32.8293 62.7476 32.8538 45.3855L32.889 20.3158L33.3314 19.9281L33.7738 19.5404H52.478H71.1822L71.5752 19.9531L71.9682 20.3658V24.9957C71.9682 28.1059 72.0175 29.7319 72.1185 29.9494C72.2693 30.2737 72.7515 30.5681 73.1321 30.5681C73.2438 30.5681 73.4846 30.4213 73.6675 30.2419L74 29.9159L73.9986 25.027C73.9974 20.1732 73.9951 20.1335 73.6784 19.4665C73.3103 18.691 72.4046 17.8708 71.7061 17.6806C71.4404 17.6082 69.8729 17.5487 68.2225 17.5483L65.222 17.5475L65.1592 14.1262C65.0901 10.3553 65.0277 10.0021 64.21 8.75187C63.3537 7.44263 62.0731 6.53862 60.5879 6.1953C59.8162 6.017 56.8084 5.99335 35.8691 6.00132C16.033 6.0089 11.8987 6.04131 11.2542 6.19464ZM16.7095 20.4028L15.2673 21.7968L14.6014 21.1336C14.0704 20.6049 13.8451 20.4705 13.4901 20.4705C12.9139 20.4705 12.5029 20.8701 12.5029 21.4304C12.5029 21.7937 12.6863 22.0361 13.7086 23.0248C14.6404 23.9257 14.9996 24.1906 15.2898 24.1906C15.5913 24.1906 16.0471 23.8192 17.6059 22.3033C19.3212 20.6352 19.5466 20.3651 19.5466 19.9782C19.5466 19.4167 19.1391 19.009 18.5782 19.009C18.2185 19.009 17.9256 19.2274 16.7095 20.4028ZM36.8173 21.0873C36.6683 21.1191 36.4139 21.1726 36.252 21.2064C35.7897 21.3025 35.1092 21.9363 34.8369 22.5244C34.6127 23.0083 34.5882 23.4677 34.5882 27.1801C34.5882 31.832 34.6265 32.0424 35.6067 32.7758L36.1189 33.159H52.2593H68.3997L68.9132 32.7747C69.9153 32.0251 69.9522 31.8083 69.9077 26.9287L69.8686 22.6205L69.4479 22.1101C69.2165 21.8295 68.8203 21.4802 68.5674 21.3341C68.1154 21.0729 67.8457 21.0681 52.5979 21.0489C44.0676 21.0382 36.9663 21.0555 36.8173 21.0873ZM67.6425 23.1324C67.892 23.2634 67.9045 23.4486 67.9045 27.041C67.9045 29.1151 67.8675 30.9066 67.8223 31.0222C67.7479 31.2122 66.2507 31.2324 52.2593 31.2324C38.2679 31.2324 36.7707 31.2122 36.6963 31.0222C36.6511 30.9066 36.6141 29.116 36.6141 27.043C36.6141 23.5934 36.6341 23.2623 36.8511 23.1384C37.1829 22.9488 67.2816 22.9431 67.6425 23.1324ZM12.3921 29.9078C12.1172 30.0723 11.8374 30.41 11.6717 30.7774C11.4223 31.3304 11.4042 31.6134 11.4439 34.328C11.4853 37.1697 11.4985 37.2937 11.8024 37.7115C12.3785 38.5038 12.5644 38.5399 16.0656 38.5399C19.1358 38.5399 19.2501 38.5305 19.6959 38.2383C20.5606 37.6717 20.6298 37.3642 20.6298 34.089C20.6298 30.8138 20.5606 30.5063 19.6959 29.9397C19.2498 29.6474 19.1373 29.6381 16.0386 29.6386C13.0684 29.639 12.8097 29.6581 12.3921 29.9078ZM18.5984 34.089V36.547H16.0247H13.4511V34.089V31.631H16.0247H18.5984V34.089ZM35.9845 35.3634C35.44 35.5182 34.7558 36.2791 34.6463 36.8519C34.5996 37.0957 34.5813 38.1691 34.6057 39.2371C34.6565 41.4611 34.7505 41.6953 35.8093 42.2342C36.3747 42.522 36.5385 42.5379 38.5347 42.4999C40.8866 42.455 41.0847 42.3909 41.7276 41.4643C42.0121 41.0541 42.0323 40.8849 42.0323 38.9037C42.0323 36.9691 42.0063 36.7371 41.7365 36.2661C41.234 35.3892 40.671 35.2162 38.3661 35.2303C37.2907 35.2369 36.219 35.2969 35.9845 35.3634ZM45.0266 35.5117C44.0123 36.042 43.9118 36.3701 43.9574 39.005C43.9923 41.0217 44.0254 41.3015 44.2674 41.6179C44.8315 42.3554 45.1813 42.4556 47.3639 42.5051C49.718 42.5585 50.3346 42.4073 50.9409 41.6276C51.3108 41.1519 51.3111 41.1495 51.3111 38.8825C51.3111 36.75 51.2929 36.5884 51.0098 36.1991C50.3962 35.3553 50.1727 35.289 47.7892 35.2427C45.7329 35.2025 45.5914 35.2164 45.0266 35.5117ZM54.6528 35.3135C54.191 35.3998 53.332 36.3016 53.2286 36.8086C53.1797 37.0483 53.1397 38.0315 53.1397 38.9934C53.1397 40.5438 53.1743 40.8093 53.4445 41.3321C53.9675 42.3441 54.3243 42.4594 56.9325 42.4594C59.3703 42.4594 59.6644 42.3849 60.2512 41.6179C60.4931 41.3015 60.5263 41.0217 60.5611 39.005C60.6066 36.3763 60.5044 36.0393 59.5044 35.5206C58.9694 35.2431 58.7602 35.2198 56.9451 35.2364C55.8579 35.2464 54.8263 35.2811 54.6528 35.3135ZM63.8409 35.363C63.6547 35.4384 63.3594 35.631 63.1845 35.791C62.5533 36.3692 62.4862 36.6687 62.4862 38.9122C62.4862 40.8846 62.5065 41.0543 62.791 41.4643C63.4339 42.3909 63.6319 42.455 65.9838 42.4999C67.9801 42.5379 68.1438 42.522 68.7092 42.2342C69.8121 41.6729 69.8686 41.509 69.8686 38.8721C69.8686 36.7507 69.8462 36.5372 69.5893 36.1995C68.9327 35.337 68.7639 35.2874 66.3711 35.2554C65.1017 35.2385 64.0369 35.2837 63.8409 35.363ZM40.0005 38.8721V40.5329H38.3073H36.6141V38.8721V37.2113H38.3073H40.0005V38.8721ZM49.3173 38.8389L49.2792 40.4665L47.6199 40.5038L45.9606 40.5411V38.8762V37.2113H47.658H49.3554L49.3173 38.8389ZM58.558 38.8762V40.5411L56.8987 40.5038L55.2393 40.4665L55.2013 38.8389L55.1632 37.2113H56.8606H58.558V38.8762ZM67.9045 38.8721V40.5329H66.2113H64.5181V38.8721V37.2113H66.2113H67.9045V38.8721ZM12.4679 43.8843C12.1518 44.064 11.8538 44.3865 11.6817 44.7351C11.4234 45.2585 11.4074 45.4993 11.4458 48.2863C11.491 51.5692 11.501 51.6104 12.4196 52.2831C12.773 52.5419 12.9726 52.5571 16.0247 52.5571C19.0768 52.5571 19.2765 52.5419 19.6299 52.2831C20.5529 51.6072 20.559 51.5812 20.598 48.1964C20.6324 45.207 20.6244 45.1016 20.3271 44.5991C19.7669 43.6527 19.4926 43.5884 16.0269 43.5918C13.1429 43.5947 12.9493 43.6106 12.4679 43.8843ZM35.5697 44.7799C34.7564 45.2662 34.5822 45.8447 34.5822 48.0588C34.5822 50.3616 34.7578 50.9112 35.6504 51.4033C36.1296 51.6674 36.3681 51.6935 38.3053 51.6935C40.6836 51.6935 41.1283 51.5813 41.6625 50.8467C41.9412 50.4635 41.9676 50.2611 42.0029 48.239C42.0463 45.7626 41.9436 45.3745 41.098 44.8204C40.6642 44.5362 40.5045 44.5188 38.3211 44.5193C36.2604 44.5197 35.9564 44.5486 35.5697 44.7799ZM44.9096 44.7839C44.0309 45.3094 43.9298 45.6533 43.9293 48.1197C43.9287 50.1922 43.9473 50.3529 44.2362 50.777C44.783 51.58 45.2065 51.6931 47.6676 51.6932C49.7067 51.6935 49.8778 51.6739 50.2965 51.3945C51.2407 50.7642 51.3065 50.5693 51.3542 48.2628C51.3951 46.2899 51.3806 46.1487 51.0799 45.5957C50.5535 44.6274 50.201 44.5187 47.5882 44.5193C45.5948 44.5197 45.3029 44.5486 44.9096 44.7839ZM54.2581 44.7374C54.0164 44.8542 53.6812 45.1667 53.5131 45.4319C53.2278 45.8819 53.2075 46.061 53.2075 48.1297C53.2075 50.1602 53.2308 50.376 53.4868 50.7123C54.1448 51.5768 54.3063 51.6236 56.7727 51.6646C59.3243 51.7071 59.7164 51.608 60.2824 50.777C60.5713 50.3529 60.5898 50.1922 60.5893 48.1197C60.5888 45.6533 60.4877 45.3094 59.609 44.7839C59.2151 44.5482 58.927 44.5201 56.9325 44.5224C55.1617 44.5244 54.6062 44.569 54.2581 44.7374ZM63.4206 44.8204C62.5749 45.3745 62.4723 45.7626 62.5156 48.239C62.551 50.2611 62.5774 50.4635 62.856 50.8467C63.3903 51.5813 63.835 51.6935 66.2133 51.6935C68.1505 51.6935 68.389 51.6674 68.8681 51.4033C69.7639 50.9094 69.9363 50.3646 69.9363 48.0289C69.9363 45.7958 69.8099 45.3679 68.9883 44.8178C68.5678 44.5364 68.4054 44.5188 66.2113 44.5188C64.0139 44.5188 63.8546 44.5361 63.4206 44.8204ZM18.5984 48.1061V50.6306H16.0247H13.4511V48.1061V45.5817H16.0247H18.5984V48.1061ZM40.0005 48.1061V49.7005H38.3073H36.6141V48.1061V46.5118H38.3073H40.0005V48.1061ZM49.347 48.1061V49.7005H47.6538H45.9606V48.1061V46.5118H47.6538H49.347V48.1061ZM58.558 48.1061V49.7005H56.8648H55.1716V48.1061V46.5118H56.8648H58.558V48.1061ZM67.9045 48.1061V49.7005H66.2113H64.5181V48.1061V46.5118H66.2113H67.9045V48.1061ZM35.8623 53.8734C35.3161 54.1067 34.7487 54.784 34.645 55.3268C34.599 55.5668 34.5813 56.6263 34.6057 57.6811C34.6463 59.4385 34.6764 59.6351 34.9654 60.0327C35.5499 60.8365 35.8899 60.9275 38.3073 60.9275C40.231 60.9275 40.5263 60.8976 40.9345 60.6618C41.8904 60.1096 41.9601 59.8987 42.0038 57.4305C42.0487 54.8867 41.9406 54.5152 41.0023 53.9875C40.5177 53.715 40.3031 53.6911 38.375 53.6939C36.9331 53.6959 36.1461 53.7521 35.8623 53.8734ZM45.0167 53.9272C44.0669 54.4351 44.0013 54.6363 43.9542 57.1847C43.9135 59.3871 43.9233 59.4851 44.2256 59.9253C44.8382 60.8168 45.2166 60.9275 47.6538 60.9275C50.1868 60.9275 50.5501 60.8075 51.0815 59.7951C51.3747 59.2363 51.3911 59.0741 51.3524 57.1171C51.3074 54.847 51.2503 54.6658 50.379 54.0268C50.0424 53.78 49.7815 53.749 47.7459 53.7145C45.7403 53.6803 45.4336 53.7042 45.0167 53.9272ZM54.4198 53.8734C53.8098 54.1339 53.305 54.7961 53.2018 55.4708C53.1525 55.7938 53.1335 56.8249 53.1598 57.762C53.2366 60.5065 53.6199 60.8868 56.3935 60.9716C58.4679 61.035 59.4632 60.8628 59.9436 60.3575C60.5476 59.722 60.5898 59.5182 60.5898 57.2357C60.5898 55.1919 60.5706 55.0267 60.2851 54.6163C59.7186 53.8024 59.2962 53.6858 56.9347 53.6916C55.4953 53.6952 54.7028 53.7525 54.4198 53.8734ZM63.5162 53.9828C62.4602 54.5862 62.4862 54.3922 62.4862 61.6698V68.1292L62.791 68.5685C63.452 69.5211 63.598 69.5636 66.2113 69.5636C68.7881 69.5636 68.9203 69.5279 69.5893 68.6489C69.8626 68.2897 69.8686 68.1409 69.8686 61.6582C69.8686 55.1756 69.8626 55.0267 69.5893 54.6676C68.9308 53.8027 68.7702 53.7562 66.3034 53.7171C64.1651 53.6832 64.0157 53.6974 63.5162 53.9828ZM40.0005 57.2737V58.8681H38.3073H36.6141V57.2737V55.6794H38.3073H40.0005V57.2737ZM49.347 57.2737V58.8681H47.6538H45.9606V57.2737V55.6794H47.6538H49.347V57.2737ZM58.558 57.2737V58.8681H56.8648H55.1716V57.2737V55.6794H56.8648H58.558V57.2737ZM67.9045 61.6582V67.6371H66.2113H64.5181V61.6582V55.6794H66.2113H67.9045V61.6582ZM13.1802 57.923C12.5041 58.0638 12.16 58.2746 11.8012 58.7682C11.4982 59.1849 11.4855 59.3072 11.447 62.1897C11.4084 65.0865 11.4168 65.1973 11.7179 65.7672C12.2528 66.7791 12.4956 66.8399 15.9932 66.8399C19.3599 66.8399 19.691 66.7763 20.2376 66.0246C20.559 65.5825 20.5625 65.5429 20.5625 62.3655C20.5625 59.3075 20.5488 59.1353 20.2774 58.7782C19.6451 57.946 19.3419 57.874 16.3634 57.848C14.8734 57.835 13.4409 57.8687 13.1802 57.923ZM18.5984 62.389V64.847H16.0247H13.4511V62.389V59.931H16.0247H18.5984V62.389ZM35.9845 62.4677C35.44 62.6224 34.7558 63.3834 34.6463 63.9561C34.5996 64.1999 34.5813 65.2733 34.6057 66.3413C34.6539 68.4534 34.7222 68.6596 35.5826 69.2897C35.9268 69.5417 36.1445 69.5636 38.3073 69.5636C40.9205 69.5636 41.0665 69.5211 41.7276 68.5685C42.0121 68.1583 42.0323 67.9891 42.0323 66.0079C42.0323 64.0733 42.0063 63.8413 41.7365 63.3703C41.234 62.4934 40.671 62.3204 38.3661 62.3345C37.2907 62.3412 36.219 62.4011 35.9845 62.4677ZM45.0266 62.6159C44.0123 63.1462 43.9118 63.4744 43.9574 66.1092C44.0017 68.6697 44.0704 68.8674 45.089 69.3624C45.5653 69.5939 45.9038 69.6297 47.595 69.6272C49.8262 69.6238 50.422 69.4579 50.9859 68.6824C51.2986 68.2523 51.3111 68.148 51.3111 65.9763C51.3111 63.8545 51.2928 63.6925 51.0098 63.3034C50.3962 62.4595 50.1727 62.3933 47.7892 62.3469C45.7329 62.3068 45.5914 62.3206 45.0266 62.6159ZM54.6528 62.4177C54.191 62.5041 53.332 63.4058 53.2286 63.9128C53.1797 64.1525 53.1397 65.1357 53.1397 66.0976C53.1397 68.2444 53.3639 68.8415 54.3537 69.3311C54.8984 69.6006 55.1541 69.6301 56.94 69.6301C58.7405 69.6301 58.9751 69.6024 59.5044 69.3278C60.472 68.826 60.5898 68.4619 60.5898 65.9763C60.5898 63.4907 60.472 63.1267 59.5044 62.6248C58.9694 62.3473 58.7602 62.324 56.9451 62.3406C55.8579 62.3506 54.8263 62.3853 54.6528 62.4177ZM40.0005 65.9763V67.6371H38.3073H36.6141V65.9763V64.3155H38.3073H40.0005V65.9763ZM49.3173 65.9431L49.2792 67.5707L47.6199 67.608L45.9606 67.6454V65.9804V64.3155H47.658H49.3554L49.3173 65.9431ZM58.558 65.9804V67.6454L56.8987 67.608L55.2393 67.5707L55.2013 65.9431L55.1632 64.3155H56.8606H58.558V65.9804Z" fill="#F54E37"/>
</svg>
