<svg width="83" height="80" viewBox="0 0 83 80" fill="none" xmlns="http://www.w3.org/2000/svg">
<path d="M73.8333 5H6.16667C5.52237 5 5 5.53228 5 6.18878V53.74C5 54.3965 5.52237 54.9288 6.16667 54.9288H27.2332C27.2682 55.3247 27.3253 55.7146 27.3942 56.1009L20.995 63.872C20.5805 64.3747 20.6446 65.1245 21.1379 65.5468C21.2769 65.6659 21.4414 65.7501 21.618 65.7931L28.6623 67.5073L31.5428 74.2833C31.7989 74.8857 32.4858 75.1627 33.077 74.9018C33.2435 74.8284 33.3908 74.7163 33.5075 74.5746L39.8962 66.8166C39.9312 66.8166 39.965 66.8166 40 66.8166C40.035 66.8166 40.0688 66.8166 40.1038 66.8166L46.4925 74.5746C46.9064 75.0777 47.6423 75.1437 48.136 74.722C48.275 74.6033 48.385 74.453 48.4572 74.2833L51.3377 67.5073L58.382 65.7931C59.0088 65.6409 59.396 64.9998 59.2466 64.3612C59.2045 64.1812 59.1218 64.0136 59.005 63.872L52.6058 56.1009C52.6747 55.7146 52.7318 55.3247 52.7668 54.9288H73.8333C74.4776 54.9288 75 54.3965 75 53.74V6.18878C75 5.53213 74.4776 5 73.8333 5ZM32.9335 71.5717L30.571 66.0201C30.425 65.6769 30.129 65.4236 29.7718 65.3366L23.9968 63.9302L28.1852 58.8434C28.2073 58.8958 28.2365 58.9433 28.2587 58.9956C28.4103 59.3522 28.5748 59.6911 28.7568 60.0275C28.8315 60.1678 28.9108 60.3056 28.9902 60.4424C29.1504 60.7141 29.3199 60.9804 29.4988 61.2412C29.6237 61.4231 29.7543 61.5979 29.8885 61.7762C30.0448 61.9783 30.2058 62.1756 30.375 62.3706C30.5442 62.5655 30.7413 62.7807 30.9362 62.978C31.0797 63.1242 31.2278 63.2657 31.3795 63.4048C31.5055 63.5237 31.6187 63.6485 31.7505 63.7614C31.8823 63.8744 32.006 63.9504 32.132 64.0503C32.1892 64.0955 32.2382 64.1478 32.2965 64.1918C32.4015 64.2726 32.5123 64.3427 32.6197 64.42C32.7877 64.5389 32.9533 64.6673 33.1272 64.7767C33.4585 64.993 33.8003 65.1903 34.1468 65.371C34.2798 65.44 34.4152 65.503 34.5505 65.5672C34.8616 65.7162 35.1747 65.8518 35.4897 65.9738C35.5807 66.0082 35.6705 66.0475 35.7615 66.0796C36.2034 66.2378 36.6537 66.3708 37.1102 66.4778L37.123 66.4814L32.9335 71.5717ZM42.191 64.187C41.6559 64.3022 41.113 64.375 40.567 64.4046H40.5518C40.3675 64.4141 40.1832 64.4272 39.9977 64.4272C39.8122 64.4272 39.6278 64.4141 39.4435 64.4046H39.4283C38.8835 64.3748 38.3417 64.3025 37.8078 64.1882L37.7098 64.168C37.5022 64.1216 37.2968 64.0646 37.0938 64.0051C37.0087 63.9802 36.9223 63.9576 36.8383 63.9302C36.6925 63.8839 36.549 63.8292 36.4055 63.7769C36.262 63.7246 36.1255 63.6735 35.9878 63.6152C35.9027 63.5784 35.8187 63.5391 35.7347 63.4963C35.5433 63.4084 35.3532 63.3192 35.1677 63.2205L35.0743 63.1682C34.5934 62.9061 34.1331 62.6064 33.6977 62.2719C33.455 62.0876 33.231 61.8843 33.0105 61.6834C32.7498 61.4464 32.5008 61.196 32.265 60.9333C32.1717 60.8311 32.0713 60.7336 31.9827 60.6278C31.6569 60.2373 31.3597 59.8229 31.0937 59.3879C31.054 59.3237 31.0202 59.256 30.977 59.1894C30.7289 58.7671 30.5106 58.3272 30.3237 57.8734C30.3073 57.833 30.2887 57.7926 30.2735 57.7545C30.0669 57.2344 29.9006 56.6987 29.7765 56.152C29.7765 56.1306 29.7602 56.114 29.7543 56.0926C29.5849 55.3203 29.4996 54.5313 29.5 53.74C29.4965 47.831 34.1947 43.0382 39.9936 43.0344C45.7926 43.0309 50.4964 47.8181 50.5 53.7269C50.5004 54.5273 50.4128 55.3251 50.2387 56.1055C50.2328 56.1257 50.2212 56.1436 50.2165 56.1638C50.0925 56.7099 49.9267 57.2453 49.7207 57.7651C49.7043 57.8067 49.6857 57.8483 49.6682 57.8839C49.4818 58.3349 49.2642 58.772 49.0172 59.1916C48.9787 59.2582 48.9437 59.3283 48.9005 59.3949C48.6345 59.8292 48.3377 60.2432 48.0127 60.6336C47.9252 60.7382 47.826 60.8333 47.7338 60.9356C47.4948 61.2007 47.2428 61.4534 46.979 61.6928C46.7573 61.8937 46.5368 62.097 46.2953 62.2801C46.0538 62.4631 45.838 62.6177 45.6023 62.771L45.5883 62.7794C45.3772 62.9161 45.1613 63.0421 44.942 63.161C44.8988 63.1847 44.8568 63.2097 44.8137 63.2323C44.6375 63.3262 44.4637 63.4106 44.2782 63.4926C44.1848 63.5354 44.0927 63.5794 43.9982 63.6186C43.8675 63.6745 43.7345 63.7232 43.6015 63.772C43.4685 63.8207 43.304 63.8837 43.1523 63.9313C43.0718 63.9574 42.9902 63.98 42.9085 64.0038C42.702 64.0632 42.4943 64.1227 42.2843 64.1678L42.191 64.187ZM56.0032 63.9267L50.2282 65.333C49.871 65.4201 49.575 65.6733 49.429 66.0165L47.0665 71.5717L42.877 66.4849H42.8875C43.3457 66.3782 43.7976 66.2449 44.2408 66.0855C44.3283 66.0546 44.4123 66.0177 44.4998 65.9856C44.8253 65.8596 45.1462 65.7217 45.4612 65.5684C45.5895 65.5078 45.7178 65.4495 45.8438 65.3829C46.1938 65.1975 46.5438 64.9966 46.8798 64.7767C47.042 64.672 47.1972 64.5544 47.3547 64.4414C47.4713 64.3594 47.588 64.2845 47.7047 64.1977C47.7665 64.1502 47.8213 64.0943 47.882 64.0455C47.9987 63.9481 48.134 63.866 48.253 63.7638C48.372 63.6616 48.4933 63.5261 48.617 63.4143C48.771 63.2717 48.9227 63.1278 49.0697 62.9792C49.2617 62.7835 49.4477 62.5822 49.6273 62.3753C49.7965 62.1804 49.9575 61.983 50.115 61.7809C50.2492 61.6062 50.3798 61.4243 50.5047 61.246C50.6843 60.9868 50.8547 60.7205 51.0122 60.4495C51.0938 60.3116 51.1732 60.1725 51.2455 60.031C51.4268 59.6958 51.592 59.353 51.7413 59.0027C51.7623 58.9421 51.7927 58.8934 51.8148 58.8399L56.0032 63.9267ZM72.6667 52.5512H52.7738C52.1408 45.3621 45.9079 40.057 38.8524 40.7022C32.6744 41.2672 27.7783 46.256 27.2238 52.5512H7.33333V7.37756H72.6667V52.5512Z" fill="#F54E37"/>
<path d="M10.8333 9.75512C10.189 9.75512 9.66667 10.2874 9.66667 10.9439V15.699H12V12.1327H15.5V9.75512H10.8333Z" fill="#F54E37"/>
<path d="M69.1667 9.75512H64.5V12.1327H68V15.699H70.3333V10.9439C70.3333 10.2873 69.811 9.75512 69.1667 9.75512Z" fill="#F54E37"/>
<path d="M68 44.2298V47.7962H64.5V50.1737H69.1667C69.811 50.1737 70.3333 49.6415 70.3333 48.985V44.2298H68Z" fill="#F54E37"/>
<path d="M12 47.7962V44.2298H9.66667V48.985C9.66667 49.6415 10.189 50.1737 10.8333 50.1737H15.5V47.7962H12Z" fill="#F54E37"/>
<path d="M54 18.0766H26V20.4541H54V18.0766Z" fill="#F54E37"/>
<path d="M61 25.2093H19V27.5869H61V25.2093Z" fill="#F54E37"/>
<path d="M40 45.4186C35.4897 45.4186 31.8333 49.1443 31.8333 53.7401C31.8384 58.3337 35.4919 62.0563 40 62.0615C44.5103 62.0615 48.1667 58.3359 48.1667 53.7401C48.1667 49.1443 44.5103 45.4186 40 45.4186ZM40 59.684C36.7784 59.684 34.1667 57.0228 34.1667 53.7401C34.1705 50.459 36.78 47.8 40 47.7962C43.2216 47.7962 45.8333 50.4574 45.8333 53.7401C45.8333 57.0228 43.2216 59.684 40 59.684Z" fill="#F54E37"/>
</svg>
