<svg width="65" height="65" viewBox="0 0 65 65" fill="none" xmlns="http://www.w3.org/2000/svg">
<g clip-path="url(#clip0)">
<path d="M13.584 24.1211C13.584 34.6216 22.1266 43.1641 32.627 43.1641C43.1274 43.1641 51.67 34.6216 51.67 24.1211C51.67 13.6207 43.1274 5.07812 32.627 5.07812C22.1266 5.07812 13.584 13.6207 13.584 24.1211ZM32.627 7.61719C41.7274 7.61719 49.1309 15.0207 49.1309 24.1211C49.1309 33.2216 41.7274 40.6251 32.627 40.6251C23.5265 40.6251 16.1231 33.2216 16.1231 24.1211C16.1231 15.0207 23.5265 7.61719 32.627 7.61719Z" fill="#F54E37"/>
<path d="M20.8698 21.8578L25.7907 26.7063L24.6586 33.5207C24.5797 33.9953 24.7756 34.4733 25.1649 34.756C25.5537 35.0386 26.0689 35.0768 26.4959 34.8557L32.6269 31.6719L38.7573 34.8557C39.1809 35.0753 39.6961 35.0411 40.0884 34.756C40.4777 34.4733 40.6735 33.9953 40.5947 33.5207L39.4625 26.7063L44.3835 21.8578C44.7261 21.5206 44.8486 21.0187 44.6999 20.561C44.5511 20.1038 44.1568 19.77 43.6813 19.6981L36.8521 18.6701L33.762 12.4905C33.5473 12.0606 33.1074 11.7888 32.6269 11.7888C32.1458 11.7888 31.7065 12.0606 31.4912 12.4905L28.4012 18.6701L21.572 19.6981C21.0964 19.7695 20.7022 20.1038 20.5534 20.561C20.4046 21.0187 20.5276 21.5206 20.8698 21.8578ZM29.4312 21.0827C29.8399 21.0212 30.1929 20.7648 30.3779 20.3954L32.6269 15.897L34.8758 20.3954C35.0608 20.7648 35.4139 21.0212 35.8225 21.0827L40.7931 21.831L37.2111 25.3594C36.917 25.6496 36.7821 26.0646 36.8496 26.4723L37.6738 31.4319L33.2116 29.115C33.0286 29.0198 32.8277 28.9722 32.6269 28.9722C32.426 28.9722 32.2252 29.0198 32.0417 29.115L27.5795 31.4319L28.4037 26.4723C28.4716 26.0646 28.3368 25.6496 28.0422 25.3594L24.4607 21.831L29.4312 21.0827Z" fill="#F54E37"/>
<path d="M33.8965 1.26953C33.8965 1.97075 33.3282 2.53907 32.627 2.53907C31.9257 2.53907 31.3574 1.97075 31.3574 1.26953C31.3574 0.568314 31.9257 0 32.627 0C33.3282 0 33.8965 0.568314 33.8965 1.26953Z" fill="#F54E37"/>
<path d="M26.6438 0.748551C15.9643 3.47458 8.5058 13.0858 8.5058 24.1213C8.5058 30.9753 11.3875 37.4336 16.4463 42.0074L8.79789 55.4867C8.55192 55.9207 8.58266 56.4582 8.87624 56.8609C9.16982 57.2641 9.67169 57.458 10.1602 57.3563L18.846 55.5527L21.8989 64.1553C22.0645 64.6234 22.4885 64.9512 22.9834 64.9953C23.4784 65.0395 23.9529 64.79 24.1984 64.3581L32.6269 49.5403L41.0549 64.3581C41.2821 64.7573 41.7046 64.9998 42.1578 64.9998C42.195 64.9998 42.2327 64.9983 42.2699 64.9953C42.7648 64.9512 43.1889 64.6229 43.355 64.1553L46.4073 55.5527L55.0932 57.3563C55.5812 57.4575 56.0835 57.2636 56.3771 56.8609C56.6712 56.4582 56.7014 55.9207 56.4555 55.4867L48.807 42.0074C53.8658 37.4336 56.7476 30.9753 56.7476 24.1213C56.7476 13.0858 49.2891 3.47458 38.6101 0.748551C37.9302 0.574982 37.2394 0.985101 37.0658 1.6645C36.8923 2.3439 37.3024 3.0352 37.9818 3.20877C47.536 5.64766 54.209 14.2473 54.209 24.1213C54.209 36.1388 44.449 45.7034 32.6269 45.7034C20.7965 45.7034 11.0449 36.1308 11.0449 24.1213C11.0449 14.2473 17.7174 5.64766 27.2716 3.20877C27.951 3.0352 28.3611 2.3439 28.188 1.6645C28.0145 0.985101 27.3237 0.574982 26.6438 0.748551ZM23.3638 60.6908L20.8689 53.6603C20.6566 53.0622 20.0357 52.7126 19.4144 52.8415L12.3908 54.3L18.4439 43.632C21.9733 46.1978 26.1523 47.7609 30.498 48.1477L23.3638 60.6908ZM45.839 52.8415C45.2181 52.7126 44.5967 53.0622 44.3845 53.6603L41.8901 60.6908L34.7554 48.1477C39.1015 47.7609 43.2801 46.1978 46.81 43.632L52.8631 54.3L45.839 52.8415Z" fill="#F54E37"/>
</g>
<defs>
<clipPath id="clip0">
<rect width="65" height="65" fill="white"/>
</clipPath>
</defs>
</svg>
