<svg width="120" height="120" viewBox="0 0 120 120" fill="none" xmlns="http://www.w3.org/2000/svg">
<path d="M95.6306 19.5H24.3694C21.68 19.5 19.5 21.6739 19.5 24.3559V25.6969C19.5 28.3788 21.68 30.5528 24.3694 30.5528H32.4591V34.966C32.4637 37.919 34.8635 40.3115 37.8247 40.315H41.3082V52.6976C41.2904 59.0653 45.1733 64.7986 51.1031 67.1607V68.7398H50.8821C46.7394 68.7444 43.3824 72.0922 43.3777 76.2235V78.6141C43.3772 79.5161 44.11 80.2478 45.0145 80.2483H45.0164H74.9817C75.8863 80.2487 76.62 79.518 76.6205 78.6159C76.6205 78.6152 76.6205 78.6148 76.6205 78.6141V76.2235C76.6158 72.0922 73.2587 68.7444 69.116 68.7398H68.895V67.1607C74.8249 64.7986 78.7077 59.0653 78.6899 52.6976V40.315H82.1734C85.1358 40.3115 87.536 37.9174 87.5391 34.9632V30.55H95.6306C98.32 30.55 100.5 28.376 100.5 25.6941V24.354C100.499 21.673 98.3191 19.5 95.6306 19.5V19.5ZM44.5857 52.6976V40.315H48.7995V52.6976C48.7984 54.8113 49.625 56.8419 51.1031 58.3565V63.5626C47.0803 61.4244 44.5723 57.2437 44.5857 52.6976ZM58.3603 40.315V51.5854H57.6018C55.5181 51.5924 53.5635 52.5934 52.3439 54.2785C52.1674 53.7701 52.0772 53.2357 52.077 52.6976V40.315H58.3603ZM67.9211 40.315V52.6976C67.9211 53.235 67.8315 53.7687 67.6552 54.2767C66.4343 52.593 64.4798 51.5928 62.3963 51.5854H61.6378V40.315H67.9211ZM73.343 76.2235V76.9799H46.6551V76.2235C46.6577 73.8966 48.5488 72.0107 50.8821 72.0082H69.116C71.4493 72.0107 73.3404 73.8964 73.343 76.2235ZM54.3806 68.7398V58.0577C54.3806 57.9643 54.3881 57.8766 54.3946 57.7869C54.5423 56.1294 55.9331 54.8573 57.6018 54.8538H62.3963C64.0624 54.8552 65.4525 56.1228 65.6026 57.7776C65.6091 57.871 65.6176 57.9643 65.6176 58.0577V68.7398H54.3806ZM75.4125 52.6976C75.4258 57.2437 72.9179 61.4244 68.895 63.5626V58.3565C70.3732 56.8419 71.1998 54.8113 71.1986 52.6976V40.315H75.4125V52.6976ZM84.2616 34.9632C84.26 36.1128 83.3261 37.0445 82.1734 37.0466H37.8247C36.672 37.0445 35.7382 36.1128 35.7365 34.9632V30.55H84.2616V34.9632ZM97.2216 25.695C97.2216 26.5719 96.509 27.2825 95.6297 27.2825H85.9275C85.9181 27.2825 85.9097 27.2825 85.9003 27.2825H34.0978C34.0884 27.2825 34.08 27.2825 34.0706 27.2825H24.3675C23.4882 27.2825 22.7756 26.5719 22.7756 25.695V24.354C22.7756 23.4772 23.4882 22.7665 24.3675 22.7665H95.6288C96.5081 22.7665 97.2207 23.4772 97.2207 24.354L97.2216 25.695Z" fill="#F54E37"/>
<path d="M77.8846 86.0723C76.9801 86.0718 76.2464 86.8025 76.2459 87.7046V87.7065V88.4068C76.2459 89.3094 76.9796 90.041 77.8846 90.041C78.7897 90.041 79.5234 89.3094 79.5234 88.4068V87.7065C79.5234 86.8039 78.7897 86.0723 77.8846 86.0723Z" fill="#F54E37"/>
<path d="M68.9408 86.0723C68.0362 86.0718 67.3025 86.8025 67.3021 87.7046V87.7065V88.4068C67.3021 89.3094 68.0357 90.041 68.9408 90.041C69.8458 90.041 70.5795 89.3094 70.5795 88.4068V87.7065C70.58 86.8044 69.8472 86.0727 68.9427 86.0723C68.942 86.0723 68.9415 86.0723 68.9408 86.0723Z" fill="#F54E37"/>
<path d="M59.9992 86.0723C59.0946 86.0718 58.3609 86.8025 58.3605 87.7046V87.7065V88.4068C58.3605 89.3094 59.0942 90.041 59.9992 90.041C60.9043 90.041 61.6379 89.3094 61.6379 88.4068V87.7065C61.6384 86.8044 60.9057 86.0727 60.0011 86.0723C60.0004 86.0723 59.9999 86.0723 59.9992 86.0723Z" fill="#F54E37"/>
<path d="M51.0571 86.0723C50.1525 86.0718 49.4189 86.8025 49.4184 87.7046V87.7065V88.4068C49.4184 89.3094 50.1521 90.041 51.0571 90.041C51.9622 90.041 52.6959 89.3094 52.6959 88.4068V87.7065C52.6963 86.8044 51.9636 86.0727 51.059 86.0723C51.0583 86.0723 51.0578 86.0723 51.0571 86.0723Z" fill="#F54E37"/>
<path d="M42.1135 86.0723C41.2085 86.0723 40.4748 86.8039 40.4748 87.7065V88.4068C40.4748 89.3094 41.2085 90.041 42.1135 90.041C43.0186 90.041 43.7522 89.3094 43.7522 88.4068V87.7065C43.7527 86.8044 43.02 86.0727 42.1154 86.0723C42.1147 86.0723 42.1142 86.0723 42.1135 86.0723Z" fill="#F54E37"/>
<path d="M82.3522 96.5313C81.4476 96.5308 80.7139 97.2615 80.7134 98.1636V98.1655V98.8658C80.7134 99.7684 81.4471 100.5 82.3522 100.5C83.2572 100.5 83.9909 99.7684 83.9909 98.8658V98.1655C83.9914 97.2634 83.2586 96.5317 82.354 96.5313C82.3533 96.5313 82.3529 96.5313 82.3522 96.5313Z" fill="#F54E37"/>
<path d="M73.4114 96.5313C72.5068 96.5308 71.7731 97.2615 71.7726 98.1636V98.1655V98.8658C71.7726 99.7684 72.5063 100.5 73.4114 100.5C74.3164 100.5 75.0501 99.7684 75.0501 98.8658V98.1655C75.0506 97.2634 74.3178 96.5317 73.4132 96.5313C73.4125 96.5313 73.4121 96.5313 73.4114 96.5313Z" fill="#F54E37"/>
<path d="M64.4695 96.5312C63.5645 96.5312 62.8308 97.2629 62.8308 98.1655V98.8658C62.8308 99.7684 63.5645 100.5 64.4695 100.5C65.3746 100.5 66.1083 99.7684 66.1083 98.8658V98.1655C66.1087 97.2634 65.376 96.5317 64.4714 96.5312C64.4707 96.5312 64.4702 96.5312 64.4695 96.5312Z" fill="#F54E37"/>
<path d="M55.5286 96.5313C54.624 96.5308 53.8904 97.2615 53.8899 98.1636V98.1655V98.8658C53.8899 99.7684 54.6236 100.5 55.5286 100.5C56.4337 100.5 57.1674 99.7684 57.1674 98.8658V98.1655C57.1674 97.2629 56.4337 96.5313 55.5286 96.5313Z" fill="#F54E37"/>
<path d="M46.5868 96.5313C45.6823 96.5308 44.9486 97.2615 44.9481 98.1636V98.1655V98.8658C44.9481 99.7684 45.6818 100.5 46.5868 100.5C47.4919 100.5 48.2256 99.7684 48.2256 98.8658V98.1655C48.226 97.2634 47.4933 96.5317 46.5887 96.5313C46.588 96.5313 46.5876 96.5313 46.5868 96.5313Z" fill="#F54E37"/>
<path d="M37.6459 96.5313C36.7413 96.5308 36.0076 97.2615 36.0071 98.1636V98.1655V98.8658C36.0071 99.7684 36.7408 100.5 37.6459 100.5C38.5509 100.5 39.2846 99.7684 39.2846 98.8658V98.1655C39.2851 97.2634 38.5523 96.5317 37.6477 96.5313C37.647 96.5313 37.6466 96.5313 37.6459 96.5313Z" fill="#F54E37"/>
</svg>
