<svg width="120" height="120" viewBox="0 0 120 120" fill="none" xmlns="http://www.w3.org/2000/svg">
<path fill-rule="evenodd" clip-rule="evenodd" d="M68.2119 29.095H50.2881C37.7494 29.095 27.5847 39.2997 27.5847 51.8878C27.5847 64.4758 37.7494 74.6805 50.2881 74.6805H68.2119C80.7506 74.6805 90.9153 64.4758 90.9153 51.8878C90.9153 39.2997 80.7506 29.095 68.2119 29.095ZM50.2881 25.4962C35.7696 25.4962 24 37.3121 24 51.8878C24 66.4634 35.7696 78.2793 50.2881 78.2793H68.2119C82.7304 78.2793 94.5 66.4634 94.5 51.8878C94.5 37.3121 82.7304 25.4962 68.2119 25.4962H50.2881Z" fill="#F54E37"/>
<path fill-rule="evenodd" clip-rule="evenodd" d="M26.3898 60.8849C26.3898 59.8911 27.1923 59.0855 28.1822 59.0855H89.1229C90.1128 59.0855 90.9153 59.8911 90.9153 60.8849C90.9153 61.8787 90.1128 62.6843 89.1229 62.6843H28.1822C27.1923 62.6843 26.3898 61.8787 26.3898 60.8849Z" fill="#F54E37"/>
<path fill-rule="evenodd" clip-rule="evenodd" d="M26.3898 44.0902C26.3898 43.0964 27.1923 42.2908 28.1822 42.2908H89.1229C90.1128 42.2908 90.9153 43.0964 90.9153 44.0902C90.9153 45.084 90.1128 45.8897 89.1229 45.8897H28.1822C27.1923 45.8897 26.3898 45.084 26.3898 44.0902Z" fill="#F54E37"/>
<path fill-rule="evenodd" clip-rule="evenodd" d="M41.9237 15.2994C41.9237 14.3056 42.7262 13.5 43.7161 13.5L73.589 13.5C74.5789 13.5 75.3814 14.3056 75.3814 15.2994C75.3814 16.2932 74.5789 17.0989 73.589 17.0989L43.7161 17.0989C42.7262 17.0989 41.9237 16.2932 41.9237 15.2994Z" fill="#F54E37"/>
<path fill-rule="evenodd" clip-rule="evenodd" d="M67.017 17.0989H50.2881V25.4962H67.017V17.0989ZM46.7034 13.5V29.095H70.6017V13.5H46.7034Z" fill="#F54E37"/>
<path fill-rule="evenodd" clip-rule="evenodd" d="M64.6271 78.2793H53.8729V86.6767H64.6271V78.2793ZM53.8729 74.6805C51.8931 74.6805 50.2881 76.2917 50.2881 78.2793V86.6767C50.2881 88.6642 51.8931 90.2755 53.8729 90.2755H64.6271C66.6069 90.2755 68.2119 88.6642 68.2119 86.6767V78.2793C68.2119 76.2917 66.6069 74.6805 64.6271 74.6805H53.8729Z" fill="#F54E37"/>
<path d="M72.1747 103.59C71.1639 103.589 70.3441 104.401 70.3436 105.404V106.184C70.3436 107.187 71.1634 108 72.1747 108C73.1861 108 74.0059 107.187 74.0059 106.184V105.406C74.0064 104.403 73.1876 103.59 72.1768 103.59C72.1761 103.59 72.1755 103.59 72.1747 103.59Z" fill="#F54E37"/>
<path d="M62.1831 94.2298C61.1723 94.2293 60.3525 95.0413 60.3519 96.0437V96.8241C60.3519 97.827 61.1718 98.64 62.1831 98.64C63.1945 98.64 64.0143 97.827 64.0143 96.8241V96.0458C64.0148 95.0434 63.196 94.2303 62.1852 94.2298C62.1844 94.2298 62.1839 94.2298 62.1831 94.2298Z" fill="#F54E37"/>
<path d="M62.1831 103.59C61.1723 103.589 60.3525 104.401 60.3519 105.404V106.184C60.3519 107.187 61.1718 108 62.1831 108C63.1945 108 64.0143 107.187 64.0143 106.184V105.406C64.0148 104.403 63.196 103.59 62.1852 103.59C62.1844 103.59 62.1839 103.59 62.1831 103.59Z" fill="#F54E37"/>
<path d="M52.1909 94.2298C51.1801 94.2293 50.3603 95.0413 50.3597 96.0437V96.8241C50.3597 97.827 51.1796 98.64 52.1909 98.64C53.2022 98.64 54.0221 97.827 54.0221 96.8241V96.0458C54.0226 95.0434 53.2038 94.2303 52.193 94.2298C52.1922 94.2298 52.1917 94.2298 52.1909 94.2298Z" fill="#F54E37"/>
<path d="M52.1909 103.59C51.1801 103.589 50.3603 104.401 50.3597 105.404V106.184C50.3597 107.187 51.1796 108 52.1909 108C53.2022 108 54.0221 107.187 54.0221 106.184V105.406C54.0226 104.403 53.2038 103.59 52.193 103.59C52.1922 103.59 52.1917 103.59 52.1909 103.59Z" fill="#F54E37"/>
<path d="M42.197 103.59C41.1856 103.59 40.3658 104.403 40.3658 105.406V106.184C40.3658 107.187 41.1856 108 42.197 108C43.2083 108 44.0281 107.187 44.0281 106.184V105.406C44.0287 104.403 43.2099 103.59 42.1991 103.59C42.1983 103.59 42.1978 103.59 42.197 103.59Z" fill="#F54E37"/>
</svg>
