<svg width="120" height="120" viewBox="0 0 120 120" fill="none" xmlns="http://www.w3.org/2000/svg">
<path fill-rule="evenodd" clip-rule="evenodd" d="M74.3107 109.07C74.8513 108.469 74.9421 107.873 74.866 105.423C74.7917 103.023 74.5646 102.524 73.4312 102.272C72.9641 102.168 72.7075 102.262 72.2225 102.716L71.6068 103.292L71.6068 105.865C71.6068 108.311 71.6304 108.465 72.0818 108.967C72.6808 109.633 73.7595 109.683 74.3107 109.07ZM90.8671 105.523C91.1345 105.226 91.3421 104.744 91.3421 104.42C91.3421 103.793 90.0537 101.048 89.2778 100.022C88.3077 98.7395 86.505 99.4327 86.505 101.088C86.505 101.899 88.2798 105.511 88.8433 105.846C89.4744 106.222 90.3673 106.08 90.8671 105.523ZM57.8114 105.568C58.5097 104.715 59.9978 101.618 59.9978 101.017C59.9978 99.8046 58.5324 98.9706 57.4908 99.5906C57.1337 99.8033 55.5471 102.648 55.1774 103.738C54.9458 104.422 55.1776 105.317 55.7003 105.758C56.2458 106.219 57.3604 106.119 57.8114 105.568ZM74.3951 97.8574C74.8676 97.2328 74.896 97.0609 74.896 94.8279C74.896 92.4985 74.8869 92.4507 74.3305 91.8316C74.0193 91.4855 73.5798 91.2025 73.3534 91.2025C72.7927 91.2025 71.8738 91.7552 71.727 92.1806C71.661 92.3722 71.6068 93.6391 71.6068 94.996C71.6068 97.3284 71.6327 97.4919 72.0818 97.9912C72.7811 98.769 73.7477 98.713 74.3951 97.8574ZM85.8286 96.0985C86.5803 95.3793 86.5108 94.5634 85.5287 92.5781C84.517 90.5328 83.8173 89.6961 83.1191 89.6961C82.4353 89.6961 81.4745 90.7704 81.4745 91.5348C81.4745 92.2235 83.2946 95.8232 83.869 96.2709C84.4502 96.7237 85.2485 96.6535 85.8286 96.0985ZM62.6429 96.1721C63.1253 95.6722 64.7707 92.5381 64.9252 91.8247C65.0862 91.0822 64.4195 89.9857 63.7005 89.8101C62.7278 89.5726 62.1642 90.0972 61.0345 92.2926C59.9512 94.3975 59.8517 94.7995 60.2228 95.5747C60.7282 96.63 61.9175 96.9236 62.6429 96.1721ZM74.3305 86.915C74.8879 86.295 74.896 86.2517 74.896 83.8855C74.896 81.5193 74.8879 81.476 74.3305 80.856C73.6088 80.0533 72.7474 80.0148 72.0818 80.7553C71.6298 81.2578 71.6068 81.4098 71.6068 83.8855C71.6068 86.3612 71.6298 86.5132 72.0818 87.0157C72.7474 87.7562 73.6088 87.7177 74.3305 86.915ZM80.4474 86.8962C81.0871 86.6098 81.541 85.7079 81.4106 84.9828C81.2568 84.1274 79.4187 80.7157 78.9669 80.4467C78.3613 80.0862 77.6599 80.1949 77.0932 80.737C76.3042 81.492 76.3976 82.3455 77.5032 84.4816C78.7568 86.9038 79.3483 87.3889 80.4474 86.8962ZM67.3169 86.8435C67.9415 86.5093 69.8655 82.8226 69.8655 81.9603C69.8655 81.0842 69.1173 80.227 68.3524 80.227C67.5226 80.227 66.9208 80.8722 65.9219 82.8331C64.7598 85.1148 64.7314 86.1749 65.8162 86.7988C66.4534 87.1653 66.7016 87.1728 67.3169 86.8435ZM36.4075 85.0521C36.8158 84.569 36.8851 84.2539 36.9427 82.6201C37.0311 80.1118 36.7591 79.0205 35.9368 78.5843C35.3711 78.2841 35.2341 78.2834 34.6033 78.5766C33.6928 78.9997 33.4178 80.041 33.5291 82.6438C33.5978 84.2531 33.6752 84.6004 34.0674 85.0648C34.7024 85.8168 35.7663 85.811 36.4075 85.0521ZM52.4092 82.0457C53.0496 81.7461 53.4194 81.1638 53.4194 80.4547C53.4194 79.859 51.5401 76.2056 51.0287 75.8073C49.9823 74.9921 48.4956 75.8589 48.5138 77.2737C48.5225 77.9471 50.2019 81.4055 50.7538 81.8864C51.1943 82.2702 51.8036 82.3289 52.4092 82.0457ZM19.8032 81.7872C20.2753 81.2012 21.8601 78.1373 21.9907 77.5582C22.1169 76.9993 21.8131 76.1912 21.318 75.7683C20.7952 75.322 19.6741 75.4341 19.2375 75.9766C18.7365 76.5992 17.2697 79.4731 17.1244 80.117C16.9942 80.6942 17.4717 81.8372 17.9239 82.0302C18.5289 82.2884 19.5006 82.1628 19.8032 81.7872ZM76.1537 76.1749C77.7048 75.3603 78.1852 74.2102 78.1852 71.3112L78.1852 69.268L78.9959 69.0253C79.4417 68.8916 80.0957 68.4608 80.4492 68.0676L81.0921 67.3525L85.9753 67.2726L90.8584 67.1928L92.6444 66.5058C100.756 63.3868 104.883 53.9496 101.991 45.1354C100.307 40.0044 96.4853 36.1925 91.6497 34.8218C90.1568 34.3985 89.5458 34.388 66.6757 34.388L43.2323 34.3879L42.7631 33.8291C42.5052 33.5215 41.971 33.0857 41.5763 32.8606C40.9192 32.4857 40.3819 32.4511 35.23 32.4511C29.0583 32.4511 29.013 32.4593 27.7436 33.7989C27.1347 34.4413 27.0981 34.4504 25.6632 34.3154C23.2751 34.091 21.9526 33.2613 21.0535 31.4239C19.672 28.6006 20.5479 25.3925 23.1104 23.8893L24.1067 23.3048L54.5555 23.2478L85.0042 23.1907L85.8166 24.0236C86.3059 24.5252 86.9121 24.9156 87.3409 25.0049L88.0529 25.1536L88.0529 27.2818C88.0529 29.6364 88.2148 30.3251 88.9843 31.2401C89.8302 32.2466 90.5146 32.4511 93.0362 32.4511C95.0235 32.4511 95.4364 32.3876 96.1858 31.9669C97.5539 31.1988 97.9134 30.2698 97.9174 27.4921L97.9205 25.2234L98.7777 24.9684C99.2993 24.8132 99.8939 24.4166 100.297 23.9554L100.959 23.1972L103.368 23.1972C105.573 23.1972 105.863 23.1499 106.783 22.6398C109.842 20.9444 110.441 16.4104 107.95 13.806C106.737 12.5374 106.187 12.3493 103.435 12.2632C100.993 12.1868 100.903 12.167 100.339 11.5834C99.2985 10.5056 99.2614 10.5 93.0771 10.5C86.7639 10.5 86.3638 10.5641 85.556 11.7064L85.198 12.2128L53.9751 12.277C24.4985 12.3376 22.6877 12.363 21.5983 12.7306C17.3266 14.1721 13.9764 17.2076 12.1376 21.3032C11.0382 23.752 10.6694 25.2698 10.5253 27.9397C10.2652 32.7522 12.0225 37.5388 15.2805 40.8939C18.1418 43.8405 21.835 45.3635 26.1185 45.3635C27.2755 45.3635 27.4789 45.4274 27.8943 45.922C28.4594 46.5949 29.2645 47.0851 29.8047 47.0851C30.1737 47.0851 30.2014 47.2138 30.2014 48.9267C30.2014 51.9185 30.588 53.0227 31.9615 53.9541C32.5404 54.3466 32.9303 54.4007 35.1932 54.4013C37.9794 54.4022 38.4062 54.2765 39.3255 53.1839C40.0092 52.3713 40.2602 51.241 40.2613 48.9682C40.2625 47.2138 40.2896 47.0851 40.6591 47.0851C41.1994 47.0851 42.0044 46.5949 42.5696 45.922L43.0388 45.3635L65.9586 45.3635C83.525 45.3635 89.0646 45.4253 89.6751 45.628C90.1611 45.7894 90.8607 46.3134 91.4706 46.973C92.2617 47.8287 92.538 48.3172 92.7981 49.3203C93.5323 52.1541 92.1741 55.0063 89.6116 56.0119C88.9725 56.2626 87.8762 56.339 84.9123 56.339L81.0465 56.339L80.663 55.7967C79.796 54.5707 79.5131 54.5156 73.709 54.4409C67.7491 54.3643 67.1476 54.454 66.0204 55.5867L65.2929 56.3177L58.6307 56.3821C52.2149 56.4443 51.939 56.4641 51.1812 56.9154C50.0394 57.595 49.0399 58.9286 48.6899 60.239C48.3145 61.6452 48.3145 62.0084 48.6899 63.4146C49.0681 64.8311 50.1145 66.1473 51.3878 66.8082C52.3405 67.3027 52.4535 67.3105 58.8474 67.3124L65.3395 67.3146L65.9764 68.0456C66.3456 68.4692 66.9719 68.8884 67.4655 69.042L68.3176 69.3074L68.3176 71.5636C68.3176 73.4932 68.3795 73.9425 68.7456 74.6667C69.4961 76.152 70.1775 76.4518 72.9612 76.5209C75.0048 76.5717 75.4997 76.5181 76.1537 76.1749ZM36.3259 74.1196C36.8309 73.6365 36.8653 73.488 36.9379 71.478C36.9955 69.8798 36.9394 69.1477 36.7133 68.5451C36.1489 67.043 34.4899 66.9571 33.8184 68.3953C33.5318 69.0091 33.4805 69.5454 33.5337 71.3738C33.5958 73.5039 33.6227 73.6268 34.1359 74.1177C34.821 74.7732 35.6421 74.7739 36.3259 74.1196ZM71.6068 71.0807L71.6068 69.2514L73.2514 69.2514L74.896 69.2514L74.896 71.0807L74.896 72.91L73.2514 72.91L71.6068 72.91L71.6068 71.0807ZM47.9138 72.1664C48.6459 71.3523 48.5252 70.5156 47.3539 68.283C46.2854 66.2465 45.6572 65.6599 44.8005 65.899C44.127 66.087 43.5517 66.8693 43.5517 67.5976C43.5517 68.3392 44.9409 71.2492 45.7027 72.1029C46.3853 72.868 47.2606 72.8932 47.9138 72.1664ZM24.7612 72.1029C25.5229 71.2492 26.9122 68.3392 26.9122 67.5976C26.9122 66.3631 25.6729 65.515 24.6627 66.0578C23.9513 66.44 22.0973 69.9427 22.0844 70.929C22.0635 72.5265 23.7309 73.2577 24.7612 72.1029ZM68.3176 61.8232L68.3176 58.0534L73.203 58.1108L78.0885 58.1683L78.1415 61.8806L78.1943 65.5929L73.2561 65.5929L68.3176 65.5929L68.3176 61.8232ZM81.4745 61.8268L81.4745 59.9976L85.2067 59.9976C89.1391 59.9976 90.378 59.7981 91.9373 58.9131C94.8529 57.2588 96.7225 53.1934 96.2218 49.596C95.9534 47.6677 95.0725 45.7007 93.9067 44.4276C92.6522 43.0573 92.0435 42.6355 90.5962 42.1324C89.3986 41.7162 88.7707 41.705 66.4592 41.705L43.5517 41.705L43.5517 39.8757L43.5517 38.0465L66.6323 38.0465C91.9376 38.0465 90.7088 37.9869 93.1802 39.3343C97.2776 41.5685 99.9355 46.684 99.5795 51.6508C99.446 53.5125 98.8098 55.8191 98.0051 57.3576C97.2215 58.8559 94.9225 61.2959 93.5281 62.1094C91.3634 63.3722 90.0084 63.6309 85.4892 63.6442L81.4745 63.6561L81.4745 61.8268ZM52.3274 63.146C51.9212 62.7574 51.7941 62.4429 51.7941 61.8268C51.7941 61.2107 51.9212 60.8963 52.3274 60.5076L52.8606 59.9975L58.9445 59.9975L65.0284 59.9976L65.0284 61.8268L65.0284 63.6561L58.9445 63.6561L52.8606 63.6561L52.3274 63.146ZM36.3336 63.1368C36.8733 62.6205 36.8766 62.6011 36.8766 59.9975C36.8766 57.394 36.8733 57.3746 36.3336 56.8583C35.6303 56.1856 34.7738 56.1834 34.1718 56.8529C33.581 57.5102 33.4217 58.4898 33.5306 60.7966C33.6102 62.4851 33.664 62.6904 34.1455 63.1512C34.8239 63.8003 35.6458 63.7949 36.3336 63.1368ZM42.5804 62.9493C43.1975 62.602 43.5858 61.759 43.4447 61.0736C43.3838 60.7777 42.8892 59.6963 42.3457 58.6704C41.3822 56.8514 40.8764 56.339 40.045 56.339C39.5162 56.339 38.5212 57.4788 38.5212 58.0841C38.5212 58.3521 38.996 59.5041 39.5764 60.6442C40.8381 63.1226 41.4449 63.5883 42.5804 62.9493ZM29.3868 62.9592C29.9083 62.6799 31.9427 58.7995 31.9427 58.0841C31.9427 57.8164 31.6883 57.3141 31.3772 56.9681C30.7273 56.2452 29.9322 56.1497 29.3168 56.7204C28.9031 57.1041 27.4477 59.7498 27.1153 60.7228C26.851 61.4958 27.2144 62.5202 27.891 62.9093C28.5293 63.2764 28.7789 63.2848 29.3868 62.9592ZM33.5312 48.9682L33.5873 47.1927L35.2319 47.1927L36.8766 47.1927L36.9327 48.9682L36.989 50.7437L35.2319 50.7437L33.4749 50.7437L33.5312 48.9682ZM30.2014 39.7681L30.2014 36.1096L35.2319 36.1096L40.2625 36.1096L40.2625 39.7681L40.2625 43.4266L35.2319 43.4266L30.2014 43.4266L30.2014 39.7681ZM21.5829 40.8771C18.6785 39.7636 16.3578 37.5091 15.0226 34.5033C12.7948 29.4881 13.6094 23.7981 17.118 19.8664C18.6026 18.2029 19.897 17.2857 21.8816 16.4911L23.1392 15.9878L53.9515 15.9295L84.7637 15.8711L84.7637 17.7049L84.7637 19.5387L54.7832 19.5387C33.4838 19.5387 24.506 19.6082 23.7775 19.7786C22.156 20.1578 20.7116 21.0262 19.5474 22.322C16.2924 25.9443 16.2696 31.6111 19.4956 35.2038C20.954 36.8282 22.6172 37.6451 25.0228 37.9188L26.9122 38.1341L26.9122 39.9513L26.9122 41.7685L25.0257 41.621C23.7524 41.5216 22.6333 41.2797 21.5829 40.8771ZM91.3421 26.9633L91.3421 25.1341L92.9867 25.1341L94.6313 25.1341L94.6313 26.9633L94.6313 28.7926L92.9867 28.7926L91.3421 28.7926L91.3421 26.9633ZM88.0529 17.817L88.0529 14.1585L92.9867 14.1585L97.9205 14.1585L97.9205 17.817L97.9205 21.4755L92.9867 21.4755L88.0529 21.4755L88.0529 17.817ZM101.21 17.7094L101.21 15.8802L102.999 15.8834C104.041 15.8851 104.989 15.999 105.267 16.1554C106.313 16.744 106.5 18.1736 105.655 19.1137C105.323 19.4829 105.006 19.5387 103.241 19.5387L101.21 19.5387L101.21 17.7094Z" fill="#F54E37"/>
</svg>
