<svg width="120" height="120" viewBox="0 0 120 120" fill="none" xmlns="http://www.w3.org/2000/svg">
<path d="M104.13 28.92C105.12 28.9187 105.922 28.116 105.922 27.1262V19.7938C105.922 18.8031 105.119 18 104.128 18H83.255C80.0574 18 77.3062 18.8506 75.2989 20.46C73.6285 21.7995 71.6376 24.3678 71.6376 28.9975V34.1088H71.1889C70.1982 34.1088 69.3951 34.9119 69.3951 35.9026V43.5514H66.0217V43.0621C66.0217 41.1784 64.4946 39.6513 62.6109 39.6513H57.6534C55.7697 39.6513 54.2426 41.1784 54.2426 43.0621V43.5512H49.6031V41.0993C49.6031 37.7717 46.8937 35.0645 43.5637 35.0645H39.0738C35.7436 35.0645 33.0342 37.7717 33.0342 41.0993V43.6284C22.4308 44.5337 14.0785 53.4522 14.0785 64.2862C14.0785 75.1178 22.4229 84.0352 33.019 84.9479V92.6964H15.9338C14.9784 92.6964 14.1443 93.4174 14.0824 94.3706C14.0146 95.4153 14.8421 96.2841 15.8723 96.2841H34.8128H46.4162H104.066C105.022 96.2841 105.856 95.5631 105.918 94.6097C105.985 93.565 105.158 92.6964 104.128 92.6964H48.21V85.0263H54.2426V85.5156C54.2426 87.3993 55.7697 88.9264 57.6534 88.9264H62.6111C64.4948 88.9264 66.0219 87.3993 66.0219 85.5156V85.0263H91.1465C92.1372 85.0263 92.9403 84.2232 92.9403 83.2325V75.7869H104.128C105.119 75.7869 105.922 74.9838 105.922 73.9931V54.5842C105.922 53.5935 105.119 52.7904 104.128 52.7904H92.9403V45.345C92.9403 44.3543 92.1372 43.5512 91.1465 43.5512H85.4761V35.9024C85.4761 34.9117 84.673 34.1086 83.6823 34.1086H83.2337C83.2337 34.1086 83.232 29.5114 83.2365 29.4027C83.2459 29.1706 83.4209 28.9496 83.6532 28.9482C84.1166 28.9455 104.13 28.92 104.13 28.92ZM36.6218 41.0993C36.6218 39.75 37.7218 38.6521 39.0738 38.6521H43.5637C44.9157 38.6521 46.0155 39.7498 46.0155 41.0993V43.5512H36.6218V41.0993ZM44.6224 92.6964H36.6066V85.0263H44.6224V92.6964ZM34.8128 81.4387C25.358 81.4387 17.6661 73.7441 17.6661 64.2862C17.6661 54.8311 25.3582 47.1388 34.8128 47.1388H34.828H47.8093H54.2426V81.4387H34.8128ZM102.334 56.3781V72.1993H92.9403V56.3781H102.334ZM89.3527 73.9931V81.4387H66.0217V72.3356C66.0217 71.3451 65.2184 70.5418 64.2279 70.5418C63.2373 70.5418 62.4341 71.3451 62.4341 72.3356V85.3386H57.8303V83.2325V45.345V43.2389H62.4341V56.2267C62.4341 57.2172 63.2373 58.0205 64.2279 58.0205C65.2184 58.0205 66.0217 57.2172 66.0217 56.2267V47.1388H89.3525V73.9931H89.3527ZM72.9828 43.5512V37.6962H73.4314H81.4399H81.8885V43.5512H72.9828ZM80.6786 26.4802C79.7363 27.4401 79.6263 28.7191 79.6459 29.8472V34.1088H75.225V28.9975C75.225 22.8731 79.5917 21.5876 83.2548 21.5876H102.334V25.3347L84.1144 25.3579C83.0277 25.3579 81.6553 25.4852 80.6786 26.4802Z" fill="#F54E37"/>
<path d="M47.911 62.4924H43.1924C42.2016 62.4924 41.3986 63.2957 41.3986 64.2862C41.3986 65.2768 42.2016 66.0801 43.1924 66.0801H47.911C48.9017 66.0801 49.7048 65.2768 49.7048 64.2862C49.7048 63.2957 48.9017 62.4924 47.911 62.4924Z" fill="#F54E37"/>
<path d="M47.911 53.5278H43.1924C42.2016 53.5278 41.3986 54.3311 41.3986 55.3216C41.3986 56.3122 42.2016 57.1155 43.1924 57.1155H47.911C48.9017 57.1155 49.7048 56.3122 49.7048 55.3216C49.7048 54.3311 48.9017 53.5278 47.911 53.5278Z" fill="#F54E37"/>
<path d="M47.911 71.4619H43.1924C42.2016 71.4619 41.3986 72.2652 41.3986 73.2557C41.3986 74.2463 42.2016 75.0495 43.1924 75.0495H47.911C48.9017 75.0495 49.7048 74.2463 49.7048 73.2557C49.7048 72.2652 48.9017 71.4619 47.911 71.4619Z" fill="#F54E37"/>
<path d="M64.2278 62.4875C63.2372 62.4875 62.434 63.2908 62.434 64.2814V64.2864C62.434 65.2769 63.2372 66.0777 64.2278 66.0777C65.2183 66.0777 66.0216 65.2719 66.0216 64.2812C66.0216 63.2905 65.2185 62.4875 64.2278 62.4875Z" fill="#F54E37"/>
</svg>
