<svg width="80" height="80" viewBox="0 0 80 80" fill="none" xmlns="http://www.w3.org/2000/svg">
<path d="M7.5 41.25H10V43.75H7.5V41.25Z" fill="#F54E37"/>
<path d="M70 41.25H72.5V43.75H70V41.25Z" fill="#F54E37"/>
<path d="M38.75 32.5H41.25V35H38.75V32.5Z" fill="#F54E37"/>
<path d="M66.0759 16.6094C59.0911 13.9591 49.8305 12.5 40 12.5C30.1695 12.5 20.9089 13.9591 13.9241 16.6094C6.55719 19.403 2.5 23.2709 2.5 27.5V42.5C2.5 47.8125 8.76734 52.4348 19.6952 55.182L20.3045 52.7573C10.8644 50.3842 5 46.4539 5 42.5C5 39.4289 8.57594 36.3111 14.8108 33.9461C21.5194 31.4014 30.465 30 40 30C49.535 30 58.4806 31.4014 65.1892 33.9461C71.4241 36.3111 75 39.4289 75 42.5C75 46.4539 69.1356 50.3842 59.6952 52.7573L60.3045 55.182C71.2327 52.4348 77.5 47.8125 77.5 42.5V27.5C77.5 23.2709 73.4428 19.403 66.0759 16.6094ZM66.0759 31.6094C59.0911 28.9591 49.8305 27.5 40 27.5C30.1695 27.5 20.9089 28.9591 13.9241 31.6094C9.97094 33.1086 6.97328 34.9172 5.04172 36.9244C5.4575 34.0427 8.96563 31.1639 14.8108 28.9469C21.5194 26.4014 30.465 25 40 25C49.535 25 58.4806 26.4014 65.1892 28.9461C71.0344 31.1631 74.5425 34.0419 74.9583 36.9236C73.0267 34.9164 70.0284 33.1078 66.0759 31.6094ZM66.0759 26.6094C59.0911 23.9591 49.8305 22.5 40 22.5C30.1695 22.5 20.9089 23.9591 13.9241 26.6094C9.9425 28.1188 6.93 29.9431 5 31.9688V27.5C5 24.4289 8.57594 21.3111 14.8108 18.9461C21.5194 16.4014 30.465 15 40 15C49.535 15 58.4806 16.4014 65.1892 18.9461C71.4241 21.3111 75 24.4289 75 27.5V31.9688C73.07 29.9431 70.0575 28.1188 66.0759 26.6094Z" fill="#F54E37"/>
<path d="M60.7383 47.5687C61.0039 47.042 61.1407 46.4598 61.1374 45.8699C61.1341 45.28 60.9909 44.6994 60.7194 44.1757C59.3783 41.626 55.8538 40.0709 53.1333 39.2152C49.4402 38.0537 44.7759 37.4138 40 37.4138C35.2241 37.4138 30.5599 38.0537 26.8667 39.2152C24.1463 40.0709 20.6217 41.626 19.2806 44.1757C19.0092 44.6994 18.8659 45.28 18.8626 45.8699C18.8593 46.4598 18.9961 47.042 19.2617 47.5687L26.2678 61.5809C26.4484 63.2666 28.0124 64.7452 30.7178 65.7715C33.2169 66.7194 36.5134 67.2415 40 67.2415C43.4866 67.2415 46.7831 66.7194 49.2822 65.7715C51.9877 64.7452 53.5516 63.2666 53.7322 61.5809L60.7383 47.5687ZM21.4933 45.3396C22.8767 42.7093 29.8331 39.9138 40 39.9138C50.1669 39.9138 57.1233 42.7093 58.5067 45.3396C58.5939 45.5119 58.639 45.7025 58.6382 45.8956C58.6374 46.0887 58.5908 46.2789 58.5022 46.4505L52.4439 58.5673C51.6927 57.8624 50.6289 57.2391 49.2822 56.7287C46.7831 55.7813 43.4866 55.2587 40 55.2587C36.5134 55.2587 33.2169 55.7807 30.7178 56.7287C29.3711 57.2396 28.3074 57.8624 27.5561 58.5673L21.4978 46.4505C21.4092 46.2789 21.3626 46.0887 21.3618 45.8956C21.3611 45.7025 21.4061 45.5119 21.4933 45.3396ZM48.3955 63.4334C46.1727 64.2771 43.1911 64.7409 40 64.7409C36.8089 64.7409 33.8281 64.2765 31.6045 63.4334C29.6327 62.686 28.75 61.7982 28.75 61.2501C28.75 60.7019 29.6327 59.8141 31.6045 59.0662C33.8274 58.2224 36.8089 57.7587 40 57.7587C43.1911 57.7587 46.1719 58.223 48.3955 59.0662C50.3674 59.8141 51.25 60.7019 51.25 61.2501C51.25 61.7982 50.3674 62.686 48.3955 63.434V63.4334Z" fill="#F54E37"/>
<path d="M38.75 43.75H41.25V51.25H38.75V43.75Z" fill="#F54E37"/>
<path d="M44.0429 51.978L45.2899 44.481L47.7549 44.891L46.5079 52.388L44.0429 51.978Z" fill="#F54E37"/>
<path d="M48.989 53.6787L51.2519 46.427L53.6393 47.172L51.3765 54.4237L48.989 53.6787Z" fill="#F54E37"/>
<path d="M32.1737 44.8885L34.6387 44.4785L35.8857 51.9755L33.4207 52.3855L32.1737 44.8885Z" fill="#F54E37"/>
<path d="M26.4037 47.2028L28.7912 46.4578L31.054 53.7095L28.6665 54.4545L26.4037 47.2028Z" fill="#F54E37"/>
<path d="M38.75 60H41.25V62.5H38.75V60Z" fill="#F54E37"/>
</svg>
