<svg width="80" height="80" viewBox="0 0 80 80" fill="none" xmlns="http://www.w3.org/2000/svg">
<path d="M56.3499 21.4993C56.3499 23.2302 57.7786 24.6384 59.5345 24.6384C61.2905 24.6384 62.7191 23.2302 62.7191 21.4993C62.7191 19.7684 61.291 18.3602 59.5351 18.3602C57.7791 18.3602 56.3499 19.7684 56.3499 21.4993ZM60.6705 21.4993C60.6705 22.1168 60.161 22.619 59.5351 22.619C58.9086 22.619 58.3991 22.1168 58.3991 21.4993C58.3991 20.8818 58.9086 20.3796 59.5351 20.3796C60.161 20.3796 60.6705 20.8818 60.6705 21.4993Z" fill="#F54E37"/>
<path d="M62.7197 57.1774C62.7197 55.446 61.2911 54.0383 59.5351 54.0383C57.7792 54.0383 56.3506 55.4465 56.3506 57.1774C56.3506 58.9083 57.7792 60.3165 59.5351 60.3165C61.2911 60.3165 62.7197 58.9083 62.7197 57.1774ZM58.3992 57.1774C58.3992 56.5599 58.9087 56.0577 59.5346 56.0577C60.1611 56.0577 60.6705 56.5599 60.6705 57.1774C60.6705 57.7944 60.1611 58.2966 59.5346 58.2966C58.9087 58.2966 58.3992 57.7944 58.3992 57.1774Z" fill="#F54E37"/>
<path d="M15.5591 21.4993C15.5591 23.2302 16.9877 24.6384 18.7436 24.6384C20.4996 24.6384 21.9282 23.2302 21.9282 21.4993C21.9282 19.7684 20.4996 18.3602 18.7436 18.3602C16.9877 18.3602 15.5591 19.7684 15.5591 21.4993ZM19.879 21.4993C19.879 22.1168 19.3701 22.619 18.7436 22.619C18.1172 22.619 17.6077 22.1168 17.6077 21.4993C17.6077 20.8818 18.1172 20.3796 18.7436 20.3796C19.3701 20.3796 19.879 20.8818 19.879 21.4993Z" fill="#F54E37"/>
<path d="M15.5591 57.1774C15.5591 58.9083 16.9877 60.3165 18.7436 60.3165C20.4996 60.3165 21.9282 58.9083 21.9282 57.1774C21.9282 55.446 20.4996 54.0383 18.7436 54.0383C16.9877 54.0383 15.5591 55.4465 15.5591 57.1774ZM19.879 57.1774C19.879 57.7944 19.3701 58.2966 18.7436 58.2966C18.1172 58.2966 17.6077 57.7944 17.6077 57.1774C17.6077 56.5599 18.1172 56.0577 18.7436 56.0577C19.3701 56.0577 19.879 56.5599 19.879 57.1774Z" fill="#F54E37"/>
<path d="M23.5107 69.8607C23.5107 68.2424 22.4323 66.87 20.9499 66.4007L20.9499 63.593L38.6126 63.593C39.232 63.593 39.737 63.0979 39.737 62.4833C39.737 61.8687 39.232 61.3736 38.6126 61.3736L16.2917 61.3736C15.1087 61.3736 14.1487 60.4252 14.1487 59.2626L14.1487 19.4462C14.1487 18.2836 15.1087 17.3357 16.2917 17.3357L47.6831 17.3357C48.3025 17.3357 48.8074 16.8401 48.8074 16.2255C48.8074 15.6114 48.3025 15.1158 47.6831 15.1158L32.603 15.1158L32.603 8.60178C32.603 7.98772 32.0981 7.49209 31.4787 7.49209L22.2232 7.49209C21.7464 6.02877 20.3538 4.96787 18.7147 4.96787C16.6838 4.96787 15.0296 6.59637 15.0296 8.60178C15.0296 10.6072 16.6838 12.2357 18.7147 12.2357C20.3538 12.2357 21.7464 11.1748 22.2232 9.71147L30.3538 9.71147L30.3538 15.1158L16.2912 15.1158C13.8714 15.1158 11.9 17.057 11.9 19.4462L11.9 59.2631C11.9 61.6518 13.8709 63.593 16.2912 63.593L18.7007 63.593L18.7007 66.4007C17.2178 66.87 16.1399 68.2424 16.1399 69.8607C16.1399 71.8661 17.7946 73.4946 19.825 73.4946C21.856 73.4946 23.5107 71.8661 23.5107 69.8607ZM18.7147 10.0163C17.9216 10.0163 17.2782 9.38012 17.2782 8.60178C17.2782 7.82345 17.9216 7.18725 18.7147 7.18725C19.5079 7.18725 20.1512 7.82345 20.1512 8.60178C20.1512 9.38012 19.5079 10.0163 18.7147 10.0163ZM18.3885 69.8607C18.3885 69.0824 19.0318 68.4466 19.825 68.4466C20.6182 68.4466 21.2615 69.0824 21.2615 69.8607C21.2615 70.639 20.6182 71.2752 19.825 71.2752C19.0319 71.2752 18.3885 70.639 18.3885 69.8607Z" fill="#F54E37" stroke="#F54E37" stroke-width="0.2"/>
<path d="M55.1395 8.5339C55.1395 10.1521 56.2179 11.5245 57.7003 11.9939L57.7003 14.9758C57.7003 15.0236 57.7036 15.0703 57.7098 15.1158L45.2825 15.1158C44.6625 15.1158 44.1582 15.6115 44.1582 16.2261C44.1582 16.8401 44.6625 17.3357 45.2825 17.3357L63.8458 17.3357C65.0283 17.3357 65.9883 18.2836 65.9883 19.4462L65.9883 59.2631C65.9883 60.4252 65.0283 61.3735 63.8458 61.3735L36.2116 61.3735C35.5922 61.3735 35.0873 61.8691 35.0873 62.4832C35.0873 63.0978 35.5922 63.5929 36.2116 63.5929L46.0472 63.5929L46.0472 70.466C46.0472 71.0806 46.5521 71.5756 47.1715 71.5756L56.427 71.5756C56.9038 73.039 58.2964 74.0999 59.9355 74.0999C61.9659 74.0999 63.6206 72.4714 63.6206 70.466C63.6206 68.4605 61.9659 66.8321 59.9355 66.8321C58.2964 66.8321 56.9038 67.893 56.427 69.3563L48.2958 69.3563L48.2958 63.5929L63.8458 63.5929C66.2656 63.5929 68.237 61.6517 68.237 59.2625L68.237 19.4462C68.237 17.057 66.2656 15.1158 63.8458 15.1158L59.9398 15.1158C59.946 15.0704 59.9495 15.0237 59.9495 14.9758L59.9495 11.9939C61.4319 11.5245 62.5103 10.1521 62.5103 8.53391C62.5103 6.52901 60.8556 4.9 58.8246 4.9C56.7942 4.9 55.1395 6.52902 55.1395 8.5339ZM59.9355 69.0514C60.7286 69.0514 61.3719 69.6876 61.3719 70.466C61.3719 71.2443 60.7286 71.8805 59.9355 71.8805C59.1423 71.8805 58.499 71.2443 58.499 70.466C58.499 69.6876 59.1423 69.0514 59.9355 69.0514ZM60.2611 8.53391C60.2611 9.31226 59.6183 9.94844 58.8246 9.94844C58.0315 9.94844 57.3887 9.31228 57.3887 8.53391C57.3887 7.75553 58.0315 7.11937 58.8246 7.11937C59.6183 7.11937 60.2611 7.75555 60.2611 8.53391Z" fill="#F54E37" stroke="#F54E37" stroke-width="0.2"/>
<path d="M24.5058 39.3993C24.5058 47.2344 30.9724 53.606 38.9175 53.606C46.8626 53.606 53.3286 47.2344 53.3286 39.3993C53.3286 31.5643 46.8626 25.1921 38.9175 25.1921C30.9719 25.1921 24.5058 31.5643 24.5058 39.3993ZM51.08 39.3993C51.08 46.0079 45.6253 51.3866 38.9175 51.3866C32.2096 51.3866 26.7545 46.0079 26.7545 39.3993C26.7545 32.7908 32.2097 27.4115 38.9175 27.4115C45.6253 27.4115 51.08 32.7908 51.08 39.3993Z" fill="#F54E37" stroke="#F54E37" stroke-width="0.2"/>
<path d="M36.5877 35.8273C36.5695 35.7976 36.5505 35.7683 36.5307 35.7395L35.7176 36.2995L36.5307 35.7395C36.3124 35.4226 36.0056 35.1805 35.653 35.0388C35.3007 34.8972 34.9148 34.8606 34.5428 34.9323C34.171 35.0041 33.8251 35.1818 33.5503 35.4481L36.5877 35.8273ZM36.5877 35.8273C36.7448 35.2782 36.9271 34.7375 37.1364 34.2484C37.2956 33.8758 37.4869 33.4944 37.7184 33.1481C37.94 32.8154 38.2679 32.4112 38.735 32.109C38.9646 31.9604 39.2222 31.862 39.4906 31.8187C39.7592 31.7754 40.0342 31.7881 40.2979 31.856L40.0247 32.9167L40.2979 31.856C40.5617 31.9239 40.8096 32.0461 41.0248 32.2162C41.24 32.3863 41.4179 32.6009 41.5446 32.8471L36.5877 35.8273ZM43.5064 35.4483L43.5071 35.4489C44.3296 36.2471 44.9394 37.2327 45.2791 38.3197C45.619 39.4068 45.6774 40.5594 45.4488 41.6745C45.2202 42.7894 44.7124 43.8294 43.9733 44.7033C43.2344 45.5769 42.2875 46.2572 41.2184 46.6869C40.1494 47.1166 38.9892 47.2833 37.8399 47.1735C36.6905 47.0637 35.5846 46.6804 34.6203 46.0552C33.6558 45.43 32.8616 44.5812 32.311 43.5817C31.7603 42.5822 31.471 41.4641 31.4708 40.3268M43.5064 35.4483L33.5501 35.4483C32.8922 36.0853 32.3687 36.8439 32.0112 37.6815C31.6537 38.5191 31.4698 39.4182 31.4708 40.3268M43.5064 35.4483C42.9969 34.9548 42.7191 34.6782 42.4586 34.3472L43.5064 35.4483ZM31.4708 40.3268C31.4708 40.3266 31.4708 40.3264 31.4708 40.3262L32.5708 40.3261L31.4708 40.3275C31.4708 40.3272 31.4708 40.327 31.4708 40.3268ZM39.567 42.9385C39.4605 43.0417 39.3376 43.1284 39.2027 43.1954L39.2027 42.3906C39.2027 42.1248 39.2731 41.5093 39.4124 40.8645C39.4611 40.9123 39.51 40.9598 39.559 41.0075L39.5667 41.015L39.5686 41.0168C39.7019 41.1458 39.8058 41.2972 39.876 41.4615C39.9461 41.6258 39.9817 41.8006 39.9814 41.9764L39.9814 41.979C39.9817 42.1548 39.9461 42.3296 39.876 42.4939C39.8133 42.6407 39.7236 42.7773 39.6101 42.8967L39.567 42.9385ZM40.3334 40.2262C40.5708 40.4559 40.7592 40.7289 40.8876 41.0295C41.0159 41.3301 41.0818 41.6523 41.0814 41.9777C41.0818 42.2534 41.0345 42.5269 40.942 42.7869L40.3334 40.2262ZM40.4418 43.6176C40.4069 43.6558 40.3707 43.6931 40.3334 43.7292L40.4418 43.6176ZM42.4583 34.3467C42.2072 34.0272 41.9364 33.6082 41.5447 32.8473L42.4583 34.3467Z" stroke="#F54E37" stroke-width="2.2"/>
</svg>
