<svg width="80" height="80" viewBox="0 0 80 80" fill="none" xmlns="http://www.w3.org/2000/svg">
<path d="M74.448 27.2687C65.2467 18.0674 53.013 13 40 13C26.9875 13 14.7536 18.0676 5.552 27.2687C4.816 28.0049 4.816 29.198 5.552 29.9342C6.28822 30.67 7.48151 30.67 8.21774 29.9342C16.7069 21.4446 27.9942 16.7693 40 16.7693C52.0061 16.7693 63.2931 21.4446 71.7823 29.9342C72.1505 30.3022 72.6325 30.4862 73.115 30.4862C73.5973 30.4862 74.0798 30.3022 74.4478 29.9342C75.184 29.1982 75.184 28.0049 74.448 27.2687Z" fill="#F54E37"/>
<path d="M40 31.6639C31.9726 31.6639 24.4259 34.79 18.7497 40.4666C18.0137 41.2026 18.0137 42.3959 18.75 43.1319C19.4857 43.8677 20.679 43.8679 21.4152 43.1317C26.3792 38.1673 32.9796 35.4332 40 35.4332C47.0205 35.4332 53.6204 38.167 58.5846 43.1317C58.9528 43.4999 59.4348 43.6839 59.9173 43.6839C60.3996 43.6839 60.8821 43.4999 61.2498 43.1319C61.9861 42.3959 61.9861 41.2026 61.2501 40.4666C55.5739 34.7903 48.0272 31.6639 40 31.6639Z" fill="#F54E37"/>
<path d="M40 22.2235C29.4511 22.2235 19.5333 26.3318 12.0742 33.7914C11.3382 34.5274 11.3382 35.7207 12.0744 36.4567C12.4424 36.8247 12.9244 37.0087 13.4069 37.0087C13.8892 37.0087 14.3717 36.8247 14.7397 36.4564C21.4868 29.7088 30.4578 25.993 40 25.993C49.5423 25.993 58.5132 29.7088 65.2601 36.4564C65.9963 37.1927 67.1896 37.1929 67.9254 36.4567C68.6616 35.7207 68.6616 34.5274 67.9256 33.7914C60.4667 26.3316 50.5492 22.2235 40 22.2235Z" fill="#F54E37"/>
<path d="M40 40.8997C34.4393 40.8997 29.2119 43.0652 25.2804 46.9975C24.5444 47.7335 24.5444 48.9268 25.2806 49.6628C25.6486 50.0308 26.1309 50.2148 26.6131 50.2148C27.0956 50.2148 27.5781 50.0308 27.9459 49.6626C31.1652 46.4425 35.4462 44.6692 39.9998 44.6692C44.5533 44.6692 48.8343 46.4425 52.0541 49.6626C52.7904 50.3985 53.9837 50.3988 54.7194 49.6628C55.4556 48.9268 55.4556 47.7335 54.7196 46.9975C50.7883 43.0655 45.5605 40.8997 40 40.8997Z" fill="#F54E37"/>
<path d="M39.9999 63.7172C41.1046 63.7172 42.0001 62.8217 42.0001 61.717C42.0001 60.6123 41.1046 59.7168 39.9999 59.7168C38.8953 59.7168 37.9998 60.6123 37.9998 61.717C37.9998 62.8217 38.8953 63.7172 39.9999 63.7172Z" fill="#F54E37"/>
<path d="M31.7971 53.5136C31.0608 54.2496 31.0608 55.4429 31.7968 56.1791C32.5331 56.9153 33.7264 56.9153 34.4621 56.1793C37.5156 53.1263 42.4843 53.1263 45.5378 56.1793C45.9061 56.5476 46.3879 56.7313 46.8704 56.7313C47.3529 56.7313 47.8353 56.5473 48.2031 56.1791C48.9391 55.4431 48.9391 54.2498 48.2029 53.5136C43.6799 48.9914 36.3205 48.9914 31.7971 53.5136Z" fill="#F54E37"/>
</svg>
