<svg width="80" height="80" viewBox="0 0 80 80" fill="none" xmlns="http://www.w3.org/2000/svg">
<path d="M67.4093 32.4402C65.0942 32.4402 63.2109 34.3237 63.2109 36.6388C63.2109 38.4607 64.3778 40.0148 66.0031 40.5943V51.9189C66.0031 57.6871 61.3102 62.3801 55.5419 62.3801H54.2334V59.1353C54.2334 57.9463 53.6425 56.8428 52.6526 56.1836C51.6655 55.5262 50.4233 55.4065 49.33 55.8631C49.224 55.9074 49.1172 55.9489 49.0108 55.9918V52.0615C56.6097 48.225 61.8336 40.3452 61.8336 31.2674C61.8336 18.4316 51.391 7.98901 38.5552 7.98901C25.7195 7.98901 15.2769 18.4316 15.2769 31.2674C15.2769 40.3452 20.5008 48.2251 28.0998 52.0615V55.9918C27.9935 55.9489 27.8866 55.9074 27.7807 55.8631C26.6872 55.4062 25.4452 55.5262 24.4579 56.1836C23.4681 56.8428 22.8772 57.9463 22.8772 59.1353V72.0858C22.8772 74.2441 24.633 75.9999 26.7913 75.9999H50.3193C52.4776 75.9999 54.2334 74.2441 54.2334 72.0858V65.1925H55.5419C62.861 65.1925 68.8156 59.2381 68.8156 51.9189V40.5943C70.441 40.0146 71.6079 38.4607 71.6079 36.6388C71.6079 34.3237 69.7244 32.4402 67.4093 32.4402ZM18.0893 31.2674C18.0893 19.9824 27.2703 10.8015 38.5552 10.8015C49.8402 10.8015 59.0211 19.9824 59.0211 31.2674C59.0211 38.7348 55.0002 45.2799 49.0106 48.8543C48.1149 49.3888 47.1752 49.8569 46.1981 50.2516C43.8355 51.2063 41.2559 51.7333 38.5552 51.7333C35.8545 51.7333 33.2749 51.2062 30.9123 50.2516C29.9352 49.8569 28.9956 49.3888 28.0998 48.8543C22.1102 45.2797 18.0893 38.7348 18.0893 31.2674ZM46.1981 53.2554V56.9565C43.7263 57.6582 41.1673 58.0138 38.5552 58.0138C35.9431 58.0138 33.3842 57.6582 30.9123 56.9565V53.2554C33.3075 54.0903 35.879 54.5457 38.5552 54.5457C41.2314 54.5457 43.8029 54.0904 46.1981 53.2554ZM51.4208 63.7862V72.0857C51.4208 72.6932 50.9266 73.1873 50.3191 73.1873H26.7913C26.1838 73.1873 25.6897 72.6932 25.6897 72.0857V59.1352C25.6897 58.7806 25.9184 58.59 26.0169 58.5244C26.0984 58.4701 26.2382 58.3998 26.4161 58.3998C26.5016 58.3998 26.5958 58.4161 26.6967 58.4582C27.161 58.6521 27.6289 58.8341 28.1 59.0044C29.0253 59.3389 29.9635 59.6269 30.9124 59.8696C33.3942 60.5047 35.951 60.8262 38.5554 60.8262C41.1597 60.8262 43.7166 60.5047 46.1983 59.8696C47.1472 59.6268 48.0855 59.3389 49.0108 59.0044C49.4817 58.8341 49.9496 58.6521 50.4139 58.4582C50.7241 58.3287 50.9729 58.444 51.0936 58.5244C51.192 58.59 51.4208 58.7806 51.4208 59.1352V63.7862ZM67.4092 38.0247C66.6449 38.0247 66.0232 37.403 66.0232 36.6387C66.0232 35.8744 66.6449 35.2525 67.4092 35.2525C68.1735 35.2525 68.7953 35.8744 68.7953 36.6387C68.7953 37.403 68.1735 38.0247 67.4092 38.0247Z" fill="#F54E37"/>
<path d="M26.5799 6.67044C27.2779 6.32999 27.5678 5.48793 27.2273 4.79002C26.8867 4.09196 26.0451 3.80227 25.3467 4.14258C20.34 6.58508 16.107 10.3635 13.1058 15.0695C10.0219 19.9051 8.39197 25.5063 8.39197 31.2674C8.39197 32.0441 9.02154 32.6737 9.79821 32.6737C10.5749 32.6737 11.2045 32.0441 11.2045 31.2674C11.2045 20.7219 17.096 11.2968 26.5799 6.67044Z" fill="#F54E37"/>
<path d="M42.9035 17.4954C49.0361 19.612 53.1565 25.396 53.1565 31.8881C53.1565 32.6648 53.7861 33.2943 54.5628 33.2943C55.3394 33.2943 55.969 32.6648 55.969 31.8881C55.969 24.1971 51.0871 17.3447 43.8211 14.8369C43.0869 14.5834 42.2863 14.9733 42.033 15.7073C41.7796 16.4414 42.1693 17.242 42.9035 17.4954Z" fill="#F54E37"/>
<path d="M38.5552 37.7733C42.1425 37.7733 45.0611 34.8548 45.0611 31.2675C45.0611 27.6801 42.1426 24.7615 38.5552 24.7615C34.9677 24.7615 32.0492 27.68 32.0492 31.2675C32.0492 34.8549 34.9678 37.7733 38.5552 37.7733ZM38.5552 27.574C40.5917 27.574 42.2487 29.2308 42.2487 31.2675C42.2487 33.304 40.5918 34.9608 38.5552 34.9608C36.5186 34.9608 34.8617 33.304 34.8617 31.2675C34.8617 29.2308 36.5186 27.574 38.5552 27.574Z" fill="#F54E37"/>
<path d="M30.7272 70.022C30.692 69.9376 30.6484 69.856 30.5978 69.7801C30.5457 69.7028 30.4881 69.631 30.4234 69.5664C30.0957 69.2387 29.6106 69.0896 29.1536 69.181C29.0636 69.1993 28.975 69.226 28.8906 69.2612C28.8062 69.2964 28.7247 69.3399 28.6473 69.3906C28.5714 69.4426 28.4983 69.5017 28.4336 69.5664C28.3689 69.631 28.3098 69.7028 28.2592 69.7801C28.2086 69.856 28.165 69.9376 28.1298 70.022C28.0947 70.1078 28.0679 70.1963 28.0497 70.2849C28.0314 70.3763 28.0229 70.4692 28.0229 70.5606C28.0229 70.652 28.0314 70.7448 28.0497 70.8348C28.0679 70.9248 28.0947 71.0134 28.1298 71.0977C28.165 71.1835 28.2086 71.2651 28.2592 71.341C28.3098 71.4184 28.3689 71.4901 28.4336 71.5548C28.4983 71.6195 28.5714 71.6785 28.6473 71.7291C28.7247 71.7798 28.8062 71.8234 28.8906 71.8585C28.975 71.8937 29.0636 71.9204 29.1536 71.9387C29.245 71.957 29.3364 71.9668 29.4292 71.9668C29.799 71.9668 30.1618 71.8163 30.4234 71.5548C30.4881 71.4901 30.5457 71.4184 30.5978 71.341C30.6484 71.2651 30.692 71.1835 30.7272 71.0977C30.7623 71.0134 30.789 70.9248 30.8073 70.8348C30.8256 70.7448 30.834 70.652 30.834 70.5606C30.834 70.4692 30.8256 70.3763 30.8073 70.2849C30.789 70.1963 30.7623 70.1078 30.7272 70.022Z" fill="#F54E37"/>
<path d="M48.9802 70.022C48.945 69.9376 48.9015 69.856 48.8508 69.7801C48.8002 69.7028 48.7411 69.631 48.6765 69.5664C48.6118 69.5017 48.5401 69.4426 48.4627 69.3906C48.3868 69.34 48.3052 69.2964 48.2194 69.2612C48.1351 69.2275 48.0465 69.1993 47.9565 69.1825C47.7751 69.1459 47.5894 69.1459 47.4066 69.1825C47.318 69.1993 47.2294 69.2275 47.1437 69.2612C47.0593 69.2964 46.9777 69.34 46.9018 69.3906C46.8244 69.4426 46.7527 69.5017 46.688 69.5664C46.6233 69.631 46.5643 69.7028 46.5137 69.7801C46.463 69.856 46.4194 69.9376 46.3843 70.022C46.3491 70.1078 46.321 70.1963 46.3041 70.2849C46.2858 70.3763 46.276 70.4692 46.276 70.5606C46.276 70.652 46.2858 70.7448 46.3041 70.8348C46.321 70.9248 46.3491 71.0134 46.3843 71.0977C46.4194 71.1835 46.463 71.2651 46.5137 71.341C46.5643 71.4184 46.6233 71.4901 46.688 71.5548C46.7527 71.6195 46.8244 71.6785 46.9018 71.7291C46.9777 71.7798 47.0593 71.8234 47.1437 71.8585C47.2294 71.8937 47.318 71.9204 47.4066 71.9387C47.498 71.957 47.5908 71.9668 47.6822 71.9668C47.7736 71.9668 47.8665 71.957 47.9565 71.9387C48.0465 71.9204 48.1351 71.8937 48.2194 71.8585C48.3052 71.8234 48.3868 71.7798 48.4627 71.7291C48.5401 71.6785 48.6118 71.6195 48.6765 71.5548C48.7411 71.4901 48.8002 71.4184 48.8508 71.341C48.9015 71.2651 48.945 71.1835 48.9802 71.0977C49.0154 71.0134 49.0421 70.9248 49.0604 70.8348C49.0786 70.7448 49.0885 70.652 49.0885 70.5606C49.0885 70.4692 49.0786 70.3763 49.0604 70.2849C49.0421 70.1963 49.0154 70.1078 48.9802 70.022Z" fill="#F54E37"/>
<path d="M36.5127 65.1925H40.5978C41.343 65.1925 41.951 64.6126 41.9993 63.8796C42.0014 63.8487 42.0041 63.8177 42.0041 63.7862C42.0041 63.0096 41.3745 62.38 40.5978 62.38H36.5127C35.736 62.38 35.1064 63.0096 35.1064 63.7862C35.1064 63.8177 35.1091 63.8487 35.1112 63.8796C35.1595 64.6126 35.7675 65.1925 36.5127 65.1925Z" fill="#F54E37"/>
<path d="M42.2784 67.2408H34.8321C34.0555 67.2408 33.4259 67.8704 33.4259 68.6471C33.4259 69.4238 34.0555 70.0533 34.8321 70.0533H42.2784C43.055 70.0533 43.6846 69.4238 43.6846 68.6471C43.6846 67.8704 43.055 67.2408 42.2784 67.2408Z" fill="#F54E37"/>
<path d="M37.1537 16.4286C37.2311 16.4792 37.3126 16.5228 37.397 16.558C37.4814 16.5931 37.57 16.6213 37.66 16.6381C37.7514 16.6564 37.8428 16.6663 37.9342 16.6663C38.027 16.6663 38.1184 16.6564 38.2098 16.6381C38.2998 16.6213 38.3884 16.5931 38.4728 16.558C38.5572 16.5228 38.6387 16.4792 38.7161 16.4286C38.792 16.378 38.8651 16.3189 38.9298 16.2542C39.1914 15.9927 39.3418 15.6299 39.3418 15.26C39.3418 15.1686 39.332 15.0758 39.3137 14.9858C39.2954 14.8958 39.2687 14.8072 39.2336 14.7228C39.1984 14.6371 39.1548 14.5555 39.1042 14.4796C39.0536 14.4022 38.9945 14.3305 38.9298 14.2658C38.8651 14.2011 38.792 14.1421 38.7161 14.0914C38.6387 14.0408 38.5572 13.9972 38.4728 13.9621C38.3884 13.9269 38.2998 13.8988 38.2098 13.8819C38.0284 13.8454 37.8414 13.8454 37.66 13.8819C37.57 13.8988 37.4814 13.9269 37.397 13.9621C37.3126 13.9972 37.2311 14.0408 37.1537 14.0914C37.0778 14.1421 37.0047 14.2011 36.94 14.2658C36.8753 14.3305 36.8162 14.4022 36.7656 14.4796C36.715 14.5555 36.6714 14.6371 36.6362 14.7228C36.6011 14.8072 36.5744 14.8958 36.5561 14.9858C36.5378 15.0758 36.528 15.1686 36.528 15.26C36.528 15.6299 36.6784 15.9927 36.94 16.2542C37.0047 16.3189 37.0778 16.378 37.1537 16.4286Z" fill="#F54E37"/>
</svg>
