<svg width="46" height="46" viewBox="0 0 46 46" fill="none" xmlns="http://www.w3.org/2000/svg">
<g clip-path="url(#clip0)">
<path d="M23.2493 16.3073H6.0007C5.62857 16.3073 5.32697 16.6089 5.32697 16.981C5.32697 17.3531 5.62857 17.6547 6.0007 17.6547H23.2494C23.6215 17.6547 23.9231 17.353 23.9231 16.981C23.9231 16.6089 23.6215 16.3073 23.2493 16.3073Z" fill="#F54E37"/>
<path d="M23.2493 21.0415H6.0007C5.62857 21.0415 5.32697 21.3432 5.32697 21.7152C5.32697 22.0873 5.62857 22.389 6.0007 22.389H23.2494C23.6215 22.389 23.9231 22.0873 23.9231 21.7152C23.9231 21.3432 23.6215 21.0415 23.2493 21.0415Z" fill="#F54E37"/>
<path d="M23.2493 25.7759H6.0007C5.62857 25.7759 5.32697 26.0776 5.32697 26.4496C5.32697 26.8217 5.62857 27.1234 6.0007 27.1234H23.2494C23.6215 27.1234 23.9231 26.8217 23.9231 26.4496C23.9231 26.0776 23.6215 25.7759 23.2493 25.7759Z" fill="#F54E37"/>
<path d="M23.9231 31.1841C23.9231 30.812 23.6215 30.5104 23.2494 30.5104H6.0007C5.62857 30.5104 5.32697 30.8121 5.32697 31.1841C5.32697 31.5562 5.62857 31.8579 6.0007 31.8579H23.2494C23.6215 31.8579 23.9231 31.5562 23.9231 31.1841Z" fill="#F54E37"/>
<path d="M6.0007 37.4487C5.62857 37.4487 5.32697 37.7504 5.32697 38.1225C5.32697 38.4945 5.62857 38.7962 6.0007 38.7962H14.6471C15.0192 38.7962 15.3208 38.4945 15.3208 38.1225C15.3208 37.7504 15.0192 37.4487 14.6471 37.4487H6.0007Z" fill="#F54E37"/>
<path d="M31.0135 8.34222V6.15596C31.0135 5.32311 30.336 4.64551 29.5031 4.64551H15.6701C14.8372 4.64551 14.1597 5.32311 14.1597 6.15596V8.34222C14.1597 9.17507 14.8372 9.85258 15.6701 9.85258H16.8382C17.2104 9.85258 17.512 9.55089 17.512 9.17884C17.512 8.80671 17.2104 8.50511 16.8382 8.50511H15.6701C15.5803 8.50511 15.5073 8.43206 15.5073 8.34231V6.15596C15.5073 6.06621 15.5803 5.99307 15.6701 5.99307H29.5031C29.5929 5.99307 29.666 6.06612 29.666 6.15596V8.34222C29.666 8.43197 29.5929 8.50502 29.5031 8.50502H19.9882C19.616 8.50502 19.3144 8.80671 19.3144 9.17875C19.3144 9.55089 19.616 9.85249 19.9882 9.85249H29.5032C30.336 9.85267 31.0135 9.17507 31.0135 8.34222Z" fill="#F54E37"/>
<path d="M36.0515 41.0852C35.6794 41.0852 35.3778 41.3869 35.3778 41.7589V42.6663C35.3778 43.7614 34.4868 44.6524 33.3915 44.6524H3.58475C2.48965 44.6524 1.59858 43.7615 1.59858 42.6663V10.2806C1.59858 10.1348 1.61565 9.99179 1.6461 9.85262H7.7809C9.06172 9.85262 10.1037 8.81062 10.1037 7.5298V1.39509C10.2429 1.36464 10.3858 1.34757 10.5316 1.34757H33.3914C34.4866 1.34757 35.3777 2.23855 35.3777 3.33374V12.3039C35.3777 12.6761 35.6793 12.9777 36.0514 12.9777C36.4235 12.9777 36.7251 12.676 36.7251 12.3039V3.33365C36.7252 1.49554 35.2297 0 33.3915 0H10.5317C9.6413 0 8.80404 0.346797 8.17442 0.976422L1.22743 7.92341C0.597806 8.55304 0.251099 9.3902 0.251099 10.2807V42.6663C0.251099 44.5046 1.74655 46 3.58475 46H33.3915C35.2297 46 36.7252 44.5045 36.7252 42.6663V41.759C36.7252 41.3869 36.4236 41.0852 36.0515 41.0852ZM8.75625 2.30036V7.5298C8.75625 8.06761 8.31871 8.50515 7.7809 8.50515H2.55146L8.75625 2.30036Z" fill="#F54E37"/>
<path d="M45.2796 24.0781C45.7526 23.3839 45.875 22.5276 45.6154 21.7287C45.3558 20.9298 44.7534 20.309 43.9628 20.0255C43.4383 19.8373 43.0884 19.3558 43.0717 18.7987C43.0462 17.9591 42.6418 17.1944 41.9622 16.7006C41.2827 16.2069 40.4302 16.0588 39.6242 16.294C39.0889 16.4501 38.5231 16.2661 38.1821 15.8255C37.6681 15.1611 36.8915 14.78 36.0514 14.78C35.2115 14.78 34.4348 15.1611 33.9207 15.8255C33.5797 16.2662 33.0136 16.45 32.4787 16.294C31.6726 16.0586 30.8202 16.2069 30.1405 16.7006C29.461 17.1944 29.0568 17.9591 29.0312 18.7986C29.0144 19.3557 28.6646 19.8372 28.14 20.0254C27.3494 20.3089 26.747 20.9298 26.4875 21.7286C26.2279 22.5275 26.3503 23.3839 26.8232 24.078C27.137 24.5387 27.137 25.1338 26.8232 25.5943C26.3503 26.2886 26.2279 27.1449 26.4875 27.9438C26.747 28.7426 27.3494 29.3635 28.14 29.6471C28.6646 29.8353 29.0145 30.3168 29.0312 30.8738C29.0547 31.6461 29.4086 32.3718 30.0025 32.8646C30.3943 33.1898 30.865 33.3933 31.3576 33.4613V39.5957C31.3576 40.1133 31.6383 40.5917 32.0901 40.8441C32.5414 41.0963 33.0962 41.085 33.5373 40.8134L36.0084 39.2922C36.0487 39.2673 36.0727 39.2785 36.0948 39.2922L38.5658 40.8134C39.0067 41.0847 39.5613 41.0964 40.013 40.844C40.4649 40.5915 40.7456 40.1131 40.7456 39.5956V33.4611C41.238 33.3932 41.7087 33.1897 42.1005 32.8646C42.6945 32.3718 43.0485 31.6462 43.0719 30.8737C43.0886 30.3167 43.4386 29.8351 43.9631 29.647C44.7538 29.3635 45.3562 28.7426 45.6157 27.9437C45.8752 27.1448 45.7529 26.2885 45.2799 25.5942C44.9658 25.1339 44.9658 24.5388 45.2796 24.0781ZM39.2721 39.6659L36.801 38.1447C36.3416 37.862 35.7616 37.8615 35.3018 38.1447L32.8307 39.6658C32.7745 39.7001 32.705 39.6606 32.705 39.5956V33.3334C33.1683 33.2798 33.6276 33.4682 33.9207 33.8471C34.4349 34.5114 35.2115 34.8925 36.0515 34.8925C36.8915 34.8925 37.6681 34.5114 38.1821 33.8471C38.4753 33.4682 38.9347 33.2798 39.3979 33.3334V39.5956C39.3979 39.6611 39.3275 39.7002 39.2721 39.6659ZM44.166 26.3532C44.4025 26.7002 44.4636 27.1282 44.3339 27.5274C44.2041 27.9267 43.9031 28.237 43.5078 28.3788C42.4583 28.7552 41.7584 29.7186 41.7247 30.8331C41.7128 31.2249 41.5405 31.5781 41.2398 31.8277C40.9017 32.1083 40.4439 32.2141 40.0017 32.0851C38.9314 31.7728 37.7987 32.1408 37.1163 33.0225C36.8594 33.3545 36.4712 33.545 36.0514 33.545C35.6316 33.545 35.2434 33.3546 34.9863 33.0225C34.4653 32.3491 33.6818 31.9753 32.864 31.9753C32.6108 31.9753 32.3542 32.0112 32.1012 32.085C31.6547 32.2151 31.1982 32.106 30.8628 31.8276C30.5621 31.578 30.3899 31.2248 30.3781 30.8331C30.3443 29.7186 29.6444 28.7552 28.5948 28.3787C28.1996 28.2369 27.8987 27.9267 27.7688 27.5274C27.6391 27.1282 27.7002 26.7001 27.9367 26.3532C28.5644 25.4316 28.5644 24.2409 27.9367 23.3194C27.7002 22.9724 27.6391 22.5444 27.7688 22.1451C27.8986 21.7458 28.1996 21.4355 28.5948 21.2938C29.6444 20.9173 30.3443 19.9539 30.3781 18.8393C30.3908 18.4197 30.5927 18.0375 30.9324 17.7908C31.2719 17.544 31.6978 17.47 32.1011 17.5875C33.1711 17.8999 34.3041 17.5318 34.9863 16.65C35.2433 16.318 35.6314 16.1275 36.0514 16.1275C36.4712 16.1275 36.8593 16.3179 37.1163 16.6499C37.7986 17.5318 38.931 17.8998 40.0016 17.5875C40.4046 17.4698 40.8305 17.5439 41.1702 17.7907C41.5099 18.0374 41.712 18.4197 41.7246 18.8393C41.7584 19.9538 42.4583 20.9173 43.5078 21.2937C43.9031 21.4354 44.204 21.7457 44.3339 22.145C44.4636 22.5442 44.4025 22.9723 44.166 23.3192C43.5381 24.2408 43.5381 25.4317 44.166 26.3532Z" fill="#F54E37"/>
<path d="M36.0515 19.1891C32.9377 19.1891 30.4045 21.7223 30.4045 24.8361C30.4045 27.9499 32.9377 30.4832 36.0515 30.4832C39.1652 30.4832 41.6985 27.9499 41.6985 24.8361C41.6985 21.7223 39.1652 19.1891 36.0515 19.1891ZM36.0515 29.1357C33.6807 29.1357 31.752 27.2069 31.752 24.8362C31.752 22.4655 33.6807 20.5367 36.0515 20.5367C38.4223 20.5367 40.351 22.4654 40.351 24.8362C40.351 27.207 38.4222 29.1357 36.0515 29.1357Z" fill="#F54E37"/>
</g>
<defs>
<clipPath id="clip0">
<rect width="46" height="46" fill="white"/>
</clipPath>
</defs>
</svg>
