<svg width="423" height="305" viewBox="0 0 423 305" fill="none" xmlns="http://www.w3.org/2000/svg">
<path d="M304.538 89.5724C304.538 146.897 254.7 193.542 193 193.542C131.3 193.542 81.4625 146.897 81.4625 89.5724C81.4625 32.248 131.3 -14.3968 193 -14.3968C254.7 -14.3968 304.538 32.248 304.538 89.5724ZM193 196.542C256.158 196.542 307.538 148.746 307.538 89.5724C307.538 30.3987 256.158 -17.3968 193 -17.3968C129.842 -17.3968 78.4625 30.3987 78.4625 89.5724C78.4625 148.746 129.842 196.542 193 196.542ZM341.432 89.5724C341.432 165.909 275.076 227.965 193 227.965C110.924 227.965 44.5683 165.909 44.5683 89.5724C44.5683 13.2362 110.924 -48.8208 193 -48.8208C275.076 -48.8208 341.432 13.2362 341.432 89.5724ZM193 230.965C276.534 230.965 344.432 167.758 344.432 89.5724C344.432 11.3869 276.534 -51.8208 193 -51.8208C109.466 -51.8208 41.5683 11.3869 41.5683 89.5724C41.5683 167.758 109.466 230.965 193 230.965ZM377.541 89.5724C377.541 184.516 295.019 261.657 193 261.657C90.9812 261.657 8.45905 184.516 8.45905 89.5724C8.45905 -5.37114 90.9812 -82.5123 193 -82.5123C295.019 -82.5123 377.541 -5.37114 377.541 89.5724ZM193 264.657C296.476 264.657 380.541 186.365 380.541 89.5724C380.541 -7.22043 296.476 -85.5123 193 -85.5123C89.5236 -85.5123 5.45905 -7.22043 5.45905 89.5724C5.45905 186.365 89.5236 264.657 193 264.657ZM421.5 89.5724C421.5 207.168 319.297 302.673 193 302.673C66.7033 302.673 -35.5 207.168 -35.5 89.5724C-35.5 -28.0235 66.7033 -123.528 193 -123.528C319.297 -123.528 421.5 -28.0235 421.5 89.5724Z" stroke="#7B7B7B" stroke-opacity="0.03" stroke-width="3"/>
</svg>
