<svg width="80" height="80" viewBox="0 0 80 80" fill="none" xmlns="http://www.w3.org/2000/svg">
<path d="M64.4625 14.8251H58.802V13.1626C58.802 11.1982 57.2039 9.6001 55.2395 9.6001C53.2752 9.6001 51.677 11.1982 51.677 13.1626V14.8251H31.727V13.1626C31.727 11.1982 30.1289 9.6001 28.1645 9.6001C26.2002 9.6001 24.602 11.1982 24.602 13.1626V14.869C24.5011 14.8411 24.3953 14.8251 24.2854 14.8251H19.554C16.28 14.8251 13.6165 17.4887 13.6165 20.7626V40.9896C13.6165 41.6455 14.1482 42.1771 14.804 42.1771C15.4597 42.1771 15.9915 41.6455 15.9915 40.9896V27.0563H58.802C59.4578 27.0563 59.9895 26.5247 59.9895 25.8688C59.9895 25.213 59.4578 24.6813 58.802 24.6813H15.9915V20.7626C15.9915 18.7982 17.5896 17.2001 19.554 17.2001H24.2854C24.3953 17.2001 24.5011 17.1839 24.602 17.1562V18.6845C24.602 20.6488 26.2002 22.247 28.1645 22.247C30.1289 22.247 31.727 20.6488 31.727 18.6845V17.2001H51.677V18.6845C51.677 20.6488 53.2752 22.247 55.2395 22.247C57.2039 22.247 58.802 20.6488 58.802 18.6845V17.2001H64.4625C66.4268 17.2001 68.025 18.7982 68.025 20.7626V65.8869C68.025 67.0658 67.0658 68.0251 65.8868 68.0251C64.7077 68.0251 63.7486 67.0658 63.7486 65.8869V62.8149C63.7486 62.1591 63.2168 61.6274 62.5611 61.6274H48.7479C48.0922 61.6274 47.5604 62.1591 47.5604 62.8149C47.5604 63.4708 48.0922 64.0024 48.7479 64.0024H61.3736V65.8869C61.3736 66.6601 61.5693 67.3882 61.9133 68.0251H14.1125C12.9339 68.0251 11.975 67.0662 11.975 65.8876V64.0024H38.5542C39.2099 64.0024 39.7417 63.4708 39.7417 62.8149C39.7417 62.1591 39.2099 61.6274 38.5542 61.6274H26.6892C28.7642 59.8404 30.0819 57.197 30.0819 54.2501C30.0819 48.8808 25.7136 44.5126 20.3444 44.5126C14.9751 44.5126 10.6069 48.8808 10.6069 54.2501C10.6069 57.197 11.9245 59.8404 13.9995 61.6274H10.7875C10.1317 61.6274 9.59998 62.1591 9.59998 62.8149V65.8876C9.59998 68.3758 11.6243 70.4001 14.1125 70.4001H65.8868C68.3753 70.4001 70.4 68.3755 70.4 65.8869V20.7626C70.4 17.4887 67.7364 14.8251 64.4625 14.8251ZM29.352 18.6845C29.352 19.3393 28.8193 19.872 28.1645 19.872C27.5097 19.872 26.977 19.3393 26.977 18.6845V13.1626C26.977 12.5078 27.5097 11.9751 28.1645 11.9751C28.8193 11.9751 29.352 12.5078 29.352 13.1626V18.6845ZM56.427 18.6845C56.427 19.3393 55.8943 19.872 55.2395 19.872C54.5847 19.872 54.052 19.3393 54.052 18.6845V13.1626C54.052 12.5078 54.5847 11.9751 55.2395 11.9751C55.8943 11.9751 56.427 12.5078 56.427 13.1626V18.6845ZM12.9819 54.2501C12.9819 50.1904 16.2846 46.8876 20.3444 46.8876C24.4041 46.8876 27.7069 50.1904 27.7069 54.2501C27.7069 58.3098 24.4041 61.6126 20.3444 61.6126C16.2846 61.6126 12.9819 58.3098 12.9819 54.2501Z" fill="#F54E37"/>
<path d="M65.2117 25.0293C64.9909 24.8084 64.6845 24.6813 64.3722 24.6813C64.0598 24.6813 63.7535 24.8084 63.5327 25.0293C63.3118 25.2502 63.1847 25.5565 63.1847 25.8688C63.1847 26.1812 63.3117 26.4875 63.5327 26.7084C63.7537 26.9293 64.0598 27.0563 64.3722 27.0563C64.6845 27.0563 64.9909 26.9293 65.2117 26.7084C65.4325 26.4875 65.5597 26.1812 65.5597 25.8688C65.5597 25.5565 65.4327 25.2502 65.2117 25.0293Z" fill="#F54E37"/>
<path d="M45.0646 61.9748C44.8438 61.754 44.5374 61.6281 44.2251 61.6281C43.9128 61.6281 43.6064 61.754 43.3856 61.9748C43.1647 62.1969 43.0376 62.5021 43.0376 62.8144C43.0376 63.1279 43.1646 63.4331 43.3856 63.6552C43.6064 63.876 43.9128 64.0019 44.2251 64.0019C44.5374 64.0019 44.8438 63.876 45.0646 63.6552C45.2854 63.4331 45.4126 63.1267 45.4126 62.8144C45.4126 62.5021 45.2856 62.1969 45.0646 61.9748Z" fill="#F54E37"/>
<path d="M36.4666 45.7001C33.9784 45.7001 31.9541 47.7244 31.9541 50.2126C31.9541 52.7008 33.9784 54.7251 36.4666 54.7251C38.9547 54.7251 40.9791 52.7008 40.9791 50.2126C40.9791 47.7244 38.9547 45.7001 36.4666 45.7001ZM36.4666 52.3501C35.288 52.3501 34.3291 51.3912 34.3291 50.2126C34.3291 49.034 35.288 48.0751 36.4666 48.0751C37.6452 48.0751 38.6041 49.034 38.6041 50.2126C38.6041 51.3912 37.6452 52.3501 36.4666 52.3501Z" fill="#F54E37"/>
<path d="M47.5499 45.7001C45.0617 45.7001 43.0374 47.7244 43.0374 50.2126C43.0374 52.7008 45.0617 54.7251 47.5499 54.7251C50.038 54.7251 52.0624 52.7008 52.0624 50.2126C52.0624 47.7244 50.038 45.7001 47.5499 45.7001ZM47.5499 52.3501C46.3713 52.3501 45.4124 51.3912 45.4124 50.2126C45.4124 49.034 46.3713 48.0751 47.5499 48.0751C48.7285 48.0751 49.6874 49.034 49.6874 50.2126C49.6874 51.3912 48.7285 52.3501 47.5499 52.3501Z" fill="#F54E37"/>
<path d="M58.6333 45.7001C56.1451 45.7001 54.1208 47.7244 54.1208 50.2126C54.1208 52.7008 56.1451 54.7251 58.6333 54.7251C61.1214 54.7251 63.1458 52.7008 63.1458 50.2126C63.1458 47.7244 61.1214 45.7001 58.6333 45.7001ZM58.6333 52.3501C57.4547 52.3501 56.4958 51.3912 56.4958 50.2126C56.4958 49.034 57.4547 48.0751 58.6333 48.0751C59.8119 48.0751 60.7708 49.034 60.7708 50.2126C60.7708 51.3912 59.8119 52.3501 58.6333 52.3501Z" fill="#F54E37"/>
<path d="M25.3833 33.3501C22.8951 33.3501 20.8708 35.3744 20.8708 37.8626C20.8708 40.3508 22.8951 42.3751 25.3833 42.3751C27.8715 42.3751 29.8958 40.3508 29.8958 37.8626C29.8958 35.3744 27.8715 33.3501 25.3833 33.3501ZM25.3833 40.0001C24.2047 40.0001 23.2458 39.0412 23.2458 37.8626C23.2458 36.684 24.2047 35.7251 25.3833 35.7251C26.5619 35.7251 27.5208 36.684 27.5208 37.8626C27.5208 39.0412 26.5619 40.0001 25.3833 40.0001Z" fill="#F54E37"/>
<path d="M47.5499 33.3501C45.0617 33.3501 43.0374 35.3744 43.0374 37.8626C43.0374 40.3508 45.0617 42.3751 47.5499 42.3751C50.038 42.3751 52.0624 40.3508 52.0624 37.8626C52.0624 35.3744 50.038 33.3501 47.5499 33.3501ZM47.5499 40.0001C46.3713 40.0001 45.4124 39.0412 45.4124 37.8626C45.4124 36.684 46.3713 35.7251 47.5499 35.7251C48.7285 35.7251 49.6874 36.684 49.6874 37.8626C49.6874 39.0412 48.7285 40.0001 47.5499 40.0001Z" fill="#F54E37"/>
<path d="M58.6333 33.3501C56.1451 33.3501 54.1208 35.3744 54.1208 37.8626C54.1208 40.3508 56.1451 42.3751 58.6333 42.3751C61.1214 42.3751 63.1458 40.3508 63.1458 37.8626C63.1458 35.3744 61.1214 33.3501 58.6333 33.3501ZM58.6333 40.0001C57.4547 40.0001 56.4958 39.0412 56.4958 37.8626C56.4958 36.684 57.4547 35.7251 58.6333 35.7251C59.8119 35.7251 60.7708 36.684 60.7708 37.8626C60.7708 39.0412 59.8119 40.0001 58.6333 40.0001Z" fill="#F54E37"/>
<path d="M36.4666 33.3501C33.9784 33.3501 31.9541 35.3744 31.9541 37.8626C31.9541 40.3508 33.9784 42.3751 36.4666 42.3751C38.9547 42.3751 40.9791 40.3508 40.9791 37.8626C40.9791 35.3744 38.9547 33.3501 36.4666 33.3501ZM36.4666 40.0001C35.288 40.0001 34.3291 39.0412 34.3291 37.8626C34.3291 36.684 35.288 35.7251 36.4666 35.7251C37.6452 35.7251 38.6041 36.684 38.6041 37.8626C38.6041 39.0412 37.6452 40.0001 36.4666 40.0001Z" fill="#F54E37"/>
<path d="M24.5748 51.3561C24.111 50.8924 23.3593 50.8924 22.8953 51.3561L19.0281 55.2234L17.7065 53.9018C17.2427 53.4381 16.491 53.4381 16.0271 53.9018C15.5634 54.3656 15.5634 55.1175 16.0271 55.5813L18.1884 57.7425C18.4112 57.9651 18.7132 58.0903 19.0281 58.0903C19.343 58.0903 19.645 57.9651 19.8678 57.7425L24.5748 53.0354C25.0385 52.5717 25.0385 51.8198 24.5748 51.3561Z" fill="#F54E37"/>
</svg>
