<svg width="80" height="80" viewBox="0 0 80 80" fill="none" xmlns="http://www.w3.org/2000/svg">
<path d="M67.974 25.9253H1.1454C0.513558 25.9246 0.000668913 26.4468 6.53983e-07 27.0917V59.8348C-0.000667605 60.4797 0.510885 61.0032 1.14272 61.0039H46.587C47.2195 61.0039 47.7324 60.4804 47.7324 59.8348C47.7324 59.1892 47.2195 58.6657 46.587 58.6657H2.29079V28.2635H66.8259V31.187C66.8253 31.8319 67.3368 32.3554 67.9686 32.3561H67.9713C68.6032 32.3567 69.1161 31.8346 69.1167 31.1897V27.0944C69.1174 26.4495 68.6058 25.9262 67.974 25.9253Z" fill="#F54E37"/>
<path d="M60.2035 20.4973L6.74273 8.21966C6.44602 8.15196 6.13512 8.20687 5.878 8.37245C5.62123 8.53939 5.43963 8.80319 5.3728 9.10637L2.69976 21.384C2.56244 22.0146 2.95203 22.6394 3.56984 22.7796C4.18764 22.9197 4.79977 22.5221 4.9371 21.8915L7.3602 10.7584L59.7009 22.7782C59.7838 22.7978 59.8685 22.8075 59.9535 22.8068C60.586 22.8057 61.0979 22.2813 61.0969 21.6357C61.0959 21.0899 60.725 20.6175 60.2035 20.4973Z" fill="#F54E37"/>
<path d="M53.712 13.7324L21.6356 0.0905369C21.0781 -0.14666 20.4357 0.0970168 20.1654 0.648487L17.4924 6.10522C17.1905 6.6751 17.3983 7.38703 17.9568 7.69517C18.5151 8.0033 19.2126 7.79117 19.5145 7.22112C19.5264 7.19878 19.5376 7.17593 19.5479 7.15274V7.15547L21.7412 2.67549L52.8272 15.8958C53.4126 16.1451 54.0852 15.863 54.3295 15.2655C54.5737 14.6684 54.2974 13.9818 53.712 13.7324Z" fill="#F54E37"/>
<path d="M54.5219 31.382H43.914C43.2815 31.382 42.7686 31.9055 42.7686 32.5511C42.7686 33.1967 43.2815 33.7202 43.914 33.7202H54.5219C55.1544 33.7202 55.6673 33.1967 55.6673 32.5511C55.6673 31.9055 55.1544 31.382 54.5219 31.382Z" fill="#F54E37"/>
<path d="M33.2218 31.4598C26.7262 31.4598 21.4605 36.8345 21.4605 43.4646C21.4672 50.0918 26.729 55.4626 33.2218 55.4694C39.7175 55.4694 44.9832 50.0947 44.9832 43.4646C44.9832 36.8345 39.7175 31.4598 33.2218 31.4598ZM33.2218 53.2867C27.9072 53.2867 23.5989 48.8892 23.5989 43.4646C23.6048 38.0425 27.9097 33.6484 33.2218 33.6425C38.5365 33.6425 42.8448 38.0399 42.8448 43.4646C42.8448 48.8892 38.5365 53.2867 33.2218 53.2867Z" fill="#F54E37"/>
<path d="M65.2983 35.2795C58.2147 35.2795 50.5966 36.9875 50.5966 40.7362V73.4766C50.5966 77.2254 58.2147 78.9333 65.2983 78.9333C72.3818 78.9333 80 77.2254 80 73.4766V40.7362C80 36.9875 72.3818 35.2795 65.2983 35.2795ZM77.327 73.4561C77.1252 74.2133 73.1169 76.205 65.2983 76.205C57.4797 76.205 53.4714 74.2133 53.2696 73.4766V71.3321C56.1137 72.7945 60.8116 73.4766 65.2983 73.4766C69.785 73.4766 74.4842 72.7877 77.327 71.3307V73.4561ZM77.327 67.9994C77.1252 68.7565 73.1169 70.7482 65.2983 70.7482C57.4797 70.7482 53.4714 68.7565 53.2696 68.0199V65.8754C56.1137 67.3378 60.8116 68.0199 65.2983 68.0199C69.785 68.0199 74.4842 67.331 77.327 65.874V67.9994ZM77.327 62.5427C77.1252 63.2998 73.1169 65.2915 65.2983 65.2915C57.4797 65.2915 53.4714 63.2998 53.2696 62.5632V60.4187C56.1137 61.8811 60.8116 62.5632 65.2983 62.5632C69.785 62.5632 74.4842 61.8742 77.327 60.4173V62.5427ZM77.327 57.086C77.1252 57.8431 73.1169 59.8348 65.2983 59.8348C57.4797 59.8348 53.4714 57.8431 53.2696 57.1064V54.9619C56.1137 56.4243 60.8116 57.1064 65.2983 57.1064C69.785 57.1064 74.4842 56.4175 77.327 54.9606V57.086ZM77.327 51.6292C77.1252 52.3864 73.1169 54.3781 65.2983 54.3781C57.4797 54.3781 53.4714 52.3864 53.2696 51.6497V49.5052C56.1137 50.9608 60.8116 51.6497 65.2983 51.6497C69.785 51.6497 74.4842 50.9608 77.327 49.5038V51.6292ZM77.327 46.1725C77.1252 46.9296 73.1169 48.9213 65.2983 48.9213C57.4797 48.9213 53.4714 46.9296 53.2696 46.193V44.0485C56.1137 45.5041 60.8116 46.193 65.2983 46.193C69.785 46.193 74.4842 45.5041 77.327 44.0471V46.1725ZM65.2983 43.4646C57.4917 43.4646 53.4848 41.4784 53.2696 40.7608V40.7526C53.4848 39.9928 57.4917 38.0079 65.2983 38.0079C73.0501 38.0079 77.0597 39.9641 77.327 40.7362C77.0597 41.5084 73.0501 43.4646 65.2983 43.4646Z" fill="#F54E37"/>
<path d="M22.5297 53.2076H12.4269L7.63686 47.86V38.9928L12.9268 33.7202H22.5297C23.1622 33.7202 23.6751 33.1967 23.6751 32.5511C23.6751 31.9055 23.1622 31.382 22.5297 31.382H12.4617C12.1623 31.3813 11.8745 31.5004 11.6598 31.7135L5.68956 37.6573C5.46652 37.9233 5.34423 38.2621 5.34474 38.6122V48.3143C5.34474 48.606 5.45149 48.8872 5.64411 49.1028L11.0744 55.1652C11.2914 55.4077 11.5985 55.546 11.9204 55.5458H22.5297C23.1622 55.5458 23.6751 55.0223 23.6751 54.3767C23.6751 53.7311 23.1624 53.2076 22.5297 53.2076Z" fill="#F54E37"/>
<path d="M29.7311 48.1089H28.1967V46.299H29.7311V45.2897H28.1967V43.1319H29.7311V37.4588H33.9934C34.7209 37.4588 35.3574 37.5516 35.9029 37.7372C36.4599 37.9229 36.9259 38.1897 37.301 38.5377C37.6761 38.8742 37.9545 39.286 38.1364 39.7733C38.3296 40.2489 38.4262 40.7826 38.4262 41.3743C38.4262 41.9659 38.3296 42.5054 38.1364 42.9927C37.9545 43.4683 37.6761 43.8802 37.301 44.2282C36.9259 44.5646 36.4599 44.8257 35.9029 45.0113C35.3574 45.1969 34.7209 45.2897 33.9934 45.2897H32.2885V46.299H36.0393V48.1089H32.2885V49.6402H29.7311V48.1089ZM33.7377 43.1319C34.4879 43.1319 35.0278 42.9811 35.3574 42.6794C35.6984 42.3662 35.8688 41.9311 35.8688 41.3743C35.8688 40.8174 35.7097 40.3881 35.3915 40.0865C35.0732 39.7733 34.522 39.6167 33.7377 39.6167H32.2885V43.1319H33.7377Z" fill="#F54E37"/>
</svg>
