<svg width="80" height="80" viewBox="0 0 80 80" fill="none" xmlns="http://www.w3.org/2000/svg">
<path d="M70.3179 18.8405L71.1184 18.04C71.5821 17.5763 71.5821 16.8244 71.1184 16.3605C70.6547 15.897 69.9028 15.897 69.4389 16.3605L68.6384 17.161L67.8384 16.361C67.6158 16.1384 67.3137 16.0132 66.9988 16.0132H65.6927L59.6274 9.94791C59.4046 9.72526 59.1026 9.6001 58.7877 9.6001H14.9433C12.5852 9.6001 10.6667 11.5185 10.6667 13.8767V36.1302C10.6667 38.4883 12.5852 40.4068 14.9433 40.4068H25.2886L18.3318 47.3638C17.524 48.1715 17.0792 49.2454 17.0792 50.3878C17.0792 51.53 17.524 52.604 18.3318 53.4118L34.0673 69.1474C34.875 69.9551 35.949 70.3999 37.0913 70.3999C38.2337 70.3999 39.3077 69.9551 40.1154 69.1474L51.9008 57.3621C52.3646 56.8984 52.3646 56.1465 51.9008 55.6827C51.4371 55.2192 50.6852 55.2191 50.2214 55.6827L38.4359 67.4679C38.0768 67.8272 37.5992 68.0249 37.0913 68.0249C36.5835 68.0249 36.1059 67.8272 35.7468 67.4679L20.0111 51.7324C19.652 51.3733 19.4542 50.8957 19.4542 50.3878C19.4542 49.8798 19.652 49.4023 20.0111 49.0432L50.6659 18.3884H66.507L66.9592 18.8406L64.2133 21.5865C63.7482 21.3635 63.2277 21.2385 62.6784 21.2385C60.714 21.2385 59.1159 22.8366 59.1159 24.8009C59.1159 26.7653 60.714 28.3634 62.6784 28.3634C64.6427 28.3634 66.2408 26.7653 66.2408 24.8009C66.2408 24.2516 66.1156 23.731 65.8926 23.266L68.6386 20.5201L69.0908 20.9722V36.8132L57.7783 48.1258C57.3146 48.5895 57.3146 49.3414 57.7783 49.8052C58.242 50.2688 58.994 50.2688 59.4578 49.8052L71.118 38.145C71.3407 37.9222 71.4658 37.6203 71.4658 37.3053V20.4802C71.4658 20.1652 71.3407 19.8633 71.118 19.6405L70.3179 18.8405ZM31.9914 30.9077C31.3363 30.9077 30.8035 30.3748 30.8035 29.7198C30.8035 29.0647 31.3363 28.5319 31.9914 28.5319C32.6464 28.5319 33.1792 29.0647 33.1792 29.7198C33.1792 30.3747 32.6464 30.9077 31.9914 30.9077ZM50.1741 16.0133C49.8591 16.0133 49.557 16.1385 49.3344 16.3611L35.5247 30.1707C35.5435 30.0229 35.5543 29.8725 35.5543 29.7197C35.5543 27.7551 33.956 26.1568 31.9915 26.1568C30.027 26.1568 28.4287 27.7551 28.4287 29.7197C28.4287 31.6843 30.0269 33.2825 31.9915 33.2825C32.1443 33.2825 32.2946 33.2717 32.4425 33.2529L27.6637 38.0317H14.9433C13.8947 38.0317 13.0416 37.1786 13.0416 36.1301V13.8767C13.0416 12.8281 13.8947 11.9751 14.9433 11.9751H58.2957L62.334 16.0133H50.1741ZM62.6784 25.9882C62.0236 25.9882 61.4909 25.4555 61.4909 24.8007C61.4909 24.1459 62.0236 23.6132 62.6784 23.6132C62.9493 23.6132 63.1987 23.7055 63.3988 23.8589C63.4303 23.9 63.4638 23.9401 63.5013 23.9776C63.5388 24.0152 63.5789 24.0487 63.62 24.0801C63.7734 24.2802 63.8657 24.5296 63.8657 24.8006C63.8658 25.4555 63.3331 25.9882 62.6784 25.9882Z" fill="#F54E37"/>
<path d="M31.012 17.2664C30.4409 16.9441 29.7166 17.1455 29.3942 17.7167L21.7349 31.2841C21.4125 31.8553 21.614 32.5795 22.1852 32.9019C22.3698 33.0061 22.5701 33.0556 22.7679 33.0556C23.1823 33.0556 23.5848 32.8383 23.803 32.4516L31.4623 18.8842C31.7847 18.313 31.5832 17.5886 31.012 17.2664Z" fill="#F54E37"/>
<path d="M25.5305 20.287C25.5305 18.3224 23.9322 16.7241 21.9676 16.7241C20.003 16.7241 18.4047 18.3224 18.4047 20.287C18.4047 22.2516 20.0029 23.8499 21.9675 23.8499C23.9321 23.8499 25.5305 22.2516 25.5305 20.287ZM20.7797 20.287C20.7797 19.6319 21.3125 19.0991 21.9675 19.0991C22.6225 19.0991 23.1554 19.6319 23.1554 20.287C23.1554 20.9421 22.6225 21.4749 21.9675 21.4749C21.3125 21.4749 20.7797 20.9421 20.7797 20.287Z" fill="#F54E37"/>
<path d="M54.8391 51.5562C54.5256 51.5562 54.2204 51.6832 53.9995 51.9042C53.7787 52.125 53.6516 52.4313 53.6516 52.7436C53.6516 53.0561 53.7787 53.3625 53.9995 53.5832C54.2204 53.8041 54.5256 53.9311 54.8391 53.9311C55.1514 53.9311 55.4578 53.8042 55.6787 53.5832C55.8995 53.3625 56.0266 53.0561 56.0266 52.7436C56.0266 52.4313 55.8995 52.125 55.6787 51.9042C55.4578 51.6833 55.1514 51.5562 54.8391 51.5562Z" fill="#F54E37"/>
<path d="M38.6607 49.565H36.0632V47.586H38.6607V45.2771H36.0632V43.0232H38.6607V33.458H45.01C46.2029 33.458 47.2419 33.6046 48.127 33.8978C49.0313 34.191 49.7817 34.6033 50.3781 35.1347C50.9938 35.6478 51.4556 36.2708 51.7634 37.0037C52.0713 37.7184 52.2252 38.5063 52.2252 39.3676C52.2252 40.2288 52.0713 41.0259 51.7634 41.7589C51.4556 42.4735 50.9938 43.0965 50.3781 43.6279C49.7817 44.141 49.0313 44.5442 48.127 44.8373C47.2419 45.1305 46.2029 45.2771 45.01 45.2771H41.3736V47.586H48.1847V49.565H41.3736V52.6984H38.6607V49.565ZM44.8657 43.0232C46.5204 43.0232 47.7037 42.6934 48.4156 42.0337C49.1467 41.3741 49.5123 40.4853 49.5123 39.3676C49.5123 38.2498 49.1467 37.3611 48.4156 36.7014C47.7037 36.0417 46.5204 35.7119 44.8657 35.7119H41.3736V43.0232H44.8657Z" fill="#F54E37"/>
</svg>
