<svg width="80" height="80" viewBox="0 0 80 80" fill="none" xmlns="http://www.w3.org/2000/svg">
<path d="M30.2508 54.5441C30.1559 54.5171 30.0588 54.5018 29.961 54.4966C31.3987 52.9855 32.2841 50.9442 32.2841 48.6988V41.7936C32.2841 41.7304 32.2781 41.6689 32.2695 41.6082C32.2782 41.4836 32.2841 41.3581 32.2841 41.2313V36.8625C32.2841 36.1376 31.6965 35.55 30.9716 35.55H22.1683C18.4611 35.55 15.4452 38.566 15.4452 42.273V48.6988C15.4452 50.9442 16.3305 52.9855 17.7684 54.4966C17.6707 54.5018 17.5736 54.5171 17.4788 54.5441C11.2764 55.1057 6.40002 60.3335 6.40002 66.6797V72.2873C6.40002 73.0122 6.98763 73.5998 7.71252 73.5998H40.0167C40.7416 73.5998 41.3292 73.0122 41.3292 72.2873V66.6797C41.3292 60.3337 36.4531 55.1059 30.2508 54.5441ZM18.0702 42.2729C18.0702 40.0133 19.9087 38.1749 22.1683 38.1749H29.6591V41.2312C29.6591 42.7698 28.4074 44.0215 26.8687 44.0215H18.0702V42.2729ZM18.0702 46.6465H26.8687C27.8888 46.6465 28.8436 46.3628 29.6591 45.8703V48.6986C29.6591 51.8936 27.0597 54.493 23.8647 54.493C20.6697 54.493 18.0702 51.8936 18.0702 48.6986V46.6465ZM26.7213 57.1182L23.8647 59.975L21.008 57.1182H26.7213ZM38.7043 70.9748H9.02502V68.3498H14.4719C15.1968 68.3498 15.7844 67.7622 15.7844 67.0373C15.7844 66.3124 15.1968 65.7248 14.4719 65.7248H9.07293C9.5138 61.2995 12.985 57.7557 17.3751 57.1976L22.9366 62.759C23.1827 63.0051 23.5166 63.1435 23.8647 63.1435C24.2127 63.1435 24.5466 63.0051 24.7927 62.759L30.3542 57.1976C35.0561 57.7952 38.7043 61.8181 38.7043 66.6797V70.9748Z" fill="#F54E37"/>
<path d="M62.5219 25.3941C62.427 25.3671 62.3297 25.3519 62.2318 25.3466C63.6695 23.8355 64.5548 21.7942 64.5548 19.5488V12.6435C64.5548 12.5803 64.5487 12.5188 64.5402 12.4581C64.5489 12.3335 64.5548 12.208 64.5548 12.0812V7.7124C64.5548 6.98751 63.9672 6.3999 63.2423 6.3999H54.439C50.7318 6.3999 47.7159 9.4159 47.7159 13.1229V19.5487C47.7159 21.7941 48.6012 23.8354 50.0389 25.3465C49.9411 25.3517 49.8438 25.367 49.7489 25.394C43.5466 25.9559 38.6707 31.1837 38.6707 37.5296V43.137C38.6707 43.8619 39.2583 44.4495 39.9832 44.4495H50.5436C51.2685 44.4495 51.8561 43.8619 51.8561 43.137C51.8561 42.4121 51.2685 41.8245 50.5436 41.8245H41.2957V37.5298C41.2957 32.6681 44.9438 28.6452 49.6457 28.0476L55.2072 33.6091C55.4635 33.8654 55.7994 33.9935 56.1352 33.9935C56.4711 33.9935 56.8071 33.8654 57.0633 33.6091L62.6248 28.0476C67.3269 28.6453 70.975 32.6681 70.975 37.5298V41.8247H61.3062C60.5813 41.8247 59.9937 42.4123 59.9937 43.1372C59.9937 43.8621 60.5813 44.4497 61.3062 44.4497H72.2875C73.0124 44.4497 73.6 43.8621 73.6 43.1372V37.5298C73.6 31.1838 68.7239 25.956 62.5219 25.3941ZM56.1355 30.8249L53.2788 27.9682H58.9921L56.1355 30.8249ZM61.9299 19.5487C61.9299 22.7437 59.3305 25.3431 56.1355 25.3431C52.9405 25.3431 50.3411 22.7438 50.3411 19.5488V17.4966H59.1395C60.1596 17.4966 61.1145 17.2127 61.9299 16.7204V19.5487ZM61.9299 12.0812C61.9299 13.6198 60.6782 14.8716 59.1395 14.8716H50.3411V13.1229C50.3411 10.8633 52.1795 9.0249 54.4391 9.0249H61.9299V12.0812Z" fill="#F54E37"/>
<path d="M57.0638 42.2089C56.8197 41.9648 56.4811 41.8243 56.1359 41.8243C55.7894 41.8243 55.4521 41.9648 55.208 42.2089C54.9625 42.453 54.8234 42.7917 54.8234 43.1368C54.8234 43.4833 54.9625 43.8207 55.208 44.0648C55.4521 44.3102 55.7894 44.4493 56.1359 44.4493C56.4811 44.4493 56.8197 44.3102 57.0638 44.0648C57.308 43.8207 57.4484 43.4833 57.4484 43.1368C57.4484 42.7917 57.308 42.453 57.0638 42.2089Z" fill="#F54E37"/>
<path d="M41.4969 24.7656L36.0079 19.2766V12.9624C36.0079 9.34384 33.064 6.3999 29.4454 6.3999H12.9625C9.34396 6.3999 6.40002 9.34384 6.40002 12.9624V24.5124C6.40002 28.131 9.34396 31.0749 12.9625 31.0749H29.4453C32.1588 31.0749 34.5249 29.4465 35.5177 27.0062H40.5687C41.0995 27.0062 41.5782 26.6863 41.7813 26.1959C41.9845 25.7056 41.8722 25.141 41.4969 24.7656ZM34.5602 24.3812C33.9487 24.3812 33.4182 24.8034 33.2811 25.3994C32.8679 27.1954 31.2907 28.4499 29.4453 28.4499H12.9625C10.7914 28.4499 9.02502 26.6835 9.02502 24.5124V12.9624C9.02502 10.7913 10.7914 9.0249 12.9625 9.0249H29.4453C31.6164 9.0249 33.3828 10.7913 33.3828 12.9624V19.8202C33.3828 20.1683 33.5211 20.5022 33.7672 20.7483L37.4001 24.3812H34.5602Z" fill="#F54E37"/>
<path d="M67.0375 48.9249H50.5548C47.8413 48.9249 45.4751 50.5533 44.4823 52.9937H39.4313C38.9005 52.9937 38.4219 53.3135 38.2187 53.8039C38.0155 54.2942 38.1279 54.8588 38.5031 55.2342L43.9921 60.7232V67.0374C43.9921 70.656 46.9361 73.5999 50.5546 73.5999H67.0375C70.6561 73.5999 73.6 70.656 73.6 67.0374V55.4874C73.6 51.8688 70.6561 48.9249 67.0375 48.9249ZM70.975 67.0374C70.975 69.2085 69.2087 70.9749 67.0375 70.9749H50.5548C48.3836 70.9749 46.6173 69.2085 46.6173 67.0374V60.1796C46.6173 59.8315 46.4789 59.4976 46.2328 59.2515L42.6 55.6187H45.4398C46.0513 55.6187 46.5818 55.1964 46.719 54.6004C47.1321 52.8044 48.7094 51.5499 50.5548 51.5499H67.0375C69.2087 51.5499 70.975 53.3163 70.975 55.4874V67.0374Z" fill="#F54E37"/>
<path d="M64.6955 57.77C64.1831 57.2575 63.352 57.2575 62.8395 57.77L59.3505 61.2591L57.7281 59.6367C57.2156 59.1241 56.3845 59.1241 55.8718 59.6367C55.3593 60.1492 55.3593 60.9803 55.8718 61.4929L58.4223 64.0434C58.6786 64.2997 59.0145 64.4278 59.3503 64.4278C59.6862 64.4278 60.0222 64.2997 60.2784 64.0434L64.6955 59.6263C65.208 59.1138 65.208 58.2827 64.6955 57.77Z" fill="#F54E37"/>
<path d="M27.1707 15.0975C27.0156 12.847 25.2014 11.0328 22.9509 10.8777C21.6748 10.7899 20.4583 11.2204 19.5265 12.0903C18.6076 12.948 18.0805 14.1608 18.0805 15.4174C18.0806 16.1424 18.6682 16.73 19.3931 16.73C20.118 16.73 20.7056 16.1424 20.7056 15.4175C20.7056 14.8779 20.923 14.3779 21.3178 14.0093C21.7119 13.6413 22.2284 13.4586 22.7706 13.4967C23.7207 13.5621 24.4865 14.328 24.552 15.2781C24.6183 16.2387 23.9886 17.0877 23.0547 17.2966C22.0325 17.5252 21.3187 18.4139 21.3187 19.4576V20.1579C21.3187 20.8827 21.9063 21.4704 22.6312 21.4704C23.3561 21.4704 23.9437 20.8827 23.9437 20.1579V19.7759C25.9773 19.1693 27.3193 17.2521 27.1707 15.0975Z" fill="#F54E37"/>
<path d="M23.5597 24.2526C23.3155 24.0085 22.9769 23.8681 22.6317 23.8681C22.2852 23.8681 21.9479 24.0085 21.7038 24.2526C21.4583 24.4967 21.3192 24.8354 21.3192 25.1806C21.3192 25.5257 21.4583 25.8644 21.7038 26.1085C21.9479 26.3526 22.2852 26.4931 22.6317 26.4931C22.9769 26.4931 23.3155 26.3526 23.5597 26.1085C23.8038 25.8644 23.9442 25.5257 23.9442 25.1806C23.9442 24.8354 23.8038 24.4967 23.5597 24.2526Z" fill="#F54E37"/>
<path d="M20.6498 66.1095C20.4057 65.8653 20.0671 65.7249 19.7219 65.7249C19.3767 65.7249 19.0381 65.8653 18.794 66.1095C18.5498 66.3536 18.4094 66.6922 18.4094 67.0374C18.4094 67.3826 18.5498 67.7212 18.794 67.9653C19.0381 68.2095 19.3767 68.3499 19.7219 68.3499C20.0671 68.3499 20.4057 68.2095 20.6498 67.9653C20.894 67.7212 21.0344 67.3826 21.0344 67.0374C21.0344 66.6922 20.894 66.3536 20.6498 66.1095Z" fill="#F54E37"/>
</svg>
