<svg width="80" height="80" viewBox="0 0 80 80" fill="none" xmlns="http://www.w3.org/2000/svg">
<path d="M63.7629 61.8978C63.2503 61.3853 62.4153 61.3893 61.9026 61.9019C61.3901 62.4144 61.3901 63.2455 61.9026 63.7582C62.1589 64.0144 62.4948 64.1426 62.8307 64.1426C63.1665 64.1426 63.5024 64.0144 63.7587 63.7582L63.767 63.7499C64.2795 63.2374 64.2755 62.4103 63.7629 61.8978Z" fill="#F54E37"/>
<path d="M73.5332 37.8762C73.0193 29.7139 69.548 22.0304 63.7587 16.241C57.4125 9.89497 48.9749 6.3999 40 6.3999C31.4453 6.3999 23.3788 9.57511 17.1462 15.3685L15.7193 14.0619C15.3354 13.7103 14.7805 13.6188 14.3042 13.8287C13.8279 14.0384 13.5205 14.5096 13.5205 15.0299V24.8407C13.5205 25.5655 14.1082 26.1532 14.833 26.1532H24.6438C25.1674 26.1532 25.6411 25.8419 25.8488 25.361C26.0564 24.8802 25.9582 24.3219 25.5991 23.9407L23.2886 21.4882C33.0657 12.652 48.2128 12.9439 57.6343 22.3657C67.358 32.0893 67.358 47.9108 57.6343 57.6344C52.924 62.3445 46.6613 64.9387 40 64.9387C33.3387 64.9387 27.076 62.3445 22.3658 57.6344C17.6554 52.9239 15.0612 46.6614 15.0612 40C15.0612 39.2752 14.4735 38.6875 13.7487 38.6875H7.71252C6.98776 38.6875 6.40002 39.2752 6.40002 40C6.40002 48.9749 9.89508 57.4125 16.2411 63.7589C21.9916 69.5094 29.6221 72.9771 37.7268 73.5235C38.4851 73.5747 39.2418 73.5999 39.9976 73.5999C47.2408 73.5999 54.3077 71.2673 60.1092 66.9232C60.6895 66.4886 60.8074 65.6661 60.3731 65.0858C59.9384 64.5057 59.116 64.3876 58.5358 64.8219C46.3049 73.9804 28.9199 72.7254 18.0973 61.9026C12.5571 56.3625 9.37402 49.0938 9.05206 41.3125H12.4667C12.7865 48.1824 15.6138 54.5949 20.5095 59.4905C31.2567 70.2377 48.7433 70.2377 59.4905 59.4905C70.2375 48.7433 70.2375 31.2566 59.4905 20.5094C48.7433 9.76227 31.2567 9.76227 20.5095 20.5094C20.0078 21.0112 19.9957 21.821 20.4824 22.3376L21.604 23.5282H16.1455V18.0114L16.283 18.1372C16.8009 18.6116 17.6005 18.5941 18.0974 18.0973C23.9477 12.2468 31.7263 9.02491 40 9.02491C48.2737 9.02491 56.0523 12.2468 61.9026 18.0973C72.8278 29.0226 74.0078 46.5067 64.6473 58.7669C64.2073 59.3431 64.3179 60.1667 64.894 60.6067C65.47 61.0467 66.2938 60.9361 66.7338 60.3599C71.6278 53.9499 74.0426 45.965 73.5332 37.8762Z" fill="#F54E37"/>
<path d="M30.2077 44.3303H26.2356C26.4086 44.1718 26.5837 44.0077 26.7589 43.8391C29.2423 41.4481 30.4495 39.4217 30.4495 37.6438C30.4495 34.8917 28.6004 33.0428 25.8484 33.0428C23.3115 33.0428 21.2474 35.1069 21.2474 37.6438C21.2474 38.3686 21.8352 38.9563 22.5599 38.9563C23.2847 38.9563 23.8724 38.3686 23.8724 37.6438C23.8724 36.5543 24.7589 35.6678 25.8484 35.6678C27.8245 35.6678 27.8245 37.155 27.8245 37.6438C27.8245 39.4708 24.3019 42.7954 21.8008 44.5724C21.3347 44.903 21.1361 45.497 21.3095 46.0413C21.483 46.5856 21.9887 46.9553 22.5601 46.9553H30.2077C30.9325 46.9553 31.5202 46.3676 31.5202 45.6428C31.5202 44.9181 30.9325 44.3303 30.2077 44.3303Z" fill="#F54E37"/>
<path d="M39.8296 40.196H38.9337V39.8242C38.9337 39.0994 38.346 38.5117 37.6212 38.5117C36.8964 38.5117 36.3087 39.0994 36.3087 39.8242V40.196H34.4977L37.4508 35.0043C37.8092 34.3742 37.5891 33.5729 36.9589 33.2144C36.3293 32.8563 35.5275 33.0762 35.1691 33.7064L31.1003 40.8595C30.8692 41.2659 30.8717 41.7644 31.1066 42.1683C31.3417 42.5725 31.7738 42.8211 32.2413 42.8211H36.3087V45.6429C36.3087 46.3677 36.8964 46.9554 37.6212 46.9554C38.346 46.9554 38.9337 46.3677 38.9337 45.6429V42.8211H39.8296C40.5544 42.8211 41.1421 42.2333 41.1421 41.5085C41.1421 40.7838 40.5544 40.196 39.8296 40.196Z" fill="#F54E37"/>
<path d="M48.0788 33.1305C47.402 32.8703 46.6428 33.2075 46.3825 33.8841L42.04 45.1716C41.7797 45.8481 42.1172 46.6075 42.7936 46.8679C42.9488 46.9275 43.108 46.9559 43.2647 46.9559C43.7919 46.9559 44.2894 46.6359 44.4899 46.1143L48.8325 34.8268C49.0927 34.1503 48.7553 33.3909 48.0788 33.1305Z" fill="#F54E37"/>
<path d="M58.5178 33.6065C58.2725 33.2534 57.8699 33.0429 57.44 33.0429H51.9275C51.2027 33.0429 50.615 33.6306 50.615 34.3554C50.615 35.0802 51.2027 35.6679 51.9275 35.6679H55.5512L52.0099 45.1852C51.7571 45.8645 52.103 46.6202 52.7823 46.873C52.9331 46.9292 53.0878 46.9558 53.2399 46.9558C53.7725 46.9558 54.2735 46.6291 54.4701 46.1006L58.6701 34.8131C58.8201 34.4102 58.7631 33.9594 58.5178 33.6065Z" fill="#F54E37"/>
</svg>
