<svg width="80" height="80" viewBox="0 0 80 80" fill="none" xmlns="http://www.w3.org/2000/svg">
<path d="M19.5931 31.1832C19.5931 42.9005 29.2262 52.4331 41.067 52.4331C52.9079 52.4331 62.5409 42.9005 62.5409 31.1832C62.5409 19.4659 52.9079 9.93327 41.067 9.93327C29.2262 9.93327 19.5931 19.4659 19.5931 31.1832ZM41.067 12.7666C51.3292 12.7666 59.6778 21.0281 59.6778 31.1832C59.6778 41.3383 51.3292 49.5998 41.067 49.5998C30.8049 49.5998 22.4563 41.3383 22.4563 31.1832C22.4563 21.0281 30.8049 12.7666 41.067 12.7666Z" fill="#F54E37"/>
<path d="M27.809 28.6574L33.3581 34.0678L32.0814 41.6719C31.9925 42.2015 32.2134 42.7349 32.6524 43.0504C33.0908 43.3658 33.6718 43.4084 34.1533 43.1616L41.0669 39.6089L47.98 43.1616C48.4575 43.4068 49.0386 43.3686 49.4809 43.0504C49.9199 42.7349 50.1408 42.2015 50.0519 41.6719L48.7752 34.0678L54.3243 28.6574C54.7107 28.2811 54.8488 27.7211 54.6811 27.2103C54.5133 26.7001 54.0687 26.3277 53.5324 26.2474L45.8315 25.1003L42.347 18.2045C42.1048 17.7248 41.6088 17.4215 41.0669 17.4215C40.5245 17.4215 40.029 17.7248 39.7863 18.2045L36.3018 25.1003L28.6009 26.2474C28.0646 26.3271 27.62 26.7001 27.4522 27.2103C27.2845 27.7211 27.4232 28.2811 27.809 28.6574ZM37.4633 27.7925C37.9241 27.7239 38.3223 27.4378 38.5309 27.0255L41.0669 22.0057L43.603 27.0255C43.8116 27.4378 44.2097 27.7239 44.6705 27.7925L50.2756 28.6275L46.2363 32.5649C45.9047 32.8886 45.7526 33.3518 45.8287 33.8067L46.7581 39.341L41.7262 36.7556C41.5199 36.6494 41.2934 36.5963 41.0669 36.5963C40.8404 36.5963 40.614 36.6494 40.4071 36.7556L35.3752 39.341L36.3046 33.8067C36.3813 33.3518 36.2291 32.8886 35.897 32.5649L31.8583 28.6275L37.4633 27.7925Z" fill="#F54E37"/>
<path d="M42.4986 5.68326C42.4986 6.46575 41.8577 7.09993 41.067 7.09993C40.2763 7.09993 39.6354 6.46575 39.6354 5.68326C39.6354 4.90078 40.2763 4.2666 41.067 4.2666C41.8577 4.2666 42.4986 4.90078 42.4986 5.68326Z" fill="#F54E37"/>
<path d="M34.32 5.10184C22.2773 8.14379 13.8667 18.8689 13.8667 31.1834C13.8667 38.8317 17.1163 46.0384 22.8209 51.1422L14.1961 66.1838C13.9187 66.668 13.9534 67.2678 14.2844 67.7172C14.6155 68.1671 15.1814 68.3834 15.7322 68.27L25.5269 66.2573L28.9695 75.8569C29.1562 76.3793 29.6344 76.7451 30.1925 76.7943C30.7506 76.8436 31.2857 76.5652 31.5625 76.0832L41.067 59.5481L50.5709 76.0832C50.827 76.5287 51.3034 76.7993 51.8146 76.7993C51.8565 76.7993 51.899 76.7976 51.9409 76.7943C52.499 76.7451 52.9772 76.3787 53.1645 75.8569L56.6065 66.2573L66.4012 68.27C66.9514 68.3829 67.5179 68.1665 67.849 67.7172C68.1806 67.2678 68.2147 66.668 67.9373 66.1838L59.3125 51.1422C65.0171 46.0384 68.2667 38.8317 68.2667 31.1834C68.2667 18.8689 59.8561 8.14379 47.8139 5.10184C47.0472 4.90816 46.2683 5.36581 46.0725 6.12394C45.8768 6.88208 46.3393 7.65349 47.1054 7.84718C57.8793 10.5687 65.4041 20.1649 65.4041 31.1834C65.4041 44.5935 54.3981 55.2666 41.067 55.2666C27.7263 55.2666 16.7299 44.5846 16.7299 31.1834C16.7299 20.1649 24.2541 10.5687 35.028 7.84718C35.7941 7.65349 36.2566 6.88208 36.0614 6.12394C35.8657 5.36581 35.0867 4.90816 34.32 5.10184ZM30.6214 71.991L27.808 64.1456C27.5686 63.4783 26.8685 63.0881 26.1678 63.232L18.2476 64.8595L25.0734 52.9551C29.0533 55.8183 33.7659 57.5626 38.6663 57.9942L30.6214 71.991ZM55.9656 63.232C55.2655 63.0881 54.5648 63.4783 54.3254 64.1456L51.5126 71.991L43.4671 57.9942C48.3681 57.5626 53.0801 55.8183 57.0606 52.9551L63.8864 64.8595L55.9656 63.232Z" fill="#F54E37"/>
</svg>
