<svg width="80" height="80" viewBox="0 0 80 80" fill="none" xmlns="http://www.w3.org/2000/svg">
<path d="M57.599 27.1139C57.599 26.4667 57.0802 25.942 56.44 25.942H41.9293C41.2893 25.942 40.7704 26.4667 40.7704 27.1139C40.7704 27.761 41.2893 28.2857 41.9293 28.2857H56.44C57.0801 28.2857 57.599 27.761 57.599 27.1139Z" fill="#F54E37"/>
<path d="M23.6808 47.4748C23.6808 49.187 25.0584 50.5798 26.7515 50.5798H33.6312C35.3244 50.5798 36.7019 49.1868 36.7019 47.4748V40.5506L37.7791 39.4613C38.2317 39.0037 38.2317 38.2617 37.7791 37.8042C37.3265 37.3463 36.5927 37.3465 36.1403 37.8042L35.7099 38.2393C35.1624 37.7284 34.4335 37.4132 33.6314 37.4132H26.7517C25.0584 37.4132 23.681 38.8062 23.681 40.5182L23.6808 47.4748ZM25.9987 40.5182C25.9987 40.0985 26.3365 39.757 26.7515 39.757H33.6312C33.7941 39.757 33.944 39.8109 34.0673 39.9001L30.5038 43.5034L29.6824 42.6728C29.2298 42.2151 28.4959 42.2151 28.0435 42.6728C27.5909 43.1304 27.5909 43.8724 28.0435 44.3299L29.6845 45.9893C29.9108 46.2182 30.2075 46.3326 30.504 46.3326C30.8005 46.3326 31.0972 46.2182 31.3234 45.9893L34.3842 42.8943V47.4748C34.3842 47.8946 34.0464 48.236 33.6314 48.236H26.7517C26.3365 48.236 25.9988 47.8945 25.9988 47.4748L25.9987 40.5182Z" fill="#F54E37"/>
<path d="M41.9293 42.8249C41.2893 42.8249 40.7704 43.3496 40.7704 43.9968C40.7704 44.644 41.2893 45.1687 41.9293 45.1687H47.2312C47.8714 45.1687 48.3901 44.644 48.3901 43.9968C48.3901 43.3496 47.8714 42.8249 47.2312 42.8249H41.9293Z" fill="#F54E37"/>
<path d="M23.6808 64.3572C23.6808 66.0694 25.0584 67.4622 26.7515 67.4622H33.6312C35.3244 67.4622 36.7019 66.0693 36.7019 64.3572V57.4008C36.7019 55.6886 35.3244 54.2958 33.6312 54.2958H26.7515C25.0582 54.2958 23.6808 55.6888 23.6808 57.4008V64.3572ZM25.9987 57.4007C25.9987 56.9808 26.3365 56.6394 26.7515 56.6394H33.6312C34.0463 56.6394 34.3841 56.981 34.3841 57.4007V64.3571C34.3841 64.7769 34.0463 65.1183 33.6312 65.1183H26.7515C26.3363 65.1183 25.9987 64.7768 25.9987 64.3571V57.4007Z" fill="#F54E37"/>
<path d="M79.9997 27.4136C79.9953 26.2808 79.5587 24.8839 78.5415 23.8578C76.694 21.8766 73.0941 21.8959 71.2068 24.1661V9.92031C71.2068 7.25984 69.0662 5.09531 66.4351 5.09531H55.4077V2.79266C55.4078 1.25281 54.1689 0 52.646 0H31.3614C29.8386 0 28.5995 1.25281 28.5995 2.79266V5.09531H17.5717C14.9406 5.09531 12.8 7.25984 12.8 9.92031V75.175C12.8 77.8355 14.9406 80 17.5717 80H66.4353C69.0664 80 71.207 77.8355 71.207 75.175V43.9964C71.207 43.3492 70.6883 42.8245 70.0481 42.8245C69.4079 42.8245 68.8891 43.3492 68.8891 43.9964V75.175C68.8891 76.5431 67.7883 77.6562 66.4353 77.6562H17.5717C16.2187 77.6562 15.1178 76.5431 15.1178 75.175V9.92031C15.1178 8.55219 16.2187 7.43906 17.5717 7.43906H24.3925V9.88234C24.3242 12.7363 27.1465 15.3409 30.139 14.7505L40.8311 12.8269C41.6017 12.6883 42.3832 12.6883 43.1533 12.8266L53.8694 14.7517C56.5521 15.3559 59.724 12.9164 59.6149 9.88344V7.43906H64.2721V31.1792L44.9036 50.765C43.7882 51.823 42.8756 53.0991 42.3689 54.8595L40.8124 60.568C40.7692 61.0666 40.8041 62.2209 42.2378 62.0092L47.8817 60.4356C49.2938 60.0723 50.8681 59.058 51.9323 57.8755L64.2718 45.3973V72.6906C64.2718 72.8534 64.1408 72.9859 63.9796 72.9859H20.0286C19.8676 72.9859 19.7366 72.8534 19.7366 72.6906V11.7944C19.7366 11.1472 19.2177 10.6225 18.5776 10.6225C17.9376 10.6225 17.4187 11.1472 17.4187 11.7944V72.6906C17.4187 74.1458 18.5895 75.3297 20.0286 75.3297H63.9799C65.419 75.3297 66.59 74.1458 66.59 72.6906V43.0534L78.5429 30.967C79.3425 30.2041 80.0147 28.7316 79.9997 27.4136ZM30.9173 2.79266C30.9173 2.54516 31.1165 2.34375 31.3614 2.34375H52.646C52.8908 2.34375 53.09 2.54516 53.09 2.79266V5.09531H30.9173V2.79266ZM57.2969 9.88328C57.3202 11.2859 55.9318 12.7533 54.2747 12.4439L43.5586 10.5188C43.0393 10.4255 42.5161 10.3788 41.9928 10.3788C41.469 10.3788 40.9452 10.4255 40.4249 10.5191L29.733 12.4428C28.3709 12.7119 26.6993 11.5859 26.7104 9.88234V7.43938H57.2969V9.88328ZM76.9035 29.3092L73.4796 32.7716L69.7273 28.9773L73.1514 25.5148C74.0589 24.5945 75.7826 24.3886 76.902 25.5148C77.7435 26.3681 78.079 28.1331 76.9035 29.3092ZM51.1128 55.3895L47.3605 51.5953L68.0884 30.6348L71.8407 34.4291L51.1128 55.3895ZM66.5898 7.44703C67.8708 7.52828 68.8891 8.605 68.8891 9.92047V26.5098L66.5898 28.8355V7.44703ZM44.6034 55.4827C44.6829 55.2911 44.8464 54.3769 45.7421 53.2733L49.4519 57.0245C48.5822 58.0269 44.9283 58.7966 43.5895 59.2011L44.6034 55.4827Z" fill="#F54E37"/>
<path d="M37.779 20.828C37.3264 20.3702 36.5925 20.3704 36.1401 20.828L35.6614 21.3121C35.1195 20.8274 34.4099 20.5304 33.6312 20.5304H26.7515C25.0582 20.5304 23.6808 21.9233 23.6808 23.6354V30.5919C23.6808 32.304 25.0584 33.6969 26.7515 33.6969H33.6312C35.3244 33.6969 36.7019 32.304 36.7019 30.5919V23.6354C36.7019 23.6158 36.6995 23.5968 36.699 23.5774L37.7791 22.4852C38.2317 22.0277 38.2317 21.2857 37.779 20.828ZM34.3841 30.5919C34.3841 31.0116 34.0463 31.3532 33.6312 31.3532H26.7515C26.3363 31.3532 25.9987 31.0116 25.9987 30.5919V23.6354C25.9987 23.2155 26.3365 22.8741 26.7515 22.8741H33.6312C33.77 22.8741 33.8986 22.9149 34.0103 22.9815L30.5037 26.5272L29.6822 25.6966C29.2296 25.239 28.4958 25.239 28.0433 25.6966C27.5907 26.1543 27.5907 26.8963 28.0433 27.3538L29.6844 29.0132C29.9106 29.2421 30.2073 29.3565 30.5038 29.3565C30.8004 29.3565 31.097 29.2421 31.3233 29.0132L34.3841 25.9182V30.5919Z" fill="#F54E37"/>
</svg>
