<svg width="80" height="80" viewBox="0 0 80 80" fill="none" xmlns="http://www.w3.org/2000/svg">
<path d="M68.9331 17.5301L68.8453 17.5138C58.8243 15.6504 49.3461 11.8444 40.6741 6.20187C40.2596 5.93226 39.7373 5.93267 39.3233 6.20337C30.7118 11.834 21.293 15.6284 11.3286 17.4814L11.0665 17.5301C10.4498 17.6448 10 18.2128 10 18.8768V36.7728C10 45.8878 12.9664 54.8194 18.3529 61.9223C23.7393 69.0252 31.3288 74.0135 39.7234 75.9683C39.8146 75.9893 39.9072 76 40 76C40.0929 76 40.1859 75.9893 40.2772 75.9681C48.6725 74.0088 56.2623 69.0165 61.648 61.911C67.0338 54.8054 70 45.8714 70 36.7546V18.8768C70 18.2125 69.55 17.6446 68.9331 17.5301ZM67.4219 36.7546C67.4219 54.0833 55.9071 69.3753 39.9997 73.2317C24.0928 69.3835 12.5783 54.0994 12.5783 36.7728V20.0207C22.309 18.1067 31.528 14.3909 40.0018 8.96742C48.4833 14.3708 57.6991 18.0849 67.4219 20.0187V36.7546Z" fill="#F54E37"/>
<path d="M39.9707 15.9337C40.1868 15.9337 40.4057 15.876 40.6069 15.7548L40.6201 15.747L40.6315 15.7401C41.2519 15.3706 41.4677 14.5406 41.1197 13.8824C40.7715 13.2241 39.9814 12.9926 39.3607 13.361L39.3324 13.3779C38.7134 13.7512 38.4971 14.5858 38.8491 15.2422C39.0867 15.6852 39.5222 15.9337 39.9707 15.9337Z" fill="#F54E37"/>
<path d="M34.295 16.1473C28.7322 18.9611 22.8578 21.1354 16.835 22.6092C16.25 22.7523 15.8356 23.3047 15.8356 23.9414V36.7541C15.8356 38.2352 15.9299 39.7306 16.1154 41.1987C16.202 41.8855 16.7554 42.3844 17.3914 42.3844C17.4483 42.3844 17.5061 42.3804 17.5642 42.372C18.2699 42.2717 18.7652 41.5837 18.6706 40.8353C18.5001 39.4873 18.4138 38.1141 18.4138 36.7541V25.0224C24.2696 23.5122 29.9811 21.3589 35.4048 18.6154C36.0475 18.2904 36.3199 17.4743 36.0135 16.7928C35.7068 16.1112 34.9372 15.8225 34.295 16.1473Z" fill="#F54E37"/>
<path d="M62.8752 22.5744C62.1634 22.5744 61.5861 23.1865 61.5861 23.9416V36.7543C61.5861 48.9094 54.8144 60.0619 44.3343 65.1665C43.6874 65.4817 43.4037 66.2934 43.7008 66.9796C43.918 67.4809 44.3851 67.7765 44.8732 67.7765C45.0532 67.7765 45.2362 67.7363 45.4103 67.6514C50.9363 64.9598 55.627 60.651 58.9756 55.1907C62.3701 49.6555 64.1644 43.2803 64.1644 36.7543V23.9416C64.1644 23.1866 63.5871 22.5744 62.8752 22.5744Z" fill="#F54E37"/>
<path d="M39.7185 66.9306L39.6694 66.9444C38.9812 67.1382 38.5714 67.8867 38.7541 68.6165C38.9072 69.229 39.4287 69.6334 39.9991 69.6334C40.1086 69.6334 40.2199 69.6187 40.3307 69.5873L40.3798 69.5735C41.0679 69.3798 41.4777 68.6313 41.2951 67.9015C41.1124 67.1713 40.4062 66.7369 39.7185 66.9306Z" fill="#F54E37"/>
<path d="M30.2217 51.081L40 41.9859C40.745 41.3122 41.3503 40.7008 41.816 40.1519C42.3049 39.6029 42.689 39.0914 42.9684 38.6173C43.2478 38.1183 43.434 37.6317 43.5272 37.1576C43.6436 36.6835 43.7018 36.172 43.7018 35.6231C43.7018 34.1509 43.2944 32.9407 42.4795 31.9925C41.6646 31.0194 40.5471 30.5328 39.1269 30.5328C37.4274 30.5328 36.1236 31.0319 35.2156 32.0299C34.3076 33.0031 33.8536 34.3879 33.8536 36.1845H30.5709C30.5709 34.9119 30.7688 33.7392 31.1646 32.6662C31.5837 31.5683 32.1657 30.6326 32.9107 29.8591C33.679 29.0856 34.587 28.4867 35.6347 28.0625C36.6824 27.6134 37.8464 27.3888 39.1269 27.3888C40.3609 27.3888 41.4667 27.6009 42.4446 28.0251C43.4224 28.4244 44.2489 28.9983 44.9241 29.7468C45.5992 30.4704 46.1114 31.3313 46.4607 32.3294C46.8099 33.3275 46.9845 34.4254 46.9845 35.6231C46.9845 36.5213 46.8564 37.3572 46.6003 38.1308C46.3442 38.9043 45.9834 39.6404 45.5178 40.339C45.0754 41.0377 44.5283 41.7239 43.8764 42.3976C43.2478 43.0463 42.5493 43.7201 41.781 44.4187L34.4823 50.8938H47.3337V53.9629H30.2217V51.081Z" fill="#F54E37"/>
</svg>
