<svg width="320" height="157" viewBox="0 0 320 157" fill="none" xmlns="http://www.w3.org/2000/svg">
<path d="M311.474 152.979C311.474 150.864 313.184 149.149 315.294 149.149C317.403 149.149 319.114 150.864 319.114 152.979C319.114 155.094 317.403 156.809 315.294 156.809C313.184 156.809 311.474 155.094 311.474 152.979Z" fill="#C4C4C4" fill-opacity="0.05"/>
<path d="M311.474 137.66C311.474 135.545 313.184 133.83 315.294 133.83C317.403 133.83 319.114 135.545 319.114 137.66C319.114 139.775 317.403 141.489 315.294 141.489C313.184 141.489 311.474 139.775 311.474 137.66Z" fill="#C4C4C4" fill-opacity="0.05"/>
<path d="M311.474 122.341C311.474 120.225 313.184 118.511 315.294 118.511C317.403 118.511 319.114 120.225 319.114 122.34C319.114 124.456 317.403 126.17 315.294 126.17C313.184 126.17 311.474 124.456 311.474 122.341Z" fill="#C4C4C4" fill-opacity="0.05"/>
<path d="M311.474 107.021C311.474 104.906 313.184 103.192 315.294 103.192C317.403 103.192 319.114 104.906 319.114 107.021C319.114 109.136 317.403 110.851 315.294 110.851C313.184 110.851 311.474 109.136 311.474 107.021Z" fill="#C4C4C4" fill-opacity="0.05"/>
<path d="M311.474 91.7022C311.474 89.5871 313.184 87.8724 315.294 87.8724C317.403 87.8724 319.114 89.5871 319.114 91.7022C319.114 93.8173 317.403 95.532 315.294 95.532C313.184 95.532 311.474 93.8173 311.474 91.7022Z" fill="#C4C4C4" fill-opacity="0.05"/>
<path d="M311.474 76.3831C311.474 74.2679 313.184 72.5533 315.294 72.5533C317.403 72.5533 319.114 74.2679 319.114 76.3831C319.114 78.4982 317.403 80.2128 315.294 80.2128C313.184 80.2128 311.474 78.4982 311.474 76.3831Z" fill="#C4C4C4" fill-opacity="0.05"/>
<path d="M311.474 61.0639C311.474 58.9488 313.184 57.2341 315.294 57.2341C317.403 57.2341 319.114 58.9488 319.114 61.0639C319.114 63.179 317.403 64.8937 315.294 64.8937C313.184 64.8937 311.474 63.179 311.474 61.0639Z" fill="#C4C4C4" fill-opacity="0.05"/>
<path d="M311.474 45.7448C311.474 43.6296 313.184 41.915 315.294 41.915C317.403 41.915 319.114 43.6296 319.114 45.7448C319.114 47.8599 317.403 49.5745 315.294 49.5745C313.184 49.5745 311.474 47.8599 311.474 45.7448Z" fill="#C4C4C4" fill-opacity="0.05"/>
<path d="M311.474 30.4256C311.474 28.3105 313.184 26.5958 315.294 26.5958C317.403 26.5958 319.114 28.3105 319.114 30.4256C319.114 32.5407 317.403 34.2554 315.294 34.2554C313.184 34.2554 311.474 32.5407 311.474 30.4256Z" fill="#C4C4C4" fill-opacity="0.05"/>
<path d="M311.474 15.1065C311.474 12.9913 313.184 11.2767 315.294 11.2767C317.403 11.2767 319.114 12.9913 319.114 15.1065C319.114 17.2216 317.403 18.9362 315.294 18.9362C313.184 18.9362 311.474 17.2216 311.474 15.1065Z" fill="#C4C4C4" fill-opacity="0.05"/>
<path d="M311.474 -0.212692C311.474 -2.32782 313.184 -4.04246 315.294 -4.04246C317.403 -4.04247 319.114 -2.32782 319.114 -0.212692C319.114 1.90244 317.403 3.61711 315.294 3.61711C313.184 3.61711 311.474 1.90244 311.474 -0.212692Z" fill="#C4C4C4" fill-opacity="0.05"/>
<path d="M311.474 -15.5318C311.474 -17.647 313.184 -19.3616 315.294 -19.3616C317.403 -19.3616 319.114 -17.647 319.114 -15.5318C319.114 -13.4167 317.403 -11.702 315.294 -11.702C313.184 -11.702 311.474 -13.4167 311.474 -15.5318Z" fill="#C4C4C4" fill-opacity="0.05"/>
<path d="M311.474 -30.851C311.474 -32.9661 313.184 -34.6808 315.294 -34.6808C317.403 -34.6808 319.114 -32.9661 319.114 -30.851C319.114 -28.7359 317.403 -27.0212 315.294 -27.0212C313.184 -27.0212 311.474 -28.7359 311.474 -30.851Z" fill="#C4C4C4" fill-opacity="0.05"/>
<path d="M311.474 -46.1702C311.474 -48.2853 313.184 -49.9999 315.294 -49.9999C317.403 -49.9999 319.114 -48.2853 319.114 -46.1702C319.114 -44.055 317.403 -42.3403 315.294 -42.3403C313.184 -42.3403 311.474 -44.055 311.474 -46.1702Z" fill="#C4C4C4" fill-opacity="0.05"/>
<path d="M296.196 152.979C296.196 150.864 297.906 149.149 300.016 149.149C302.125 149.149 303.835 150.864 303.835 152.979C303.835 155.094 302.125 156.809 300.016 156.809C297.906 156.809 296.196 155.094 296.196 152.979Z" fill="#C4C4C4" fill-opacity="0.05"/>
<path d="M296.196 137.66C296.196 135.545 297.906 133.83 300.016 133.83C302.125 133.83 303.835 135.545 303.835 137.66C303.835 139.775 302.125 141.489 300.016 141.489C297.906 141.489 296.196 139.775 296.196 137.66Z" fill="#C4C4C4" fill-opacity="0.05"/>
<path d="M296.196 122.341C296.196 120.225 297.906 118.511 300.016 118.511C302.125 118.511 303.835 120.225 303.835 122.341C303.835 124.456 302.125 126.17 300.016 126.17C297.906 126.17 296.196 124.456 296.196 122.341Z" fill="#C4C4C4" fill-opacity="0.05"/>
<path d="M296.196 107.021C296.196 104.906 297.906 103.192 300.016 103.192C302.125 103.192 303.835 104.906 303.835 107.021C303.835 109.136 302.125 110.851 300.016 110.851C297.906 110.851 296.196 109.136 296.196 107.021Z" fill="#C4C4C4" fill-opacity="0.05"/>
<path d="M296.196 91.7022C296.196 89.5871 297.906 87.8724 300.016 87.8724C302.125 87.8724 303.835 89.5871 303.835 91.7022C303.835 93.8173 302.125 95.532 300.016 95.532C297.906 95.532 296.196 93.8173 296.196 91.7022Z" fill="#C4C4C4" fill-opacity="0.05"/>
<path d="M296.196 76.3831C296.196 74.2679 297.906 72.5533 300.016 72.5533C302.125 72.5533 303.835 74.2679 303.835 76.3831C303.835 78.4982 302.125 80.2128 300.016 80.2128C297.906 80.2128 296.196 78.4982 296.196 76.3831Z" fill="#C4C4C4" fill-opacity="0.05"/>
<path d="M296.196 61.0639C296.196 58.9488 297.906 57.2341 300.016 57.2341C302.125 57.2341 303.835 58.9488 303.835 61.0639C303.835 63.179 302.125 64.8937 300.016 64.8937C297.906 64.8937 296.196 63.179 296.196 61.0639Z" fill="#C4C4C4" fill-opacity="0.05"/>
<path d="M296.196 45.7448C296.196 43.6296 297.906 41.915 300.016 41.915C302.125 41.915 303.835 43.6296 303.835 45.7448C303.835 47.8599 302.125 49.5745 300.016 49.5745C297.906 49.5745 296.196 47.8599 296.196 45.7448Z" fill="#C4C4C4" fill-opacity="0.05"/>
<path d="M296.196 30.4256C296.196 28.3105 297.906 26.5958 300.016 26.5958C302.125 26.5958 303.835 28.3105 303.835 30.4256C303.835 32.5407 302.125 34.2554 300.016 34.2554C297.906 34.2554 296.196 32.5408 296.196 30.4256Z" fill="#C4C4C4" fill-opacity="0.05"/>
<path d="M296.196 15.1065C296.196 12.9913 297.906 11.2767 300.016 11.2767C302.125 11.2767 303.835 12.9913 303.835 15.1065C303.835 17.2216 302.125 18.9362 300.016 18.9362C297.906 18.9362 296.196 17.2216 296.196 15.1065Z" fill="#C4C4C4" fill-opacity="0.05"/>
<path d="M296.196 -0.21269C296.196 -2.32782 297.906 -4.04246 300.016 -4.04246C302.125 -4.04246 303.835 -2.32782 303.835 -0.212691C303.835 1.90244 302.125 3.61711 300.016 3.61711C297.906 3.61711 296.196 1.90244 296.196 -0.21269Z" fill="#C4C4C4" fill-opacity="0.05"/>
<path d="M296.196 -15.5318C296.196 -17.647 297.906 -19.3616 300.016 -19.3616C302.125 -19.3616 303.835 -17.647 303.835 -15.5318C303.835 -13.4167 302.125 -11.702 300.016 -11.702C297.906 -11.702 296.196 -13.4167 296.196 -15.5318Z" fill="#C4C4C4" fill-opacity="0.05"/>
<path d="M296.196 -30.851C296.196 -32.9661 297.906 -34.6808 300.016 -34.6808C302.125 -34.6808 303.835 -32.9661 303.835 -30.851C303.835 -28.7359 302.125 -27.0212 300.016 -27.0212C297.906 -27.0212 296.196 -28.7359 296.196 -30.851Z" fill="#C4C4C4" fill-opacity="0.05"/>
<path d="M296.196 -46.1701C296.196 -48.2853 297.906 -49.9999 300.016 -49.9999C302.125 -49.9999 303.835 -48.2853 303.835 -46.1701C303.835 -44.055 302.125 -42.3403 300.016 -42.3403C297.906 -42.3403 296.196 -44.055 296.196 -46.1701Z" fill="#C4C4C4" fill-opacity="0.05"/>
<path d="M280.918 152.979C280.918 150.864 282.628 149.149 284.737 149.149C286.847 149.149 288.557 150.864 288.557 152.979C288.557 155.094 286.847 156.809 284.737 156.809C282.628 156.809 280.918 155.094 280.918 152.979Z" fill="#C4C4C4" fill-opacity="0.05"/>
<path d="M280.918 137.66C280.918 135.545 282.628 133.83 284.737 133.83C286.847 133.83 288.557 135.545 288.557 137.66C288.557 139.775 286.847 141.489 284.737 141.489C282.628 141.489 280.918 139.775 280.918 137.66Z" fill="#C4C4C4" fill-opacity="0.05"/>
<path d="M280.918 122.341C280.918 120.225 282.628 118.511 284.737 118.511C286.847 118.511 288.557 120.225 288.557 122.341C288.557 124.456 286.847 126.17 284.737 126.17C282.628 126.17 280.918 124.456 280.918 122.341Z" fill="#C4C4C4" fill-opacity="0.05"/>
<path d="M280.918 107.021C280.918 104.906 282.628 103.192 284.737 103.192C286.847 103.192 288.557 104.906 288.557 107.021C288.557 109.136 286.847 110.851 284.737 110.851C282.628 110.851 280.918 109.136 280.918 107.021Z" fill="#C4C4C4" fill-opacity="0.05"/>
<path d="M280.918 91.7022C280.918 89.5871 282.628 87.8724 284.737 87.8724C286.847 87.8724 288.557 89.5871 288.557 91.7022C288.557 93.8173 286.847 95.532 284.737 95.532C282.628 95.532 280.918 93.8173 280.918 91.7022Z" fill="#C4C4C4" fill-opacity="0.05"/>
<path d="M280.918 76.3831C280.918 74.2679 282.628 72.5533 284.737 72.5533C286.847 72.5533 288.557 74.2679 288.557 76.3831C288.557 78.4982 286.847 80.2128 284.737 80.2128C282.628 80.2128 280.918 78.4982 280.918 76.3831Z" fill="#C4C4C4" fill-opacity="0.05"/>
<path d="M280.918 61.0639C280.918 58.9488 282.628 57.2341 284.737 57.2341C286.847 57.2341 288.557 58.9488 288.557 61.0639C288.557 63.179 286.847 64.8937 284.737 64.8937C282.628 64.8937 280.918 63.179 280.918 61.0639Z" fill="#C4C4C4" fill-opacity="0.05"/>
<path d="M280.918 45.7448C280.918 43.6296 282.628 41.915 284.737 41.915C286.847 41.915 288.557 43.6296 288.557 45.7448C288.557 47.8599 286.847 49.5745 284.737 49.5745C282.628 49.5745 280.918 47.8599 280.918 45.7448Z" fill="#C4C4C4" fill-opacity="0.05"/>
<path d="M280.918 30.4256C280.918 28.3105 282.628 26.5958 284.737 26.5958C286.847 26.5958 288.557 28.3105 288.557 30.4256C288.557 32.5408 286.847 34.2554 284.737 34.2554C282.628 34.2554 280.918 32.5408 280.918 30.4256Z" fill="#C4C4C4" fill-opacity="0.05"/>
<path d="M280.918 15.1065C280.918 12.9913 282.628 11.2767 284.737 11.2767C286.847 11.2767 288.557 12.9913 288.557 15.1065C288.557 17.2216 286.847 18.9362 284.737 18.9362C282.628 18.9362 280.918 17.2216 280.918 15.1065Z" fill="#C4C4C4" fill-opacity="0.05"/>
<path d="M280.918 -0.212689C280.918 -2.32782 282.628 -4.04246 284.737 -4.04246C286.847 -4.04246 288.557 -2.32782 288.557 -0.21269C288.557 1.90244 286.847 3.61711 284.737 3.61711C282.628 3.61711 280.918 1.90244 280.918 -0.212689Z" fill="#C4C4C4" fill-opacity="0.05"/>
<path d="M280.918 -15.5318C280.918 -17.647 282.628 -19.3616 284.737 -19.3616C286.847 -19.3616 288.557 -17.647 288.557 -15.5318C288.557 -13.4167 286.847 -11.702 284.737 -11.702C282.628 -11.702 280.918 -13.4167 280.918 -15.5318Z" fill="#C4C4C4" fill-opacity="0.05"/>
<path d="M280.918 -30.851C280.918 -32.9661 282.628 -34.6808 284.737 -34.6808C286.847 -34.6808 288.557 -32.9661 288.557 -30.851C288.557 -28.7359 286.847 -27.0212 284.737 -27.0212C282.628 -27.0212 280.918 -28.7359 280.918 -30.851Z" fill="#C4C4C4" fill-opacity="0.05"/>
<path d="M280.918 -46.1701C280.918 -48.2853 282.628 -49.9999 284.737 -49.9999C286.847 -49.9999 288.557 -48.2853 288.557 -46.1701C288.557 -44.055 286.847 -42.3403 284.737 -42.3403C282.628 -42.3403 280.918 -44.055 280.918 -46.1701Z" fill="#C4C4C4" fill-opacity="0.05"/>
<path d="M265.639 152.979C265.639 150.864 267.35 149.149 269.459 149.149C271.568 149.149 273.279 150.864 273.279 152.979C273.279 155.094 271.568 156.809 269.459 156.809C267.35 156.809 265.639 155.094 265.639 152.979Z" fill="#C4C4C4" fill-opacity="0.05"/>
<path d="M265.639 137.66C265.639 135.545 267.35 133.83 269.459 133.83C271.568 133.83 273.279 135.545 273.279 137.66C273.279 139.775 271.568 141.489 269.459 141.489C267.35 141.489 265.639 139.775 265.639 137.66Z" fill="#C4C4C4" fill-opacity="0.05"/>
<path d="M265.639 122.341C265.639 120.225 267.349 118.511 269.459 118.511C271.568 118.511 273.279 120.225 273.279 122.341C273.279 124.456 271.568 126.17 269.459 126.17C267.349 126.17 265.639 124.456 265.639 122.341Z" fill="#C4C4C4" fill-opacity="0.05"/>
<path d="M265.639 107.021C265.639 104.906 267.349 103.192 269.459 103.192C271.568 103.192 273.279 104.906 273.279 107.021C273.279 109.136 271.568 110.851 269.459 110.851C267.349 110.851 265.639 109.136 265.639 107.021Z" fill="#C4C4C4" fill-opacity="0.05"/>
<path d="M265.639 91.7022C265.639 89.5871 267.349 87.8724 269.459 87.8724C271.568 87.8724 273.279 89.5871 273.279 91.7022C273.279 93.8173 271.568 95.532 269.459 95.532C267.349 95.532 265.639 93.8173 265.639 91.7022Z" fill="#C4C4C4" fill-opacity="0.05"/>
<path d="M265.639 76.3831C265.639 74.2679 267.349 72.5533 269.459 72.5533C271.568 72.5533 273.279 74.2679 273.279 76.3831C273.279 78.4982 271.568 80.2128 269.459 80.2128C267.349 80.2128 265.639 78.4982 265.639 76.3831Z" fill="#C4C4C4" fill-opacity="0.05"/>
<path d="M265.639 61.0639C265.639 58.9488 267.349 57.2341 269.459 57.2341C271.568 57.2341 273.279 58.9488 273.279 61.0639C273.279 63.179 271.568 64.8937 269.459 64.8937C267.349 64.8937 265.639 63.179 265.639 61.0639Z" fill="#C4C4C4" fill-opacity="0.05"/>
<path d="M265.639 45.7448C265.639 43.6296 267.349 41.915 269.459 41.915C271.568 41.915 273.279 43.6296 273.279 45.7448C273.279 47.8599 271.568 49.5745 269.459 49.5745C267.349 49.5745 265.639 47.8599 265.639 45.7448Z" fill="#C4C4C4" fill-opacity="0.05"/>
<path d="M265.639 30.4256C265.639 28.3105 267.349 26.5958 269.459 26.5958C271.568 26.5958 273.279 28.3105 273.279 30.4256C273.279 32.5408 271.568 34.2554 269.459 34.2554C267.349 34.2554 265.639 32.5408 265.639 30.4256Z" fill="#C4C4C4" fill-opacity="0.05"/>
<path d="M265.639 15.1065C265.639 12.9913 267.349 11.2767 269.459 11.2767C271.568 11.2767 273.279 12.9913 273.279 15.1065C273.279 17.2216 271.568 18.9362 269.459 18.9362C267.349 18.9362 265.639 17.2216 265.639 15.1065Z" fill="#C4C4C4" fill-opacity="0.05"/>
<path d="M265.639 -0.212688C265.639 -2.32782 267.349 -4.04246 269.459 -4.04246C271.568 -4.04246 273.279 -2.32782 273.279 -0.212688C273.279 1.90244 271.568 3.61712 269.459 3.61712C267.349 3.61712 265.639 1.90244 265.639 -0.212688Z" fill="#C4C4C4" fill-opacity="0.05"/>
<path d="M265.639 -15.5318C265.639 -17.647 267.349 -19.3616 269.459 -19.3616C271.568 -19.3616 273.279 -17.647 273.279 -15.5318C273.279 -13.4167 271.568 -11.702 269.459 -11.702C267.349 -11.702 265.639 -13.4167 265.639 -15.5318Z" fill="#C4C4C4" fill-opacity="0.05"/>
<path d="M265.639 -30.851C265.639 -32.9661 267.349 -34.6808 269.459 -34.6808C271.568 -34.6808 273.279 -32.9661 273.279 -30.851C273.279 -28.7359 271.568 -27.0212 269.459 -27.0212C267.349 -27.0212 265.639 -28.7359 265.639 -30.851Z" fill="#C4C4C4" fill-opacity="0.05"/>
<path d="M265.639 -46.1701C265.639 -48.2853 267.349 -49.9999 269.459 -49.9999C271.568 -49.9999 273.279 -48.2853 273.279 -46.1701C273.279 -44.055 271.568 -42.3403 269.459 -42.3403C267.349 -42.3403 265.639 -44.055 265.639 -46.1701Z" fill="#C4C4C4" fill-opacity="0.05"/>
<path d="M250.361 152.979C250.361 150.864 252.071 149.149 254.181 149.149C256.29 149.149 258 150.864 258 152.979C258 155.094 256.29 156.809 254.181 156.809C252.071 156.809 250.361 155.094 250.361 152.979Z" fill="#C4C4C4" fill-opacity="0.05"/>
<path d="M250.361 137.66C250.361 135.545 252.071 133.83 254.181 133.83C256.29 133.83 258 135.545 258 137.66C258 139.775 256.29 141.489 254.181 141.489C252.071 141.489 250.361 139.775 250.361 137.66Z" fill="#C4C4C4" fill-opacity="0.05"/>
<path d="M250.361 122.341C250.361 120.225 252.071 118.511 254.181 118.511C256.29 118.511 258 120.225 258 122.341C258 124.456 256.29 126.17 254.181 126.17C252.071 126.17 250.361 124.456 250.361 122.341Z" fill="#C4C4C4" fill-opacity="0.05"/>
<path d="M250.361 107.021C250.361 104.906 252.071 103.192 254.181 103.192C256.29 103.192 258 104.906 258 107.021C258 109.136 256.29 110.851 254.181 110.851C252.071 110.851 250.361 109.136 250.361 107.021Z" fill="#C4C4C4" fill-opacity="0.05"/>
<path d="M250.361 91.7022C250.361 89.5871 252.071 87.8724 254.181 87.8724C256.29 87.8724 258 89.5871 258 91.7022C258 93.8173 256.29 95.532 254.181 95.532C252.071 95.532 250.361 93.8173 250.361 91.7022Z" fill="#C4C4C4" fill-opacity="0.05"/>
<path d="M250.361 76.3831C250.361 74.2679 252.071 72.5533 254.181 72.5533C256.29 72.5533 258 74.2679 258 76.3831C258 78.4982 256.29 80.2129 254.181 80.2129C252.071 80.2129 250.361 78.4982 250.361 76.3831Z" fill="#C4C4C4" fill-opacity="0.05"/>
<path d="M250.361 61.0639C250.361 58.9488 252.071 57.2341 254.181 57.2341C256.29 57.2341 258 58.9488 258 61.0639C258 63.179 256.29 64.8937 254.181 64.8937C252.071 64.8937 250.361 63.179 250.361 61.0639Z" fill="#C4C4C4" fill-opacity="0.05"/>
<path d="M250.361 45.7448C250.361 43.6296 252.071 41.915 254.181 41.915C256.29 41.915 258 43.6296 258 45.7448C258 47.8599 256.29 49.5745 254.181 49.5745C252.071 49.5745 250.361 47.8599 250.361 45.7448Z" fill="#C4C4C4" fill-opacity="0.05"/>
<path d="M250.361 30.4256C250.361 28.3105 252.071 26.5958 254.181 26.5958C256.29 26.5958 258 28.3105 258 30.4256C258 32.5408 256.29 34.2554 254.181 34.2554C252.071 34.2554 250.361 32.5408 250.361 30.4256Z" fill="#C4C4C4" fill-opacity="0.05"/>
<path d="M250.361 15.1065C250.361 12.9913 252.071 11.2767 254.181 11.2767C256.29 11.2767 258 12.9913 258 15.1065C258 17.2216 256.29 18.9362 254.181 18.9362C252.071 18.9362 250.361 17.2216 250.361 15.1065Z" fill="#C4C4C4" fill-opacity="0.05"/>
<path d="M250.361 -0.212686C250.361 -2.32781 252.071 -4.04246 254.181 -4.04246C256.29 -4.04246 258 -2.32781 258 -0.212687C258 1.90244 256.29 3.61712 254.181 3.61712C252.071 3.61712 250.361 1.90244 250.361 -0.212686Z" fill="#C4C4C4" fill-opacity="0.05"/>
<path d="M250.361 -15.5318C250.361 -17.647 252.071 -19.3616 254.181 -19.3616C256.29 -19.3616 258 -17.647 258 -15.5318C258 -13.4167 256.29 -11.702 254.181 -11.702C252.071 -11.702 250.361 -13.4167 250.361 -15.5318Z" fill="#C4C4C4" fill-opacity="0.05"/>
<path d="M250.361 -30.851C250.361 -32.9661 252.071 -34.6808 254.181 -34.6808C256.29 -34.6808 258 -32.9661 258 -30.851C258 -28.7359 256.29 -27.0212 254.181 -27.0212C252.071 -27.0212 250.361 -28.7359 250.361 -30.851Z" fill="#C4C4C4" fill-opacity="0.05"/>
<path d="M250.361 -46.1701C250.361 -48.2853 252.071 -49.9999 254.181 -49.9999C256.29 -49.9999 258 -48.2853 258 -46.1701C258 -44.055 256.29 -42.3403 254.181 -42.3403C252.071 -42.3403 250.361 -44.055 250.361 -46.1701Z" fill="#C4C4C4" fill-opacity="0.05"/>
<path d="M235.083 152.979C235.083 150.864 236.793 149.149 238.902 149.149C241.012 149.149 242.722 150.864 242.722 152.979C242.722 155.094 241.012 156.809 238.902 156.809C236.793 156.809 235.083 155.094 235.083 152.979Z" fill="#C4C4C4" fill-opacity="0.05"/>
<path d="M235.083 137.66C235.083 135.545 236.793 133.83 238.902 133.83C241.012 133.83 242.722 135.545 242.722 137.66C242.722 139.775 241.012 141.489 238.902 141.489C236.793 141.489 235.083 139.775 235.083 137.66Z" fill="#C4C4C4" fill-opacity="0.05"/>
<path d="M235.083 122.341C235.083 120.225 236.793 118.511 238.902 118.511C241.012 118.511 242.722 120.225 242.722 122.341C242.722 124.456 241.012 126.17 238.902 126.17C236.793 126.17 235.083 124.456 235.083 122.341Z" fill="#C4C4C4" fill-opacity="0.05"/>
<path d="M235.083 107.021C235.083 104.906 236.793 103.192 238.902 103.192C241.012 103.192 242.722 104.906 242.722 107.021C242.722 109.136 241.012 110.851 238.902 110.851C236.793 110.851 235.083 109.136 235.083 107.021Z" fill="#C4C4C4" fill-opacity="0.05"/>
<path d="M235.083 91.7022C235.083 89.5871 236.793 87.8724 238.902 87.8724C241.012 87.8724 242.722 89.5871 242.722 91.7022C242.722 93.8173 241.012 95.532 238.902 95.532C236.793 95.532 235.083 93.8173 235.083 91.7022Z" fill="#C4C4C4" fill-opacity="0.05"/>
<path d="M235.083 76.3831C235.083 74.2679 236.793 72.5533 238.902 72.5533C241.012 72.5533 242.722 74.2679 242.722 76.3831C242.722 78.4982 241.012 80.2129 238.902 80.2129C236.793 80.2129 235.083 78.4982 235.083 76.3831Z" fill="#C4C4C4" fill-opacity="0.05"/>
<path d="M235.083 61.0639C235.083 58.9488 236.793 57.2341 238.902 57.2341C241.012 57.2341 242.722 58.9488 242.722 61.0639C242.722 63.179 241.012 64.8937 238.902 64.8937C236.793 64.8937 235.083 63.179 235.083 61.0639Z" fill="#C4C4C4" fill-opacity="0.05"/>
<path d="M235.083 45.7448C235.083 43.6296 236.793 41.915 238.902 41.915C241.012 41.915 242.722 43.6296 242.722 45.7448C242.722 47.8599 241.012 49.5745 238.902 49.5745C236.793 49.5745 235.083 47.8599 235.083 45.7448Z" fill="#C4C4C4" fill-opacity="0.05"/>
<path d="M235.083 30.4256C235.083 28.3105 236.793 26.5958 238.902 26.5958C241.012 26.5958 242.722 28.3105 242.722 30.4256C242.722 32.5408 241.012 34.2554 238.902 34.2554C236.793 34.2554 235.083 32.5408 235.083 30.4256Z" fill="#C4C4C4" fill-opacity="0.05"/>
<path d="M235.083 15.1065C235.083 12.9913 236.793 11.2767 238.902 11.2767C241.012 11.2767 242.722 12.9913 242.722 15.1065C242.722 17.2216 241.012 18.9362 238.902 18.9362C236.793 18.9362 235.083 17.2216 235.083 15.1065Z" fill="#C4C4C4" fill-opacity="0.05"/>
<path d="M235.083 -0.212685C235.083 -2.32781 236.793 -4.04246 238.902 -4.04246C241.012 -4.04246 242.722 -2.32781 242.722 -0.212686C242.722 1.90244 241.012 3.61712 238.902 3.61712C236.793 3.61712 235.083 1.90244 235.083 -0.212685Z" fill="#C4C4C4" fill-opacity="0.05"/>
<path d="M235.083 -15.5318C235.083 -17.647 236.793 -19.3616 238.902 -19.3616C241.012 -19.3616 242.722 -17.647 242.722 -15.5318C242.722 -13.4167 241.012 -11.702 238.902 -11.702C236.793 -11.702 235.083 -13.4167 235.083 -15.5318Z" fill="#C4C4C4" fill-opacity="0.05"/>
<path d="M235.083 -30.851C235.083 -32.9661 236.793 -34.6808 238.902 -34.6808C241.012 -34.6808 242.722 -32.9661 242.722 -30.851C242.722 -28.7359 241.012 -27.0212 238.902 -27.0212C236.793 -27.0212 235.083 -28.7359 235.083 -30.851Z" fill="#C4C4C4" fill-opacity="0.05"/>
<path d="M235.083 -46.1701C235.083 -48.2853 236.793 -49.9999 238.902 -49.9999C241.012 -49.9999 242.722 -48.2853 242.722 -46.1701C242.722 -44.055 241.012 -42.3403 238.902 -42.3403C236.793 -42.3403 235.083 -44.055 235.083 -46.1701Z" fill="#C4C4C4" fill-opacity="0.05"/>
<path d="M219.804 152.979C219.804 150.864 221.515 149.149 223.624 149.149C225.734 149.149 227.444 150.864 227.444 152.979C227.444 155.094 225.734 156.809 223.624 156.809C221.515 156.809 219.804 155.094 219.804 152.979Z" fill="#C4C4C4" fill-opacity="0.05"/>
<path d="M219.804 137.66C219.804 135.545 221.515 133.83 223.624 133.83C225.734 133.83 227.444 135.545 227.444 137.66C227.444 139.775 225.734 141.489 223.624 141.489C221.515 141.489 219.804 139.775 219.804 137.66Z" fill="#C4C4C4" fill-opacity="0.05"/>
<path d="M219.804 122.341C219.804 120.225 221.515 118.511 223.624 118.511C225.734 118.511 227.444 120.225 227.444 122.341C227.444 124.456 225.734 126.17 223.624 126.17C221.515 126.17 219.804 124.456 219.804 122.341Z" fill="#C4C4C4" fill-opacity="0.05"/>
<path d="M219.804 107.021C219.804 104.906 221.515 103.192 223.624 103.192C225.734 103.192 227.444 104.906 227.444 107.021C227.444 109.136 225.734 110.851 223.624 110.851C221.515 110.851 219.804 109.136 219.804 107.021Z" fill="#C4C4C4" fill-opacity="0.05"/>
<path d="M219.804 91.7022C219.804 89.5871 221.515 87.8724 223.624 87.8724C225.734 87.8724 227.444 89.5871 227.444 91.7022C227.444 93.8173 225.734 95.532 223.624 95.532C221.515 95.532 219.804 93.8173 219.804 91.7022Z" fill="#C4C4C4" fill-opacity="0.05"/>
<path d="M219.804 76.3831C219.804 74.2679 221.515 72.5533 223.624 72.5533C225.734 72.5533 227.444 74.2679 227.444 76.3831C227.444 78.4982 225.734 80.2129 223.624 80.2129C221.515 80.2129 219.804 78.4982 219.804 76.3831Z" fill="#C4C4C4" fill-opacity="0.05"/>
<path d="M219.804 61.0639C219.804 58.9488 221.515 57.2341 223.624 57.2341C225.734 57.2341 227.444 58.9488 227.444 61.0639C227.444 63.179 225.734 64.8937 223.624 64.8937C221.515 64.8937 219.804 63.179 219.804 61.0639Z" fill="#C4C4C4" fill-opacity="0.05"/>
<path d="M219.804 45.7448C219.804 43.6296 221.515 41.915 223.624 41.915C225.734 41.915 227.444 43.6296 227.444 45.7448C227.444 47.8599 225.734 49.5745 223.624 49.5745C221.515 49.5745 219.804 47.8599 219.804 45.7448Z" fill="#C4C4C4" fill-opacity="0.05"/>
<path d="M219.804 30.4256C219.804 28.3105 221.515 26.5958 223.624 26.5958C225.734 26.5958 227.444 28.3105 227.444 30.4256C227.444 32.5408 225.734 34.2554 223.624 34.2554C221.515 34.2554 219.804 32.5408 219.804 30.4256Z" fill="#C4C4C4" fill-opacity="0.05"/>
<path d="M219.804 15.1065C219.804 12.9913 221.515 11.2767 223.624 11.2767C225.734 11.2767 227.444 12.9913 227.444 15.1065C227.444 17.2216 225.734 18.9362 223.624 18.9362C221.515 18.9362 219.804 17.2216 219.804 15.1065Z" fill="#C4C4C4" fill-opacity="0.05"/>
<path d="M219.804 -0.212684C219.804 -2.32781 221.515 -4.04246 223.624 -4.04246C225.734 -4.04246 227.444 -2.32781 227.444 -0.212684C227.444 1.90244 225.734 3.61712 223.624 3.61712C221.515 3.61712 219.804 1.90244 219.804 -0.212684Z" fill="#C4C4C4" fill-opacity="0.05"/>
<path d="M219.804 -15.5318C219.804 -17.647 221.515 -19.3616 223.624 -19.3616C225.734 -19.3616 227.444 -17.647 227.444 -15.5318C227.444 -13.4167 225.734 -11.702 223.624 -11.702C221.515 -11.702 219.804 -13.4167 219.804 -15.5318Z" fill="#C4C4C4" fill-opacity="0.05"/>
<path d="M219.804 -30.851C219.804 -32.9661 221.515 -34.6808 223.624 -34.6808C225.734 -34.6808 227.444 -32.9661 227.444 -30.851C227.444 -28.7359 225.734 -27.0212 223.624 -27.0212C221.515 -27.0212 219.804 -28.7359 219.804 -30.851Z" fill="#C4C4C4" fill-opacity="0.05"/>
<path d="M219.804 -46.1701C219.804 -48.2853 221.515 -49.9999 223.624 -49.9999C225.734 -49.9999 227.444 -48.2853 227.444 -46.1701C227.444 -44.055 225.734 -42.3403 223.624 -42.3403C221.515 -42.3403 219.804 -44.055 219.804 -46.1701Z" fill="#C4C4C4" fill-opacity="0.05"/>
<path d="M204.526 152.979C204.526 150.864 206.236 149.149 208.346 149.149C210.455 149.149 212.165 150.864 212.165 152.979C212.165 155.094 210.455 156.809 208.346 156.809C206.236 156.809 204.526 155.094 204.526 152.979Z" fill="#C4C4C4" fill-opacity="0.05"/>
<path d="M204.526 137.66C204.526 135.545 206.236 133.83 208.346 133.83C210.455 133.83 212.165 135.545 212.165 137.66C212.165 139.775 210.455 141.489 208.346 141.489C206.236 141.489 204.526 139.775 204.526 137.66Z" fill="#C4C4C4" fill-opacity="0.05"/>
<path d="M204.526 122.341C204.526 120.225 206.236 118.511 208.346 118.511C210.455 118.511 212.165 120.225 212.165 122.341C212.165 124.456 210.455 126.17 208.346 126.17C206.236 126.17 204.526 124.456 204.526 122.341Z" fill="#C4C4C4" fill-opacity="0.05"/>
<path d="M204.526 107.021C204.526 104.906 206.236 103.192 208.346 103.192C210.455 103.192 212.165 104.906 212.165 107.021C212.165 109.136 210.455 110.851 208.346 110.851C206.236 110.851 204.526 109.136 204.526 107.021Z" fill="#C4C4C4" fill-opacity="0.05"/>
<path d="M204.526 91.7022C204.526 89.5871 206.236 87.8724 208.346 87.8724C210.455 87.8724 212.165 89.5871 212.165 91.7022C212.165 93.8174 210.455 95.532 208.346 95.532C206.236 95.532 204.526 93.8174 204.526 91.7022Z" fill="#C4C4C4" fill-opacity="0.05"/>
<path d="M204.526 76.3831C204.526 74.2679 206.236 72.5533 208.346 72.5533C210.455 72.5533 212.165 74.2679 212.165 76.3831C212.165 78.4982 210.455 80.2129 208.346 80.2129C206.236 80.2129 204.526 78.4982 204.526 76.3831Z" fill="#C4C4C4" fill-opacity="0.05"/>
<path d="M204.526 61.0639C204.526 58.9488 206.236 57.2341 208.346 57.2341C210.455 57.2341 212.165 58.9488 212.165 61.0639C212.165 63.179 210.455 64.8937 208.346 64.8937C206.236 64.8937 204.526 63.179 204.526 61.0639Z" fill="#C4C4C4" fill-opacity="0.05"/>
<path d="M204.526 45.7448C204.526 43.6296 206.236 41.915 208.346 41.915C210.455 41.915 212.165 43.6296 212.165 45.7448C212.165 47.8599 210.455 49.5745 208.346 49.5745C206.236 49.5745 204.526 47.8599 204.526 45.7448Z" fill="#C4C4C4" fill-opacity="0.05"/>
<path d="M204.526 30.4256C204.526 28.3105 206.236 26.5958 208.346 26.5958C210.455 26.5958 212.165 28.3105 212.165 30.4256C212.165 32.5408 210.455 34.2554 208.346 34.2554C206.236 34.2554 204.526 32.5408 204.526 30.4256Z" fill="#C4C4C4" fill-opacity="0.05"/>
<path d="M204.526 15.1065C204.526 12.9913 206.236 11.2767 208.346 11.2767C210.455 11.2767 212.165 12.9913 212.165 15.1065C212.165 17.2216 210.455 18.9362 208.346 18.9362C206.236 18.9362 204.526 17.2216 204.526 15.1065Z" fill="#C4C4C4" fill-opacity="0.05"/>
<path d="M204.526 -0.212682C204.526 -2.32781 206.236 -4.04246 208.346 -4.04246C210.455 -4.04246 212.165 -2.32781 212.165 -0.212683C212.165 1.90244 210.455 3.61712 208.346 3.61712C206.236 3.61712 204.526 1.90245 204.526 -0.212682Z" fill="#C4C4C4" fill-opacity="0.05"/>
<path d="M204.526 -15.5318C204.526 -17.647 206.236 -19.3616 208.346 -19.3616C210.455 -19.3616 212.165 -17.647 212.165 -15.5318C212.165 -13.4167 210.455 -11.702 208.346 -11.702C206.236 -11.702 204.526 -13.4167 204.526 -15.5318Z" fill="#C4C4C4" fill-opacity="0.05"/>
<path d="M204.526 -30.851C204.526 -32.9661 206.236 -34.6808 208.346 -34.6808C210.455 -34.6808 212.165 -32.9661 212.165 -30.851C212.165 -28.7359 210.455 -27.0212 208.346 -27.0212C206.236 -27.0212 204.526 -28.7359 204.526 -30.851Z" fill="#C4C4C4" fill-opacity="0.05"/>
<path d="M204.526 -46.1701C204.526 -48.2853 206.236 -49.9999 208.346 -49.9999C210.455 -49.9999 212.165 -48.2853 212.165 -46.1701C212.165 -44.055 210.455 -42.3403 208.346 -42.3403C206.236 -42.3403 204.526 -44.055 204.526 -46.1701Z" fill="#C4C4C4" fill-opacity="0.05"/>
<path d="M189.248 152.979C189.248 150.864 190.958 149.149 193.067 149.149C195.177 149.149 196.887 150.864 196.887 152.979C196.887 155.094 195.177 156.809 193.067 156.809C190.958 156.809 189.248 155.094 189.248 152.979Z" fill="#C4C4C4" fill-opacity="0.05"/>
<path d="M189.248 137.66C189.248 135.545 190.958 133.83 193.067 133.83C195.177 133.83 196.887 135.545 196.887 137.66C196.887 139.775 195.177 141.489 193.067 141.489C190.958 141.489 189.248 139.775 189.248 137.66Z" fill="#C4C4C4" fill-opacity="0.05"/>
<path d="M189.248 122.341C189.248 120.225 190.958 118.511 193.067 118.511C195.177 118.511 196.887 120.225 196.887 122.341C196.887 124.456 195.177 126.17 193.067 126.17C190.958 126.17 189.248 124.456 189.248 122.341Z" fill="#C4C4C4" fill-opacity="0.05"/>
<path d="M189.248 107.021C189.248 104.906 190.958 103.192 193.067 103.192C195.177 103.192 196.887 104.906 196.887 107.021C196.887 109.136 195.177 110.851 193.067 110.851C190.958 110.851 189.248 109.136 189.248 107.021Z" fill="#C4C4C4" fill-opacity="0.05"/>
<path d="M189.248 91.7022C189.248 89.5871 190.958 87.8724 193.067 87.8724C195.177 87.8724 196.887 89.5871 196.887 91.7022C196.887 93.8174 195.177 95.532 193.067 95.532C190.958 95.532 189.248 93.8174 189.248 91.7022Z" fill="#C4C4C4" fill-opacity="0.05"/>
<path d="M189.248 76.3831C189.248 74.2679 190.958 72.5533 193.067 72.5533C195.177 72.5533 196.887 74.2679 196.887 76.3831C196.887 78.4982 195.177 80.2129 193.067 80.2129C190.958 80.2129 189.248 78.4982 189.248 76.3831Z" fill="#C4C4C4" fill-opacity="0.05"/>
<path d="M189.248 61.0639C189.248 58.9488 190.958 57.2341 193.067 57.2341C195.177 57.2341 196.887 58.9488 196.887 61.0639C196.887 63.179 195.177 64.8937 193.067 64.8937C190.958 64.8937 189.248 63.1791 189.248 61.0639Z" fill="#C4C4C4" fill-opacity="0.05"/>
<path d="M189.248 45.7448C189.248 43.6296 190.958 41.915 193.067 41.915C195.177 41.915 196.887 43.6296 196.887 45.7448C196.887 47.8599 195.177 49.5746 193.067 49.5746C190.958 49.5746 189.248 47.8599 189.248 45.7448Z" fill="#C4C4C4" fill-opacity="0.05"/>
<path d="M189.248 30.4256C189.248 28.3105 190.958 26.5958 193.067 26.5958C195.177 26.5958 196.887 28.3105 196.887 30.4256C196.887 32.5408 195.177 34.2554 193.067 34.2554C190.958 34.2554 189.248 32.5408 189.248 30.4256Z" fill="#C4C4C4" fill-opacity="0.05"/>
<path d="M189.248 15.1065C189.248 12.9913 190.958 11.2767 193.067 11.2767C195.177 11.2767 196.887 12.9913 196.887 15.1065C196.887 17.2216 195.177 18.9362 193.067 18.9362C190.958 18.9362 189.248 17.2216 189.248 15.1065Z" fill="#C4C4C4" fill-opacity="0.05"/>
<path d="M189.248 -0.212681C189.248 -2.32781 190.958 -4.04245 193.067 -4.04245C195.177 -4.04245 196.887 -2.32781 196.887 -0.212682C196.887 1.90245 195.177 3.61712 193.067 3.61712C190.958 3.61712 189.248 1.90245 189.248 -0.212681Z" fill="#C4C4C4" fill-opacity="0.05"/>
<path d="M189.248 -15.5318C189.248 -17.647 190.958 -19.3616 193.067 -19.3616C195.177 -19.3616 196.887 -17.647 196.887 -15.5318C196.887 -13.4167 195.177 -11.702 193.067 -11.702C190.958 -11.702 189.248 -13.4167 189.248 -15.5318Z" fill="#C4C4C4" fill-opacity="0.05"/>
<path d="M189.248 -30.851C189.248 -32.9661 190.958 -34.6808 193.067 -34.6808C195.177 -34.6808 196.887 -32.9661 196.887 -30.851C196.887 -28.7359 195.177 -27.0212 193.067 -27.0212C190.958 -27.0212 189.248 -28.7359 189.248 -30.851Z" fill="#C4C4C4" fill-opacity="0.05"/>
<path d="M189.248 -46.1701C189.248 -48.2853 190.958 -49.9999 193.067 -49.9999C195.177 -49.9999 196.887 -48.2853 196.887 -46.1701C196.887 -44.055 195.177 -42.3403 193.067 -42.3403C190.958 -42.3403 189.248 -44.055 189.248 -46.1701Z" fill="#C4C4C4" fill-opacity="0.05"/>
<path d="M173.97 152.979C173.97 150.864 175.68 149.149 177.789 149.149C179.899 149.149 181.609 150.864 181.609 152.979C181.609 155.094 179.899 156.809 177.789 156.809C175.68 156.809 173.97 155.094 173.97 152.979Z" fill="#C4C4C4" fill-opacity="0.05"/>
<path d="M173.97 137.66C173.97 135.545 175.68 133.83 177.789 133.83C179.899 133.83 181.609 135.545 181.609 137.66C181.609 139.775 179.899 141.489 177.789 141.489C175.68 141.489 173.97 139.775 173.97 137.66Z" fill="#C4C4C4" fill-opacity="0.05"/>
<path d="M173.97 122.341C173.97 120.225 175.68 118.511 177.789 118.511C179.899 118.511 181.609 120.225 181.609 122.341C181.609 124.456 179.899 126.17 177.789 126.17C175.68 126.17 173.97 124.456 173.97 122.341Z" fill="#C4C4C4" fill-opacity="0.05"/>
<path d="M173.97 107.021C173.97 104.906 175.68 103.192 177.789 103.192C179.899 103.192 181.609 104.906 181.609 107.021C181.609 109.136 179.899 110.851 177.789 110.851C175.68 110.851 173.97 109.136 173.97 107.021Z" fill="#C4C4C4" fill-opacity="0.05"/>
<path d="M173.97 91.7022C173.97 89.5871 175.68 87.8724 177.789 87.8724C179.899 87.8724 181.609 89.5871 181.609 91.7022C181.609 93.8174 179.899 95.532 177.789 95.532C175.68 95.532 173.97 93.8174 173.97 91.7022Z" fill="#C4C4C4" fill-opacity="0.05"/>
<path d="M173.97 76.3831C173.97 74.2679 175.68 72.5533 177.789 72.5533C179.899 72.5533 181.609 74.2679 181.609 76.3831C181.609 78.4982 179.899 80.2129 177.789 80.2129C175.68 80.2129 173.97 78.4982 173.97 76.3831Z" fill="#C4C4C4" fill-opacity="0.05"/>
<path d="M173.97 61.0639C173.97 58.9488 175.68 57.2341 177.789 57.2341C179.899 57.2341 181.609 58.9488 181.609 61.0639C181.609 63.1791 179.899 64.8937 177.789 64.8937C175.68 64.8937 173.97 63.1791 173.97 61.0639Z" fill="#C4C4C4" fill-opacity="0.05"/>
<path d="M173.97 45.7448C173.97 43.6296 175.68 41.915 177.789 41.915C179.899 41.915 181.609 43.6296 181.609 45.7448C181.609 47.8599 179.899 49.5746 177.789 49.5746C175.68 49.5746 173.97 47.8599 173.97 45.7448Z" fill="#C4C4C4" fill-opacity="0.05"/>
<path d="M173.97 30.4256C173.97 28.3105 175.68 26.5958 177.789 26.5958C179.899 26.5958 181.609 28.3105 181.609 30.4256C181.609 32.5408 179.899 34.2554 177.789 34.2554C175.68 34.2554 173.97 32.5408 173.97 30.4256Z" fill="#C4C4C4" fill-opacity="0.05"/>
<path d="M173.97 15.1065C173.97 12.9913 175.68 11.2767 177.789 11.2767C179.899 11.2767 181.609 12.9913 181.609 15.1065C181.609 17.2216 179.899 18.9362 177.789 18.9362C175.68 18.9362 173.97 17.2216 173.97 15.1065Z" fill="#C4C4C4" fill-opacity="0.05"/>
<path d="M173.97 -0.21268C173.97 -2.32781 175.68 -4.04245 177.789 -4.04245C179.899 -4.04245 181.609 -2.32781 181.609 -0.21268C181.609 1.90245 179.899 3.61712 177.789 3.61712C175.68 3.61712 173.97 1.90245 173.97 -0.21268Z" fill="#C4C4C4" fill-opacity="0.05"/>
<path d="M173.97 -15.5318C173.97 -17.647 175.68 -19.3616 177.789 -19.3616C179.899 -19.3616 181.609 -17.647 181.609 -15.5318C181.609 -13.4167 179.899 -11.702 177.789 -11.702C175.68 -11.702 173.97 -13.4167 173.97 -15.5318Z" fill="#C4C4C4" fill-opacity="0.05"/>
<path d="M173.97 -30.851C173.97 -32.9661 175.68 -34.6808 177.789 -34.6808C179.899 -34.6808 181.609 -32.9661 181.609 -30.851C181.609 -28.7359 179.899 -27.0212 177.789 -27.0212C175.68 -27.0212 173.97 -28.7359 173.97 -30.851Z" fill="#C4C4C4" fill-opacity="0.05"/>
<path d="M173.97 -46.1701C173.97 -48.2853 175.68 -49.9999 177.789 -49.9999C179.899 -49.9999 181.609 -48.2853 181.609 -46.1701C181.609 -44.055 179.899 -42.3403 177.789 -42.3403C175.68 -42.3403 173.97 -44.055 173.97 -46.1701Z" fill="#C4C4C4" fill-opacity="0.05"/>
<path d="M158.691 152.979C158.691 150.864 160.401 149.149 162.511 149.149C164.62 149.149 166.33 150.864 166.33 152.979C166.33 155.094 164.62 156.809 162.511 156.809C160.401 156.809 158.691 155.094 158.691 152.979Z" fill="#C4C4C4" fill-opacity="0.05"/>
<path d="M158.691 137.66C158.691 135.545 160.401 133.83 162.511 133.83C164.62 133.83 166.33 135.545 166.33 137.66C166.33 139.775 164.62 141.489 162.511 141.489C160.401 141.489 158.691 139.775 158.691 137.66Z" fill="#C4C4C4" fill-opacity="0.05"/>
<path d="M158.691 122.341C158.691 120.225 160.401 118.511 162.511 118.511C164.62 118.511 166.33 120.225 166.33 122.341C166.33 124.456 164.62 126.17 162.511 126.17C160.401 126.17 158.691 124.456 158.691 122.341Z" fill="#C4C4C4" fill-opacity="0.05"/>
<path d="M158.691 107.021C158.691 104.906 160.401 103.192 162.511 103.192C164.62 103.192 166.33 104.906 166.33 107.021C166.33 109.136 164.62 110.851 162.511 110.851C160.401 110.851 158.691 109.136 158.691 107.021Z" fill="#C4C4C4" fill-opacity="0.05"/>
<path d="M158.691 91.7022C158.691 89.5871 160.401 87.8724 162.511 87.8724C164.62 87.8724 166.33 89.5871 166.33 91.7022C166.33 93.8174 164.62 95.532 162.511 95.532C160.401 95.532 158.691 93.8174 158.691 91.7022Z" fill="#C4C4C4" fill-opacity="0.05"/>
<path d="M158.691 76.3831C158.691 74.2679 160.401 72.5533 162.511 72.5533C164.62 72.5533 166.33 74.2679 166.33 76.3831C166.33 78.4982 164.62 80.2129 162.511 80.2129C160.401 80.2129 158.691 78.4982 158.691 76.3831Z" fill="#C4C4C4" fill-opacity="0.05"/>
<path d="M158.691 61.0639C158.691 58.9488 160.401 57.2341 162.511 57.2341C164.62 57.2341 166.33 58.9488 166.33 61.0639C166.33 63.1791 164.62 64.8937 162.511 64.8937C160.401 64.8937 158.691 63.1791 158.691 61.0639Z" fill="#C4C4C4" fill-opacity="0.05"/>
<path d="M158.691 45.7448C158.691 43.6296 160.401 41.915 162.511 41.915C164.62 41.915 166.33 43.6296 166.33 45.7448C166.33 47.8599 164.62 49.5746 162.511 49.5746C160.401 49.5746 158.691 47.8599 158.691 45.7448Z" fill="#C4C4C4" fill-opacity="0.05"/>
<path d="M158.691 30.4256C158.691 28.3105 160.401 26.5958 162.511 26.5958C164.62 26.5958 166.33 28.3105 166.33 30.4256C166.33 32.5408 164.62 34.2554 162.511 34.2554C160.401 34.2554 158.691 32.5408 158.691 30.4256Z" fill="#C4C4C4" fill-opacity="0.05"/>
<path d="M158.691 15.1065C158.691 12.9913 160.401 11.2767 162.511 11.2767C164.62 11.2767 166.33 12.9913 166.33 15.1065C166.33 17.2216 164.62 18.9362 162.511 18.9362C160.401 18.9362 158.691 17.2216 158.691 15.1065Z" fill="#C4C4C4" fill-opacity="0.05"/>
<path d="M158.691 -0.212678C158.691 -2.32781 160.401 -4.04245 162.511 -4.04245C164.62 -4.04245 166.33 -2.32781 166.33 -0.212679C166.33 1.90245 164.62 3.61712 162.511 3.61712C160.401 3.61713 158.691 1.90245 158.691 -0.212678Z" fill="#C4C4C4" fill-opacity="0.05"/>
<path d="M158.691 -15.5318C158.691 -17.647 160.401 -19.3616 162.511 -19.3616C164.62 -19.3616 166.33 -17.647 166.33 -15.5318C166.33 -13.4167 164.62 -11.702 162.511 -11.702C160.401 -11.702 158.691 -13.4167 158.691 -15.5318Z" fill="#C4C4C4" fill-opacity="0.05"/>
<path d="M158.691 -30.851C158.691 -32.9661 160.401 -34.6808 162.511 -34.6808C164.62 -34.6808 166.33 -32.9661 166.33 -30.851C166.33 -28.7359 164.62 -27.0212 162.511 -27.0212C160.401 -27.0212 158.691 -28.7359 158.691 -30.851Z" fill="#C4C4C4" fill-opacity="0.05"/>
<path d="M158.691 -46.1701C158.691 -48.2853 160.401 -49.9999 162.511 -49.9999C164.62 -49.9999 166.33 -48.2853 166.33 -46.1701C166.33 -44.055 164.62 -42.3403 162.511 -42.3403C160.401 -42.3403 158.691 -44.055 158.691 -46.1701Z" fill="#C4C4C4" fill-opacity="0.05"/>
<path d="M143.413 152.979C143.413 150.864 145.123 149.149 147.232 149.149C149.342 149.149 151.052 150.864 151.052 152.979C151.052 155.094 149.342 156.809 147.232 156.809C145.123 156.809 143.413 155.094 143.413 152.979Z" fill="#C4C4C4" fill-opacity="0.05"/>
<path d="M143.413 137.66C143.413 135.545 145.123 133.83 147.232 133.83C149.342 133.83 151.052 135.545 151.052 137.66C151.052 139.775 149.342 141.489 147.232 141.489C145.123 141.489 143.413 139.775 143.413 137.66Z" fill="#C4C4C4" fill-opacity="0.05"/>
<path d="M143.413 122.341C143.413 120.225 145.123 118.511 147.232 118.511C149.342 118.511 151.052 120.225 151.052 122.341C151.052 124.456 149.342 126.17 147.232 126.17C145.123 126.17 143.413 124.456 143.413 122.341Z" fill="#C4C4C4" fill-opacity="0.05"/>
<path d="M143.413 107.021C143.413 104.906 145.123 103.192 147.232 103.192C149.342 103.192 151.052 104.906 151.052 107.021C151.052 109.136 149.342 110.851 147.232 110.851C145.123 110.851 143.413 109.136 143.413 107.021Z" fill="#C4C4C4" fill-opacity="0.05"/>
<path d="M143.413 91.7022C143.413 89.5871 145.123 87.8724 147.232 87.8724C149.342 87.8724 151.052 89.5871 151.052 91.7022C151.052 93.8174 149.342 95.532 147.232 95.532C145.123 95.532 143.413 93.8174 143.413 91.7022Z" fill="#C4C4C4" fill-opacity="0.05"/>
<path d="M143.413 76.3831C143.413 74.2679 145.123 72.5533 147.232 72.5533C149.342 72.5533 151.052 74.2679 151.052 76.3831C151.052 78.4982 149.342 80.2129 147.232 80.2129C145.123 80.2129 143.413 78.4982 143.413 76.3831Z" fill="#C4C4C4" fill-opacity="0.05"/>
<path d="M143.413 61.0639C143.413 58.9488 145.123 57.2341 147.232 57.2341C149.342 57.2341 151.052 58.9488 151.052 61.0639C151.052 63.1791 149.342 64.8937 147.232 64.8937C145.123 64.8937 143.413 63.1791 143.413 61.0639Z" fill="#C4C4C4" fill-opacity="0.05"/>
<path d="M143.413 45.7448C143.413 43.6296 145.123 41.915 147.232 41.915C149.342 41.915 151.052 43.6296 151.052 45.7448C151.052 47.8599 149.342 49.5746 147.232 49.5746C145.123 49.5746 143.413 47.8599 143.413 45.7448Z" fill="#C4C4C4" fill-opacity="0.05"/>
<path d="M143.413 30.4256C143.413 28.3105 145.123 26.5958 147.232 26.5958C149.342 26.5958 151.052 28.3105 151.052 30.4256C151.052 32.5408 149.342 34.2554 147.232 34.2554C145.123 34.2554 143.413 32.5408 143.413 30.4256Z" fill="#C4C4C4" fill-opacity="0.05"/>
<path d="M143.413 15.1065C143.413 12.9913 145.123 11.2767 147.232 11.2767C149.342 11.2767 151.052 12.9913 151.052 15.1065C151.052 17.2216 149.342 18.9362 147.232 18.9362C145.123 18.9362 143.413 17.2216 143.413 15.1065Z" fill="#C4C4C4" fill-opacity="0.05"/>
<path d="M143.413 -0.212677C143.413 -2.3278 145.123 -4.04245 147.232 -4.04245C149.342 -4.04245 151.052 -2.32781 151.052 -0.212678C151.052 1.90245 149.342 3.61713 147.232 3.61713C145.123 3.61713 143.413 1.90245 143.413 -0.212677Z" fill="#C4C4C4" fill-opacity="0.05"/>
<path d="M143.413 -15.5318C143.413 -17.647 145.123 -19.3616 147.232 -19.3616C149.342 -19.3616 151.052 -17.647 151.052 -15.5318C151.052 -13.4167 149.342 -11.702 147.232 -11.702C145.123 -11.702 143.413 -13.4167 143.413 -15.5318Z" fill="#C4C4C4" fill-opacity="0.05"/>
<path d="M143.413 -30.851C143.413 -32.9661 145.123 -34.6808 147.232 -34.6808C149.342 -34.6808 151.052 -32.9661 151.052 -30.851C151.052 -28.7359 149.342 -27.0212 147.232 -27.0212C145.123 -27.0212 143.413 -28.7359 143.413 -30.851Z" fill="#C4C4C4" fill-opacity="0.05"/>
<path d="M143.413 -46.1701C143.413 -48.2853 145.123 -49.9999 147.232 -49.9999C149.342 -49.9999 151.052 -48.2853 151.052 -46.1701C151.052 -44.055 149.342 -42.3403 147.232 -42.3403C145.123 -42.3403 143.413 -44.055 143.413 -46.1701Z" fill="#C4C4C4" fill-opacity="0.05"/>
<path d="M128.135 152.979C128.135 150.864 129.845 149.149 131.954 149.149C134.064 149.149 135.774 150.864 135.774 152.979C135.774 155.094 134.064 156.809 131.954 156.809C129.845 156.809 128.135 155.094 128.135 152.979Z" fill="#C4C4C4" fill-opacity="0.05"/>
<path d="M128.135 137.66C128.135 135.545 129.845 133.83 131.954 133.83C134.064 133.83 135.774 135.545 135.774 137.66C135.774 139.775 134.064 141.489 131.954 141.489C129.845 141.489 128.135 139.775 128.135 137.66Z" fill="#C4C4C4" fill-opacity="0.05"/>
<path d="M128.135 122.341C128.135 120.225 129.845 118.511 131.954 118.511C134.064 118.511 135.774 120.225 135.774 122.341C135.774 124.456 134.064 126.17 131.954 126.17C129.845 126.17 128.135 124.456 128.135 122.341Z" fill="#C4C4C4" fill-opacity="0.05"/>
<path d="M128.135 107.021C128.135 104.906 129.845 103.192 131.954 103.192C134.064 103.192 135.774 104.906 135.774 107.021C135.774 109.136 134.064 110.851 131.954 110.851C129.845 110.851 128.135 109.136 128.135 107.021Z" fill="#C4C4C4" fill-opacity="0.05"/>
<path d="M128.135 91.7022C128.135 89.5871 129.845 87.8724 131.954 87.8724C134.064 87.8724 135.774 89.5871 135.774 91.7022C135.774 93.8174 134.064 95.532 131.954 95.532C129.845 95.532 128.135 93.8174 128.135 91.7022Z" fill="#C4C4C4" fill-opacity="0.05"/>
<path d="M128.135 76.3831C128.135 74.2679 129.845 72.5533 131.954 72.5533C134.064 72.5533 135.774 74.2679 135.774 76.3831C135.774 78.4982 134.064 80.2129 131.954 80.2129C129.845 80.2129 128.135 78.4982 128.135 76.3831Z" fill="#C4C4C4" fill-opacity="0.05"/>
<path d="M128.135 61.0639C128.135 58.9488 129.845 57.2341 131.954 57.2341C134.064 57.2341 135.774 58.9488 135.774 61.0639C135.774 63.1791 134.064 64.8937 131.954 64.8937C129.845 64.8937 128.135 63.1791 128.135 61.0639Z" fill="#C4C4C4" fill-opacity="0.05"/>
<path d="M128.135 45.7448C128.135 43.6296 129.845 41.915 131.954 41.915C134.064 41.915 135.774 43.6296 135.774 45.7448C135.774 47.8599 134.064 49.5746 131.954 49.5746C129.845 49.5746 128.135 47.8599 128.135 45.7448Z" fill="#C4C4C4" fill-opacity="0.05"/>
<path d="M128.135 30.4256C128.135 28.3105 129.845 26.5958 131.954 26.5958C134.064 26.5958 135.774 28.3105 135.774 30.4256C135.774 32.5408 134.064 34.2554 131.954 34.2554C129.845 34.2554 128.135 32.5408 128.135 30.4256Z" fill="#C4C4C4" fill-opacity="0.05"/>
<path d="M128.135 15.1065C128.135 12.9913 129.845 11.2767 131.954 11.2767C134.064 11.2767 135.774 12.9913 135.774 15.1065C135.774 17.2216 134.064 18.9362 131.954 18.9362C129.845 18.9363 128.135 17.2216 128.135 15.1065Z" fill="#C4C4C4" fill-opacity="0.05"/>
<path d="M128.135 -0.212676C128.135 -2.3278 129.845 -4.04245 131.954 -4.04245C134.064 -4.04245 135.774 -2.3278 135.774 -0.212676C135.774 1.90245 134.064 3.61713 131.954 3.61713C129.845 3.61713 128.135 1.90245 128.135 -0.212676Z" fill="#C4C4C4" fill-opacity="0.05"/>
<path d="M128.135 -15.5318C128.135 -17.647 129.845 -19.3616 131.954 -19.3616C134.064 -19.3616 135.774 -17.647 135.774 -15.5318C135.774 -13.4167 134.064 -11.702 131.954 -11.702C129.845 -11.702 128.135 -13.4167 128.135 -15.5318Z" fill="#C4C4C4" fill-opacity="0.05"/>
<path d="M128.135 -30.851C128.135 -32.9661 129.845 -34.6808 131.954 -34.6808C134.064 -34.6808 135.774 -32.9661 135.774 -30.851C135.774 -28.7359 134.064 -27.0212 131.954 -27.0212C129.845 -27.0212 128.135 -28.7359 128.135 -30.851Z" fill="#C4C4C4" fill-opacity="0.05"/>
<path d="M128.135 -46.1701C128.135 -48.2853 129.845 -49.9999 131.954 -49.9999C134.064 -49.9999 135.774 -48.2853 135.774 -46.1701C135.774 -44.055 134.064 -42.3403 131.954 -42.3403C129.845 -42.3403 128.135 -44.055 128.135 -46.1701Z" fill="#C4C4C4" fill-opacity="0.05"/>
<path d="M112.856 152.979C112.856 150.864 114.566 149.149 116.676 149.149C118.785 149.149 120.495 150.864 120.495 152.979C120.495 155.094 118.785 156.809 116.676 156.809C114.566 156.809 112.856 155.094 112.856 152.979Z" fill="#C4C4C4" fill-opacity="0.05"/>
<path d="M112.856 137.66C112.856 135.545 114.566 133.83 116.676 133.83C118.785 133.83 120.495 135.545 120.495 137.66C120.495 139.775 118.785 141.489 116.676 141.489C114.566 141.489 112.856 139.775 112.856 137.66Z" fill="#C4C4C4" fill-opacity="0.05"/>
<path d="M112.856 122.341C112.856 120.225 114.566 118.511 116.676 118.511C118.785 118.511 120.495 120.225 120.495 122.341C120.495 124.456 118.785 126.17 116.676 126.17C114.566 126.17 112.856 124.456 112.856 122.341Z" fill="#C4C4C4" fill-opacity="0.05"/>
<path d="M112.856 107.021C112.856 104.906 114.566 103.192 116.676 103.192C118.785 103.192 120.495 104.906 120.495 107.021C120.495 109.136 118.785 110.851 116.676 110.851C114.566 110.851 112.856 109.136 112.856 107.021Z" fill="#C4C4C4" fill-opacity="0.05"/>
<path d="M112.856 91.7022C112.856 89.5871 114.566 87.8724 116.676 87.8724C118.785 87.8724 120.495 89.5871 120.495 91.7022C120.495 93.8174 118.785 95.532 116.676 95.532C114.566 95.532 112.856 93.8174 112.856 91.7022Z" fill="#C4C4C4" fill-opacity="0.05"/>
<path d="M112.856 76.3831C112.856 74.2679 114.566 72.5533 116.676 72.5533C118.785 72.5533 120.495 74.2679 120.495 76.3831C120.495 78.4982 118.785 80.2129 116.676 80.2129C114.566 80.2129 112.856 78.4982 112.856 76.3831Z" fill="#C4C4C4" fill-opacity="0.05"/>
<path d="M112.856 61.0639C112.856 58.9488 114.566 57.2341 116.676 57.2341C118.785 57.2341 120.495 58.9488 120.495 61.0639C120.495 63.1791 118.785 64.8937 116.676 64.8937C114.566 64.8937 112.856 63.1791 112.856 61.0639Z" fill="#C4C4C4" fill-opacity="0.05"/>
<path d="M112.856 45.7448C112.856 43.6296 114.566 41.915 116.676 41.915C118.785 41.915 120.495 43.6296 120.495 45.7448C120.495 47.8599 118.785 49.5746 116.676 49.5746C114.566 49.5746 112.856 47.8599 112.856 45.7448Z" fill="#C4C4C4" fill-opacity="0.05"/>
<path d="M112.856 30.4256C112.856 28.3105 114.566 26.5958 116.676 26.5958C118.785 26.5958 120.495 28.3105 120.495 30.4256C120.495 32.5408 118.785 34.2554 116.676 34.2554C114.566 34.2554 112.856 32.5408 112.856 30.4256Z" fill="#C4C4C4" fill-opacity="0.05"/>
<path d="M112.856 15.1065C112.856 12.9914 114.566 11.2767 116.676 11.2767C118.785 11.2767 120.495 12.9914 120.495 15.1065C120.495 17.2216 118.785 18.9363 116.676 18.9363C114.566 18.9363 112.856 17.2216 112.856 15.1065Z" fill="#C4C4C4" fill-opacity="0.05"/>
<path d="M112.856 -0.212674C112.856 -2.3278 114.566 -4.04245 116.676 -4.04245C118.785 -4.04245 120.495 -2.3278 120.495 -0.212675C120.495 1.90245 118.785 3.61713 116.676 3.61713C114.566 3.61713 112.856 1.90245 112.856 -0.212674Z" fill="#C4C4C4" fill-opacity="0.05"/>
<path d="M112.856 -15.5318C112.856 -17.647 114.566 -19.3616 116.676 -19.3616C118.785 -19.3616 120.495 -17.647 120.495 -15.5318C120.495 -13.4167 118.785 -11.702 116.676 -11.702C114.566 -11.702 112.856 -13.4167 112.856 -15.5318Z" fill="#C4C4C4" fill-opacity="0.05"/>
<path d="M112.856 -30.851C112.856 -32.9661 114.566 -34.6808 116.676 -34.6808C118.785 -34.6808 120.495 -32.9661 120.495 -30.851C120.495 -28.7359 118.785 -27.0212 116.676 -27.0212C114.566 -27.0212 112.856 -28.7359 112.856 -30.851Z" fill="#C4C4C4" fill-opacity="0.05"/>
<path d="M112.856 -46.1701C112.856 -48.2853 114.566 -49.9999 116.676 -49.9999C118.785 -49.9999 120.495 -48.2853 120.495 -46.1701C120.495 -44.055 118.785 -42.3403 116.676 -42.3403C114.566 -42.3403 112.856 -44.055 112.856 -46.1701Z" fill="#C4C4C4" fill-opacity="0.05"/>
<path d="M97.5779 152.979C97.5779 150.864 99.288 149.149 101.398 149.149C103.507 149.149 105.217 150.864 105.217 152.979C105.217 155.094 103.507 156.809 101.398 156.809C99.288 156.809 97.5779 155.094 97.5779 152.979Z" fill="#C4C4C4" fill-opacity="0.05"/>
<path d="M97.5779 137.66C97.5779 135.545 99.288 133.83 101.398 133.83C103.507 133.83 105.217 135.545 105.217 137.66C105.217 139.775 103.507 141.489 101.398 141.489C99.288 141.489 97.5779 139.775 97.5779 137.66Z" fill="#C4C4C4" fill-opacity="0.05"/>
<path d="M97.5779 122.341C97.5779 120.225 99.288 118.511 101.398 118.511C103.507 118.511 105.217 120.225 105.217 122.341C105.217 124.456 103.507 126.17 101.398 126.17C99.288 126.17 97.5779 124.456 97.5779 122.341Z" fill="#C4C4C4" fill-opacity="0.05"/>
<path d="M97.5779 107.021C97.5779 104.906 99.288 103.192 101.398 103.192C103.507 103.192 105.217 104.906 105.217 107.021C105.217 109.136 103.507 110.851 101.398 110.851C99.288 110.851 97.5779 109.136 97.5779 107.021Z" fill="#C4C4C4" fill-opacity="0.05"/>
<path d="M97.5779 91.7022C97.5779 89.5871 99.288 87.8724 101.398 87.8724C103.507 87.8724 105.217 89.5871 105.217 91.7022C105.217 93.8174 103.507 95.532 101.398 95.532C99.288 95.532 97.5779 93.8174 97.5779 91.7022Z" fill="#C4C4C4" fill-opacity="0.05"/>
<path d="M97.5779 76.3831C97.5779 74.2679 99.288 72.5533 101.398 72.5533C103.507 72.5533 105.217 74.2679 105.217 76.3831C105.217 78.4982 103.507 80.2129 101.398 80.2129C99.288 80.2129 97.5779 78.4982 97.5779 76.3831Z" fill="#C4C4C4" fill-opacity="0.05"/>
<path d="M97.5779 61.0639C97.5779 58.9488 99.288 57.2341 101.398 57.2341C103.507 57.2341 105.217 58.9488 105.217 61.0639C105.217 63.1791 103.507 64.8937 101.398 64.8937C99.288 64.8937 97.5779 63.1791 97.5779 61.0639Z" fill="#C4C4C4" fill-opacity="0.05"/>
<path d="M97.5779 45.7448C97.5779 43.6297 99.288 41.915 101.398 41.915C103.507 41.915 105.217 43.6296 105.217 45.7448C105.217 47.8599 103.507 49.5746 101.398 49.5746C99.288 49.5746 97.5779 47.8599 97.5779 45.7448Z" fill="#C4C4C4" fill-opacity="0.05"/>
<path d="M97.5779 30.4256C97.5779 28.3105 99.288 26.5958 101.398 26.5958C103.507 26.5958 105.217 28.3105 105.217 30.4256C105.217 32.5408 103.507 34.2554 101.398 34.2554C99.288 34.2554 97.5779 32.5408 97.5779 30.4256Z" fill="#C4C4C4" fill-opacity="0.05"/>
<path d="M97.5779 15.1065C97.5779 12.9914 99.288 11.2767 101.398 11.2767C103.507 11.2767 105.217 12.9914 105.217 15.1065C105.217 17.2216 103.507 18.9363 101.398 18.9363C99.288 18.9363 97.5779 17.2216 97.5779 15.1065Z" fill="#C4C4C4" fill-opacity="0.05"/>
<path d="M97.5779 -0.212673C97.5779 -2.3278 99.288 -4.04245 101.398 -4.04245C103.507 -4.04245 105.217 -2.3278 105.217 -0.212674C105.217 1.90245 103.507 3.61713 101.398 3.61713C99.288 3.61713 97.5779 1.90245 97.5779 -0.212673Z" fill="#C4C4C4" fill-opacity="0.05"/>
<path d="M97.5779 -15.5318C97.5779 -17.647 99.288 -19.3616 101.398 -19.3616C103.507 -19.3616 105.217 -17.647 105.217 -15.5318C105.217 -13.4167 103.507 -11.702 101.398 -11.702C99.288 -11.702 97.5779 -13.4167 97.5779 -15.5318Z" fill="#C4C4C4" fill-opacity="0.05"/>
<path d="M97.5779 -30.851C97.5779 -32.9661 99.288 -34.6808 101.398 -34.6808C103.507 -34.6808 105.217 -32.9661 105.217 -30.851C105.217 -28.7359 103.507 -27.0212 101.398 -27.0212C99.288 -27.0212 97.5779 -28.7359 97.5779 -30.851Z" fill="#C4C4C4" fill-opacity="0.05"/>
<path d="M97.5779 -46.1701C97.5779 -48.2853 99.288 -49.9999 101.398 -49.9999C103.507 -49.9999 105.217 -48.2853 105.217 -46.1701C105.217 -44.055 103.507 -42.3403 101.398 -42.3403C99.288 -42.3403 97.5779 -44.055 97.5779 -46.1701Z" fill="#C4C4C4" fill-opacity="0.05"/>
<path d="M82.2996 152.979C82.2996 150.864 84.0097 149.149 86.1192 149.149C88.2287 149.149 89.9388 150.864 89.9388 152.979C89.9388 155.094 88.2287 156.809 86.1192 156.809C84.0097 156.809 82.2996 155.094 82.2996 152.979Z" fill="#C4C4C4" fill-opacity="0.05"/>
<path d="M82.2996 137.66C82.2996 135.545 84.0097 133.83 86.1192 133.83C88.2287 133.83 89.9388 135.545 89.9388 137.66C89.9388 139.775 88.2287 141.489 86.1192 141.489C84.0097 141.489 82.2996 139.775 82.2996 137.66Z" fill="#C4C4C4" fill-opacity="0.05"/>
<path d="M82.2996 122.341C82.2996 120.225 84.0097 118.511 86.1192 118.511C88.2287 118.511 89.9388 120.225 89.9388 122.341C89.9388 124.456 88.2287 126.17 86.1192 126.17C84.0097 126.17 82.2996 124.456 82.2996 122.341Z" fill="#C4C4C4" fill-opacity="0.05"/>
<path d="M82.2996 107.021C82.2996 104.906 84.0097 103.192 86.1192 103.192C88.2287 103.192 89.9388 104.906 89.9388 107.021C89.9388 109.136 88.2287 110.851 86.1192 110.851C84.0097 110.851 82.2996 109.136 82.2996 107.021Z" fill="#C4C4C4" fill-opacity="0.05"/>
<path d="M82.2996 91.7022C82.2996 89.5871 84.0097 87.8724 86.1192 87.8724C88.2287 87.8724 89.9388 89.5871 89.9388 91.7022C89.9388 93.8174 88.2287 95.532 86.1192 95.532C84.0097 95.532 82.2996 93.8174 82.2996 91.7022Z" fill="#C4C4C4" fill-opacity="0.05"/>
<path d="M82.2996 76.3831C82.2996 74.2679 84.0097 72.5533 86.1192 72.5533C88.2287 72.5533 89.9388 74.2679 89.9388 76.3831C89.9388 78.4982 88.2287 80.2129 86.1192 80.2129C84.0097 80.2129 82.2996 78.4982 82.2996 76.3831Z" fill="#C4C4C4" fill-opacity="0.05"/>
<path d="M82.2996 61.0639C82.2996 58.9488 84.0097 57.2341 86.1192 57.2341C88.2287 57.2341 89.9388 58.9488 89.9388 61.0639C89.9388 63.1791 88.2287 64.8937 86.1192 64.8937C84.0097 64.8937 82.2996 63.1791 82.2996 61.0639Z" fill="#C4C4C4" fill-opacity="0.05"/>
<path d="M82.2996 45.7448C82.2996 43.6297 84.0097 41.915 86.1192 41.915C88.2287 41.915 89.9388 43.6297 89.9388 45.7448C89.9388 47.8599 88.2287 49.5746 86.1192 49.5746C84.0097 49.5746 82.2996 47.8599 82.2996 45.7448Z" fill="#C4C4C4" fill-opacity="0.05"/>
<path d="M82.2996 30.4256C82.2996 28.3105 84.0097 26.5958 86.1192 26.5958C88.2287 26.5958 89.9388 28.3105 89.9388 30.4256C89.9388 32.5408 88.2287 34.2554 86.1192 34.2554C84.0097 34.2554 82.2996 32.5408 82.2996 30.4256Z" fill="#C4C4C4" fill-opacity="0.05"/>
<path d="M82.2996 15.1065C82.2996 12.9914 84.0097 11.2767 86.1192 11.2767C88.2287 11.2767 89.9388 12.9914 89.9388 15.1065C89.9388 17.2216 88.2287 18.9363 86.1192 18.9363C84.0097 18.9363 82.2996 17.2216 82.2996 15.1065Z" fill="#C4C4C4" fill-opacity="0.05"/>
<path d="M82.2996 -0.212672C82.2996 -2.3278 84.0097 -4.04244 86.1192 -4.04244C88.2287 -4.04244 89.9388 -2.3278 89.9388 -0.212672C89.9388 1.90246 88.2287 3.61713 86.1192 3.61713C84.0097 3.61713 82.2996 1.90246 82.2996 -0.212672Z" fill="#C4C4C4" fill-opacity="0.05"/>
<path d="M82.2996 -15.5318C82.2996 -17.647 84.0097 -19.3616 86.1192 -19.3616C88.2287 -19.3616 89.9388 -17.647 89.9388 -15.5318C89.9388 -13.4167 88.2287 -11.702 86.1192 -11.702C84.0097 -11.702 82.2996 -13.4167 82.2996 -15.5318Z" fill="#C4C4C4" fill-opacity="0.05"/>
<path d="M82.2996 -30.851C82.2996 -32.9661 84.0097 -34.6808 86.1192 -34.6808C88.2287 -34.6808 89.9388 -32.9661 89.9388 -30.851C89.9388 -28.7359 88.2287 -27.0212 86.1192 -27.0212C84.0097 -27.0212 82.2996 -28.7358 82.2996 -30.851Z" fill="#C4C4C4" fill-opacity="0.05"/>
<path d="M82.2996 -46.1701C82.2996 -48.2853 84.0097 -49.9999 86.1192 -49.9999C88.2287 -49.9999 89.9388 -48.2853 89.9388 -46.1701C89.9388 -44.055 88.2287 -42.3403 86.1192 -42.3403C84.0097 -42.3403 82.2996 -44.055 82.2996 -46.1701Z" fill="#C4C4C4" fill-opacity="0.05"/>
<path d="M67.0213 152.979C67.0213 150.864 68.7314 149.149 70.8409 149.149C72.9504 149.149 74.6605 150.864 74.6605 152.979C74.6605 155.094 72.9504 156.809 70.8409 156.809C68.7314 156.809 67.0213 155.094 67.0213 152.979Z" fill="#C4C4C4" fill-opacity="0.05"/>
<path d="M67.0213 137.66C67.0213 135.545 68.7314 133.83 70.8409 133.83C72.9504 133.83 74.6605 135.545 74.6605 137.66C74.6605 139.775 72.9504 141.489 70.8409 141.489C68.7314 141.489 67.0213 139.775 67.0213 137.66Z" fill="#C4C4C4" fill-opacity="0.05"/>
<path d="M67.0213 122.341C67.0213 120.225 68.7314 118.511 70.8409 118.511C72.9504 118.511 74.6605 120.225 74.6605 122.341C74.6605 124.456 72.9504 126.17 70.8409 126.17C68.7314 126.17 67.0213 124.456 67.0213 122.341Z" fill="#C4C4C4" fill-opacity="0.05"/>
<path d="M67.0213 107.021C67.0213 104.906 68.7314 103.192 70.8409 103.192C72.9504 103.192 74.6605 104.906 74.6605 107.021C74.6605 109.136 72.9504 110.851 70.8409 110.851C68.7314 110.851 67.0213 109.137 67.0213 107.021Z" fill="#C4C4C4" fill-opacity="0.05"/>
<path d="M67.0213 91.7022C67.0213 89.5871 68.7314 87.8724 70.8409 87.8724C72.9504 87.8724 74.6605 89.5871 74.6605 91.7022C74.6605 93.8174 72.9504 95.532 70.8409 95.532C68.7314 95.532 67.0213 93.8174 67.0213 91.7022Z" fill="#C4C4C4" fill-opacity="0.05"/>
<path d="M67.0213 76.3831C67.0213 74.2679 68.7314 72.5533 70.8409 72.5533C72.9504 72.5533 74.6605 74.2679 74.6605 76.3831C74.6605 78.4982 72.9504 80.2129 70.8409 80.2129C68.7314 80.2129 67.0213 78.4982 67.0213 76.3831Z" fill="#C4C4C4" fill-opacity="0.05"/>
<path d="M67.0213 61.0639C67.0213 58.9488 68.7314 57.2341 70.8409 57.2341C72.9504 57.2341 74.6605 58.9488 74.6605 61.0639C74.6605 63.1791 72.9504 64.8937 70.8409 64.8937C68.7314 64.8937 67.0213 63.1791 67.0213 61.0639Z" fill="#C4C4C4" fill-opacity="0.05"/>
<path d="M67.0213 45.7448C67.0213 43.6297 68.7314 41.915 70.8409 41.915C72.9504 41.915 74.6605 43.6297 74.6605 45.7448C74.6605 47.8599 72.9504 49.5746 70.8409 49.5746C68.7314 49.5746 67.0213 47.8599 67.0213 45.7448Z" fill="#C4C4C4" fill-opacity="0.05"/>
<path d="M67.0213 30.4256C67.0213 28.3105 68.7314 26.5958 70.8409 26.5958C72.9504 26.5958 74.6605 28.3105 74.6605 30.4256C74.6605 32.5408 72.9504 34.2554 70.8409 34.2554C68.7314 34.2554 67.0213 32.5408 67.0213 30.4256Z" fill="#C4C4C4" fill-opacity="0.05"/>
<path d="M67.0213 15.1065C67.0213 12.9914 68.7314 11.2767 70.8409 11.2767C72.9504 11.2767 74.6604 12.9914 74.6604 15.1065C74.6604 17.2216 72.9504 18.9363 70.8409 18.9363C68.7314 18.9363 67.0213 17.2216 67.0213 15.1065Z" fill="#C4C4C4" fill-opacity="0.05"/>
<path d="M67.0213 -0.21267C67.0213 -2.3278 68.7314 -4.04244 70.8409 -4.04244C72.9504 -4.04244 74.6604 -2.3278 74.6604 -0.212671C74.6604 1.90246 72.9504 3.61713 70.8409 3.61713C68.7314 3.61713 67.0213 1.90246 67.0213 -0.21267Z" fill="#C4C4C4" fill-opacity="0.05"/>
<path d="M67.0213 -15.5318C67.0213 -17.647 68.7314 -19.3616 70.8409 -19.3616C72.9504 -19.3616 74.6604 -17.647 74.6604 -15.5318C74.6604 -13.4167 72.9504 -11.702 70.8409 -11.702C68.7314 -11.702 67.0213 -13.4167 67.0213 -15.5318Z" fill="#C4C4C4" fill-opacity="0.05"/>
<path d="M67.0213 -30.851C67.0213 -32.9661 68.7314 -34.6807 70.8409 -34.6807C72.9504 -34.6807 74.6604 -32.9661 74.6604 -30.851C74.6604 -28.7358 72.9504 -27.0212 70.8409 -27.0212C68.7314 -27.0212 67.0213 -28.7358 67.0213 -30.851Z" fill="#C4C4C4" fill-opacity="0.05"/>
<path d="M67.0213 -46.1701C67.0213 -48.2853 68.7314 -49.9999 70.8409 -49.9999C72.9504 -49.9999 74.6604 -48.2853 74.6604 -46.1701C74.6604 -44.055 72.9504 -42.3403 70.8409 -42.3403C68.7314 -42.3403 67.0213 -44.055 67.0213 -46.1701Z" fill="#C4C4C4" fill-opacity="0.05"/>
<path d="M51.743 152.979C51.743 150.864 53.4531 149.149 55.5626 149.149C57.6721 149.149 59.3822 150.864 59.3822 152.979C59.3822 155.094 57.6721 156.809 55.5626 156.809C53.4531 156.809 51.743 155.094 51.743 152.979Z" fill="#C4C4C4" fill-opacity="0.05"/>
<path d="M51.743 137.66C51.743 135.545 53.4531 133.83 55.5626 133.83C57.6721 133.83 59.3822 135.545 59.3822 137.66C59.3822 139.775 57.6721 141.489 55.5626 141.489C53.4531 141.489 51.743 139.775 51.743 137.66Z" fill="#C4C4C4" fill-opacity="0.05"/>
<path d="M51.743 122.341C51.743 120.225 53.4531 118.511 55.5626 118.511C57.6721 118.511 59.3822 120.225 59.3822 122.341C59.3822 124.456 57.6721 126.17 55.5626 126.17C53.4531 126.17 51.743 124.456 51.743 122.341Z" fill="#C4C4C4" fill-opacity="0.05"/>
<path d="M51.743 107.021C51.743 104.906 53.4531 103.192 55.5626 103.192C57.6721 103.192 59.3822 104.906 59.3822 107.021C59.3822 109.137 57.6721 110.851 55.5626 110.851C53.4531 110.851 51.743 109.137 51.743 107.021Z" fill="#C4C4C4" fill-opacity="0.05"/>
<path d="M51.743 91.7022C51.743 89.5871 53.4531 87.8724 55.5626 87.8724C57.6721 87.8724 59.3822 89.5871 59.3822 91.7022C59.3822 93.8174 57.6721 95.532 55.5626 95.532C53.4531 95.532 51.743 93.8174 51.743 91.7022Z" fill="#C4C4C4" fill-opacity="0.05"/>
<path d="M51.743 76.3831C51.743 74.2679 53.4531 72.5533 55.5626 72.5533C57.6721 72.5533 59.3822 74.2679 59.3822 76.3831C59.3822 78.4982 57.6721 80.2129 55.5626 80.2129C53.4531 80.2129 51.743 78.4982 51.743 76.3831Z" fill="#C4C4C4" fill-opacity="0.05"/>
<path d="M51.743 61.0639C51.743 58.9488 53.4531 57.2341 55.5626 57.2341C57.672 57.2341 59.3822 58.9488 59.3822 61.0639C59.3822 63.1791 57.6721 64.8937 55.5626 64.8937C53.4531 64.8937 51.743 63.1791 51.743 61.0639Z" fill="#C4C4C4" fill-opacity="0.05"/>
<path d="M51.743 45.7448C51.743 43.6297 53.4531 41.915 55.5626 41.915C57.672 41.915 59.3822 43.6297 59.3822 45.7448C59.3822 47.8599 57.672 49.5746 55.5626 49.5746C53.4531 49.5746 51.743 47.8599 51.743 45.7448Z" fill="#C4C4C4" fill-opacity="0.05"/>
<path d="M51.743 30.4256C51.743 28.3105 53.4531 26.5958 55.5625 26.5958C57.672 26.5958 59.3822 28.3105 59.3822 30.4256C59.3822 32.5408 57.672 34.2554 55.5626 34.2554C53.4531 34.2554 51.743 32.5408 51.743 30.4256Z" fill="#C4C4C4" fill-opacity="0.05"/>
<path d="M51.743 15.1065C51.743 12.9914 53.4531 11.2767 55.5625 11.2767C57.672 11.2767 59.3822 12.9914 59.3822 15.1065C59.3822 17.2216 57.672 18.9363 55.5625 18.9363C53.4531 18.9363 51.743 17.2216 51.743 15.1065Z" fill="#C4C4C4" fill-opacity="0.05"/>
<path d="M51.743 -0.212669C51.743 -2.3278 53.453 -4.04244 55.5625 -4.04244C57.672 -4.04244 59.3822 -2.3278 59.3822 -0.212669C59.3822 1.90246 57.672 3.61713 55.5625 3.61713C53.4531 3.61713 51.743 1.90246 51.743 -0.212669Z" fill="#C4C4C4" fill-opacity="0.05"/>
<path d="M51.743 -15.5318C51.743 -17.6469 53.453 -19.3616 55.5625 -19.3616C57.672 -19.3616 59.3822 -17.6469 59.3822 -15.5318C59.3822 -13.4167 57.672 -11.702 55.5625 -11.702C53.453 -11.702 51.743 -13.4167 51.743 -15.5318Z" fill="#C4C4C4" fill-opacity="0.05"/>
<path d="M51.743 -30.851C51.743 -32.9661 53.453 -34.6807 55.5625 -34.6807C57.672 -34.6807 59.3822 -32.9661 59.3822 -30.851C59.3822 -28.7358 57.672 -27.0212 55.5625 -27.0212C53.453 -27.0212 51.743 -28.7358 51.743 -30.851Z" fill="#C4C4C4" fill-opacity="0.05"/>
<path d="M51.743 -46.1701C51.743 -48.2853 53.453 -49.9999 55.5625 -49.9999C57.672 -49.9999 59.3822 -48.2853 59.3822 -46.1701C59.3822 -44.055 57.672 -42.3403 55.5625 -42.3403C53.453 -42.3403 51.743 -44.055 51.743 -46.1701Z" fill="#C4C4C4" fill-opacity="0.05"/>
<path d="M36.4647 152.979C36.4647 150.864 38.1748 149.149 40.2843 149.149C42.3938 149.149 44.1038 150.864 44.1038 152.979C44.1038 155.094 42.3938 156.809 40.2843 156.809C38.1748 156.809 36.4647 155.094 36.4647 152.979Z" fill="#C4C4C4" fill-opacity="0.05"/>
<path d="M36.4647 137.66C36.4647 135.545 38.1748 133.83 40.2843 133.83C42.3938 133.83 44.1038 135.545 44.1038 137.66C44.1038 139.775 42.3938 141.489 40.2843 141.489C38.1748 141.489 36.4647 139.775 36.4647 137.66Z" fill="#C4C4C4" fill-opacity="0.05"/>
<path d="M36.4647 122.341C36.4647 120.225 38.1748 118.511 40.2843 118.511C42.3938 118.511 44.1038 120.225 44.1038 122.341C44.1038 124.456 42.3938 126.17 40.2843 126.17C38.1748 126.17 36.4647 124.456 36.4647 122.341Z" fill="#C4C4C4" fill-opacity="0.05"/>
<path d="M36.4647 107.021C36.4647 104.906 38.1748 103.192 40.2843 103.192C42.3938 103.192 44.1038 104.906 44.1038 107.021C44.1038 109.137 42.3938 110.851 40.2843 110.851C38.1748 110.851 36.4647 109.137 36.4647 107.021Z" fill="#C4C4C4" fill-opacity="0.05"/>
<path d="M36.4647 91.7022C36.4647 89.5871 38.1748 87.8724 40.2843 87.8724C42.3938 87.8724 44.1038 89.5871 44.1038 91.7022C44.1038 93.8174 42.3938 95.532 40.2843 95.532C38.1748 95.532 36.4647 93.8174 36.4647 91.7022Z" fill="#C4C4C4" fill-opacity="0.05"/>
<path d="M36.4647 76.3831C36.4647 74.2679 38.1748 72.5533 40.2843 72.5533C42.3938 72.5533 44.1038 74.2679 44.1038 76.3831C44.1038 78.4982 42.3938 80.2129 40.2843 80.2129C38.1748 80.2129 36.4647 78.4982 36.4647 76.3831Z" fill="#C4C4C4" fill-opacity="0.05"/>
<path d="M36.4647 61.0639C36.4647 58.9488 38.1748 57.2341 40.2843 57.2341C42.3938 57.2341 44.1038 58.9488 44.1038 61.0639C44.1038 63.1791 42.3938 64.8937 40.2843 64.8937C38.1748 64.8937 36.4647 63.1791 36.4647 61.0639Z" fill="#C4C4C4" fill-opacity="0.05"/>
<path d="M36.4647 45.7448C36.4647 43.6297 38.1748 41.915 40.2843 41.915C42.3938 41.915 44.1038 43.6297 44.1038 45.7448C44.1038 47.8599 42.3938 49.5746 40.2843 49.5746C38.1748 49.5746 36.4647 47.8599 36.4647 45.7448Z" fill="#C4C4C4" fill-opacity="0.05"/>
<path d="M36.4647 30.4256C36.4647 28.3105 38.1748 26.5958 40.2843 26.5958C42.3938 26.5958 44.1038 28.3105 44.1038 30.4256C44.1038 32.5408 42.3938 34.2554 40.2843 34.2554C38.1748 34.2554 36.4647 32.5408 36.4647 30.4256Z" fill="#C4C4C4" fill-opacity="0.05"/>
<path d="M36.4647 15.1065C36.4647 12.9914 38.1748 11.2767 40.2843 11.2767C42.3938 11.2767 44.1038 12.9914 44.1038 15.1065C44.1038 17.2216 42.3938 18.9363 40.2843 18.9363C38.1748 18.9363 36.4647 17.2216 36.4647 15.1065Z" fill="#C4C4C4" fill-opacity="0.05"/>
<path d="M36.4647 -0.212667C36.4647 -2.3278 38.1748 -4.04244 40.2843 -4.04244C42.3938 -4.04244 44.1038 -2.3278 44.1038 -0.212668C44.1038 1.90246 42.3938 3.61714 40.2843 3.61714C38.1748 3.61714 36.4647 1.90246 36.4647 -0.212667Z" fill="#C4C4C4" fill-opacity="0.05"/>
<path d="M36.4647 -15.5318C36.4647 -17.6469 38.1748 -19.3616 40.2843 -19.3616C42.3938 -19.3616 44.1038 -17.6469 44.1038 -15.5318C44.1038 -13.4167 42.3938 -11.702 40.2843 -11.702C38.1748 -11.702 36.4647 -13.4167 36.4647 -15.5318Z" fill="#C4C4C4" fill-opacity="0.05"/>
<path d="M36.4647 -30.851C36.4647 -32.9661 38.1748 -34.6807 40.2843 -34.6807C42.3938 -34.6807 44.1038 -32.9661 44.1038 -30.851C44.1038 -28.7358 42.3938 -27.0212 40.2843 -27.0212C38.1748 -27.0212 36.4647 -28.7358 36.4647 -30.851Z" fill="#C4C4C4" fill-opacity="0.05"/>
<path d="M36.4647 -46.1701C36.4647 -48.2853 38.1748 -49.9999 40.2843 -49.9999C42.3938 -49.9999 44.1038 -48.2853 44.1038 -46.1701C44.1038 -44.055 42.3938 -42.3403 40.2843 -42.3403C38.1748 -42.3403 36.4647 -44.055 36.4647 -46.1701Z" fill="#C4C4C4" fill-opacity="0.05"/>
<path d="M21.1863 152.979C21.1863 150.864 22.8965 149.149 25.006 149.149C27.1154 149.149 28.8255 150.864 28.8255 152.979C28.8255 155.094 27.1154 156.809 25.006 156.809C22.8965 156.809 21.1863 155.094 21.1863 152.979Z" fill="#C4C4C4" fill-opacity="0.05"/>
<path d="M21.1863 137.66C21.1863 135.545 22.8965 133.83 25.0059 133.83C27.1154 133.83 28.8255 135.545 28.8255 137.66C28.8255 139.775 27.1154 141.489 25.0059 141.489C22.8965 141.489 21.1863 139.775 21.1863 137.66Z" fill="#C4C4C4" fill-opacity="0.05"/>
<path d="M21.1863 122.341C21.1863 120.225 22.8965 118.511 25.0059 118.511C27.1154 118.511 28.8255 120.225 28.8255 122.341C28.8255 124.456 27.1154 126.17 25.0059 126.17C22.8965 126.17 21.1863 124.456 21.1863 122.341Z" fill="#C4C4C4" fill-opacity="0.05"/>
<path d="M21.1863 107.021C21.1863 104.906 22.8964 103.192 25.0059 103.192C27.1154 103.192 28.8255 104.906 28.8255 107.021C28.8255 109.137 27.1154 110.851 25.0059 110.851C22.8964 110.851 21.1863 109.137 21.1863 107.021Z" fill="#C4C4C4" fill-opacity="0.05"/>
<path d="M21.1863 91.7022C21.1863 89.5871 22.8964 87.8724 25.0059 87.8724C27.1154 87.8724 28.8255 89.5871 28.8255 91.7022C28.8255 93.8174 27.1154 95.532 25.0059 95.532C22.8964 95.532 21.1863 93.8174 21.1863 91.7022Z" fill="#C4C4C4" fill-opacity="0.05"/>
<path d="M21.1863 76.3831C21.1863 74.2679 22.8964 72.5533 25.0059 72.5533C27.1154 72.5533 28.8255 74.2679 28.8255 76.3831C28.8255 78.4982 27.1154 80.2129 25.0059 80.2129C22.8964 80.2129 21.1863 78.4982 21.1863 76.3831Z" fill="#C4C4C4" fill-opacity="0.05"/>
<path d="M21.1863 61.0639C21.1863 58.9488 22.8964 57.2341 25.0059 57.2341C27.1154 57.2341 28.8255 58.9488 28.8255 61.0639C28.8255 63.1791 27.1154 64.8937 25.0059 64.8937C22.8964 64.8937 21.1863 63.1791 21.1863 61.0639Z" fill="#C4C4C4" fill-opacity="0.05"/>
<path d="M21.1863 45.7448C21.1863 43.6297 22.8964 41.915 25.0059 41.915C27.1154 41.915 28.8255 43.6297 28.8255 45.7448C28.8255 47.8599 27.1154 49.5746 25.0059 49.5746C22.8964 49.5746 21.1863 47.8599 21.1863 45.7448Z" fill="#C4C4C4" fill-opacity="0.05"/>
<path d="M21.1863 30.4256C21.1863 28.3105 22.8964 26.5958 25.0059 26.5958C27.1154 26.5958 28.8255 28.3105 28.8255 30.4256C28.8255 32.5408 27.1154 34.2554 25.0059 34.2554C22.8964 34.2554 21.1863 32.5408 21.1863 30.4256Z" fill="#C4C4C4" fill-opacity="0.05"/>
<path d="M21.1863 15.1065C21.1863 12.9914 22.8964 11.2767 25.0059 11.2767C27.1154 11.2767 28.8255 12.9914 28.8255 15.1065C28.8255 17.2216 27.1154 18.9363 25.0059 18.9363C22.8964 18.9363 21.1863 17.2216 21.1863 15.1065Z" fill="#C4C4C4" fill-opacity="0.05"/>
<path d="M21.1863 -0.212666C21.1863 -2.32779 22.8964 -4.04244 25.0059 -4.04244C27.1154 -4.04244 28.8255 -2.32779 28.8255 -0.212667C28.8255 1.90246 27.1154 3.61714 25.0059 3.61714C22.8964 3.61714 21.1863 1.90246 21.1863 -0.212666Z" fill="#C4C4C4" fill-opacity="0.05"/>
<path d="M21.1863 -15.5318C21.1863 -17.6469 22.8964 -19.3616 25.0059 -19.3616C27.1154 -19.3616 28.8255 -17.6469 28.8255 -15.5318C28.8255 -13.4167 27.1154 -11.702 25.0059 -11.702C22.8964 -11.702 21.1863 -13.4167 21.1863 -15.5318Z" fill="#C4C4C4" fill-opacity="0.05"/>
<path d="M21.1863 -30.851C21.1863 -32.9661 22.8964 -34.6807 25.0059 -34.6807C27.1154 -34.6807 28.8255 -32.9661 28.8255 -30.851C28.8255 -28.7358 27.1154 -27.0212 25.0059 -27.0212C22.8964 -27.0212 21.1863 -28.7358 21.1863 -30.851Z" fill="#C4C4C4" fill-opacity="0.05"/>
<path d="M21.1863 -46.1701C21.1863 -48.2853 22.8964 -49.9999 25.0059 -49.9999C27.1154 -49.9999 28.8255 -48.2853 28.8255 -46.1701C28.8255 -44.055 27.1154 -42.3403 25.0059 -42.3403C22.8964 -42.3403 21.1863 -44.055 21.1863 -46.1701Z" fill="#C4C4C4" fill-opacity="0.05"/>
<path d="M5.90805 152.979C5.90805 150.864 7.61813 149.149 9.72763 149.149C11.8371 149.149 13.5472 150.864 13.5472 152.979C13.5472 155.094 11.8371 156.809 9.72763 156.809C7.61813 156.809 5.90805 155.094 5.90805 152.979Z" fill="#C4C4C4" fill-opacity="0.05"/>
<path d="M5.90805 137.66C5.90805 135.545 7.61813 133.83 9.72763 133.83C11.8371 133.83 13.5472 135.545 13.5472 137.66C13.5472 139.775 11.8371 141.489 9.72763 141.489C7.61813 141.489 5.90805 139.775 5.90805 137.66Z" fill="#C4C4C4" fill-opacity="0.05"/>
<path d="M5.90805 122.341C5.90805 120.225 7.61813 118.511 9.72763 118.511C11.8371 118.511 13.5472 120.225 13.5472 122.341C13.5472 124.456 11.8371 126.17 9.72763 126.17C7.61813 126.17 5.90805 124.456 5.90805 122.341Z" fill="#C4C4C4" fill-opacity="0.05"/>
<path d="M5.90805 107.021C5.90805 104.906 7.61813 103.192 9.72763 103.192C11.8371 103.192 13.5472 104.906 13.5472 107.021C13.5472 109.137 11.8371 110.851 9.72763 110.851C7.61813 110.851 5.90805 109.137 5.90805 107.021Z" fill="#C4C4C4" fill-opacity="0.05"/>
<path d="M5.90804 91.7022C5.90804 89.5871 7.61813 87.8724 9.72762 87.8724C11.8371 87.8724 13.5472 89.5871 13.5472 91.7022C13.5472 93.8174 11.8371 95.532 9.72763 95.532C7.61813 95.532 5.90805 93.8174 5.90804 91.7022Z" fill="#C4C4C4" fill-opacity="0.05"/>
<path d="M5.90804 76.3831C5.90804 74.2679 7.61813 72.5533 9.72762 72.5533C11.8371 72.5533 13.5472 74.2679 13.5472 76.3831C13.5472 78.4982 11.8371 80.2129 9.72762 80.2129C7.61813 80.2129 5.90804 78.4982 5.90804 76.3831Z" fill="#C4C4C4" fill-opacity="0.05"/>
<path d="M5.90804 61.0639C5.90804 58.9488 7.61812 57.2341 9.72762 57.2341C11.8371 57.2341 13.5472 58.9488 13.5472 61.0639C13.5472 63.1791 11.8371 64.8937 9.72762 64.8937C7.61813 64.8937 5.90804 63.1791 5.90804 61.0639Z" fill="#C4C4C4" fill-opacity="0.05"/>
<path d="M5.90804 45.7448C5.90804 43.6297 7.61812 41.915 9.72762 41.915C11.8371 41.915 13.5472 43.6297 13.5472 45.7448C13.5472 47.8599 11.8371 49.5746 9.72762 49.5746C7.61812 49.5746 5.90804 47.8599 5.90804 45.7448Z" fill="#C4C4C4" fill-opacity="0.05"/>
<path d="M5.90804 30.4256C5.90804 28.3105 7.61812 26.5958 9.72762 26.5958C11.8371 26.5958 13.5472 28.3105 13.5472 30.4256C13.5472 32.5408 11.8371 34.2554 9.72762 34.2554C7.61812 34.2554 5.90804 32.5408 5.90804 30.4256Z" fill="#C4C4C4" fill-opacity="0.05"/>
<path d="M5.90804 15.1065C5.90804 12.9914 7.61812 11.2767 9.72762 11.2767C11.8371 11.2767 13.5472 12.9914 13.5472 15.1065C13.5472 17.2216 11.8371 18.9363 9.72762 18.9363C7.61812 18.9363 5.90804 17.2216 5.90804 15.1065Z" fill="#C4C4C4" fill-opacity="0.05"/>
<path d="M5.90804 -0.212665C5.90804 -2.32779 7.61812 -4.04244 9.72762 -4.04244C11.8371 -4.04244 13.5472 -2.32779 13.5472 -0.212665C13.5472 1.90246 11.8371 3.61714 9.72762 3.61714C7.61812 3.61714 5.90804 1.90246 5.90804 -0.212665Z" fill="#C4C4C4" fill-opacity="0.05"/>
<path d="M5.90804 -15.5318C5.90804 -17.6469 7.61812 -19.3616 9.72762 -19.3616C11.8371 -19.3616 13.5472 -17.6469 13.5472 -15.5318C13.5472 -13.4167 11.8371 -11.702 9.72762 -11.702C7.61812 -11.702 5.90804 -13.4167 5.90804 -15.5318Z" fill="#C4C4C4" fill-opacity="0.05"/>
<path d="M5.90803 -30.851C5.90803 -32.9661 7.61812 -34.6807 9.72761 -34.6807C11.8371 -34.6807 13.5472 -32.9661 13.5472 -30.851C13.5472 -28.7358 11.8371 -27.0212 9.72761 -27.0212C7.61812 -27.0212 5.90803 -28.7358 5.90803 -30.851Z" fill="#C4C4C4" fill-opacity="0.05"/>
<path d="M5.90803 -46.1701C5.90803 -48.2853 7.61812 -49.9999 9.72761 -49.9999C11.8371 -49.9999 13.5472 -48.2853 13.5472 -46.1701C13.5472 -44.055 11.8371 -42.3403 9.72761 -42.3403C7.61812 -42.3403 5.90803 -44.055 5.90803 -46.1701Z" fill="#C4C4C4" fill-opacity="0.05"/>
<path d="M-9.37027 152.979C-9.37027 150.864 -7.66019 149.149 -5.55069 149.149C-3.44119 149.149 -1.73111 150.864 -1.73111 152.979C-1.73111 155.094 -3.44119 156.809 -5.55069 156.809C-7.66019 156.809 -9.37027 155.094 -9.37027 152.979Z" fill="#C4C4C4" fill-opacity="0.05"/>
<path d="M-9.37027 137.66C-9.37027 135.545 -7.66019 133.83 -5.55069 133.83C-3.44119 133.83 -1.73111 135.545 -1.73111 137.66C-1.73111 139.775 -3.44119 141.489 -5.55069 141.489C-7.66019 141.489 -9.37027 139.775 -9.37027 137.66Z" fill="#C4C4C4" fill-opacity="0.05"/>
<path d="M-9.37027 122.341C-9.37027 120.225 -7.66019 118.511 -5.55069 118.511C-3.4412 118.511 -1.73111 120.225 -1.73111 122.341C-1.73111 124.456 -3.4412 126.17 -5.55069 126.17C-7.66019 126.17 -9.37027 124.456 -9.37027 122.341Z" fill="#C4C4C4" fill-opacity="0.05"/>
<path d="M-9.37027 107.021C-9.37027 104.906 -7.66019 103.192 -5.55069 103.192C-3.4412 103.192 -1.73111 104.906 -1.73111 107.021C-1.73111 109.137 -3.4412 110.851 -5.55069 110.851C-7.66019 110.851 -9.37027 109.137 -9.37027 107.021Z" fill="#C4C4C4" fill-opacity="0.05"/>
<path d="M-9.37028 91.7022C-9.37028 89.5871 -7.66019 87.8724 -5.5507 87.8724C-3.4412 87.8724 -1.73112 89.5871 -1.73112 91.7022C-1.73112 93.8174 -3.4412 95.532 -5.5507 95.532C-7.66019 95.532 -9.37028 93.8174 -9.37028 91.7022Z" fill="#C4C4C4" fill-opacity="0.05"/>
<path d="M-9.37028 76.3831C-9.37028 74.268 -7.66019 72.5533 -5.5507 72.5533C-3.4412 72.5533 -1.73112 74.2679 -1.73112 76.3831C-1.73112 78.4982 -3.4412 80.2129 -5.5507 80.2129C-7.66019 80.2129 -9.37028 78.4982 -9.37028 76.3831Z" fill="#C4C4C4" fill-opacity="0.05"/>
<path d="M-9.37028 61.0639C-9.37028 58.9488 -7.6602 57.2341 -5.5507 57.2341C-3.4412 57.2341 -1.73112 58.9488 -1.73112 61.0639C-1.73112 63.1791 -3.4412 64.8937 -5.5507 64.8937C-7.66019 64.8937 -9.37028 63.1791 -9.37028 61.0639Z" fill="#C4C4C4" fill-opacity="0.05"/>
<path d="M-9.37028 45.7448C-9.37028 43.6297 -7.6602 41.915 -5.5507 41.915C-3.4412 41.915 -1.73112 43.6297 -1.73112 45.7448C-1.73112 47.8599 -3.4412 49.5746 -5.5507 49.5746C-7.6602 49.5746 -9.37028 47.8599 -9.37028 45.7448Z" fill="#C4C4C4" fill-opacity="0.05"/>
<path d="M-9.37028 30.4256C-9.37028 28.3105 -7.6602 26.5958 -5.5507 26.5958C-3.4412 26.5958 -1.73112 28.3105 -1.73112 30.4256C-1.73112 32.5408 -3.4412 34.2554 -5.5507 34.2554C-7.6602 34.2554 -9.37028 32.5408 -9.37028 30.4256Z" fill="#C4C4C4" fill-opacity="0.05"/>
<path d="M-9.37028 15.1065C-9.37028 12.9914 -7.6602 11.2767 -5.5507 11.2767C-3.44121 11.2767 -1.73112 12.9914 -1.73112 15.1065C-1.73112 17.2216 -3.4412 18.9363 -5.5507 18.9363C-7.6602 18.9363 -9.37028 17.2216 -9.37028 15.1065Z" fill="#C4C4C4" fill-opacity="0.05"/>
<path d="M-9.37028 -0.212663C-9.37028 -2.32779 -7.6602 -4.04244 -5.5507 -4.04244C-3.44121 -4.04244 -1.73112 -2.32779 -1.73112 -0.212664C-1.73112 1.90246 -3.44121 3.61714 -5.5507 3.61714C-7.6602 3.61714 -9.37028 1.90246 -9.37028 -0.212663Z" fill="#C4C4C4" fill-opacity="0.05"/>
<path d="M-9.37028 -15.5318C-9.37028 -17.6469 -7.6602 -19.3616 -5.55071 -19.3616C-3.44121 -19.3616 -1.73112 -17.6469 -1.73112 -15.5318C-1.73112 -13.4167 -3.44121 -11.702 -5.5507 -11.702C-7.6602 -11.702 -9.37028 -13.4167 -9.37028 -15.5318Z" fill="#C4C4C4" fill-opacity="0.05"/>
<path d="M-9.37029 -30.851C-9.37029 -32.9661 -7.6602 -34.6807 -5.55071 -34.6807C-3.44121 -34.6807 -1.73113 -32.9661 -1.73113 -30.851C-1.73113 -28.7358 -3.44121 -27.0212 -5.55071 -27.0212C-7.6602 -27.0212 -9.37029 -28.7358 -9.37029 -30.851Z" fill="#C4C4C4" fill-opacity="0.05"/>
<path d="M-9.37029 -46.1701C-9.37029 -48.2852 -7.6602 -49.9999 -5.55071 -49.9999C-3.44121 -49.9999 -1.73113 -48.2853 -1.73113 -46.1701C-1.73113 -44.055 -3.44121 -42.3403 -5.55071 -42.3403C-7.6602 -42.3403 -9.37029 -44.055 -9.37029 -46.1701Z" fill="#C4C4C4" fill-opacity="0.05"/>
<path d="M-24.6486 152.979C-24.6486 150.864 -22.9385 149.149 -20.829 149.149C-18.7195 149.149 -17.0094 150.864 -17.0094 152.979C-17.0094 155.094 -18.7195 156.809 -20.829 156.809C-22.9385 156.809 -24.6486 155.094 -24.6486 152.979Z" fill="#C4C4C4" fill-opacity="0.05"/>
<path d="M-24.6486 137.66C-24.6486 135.545 -22.9385 133.83 -20.829 133.83C-18.7195 133.83 -17.0094 135.545 -17.0094 137.66C-17.0094 139.775 -18.7195 141.489 -20.829 141.489C-22.9385 141.489 -24.6486 139.775 -24.6486 137.66Z" fill="#C4C4C4" fill-opacity="0.05"/>
<path d="M-24.6486 122.341C-24.6486 120.225 -22.9385 118.511 -20.829 118.511C-18.7195 118.511 -17.0094 120.225 -17.0094 122.341C-17.0094 124.456 -18.7195 126.17 -20.829 126.17C-22.9385 126.17 -24.6486 124.456 -24.6486 122.341Z" fill="#C4C4C4" fill-opacity="0.05"/>
<path d="M-24.6486 107.021C-24.6486 104.906 -22.9385 103.192 -20.829 103.192C-18.7195 103.192 -17.0094 104.906 -17.0094 107.021C-17.0094 109.137 -18.7195 110.851 -20.829 110.851C-22.9385 110.851 -24.6486 109.137 -24.6486 107.021Z" fill="#C4C4C4" fill-opacity="0.05"/>
<path d="M-24.6486 91.7022C-24.6486 89.5871 -22.9385 87.8725 -20.829 87.8725C-18.7195 87.8725 -17.0094 89.5871 -17.0094 91.7022C-17.0094 93.8174 -18.7195 95.532 -20.829 95.532C-22.9385 95.532 -24.6486 93.8174 -24.6486 91.7022Z" fill="#C4C4C4" fill-opacity="0.05"/>
<path d="M-24.6486 76.3831C-24.6486 74.268 -22.9385 72.5533 -20.829 72.5533C-18.7195 72.5533 -17.0094 74.268 -17.0094 76.3831C-17.0094 78.4982 -18.7195 80.2129 -20.829 80.2129C-22.9385 80.2129 -24.6486 78.4982 -24.6486 76.3831Z" fill="#C4C4C4" fill-opacity="0.05"/>
<path d="M-24.6486 61.0639C-24.6486 58.9488 -22.9385 57.2341 -20.829 57.2341C-18.7195 57.2341 -17.0094 58.9488 -17.0094 61.0639C-17.0094 63.1791 -18.7195 64.8937 -20.829 64.8937C-22.9385 64.8937 -24.6486 63.1791 -24.6486 61.0639Z" fill="#C4C4C4" fill-opacity="0.05"/>
<path d="M-24.6486 45.7448C-24.6486 43.6297 -22.9385 41.915 -20.829 41.915C-18.7195 41.915 -17.0094 43.6297 -17.0094 45.7448C-17.0094 47.8599 -18.7195 49.5746 -20.829 49.5746C-22.9385 49.5746 -24.6486 47.8599 -24.6486 45.7448Z" fill="#C4C4C4" fill-opacity="0.05"/>
<path d="M-24.6486 30.4256C-24.6486 28.3105 -22.9385 26.5958 -20.829 26.5958C-18.7195 26.5958 -17.0094 28.3105 -17.0094 30.4256C-17.0094 32.5408 -18.7195 34.2554 -20.829 34.2554C-22.9385 34.2554 -24.6486 32.5408 -24.6486 30.4256Z" fill="#C4C4C4" fill-opacity="0.05"/>
<path d="M-24.6486 15.1065C-24.6486 12.9914 -22.9385 11.2767 -20.829 11.2767C-18.7195 11.2767 -17.0094 12.9914 -17.0094 15.1065C-17.0094 17.2216 -18.7195 18.9363 -20.829 18.9363C-22.9385 18.9363 -24.6486 17.2216 -24.6486 15.1065Z" fill="#C4C4C4" fill-opacity="0.05"/>
<path d="M-24.6486 -0.212662C-24.6486 -2.32779 -22.9385 -4.04244 -20.829 -4.04244C-18.7195 -4.04244 -17.0094 -2.32779 -17.0094 -0.212663C-17.0094 1.90246 -18.7195 3.61714 -20.829 3.61714C-22.9385 3.61714 -24.6486 1.90247 -24.6486 -0.212662Z" fill="#C4C4C4" fill-opacity="0.05"/>
<path d="M-24.6486 -15.5318C-24.6486 -17.6469 -22.9385 -19.3616 -20.829 -19.3616C-18.7195 -19.3616 -17.0094 -17.6469 -17.0094 -15.5318C-17.0094 -13.4167 -18.7195 -11.702 -20.829 -11.702C-22.9385 -11.702 -24.6486 -13.4167 -24.6486 -15.5318Z" fill="#C4C4C4" fill-opacity="0.05"/>
<path d="M-24.6486 -30.851C-24.6486 -32.9661 -22.9385 -34.6807 -20.829 -34.6807C-18.7195 -34.6807 -17.0094 -32.9661 -17.0094 -30.851C-17.0094 -28.7358 -18.7195 -27.0212 -20.829 -27.0212C-22.9385 -27.0212 -24.6486 -28.7358 -24.6486 -30.851Z" fill="#C4C4C4" fill-opacity="0.05"/>
<path d="M-24.6486 -46.1701C-24.6486 -48.2852 -22.9385 -49.9999 -20.829 -49.9999C-18.7195 -49.9999 -17.0094 -48.2852 -17.0094 -46.1701C-17.0094 -44.055 -18.7195 -42.3403 -20.829 -42.3403C-22.9385 -42.3403 -24.6486 -44.055 -24.6486 -46.1701Z" fill="#C4C4C4" fill-opacity="0.05"/>
<path d="M-39.9269 152.979C-39.9269 150.864 -38.2168 149.149 -36.1073 149.149C-33.9978 149.149 -32.2878 150.864 -32.2878 152.979C-32.2878 155.094 -33.9978 156.809 -36.1073 156.809C-38.2168 156.809 -39.9269 155.094 -39.9269 152.979Z" fill="#C4C4C4" fill-opacity="0.05"/>
<path d="M-39.9269 137.66C-39.9269 135.545 -38.2168 133.83 -36.1073 133.83C-33.9978 133.83 -32.2878 135.545 -32.2878 137.66C-32.2878 139.775 -33.9978 141.489 -36.1073 141.489C-38.2168 141.489 -39.9269 139.775 -39.9269 137.66Z" fill="#C4C4C4" fill-opacity="0.05"/>
<path d="M-39.9269 122.341C-39.9269 120.225 -38.2168 118.511 -36.1073 118.511C-33.9978 118.511 -32.2878 120.225 -32.2878 122.341C-32.2878 124.456 -33.9978 126.17 -36.1073 126.17C-38.2168 126.17 -39.9269 124.456 -39.9269 122.341Z" fill="#C4C4C4" fill-opacity="0.05"/>
<path d="M-39.9269 107.021C-39.9269 104.906 -38.2168 103.192 -36.1073 103.192C-33.9978 103.192 -32.2878 104.906 -32.2878 107.021C-32.2878 109.137 -33.9978 110.851 -36.1073 110.851C-38.2168 110.851 -39.9269 109.137 -39.9269 107.021Z" fill="#C4C4C4" fill-opacity="0.05"/>
<path d="M-39.9269 91.7022C-39.9269 89.5871 -38.2168 87.8725 -36.1073 87.8725C-33.9978 87.8725 -32.2878 89.5871 -32.2878 91.7022C-32.2878 93.8174 -33.9978 95.532 -36.1073 95.532C-38.2168 95.532 -39.9269 93.8174 -39.9269 91.7022Z" fill="#C4C4C4" fill-opacity="0.05"/>
<path d="M-39.9269 76.3831C-39.9269 74.268 -38.2168 72.5533 -36.1073 72.5533C-33.9978 72.5533 -32.2878 74.268 -32.2878 76.3831C-32.2878 78.4982 -33.9978 80.2129 -36.1073 80.2129C-38.2168 80.2129 -39.9269 78.4982 -39.9269 76.3831Z" fill="#C4C4C4" fill-opacity="0.05"/>
<path d="M-39.9269 61.0639C-39.9269 58.9488 -38.2168 57.2341 -36.1073 57.2341C-33.9978 57.2341 -32.2878 58.9488 -32.2878 61.0639C-32.2878 63.1791 -33.9978 64.8937 -36.1073 64.8937C-38.2168 64.8937 -39.9269 63.1791 -39.9269 61.0639Z" fill="#C4C4C4" fill-opacity="0.05"/>
<path d="M-39.9269 45.7448C-39.9269 43.6297 -38.2168 41.915 -36.1073 41.915C-33.9978 41.915 -32.2878 43.6297 -32.2878 45.7448C-32.2878 47.8599 -33.9978 49.5746 -36.1073 49.5746C-38.2168 49.5746 -39.9269 47.8599 -39.9269 45.7448Z" fill="#C4C4C4" fill-opacity="0.05"/>
<path d="M-39.9269 30.4256C-39.9269 28.3105 -38.2168 26.5958 -36.1073 26.5958C-33.9978 26.5958 -32.2878 28.3105 -32.2878 30.4256C-32.2878 32.5408 -33.9978 34.2554 -36.1073 34.2554C-38.2168 34.2554 -39.9269 32.5408 -39.9269 30.4256Z" fill="#C4C4C4" fill-opacity="0.05"/>
<path d="M-39.9269 15.1065C-39.9269 12.9914 -38.2168 11.2767 -36.1073 11.2767C-33.9978 11.2767 -32.2878 12.9914 -32.2878 15.1065C-32.2878 17.2216 -33.9978 18.9363 -36.1073 18.9363C-38.2168 18.9363 -39.9269 17.2216 -39.9269 15.1065Z" fill="#C4C4C4" fill-opacity="0.05"/>
<path d="M-39.9269 -0.212661C-39.9269 -2.32779 -38.2168 -4.04243 -36.1073 -4.04243C-33.9978 -4.04243 -32.2878 -2.32779 -32.2878 -0.212661C-32.2878 1.90247 -33.9978 3.61714 -36.1073 3.61714C-38.2168 3.61714 -39.9269 1.90247 -39.9269 -0.212661Z" fill="#C4C4C4" fill-opacity="0.05"/>
<path d="M-39.9269 -15.5318C-39.9269 -17.6469 -38.2168 -19.3616 -36.1073 -19.3616C-33.9978 -19.3616 -32.2878 -17.6469 -32.2878 -15.5318C-32.2878 -13.4167 -33.9978 -11.702 -36.1073 -11.702C-38.2168 -11.702 -39.9269 -13.4167 -39.9269 -15.5318Z" fill="#C4C4C4" fill-opacity="0.05"/>
<path d="M-39.9269 -30.851C-39.9269 -32.9661 -38.2168 -34.6807 -36.1073 -34.6807C-33.9978 -34.6807 -32.2878 -32.9661 -32.2878 -30.851C-32.2878 -28.7358 -33.9978 -27.0212 -36.1073 -27.0212C-38.2168 -27.0212 -39.9269 -28.7358 -39.9269 -30.851Z" fill="#C4C4C4" fill-opacity="0.05"/>
<path d="M-39.9269 -46.1701C-39.9269 -48.2852 -38.2168 -49.9999 -36.1073 -49.9999C-33.9979 -49.9999 -32.2878 -48.2852 -32.2878 -46.1701C-32.2878 -44.055 -33.9979 -42.3403 -36.1073 -42.3403C-38.2168 -42.3403 -39.9269 -44.055 -39.9269 -46.1701Z" fill="#C4C4C4" fill-opacity="0.05"/>
<path d="M-55.2052 152.979C-55.2052 150.864 -53.4951 149.149 -51.3856 149.149C-49.2761 149.149 -47.5661 150.864 -47.5661 152.979C-47.5661 155.094 -49.2761 156.809 -51.3856 156.809C-53.4951 156.809 -55.2052 155.094 -55.2052 152.979Z" fill="#C4C4C4" fill-opacity="0.05"/>
<path d="M-55.2052 137.66C-55.2052 135.545 -53.4951 133.83 -51.3856 133.83C-49.2761 133.83 -47.5661 135.545 -47.5661 137.66C-47.5661 139.775 -49.2761 141.489 -51.3856 141.489C-53.4951 141.489 -55.2052 139.775 -55.2052 137.66Z" fill="#C4C4C4" fill-opacity="0.05"/>
<path d="M-55.2052 122.341C-55.2052 120.225 -53.4951 118.511 -51.3856 118.511C-49.2761 118.511 -47.5661 120.225 -47.5661 122.341C-47.5661 124.456 -49.2761 126.17 -51.3856 126.17C-53.4951 126.17 -55.2052 124.456 -55.2052 122.341Z" fill="#C4C4C4" fill-opacity="0.05"/>
<path d="M-55.2052 107.021C-55.2052 104.906 -53.4951 103.192 -51.3856 103.192C-49.2761 103.192 -47.5661 104.906 -47.5661 107.021C-47.5661 109.137 -49.2761 110.851 -51.3856 110.851C-53.4951 110.851 -55.2052 109.137 -55.2052 107.021Z" fill="#C4C4C4" fill-opacity="0.05"/>
<path d="M-55.2052 91.7022C-55.2052 89.5871 -53.4951 87.8725 -51.3856 87.8725C-49.2761 87.8725 -47.5661 89.5871 -47.5661 91.7022C-47.5661 93.8174 -49.2761 95.532 -51.3856 95.532C-53.4951 95.532 -55.2052 93.8174 -55.2052 91.7022Z" fill="#C4C4C4" fill-opacity="0.05"/>
<path d="M-55.2052 76.3831C-55.2052 74.268 -53.4951 72.5533 -51.3856 72.5533C-49.2761 72.5533 -47.5661 74.268 -47.5661 76.3831C-47.5661 78.4982 -49.2761 80.2129 -51.3856 80.2129C-53.4951 80.2129 -55.2052 78.4982 -55.2052 76.3831Z" fill="#C4C4C4" fill-opacity="0.05"/>
<path d="M-55.2052 61.0639C-55.2052 58.9488 -53.4951 57.2341 -51.3856 57.2341C-49.2761 57.2341 -47.5661 58.9488 -47.5661 61.0639C-47.5661 63.1791 -49.2761 64.8937 -51.3856 64.8937C-53.4951 64.8937 -55.2052 63.1791 -55.2052 61.0639Z" fill="#C4C4C4" fill-opacity="0.05"/>
<path d="M-55.2052 45.7448C-55.2052 43.6297 -53.4951 41.915 -51.3856 41.915C-49.2761 41.915 -47.5661 43.6297 -47.5661 45.7448C-47.5661 47.8599 -49.2761 49.5746 -51.3856 49.5746C-53.4951 49.5746 -55.2052 47.8599 -55.2052 45.7448Z" fill="#C4C4C4" fill-opacity="0.05"/>
<path d="M-55.2052 30.4256C-55.2052 28.3105 -53.4951 26.5958 -51.3856 26.5958C-49.2761 26.5958 -47.5661 28.3105 -47.5661 30.4256C-47.5661 32.5408 -49.2761 34.2554 -51.3856 34.2554C-53.4951 34.2554 -55.2052 32.5408 -55.2052 30.4256Z" fill="#C4C4C4" fill-opacity="0.05"/>
<path d="M-55.2052 15.1065C-55.2052 12.9914 -53.4951 11.2767 -51.3856 11.2767C-49.2761 11.2767 -47.5661 12.9914 -47.5661 15.1065C-47.5661 17.2216 -49.2761 18.9363 -51.3856 18.9363C-53.4951 18.9363 -55.2052 17.2216 -55.2052 15.1065Z" fill="#C4C4C4" fill-opacity="0.05"/>
<path d="M-55.2052 -0.212659C-55.2052 -2.32779 -53.4951 -4.04243 -51.3856 -4.04243C-49.2761 -4.04243 -47.5661 -2.32779 -47.5661 -0.21266C-47.5661 1.90247 -49.2761 3.61714 -51.3856 3.61714C-53.4951 3.61714 -55.2052 1.90247 -55.2052 -0.212659Z" fill="#C4C4C4" fill-opacity="0.05"/>
<path d="M-55.2052 -15.5318C-55.2052 -17.6469 -53.4951 -19.3616 -51.3856 -19.3616C-49.2761 -19.3616 -47.5661 -17.6469 -47.5661 -15.5318C-47.5661 -13.4167 -49.2761 -11.702 -51.3856 -11.702C-53.4951 -11.702 -55.2052 -13.4167 -55.2052 -15.5318Z" fill="#C4C4C4" fill-opacity="0.05"/>
<path d="M-55.2052 -30.851C-55.2052 -32.9661 -53.4951 -34.6807 -51.3856 -34.6807C-49.2761 -34.6807 -47.5661 -32.9661 -47.5661 -30.851C-47.5661 -28.7358 -49.2761 -27.0212 -51.3856 -27.0212C-53.4951 -27.0212 -55.2052 -28.7358 -55.2052 -30.851Z" fill="#C4C4C4" fill-opacity="0.05"/>
<path d="M-55.2052 -46.1701C-55.2052 -48.2852 -53.4951 -49.9999 -51.3856 -49.9999C-49.2761 -49.9999 -47.5661 -48.2852 -47.5661 -46.1701C-47.5661 -44.055 -49.2761 -42.3403 -51.3856 -42.3403C-53.4951 -42.3403 -55.2052 -44.055 -55.2052 -46.1701Z" fill="#C4C4C4" fill-opacity="0.05"/>
<path d="M-70.4835 152.979C-70.4835 150.864 -68.7735 149.149 -66.664 149.149C-64.5545 149.149 -62.8444 150.864 -62.8444 152.979C-62.8444 155.094 -64.5545 156.809 -66.664 156.809C-68.7735 156.809 -70.4835 155.094 -70.4835 152.979Z" fill="#C4C4C4" fill-opacity="0.05"/>
<path d="M-70.4835 137.66C-70.4835 135.545 -68.7735 133.83 -66.664 133.83C-64.5545 133.83 -62.8444 135.545 -62.8444 137.66C-62.8444 139.775 -64.5545 141.489 -66.664 141.489C-68.7735 141.489 -70.4835 139.775 -70.4835 137.66Z" fill="#C4C4C4" fill-opacity="0.05"/>
<path d="M-70.4835 122.341C-70.4835 120.225 -68.7735 118.511 -66.664 118.511C-64.5545 118.511 -62.8444 120.225 -62.8444 122.341C-62.8444 124.456 -64.5545 126.17 -66.664 126.17C-68.7735 126.17 -70.4835 124.456 -70.4835 122.341Z" fill="#C4C4C4" fill-opacity="0.05"/>
<path d="M-70.4835 107.021C-70.4835 104.906 -68.7735 103.192 -66.664 103.192C-64.5545 103.192 -62.8444 104.906 -62.8444 107.021C-62.8444 109.137 -64.5545 110.851 -66.664 110.851C-68.7735 110.851 -70.4835 109.137 -70.4835 107.021Z" fill="#C4C4C4" fill-opacity="0.05"/>
<path d="M-70.4835 91.7022C-70.4835 89.5871 -68.7735 87.8725 -66.664 87.8725C-64.5545 87.8725 -62.8444 89.5871 -62.8444 91.7022C-62.8444 93.8174 -64.5545 95.532 -66.664 95.532C-68.7735 95.532 -70.4835 93.8174 -70.4835 91.7022Z" fill="#C4C4C4" fill-opacity="0.05"/>
<path d="M-70.4835 76.3831C-70.4835 74.268 -68.7735 72.5533 -66.664 72.5533C-64.5545 72.5533 -62.8444 74.268 -62.8444 76.3831C-62.8444 78.4982 -64.5545 80.2129 -66.664 80.2129C-68.7735 80.2129 -70.4835 78.4982 -70.4835 76.3831Z" fill="#C4C4C4" fill-opacity="0.05"/>
<path d="M-70.4835 61.0639C-70.4835 58.9488 -68.7735 57.2341 -66.664 57.2341C-64.5545 57.2341 -62.8444 58.9488 -62.8444 61.0639C-62.8444 63.1791 -64.5545 64.8937 -66.664 64.8937C-68.7735 64.8937 -70.4835 63.1791 -70.4835 61.0639Z" fill="#C4C4C4" fill-opacity="0.05"/>
<path d="M-70.4835 45.7448C-70.4835 43.6297 -68.7735 41.915 -66.664 41.915C-64.5545 41.915 -62.8444 43.6297 -62.8444 45.7448C-62.8444 47.8599 -64.5545 49.5746 -66.664 49.5746C-68.7735 49.5746 -70.4835 47.8599 -70.4835 45.7448Z" fill="#C4C4C4" fill-opacity="0.05"/>
<path d="M-70.4835 30.4256C-70.4835 28.3105 -68.7735 26.5958 -66.664 26.5958C-64.5545 26.5958 -62.8444 28.3105 -62.8444 30.4256C-62.8444 32.5408 -64.5545 34.2554 -66.664 34.2554C-68.7735 34.2554 -70.4835 32.5408 -70.4835 30.4256Z" fill="#C4C4C4" fill-opacity="0.05"/>
<path d="M-70.4835 15.1065C-70.4835 12.9914 -68.7735 11.2767 -66.664 11.2767C-64.5545 11.2767 -62.8444 12.9914 -62.8444 15.1065C-62.8444 17.2216 -64.5545 18.9363 -66.664 18.9363C-68.7735 18.9363 -70.4835 17.2216 -70.4835 15.1065Z" fill="#C4C4C4" fill-opacity="0.05"/>
<path d="M-70.4835 -0.212658C-70.4835 -2.32779 -68.7735 -4.04243 -66.664 -4.04243C-64.5545 -4.04243 -62.8444 -2.32779 -62.8444 -0.212659C-62.8444 1.90247 -64.5545 3.61714 -66.664 3.61715C-68.7735 3.61715 -70.4835 1.90247 -70.4835 -0.212658Z" fill="#C4C4C4" fill-opacity="0.05"/>
<path d="M-70.4835 -15.5318C-70.4835 -17.6469 -68.7735 -19.3616 -66.664 -19.3616C-64.5545 -19.3616 -62.8444 -17.6469 -62.8444 -15.5318C-62.8444 -13.4167 -64.5545 -11.702 -66.664 -11.702C-68.7735 -11.702 -70.4835 -13.4167 -70.4835 -15.5318Z" fill="#C4C4C4" fill-opacity="0.05"/>
<path d="M-70.4835 -30.851C-70.4835 -32.9661 -68.7735 -34.6807 -66.664 -34.6807C-64.5545 -34.6807 -62.8444 -32.9661 -62.8444 -30.851C-62.8444 -28.7358 -64.5545 -27.0212 -66.664 -27.0212C-68.7735 -27.0212 -70.4835 -28.7358 -70.4835 -30.851Z" fill="#C4C4C4" fill-opacity="0.05"/>
<path d="M-70.4835 -46.1701C-70.4835 -48.2852 -68.7735 -49.9999 -66.664 -49.9999C-64.5545 -49.9999 -62.8444 -48.2852 -62.8444 -46.1701C-62.8444 -44.055 -64.5545 -42.3403 -66.664 -42.3403C-68.7735 -42.3403 -70.4835 -44.055 -70.4835 -46.1701Z" fill="#C4C4C4" fill-opacity="0.05"/>
<path d="M-85.7618 152.979C-85.7618 150.864 -84.0518 149.149 -81.9423 149.149C-79.8328 149.149 -78.1227 150.864 -78.1227 152.979C-78.1227 155.094 -79.8328 156.809 -81.9423 156.809C-84.0518 156.809 -85.7618 155.094 -85.7618 152.979Z" fill="#C4C4C4" fill-opacity="0.05"/>
<path d="M-85.7618 137.66C-85.7618 135.545 -84.0518 133.83 -81.9423 133.83C-79.8328 133.83 -78.1227 135.545 -78.1227 137.66C-78.1227 139.775 -79.8328 141.489 -81.9423 141.489C-84.0518 141.489 -85.7618 139.775 -85.7618 137.66Z" fill="#C4C4C4" fill-opacity="0.05"/>
<path d="M-85.7618 122.341C-85.7618 120.225 -84.0518 118.511 -81.9423 118.511C-79.8328 118.511 -78.1227 120.225 -78.1227 122.341C-78.1227 124.456 -79.8328 126.17 -81.9423 126.17C-84.0518 126.17 -85.7618 124.456 -85.7618 122.341Z" fill="#C4C4C4" fill-opacity="0.05"/>
<path d="M-85.7618 107.021C-85.7618 104.906 -84.0518 103.192 -81.9423 103.192C-79.8328 103.192 -78.1227 104.906 -78.1227 107.021C-78.1227 109.137 -79.8328 110.851 -81.9423 110.851C-84.0518 110.851 -85.7618 109.137 -85.7618 107.021Z" fill="#C4C4C4" fill-opacity="0.05"/>
<path d="M-85.7618 91.7022C-85.7618 89.5871 -84.0518 87.8725 -81.9423 87.8725C-79.8328 87.8725 -78.1227 89.5871 -78.1227 91.7022C-78.1227 93.8174 -79.8328 95.532 -81.9423 95.532C-84.0518 95.532 -85.7618 93.8174 -85.7618 91.7022Z" fill="#C4C4C4" fill-opacity="0.05"/>
<path d="M-85.7618 76.3831C-85.7618 74.268 -84.0518 72.5533 -81.9423 72.5533C-79.8328 72.5533 -78.1227 74.268 -78.1227 76.3831C-78.1227 78.4982 -79.8328 80.2129 -81.9423 80.2129C-84.0518 80.2129 -85.7618 78.4982 -85.7618 76.3831Z" fill="#C4C4C4" fill-opacity="0.05"/>
<path d="M-85.7618 61.0639C-85.7618 58.9488 -84.0518 57.2342 -81.9423 57.2342C-79.8328 57.2342 -78.1227 58.9488 -78.1227 61.0639C-78.1227 63.1791 -79.8328 64.8937 -81.9423 64.8937C-84.0518 64.8937 -85.7618 63.1791 -85.7618 61.0639Z" fill="#C4C4C4" fill-opacity="0.05"/>
<path d="M-85.7619 45.7448C-85.7619 43.6297 -84.0518 41.915 -81.9423 41.915C-79.8328 41.915 -78.1227 43.6297 -78.1227 45.7448C-78.1227 47.8599 -79.8328 49.5746 -81.9423 49.5746C-84.0518 49.5746 -85.7619 47.8599 -85.7619 45.7448Z" fill="#C4C4C4" fill-opacity="0.05"/>
<path d="M-85.7619 30.4256C-85.7619 28.3105 -84.0518 26.5958 -81.9423 26.5958C-79.8328 26.5958 -78.1227 28.3105 -78.1227 30.4256C-78.1227 32.5408 -79.8328 34.2554 -81.9423 34.2554C-84.0518 34.2554 -85.7619 32.5408 -85.7619 30.4256Z" fill="#C4C4C4" fill-opacity="0.05"/>
<path d="M-85.7619 15.1065C-85.7619 12.9914 -84.0518 11.2767 -81.9423 11.2767C-79.8328 11.2767 -78.1227 12.9914 -78.1227 15.1065C-78.1227 17.2216 -79.8328 18.9363 -81.9423 18.9363C-84.0518 18.9363 -85.7619 17.2216 -85.7619 15.1065Z" fill="#C4C4C4" fill-opacity="0.05"/>
<path d="M-85.7619 -0.212657C-85.7619 -2.32778 -84.0518 -4.04243 -81.9423 -4.04243C-79.8328 -4.04243 -78.1227 -2.32779 -78.1227 -0.212657C-78.1227 1.90247 -79.8328 3.61715 -81.9423 3.61715C-84.0518 3.61715 -85.7619 1.90247 -85.7619 -0.212657Z" fill="#C4C4C4" fill-opacity="0.05"/>
<path d="M-85.7619 -15.5318C-85.7619 -17.6469 -84.0518 -19.3616 -81.9423 -19.3616C-79.8328 -19.3616 -78.1227 -17.6469 -78.1227 -15.5318C-78.1227 -13.4167 -79.8328 -11.702 -81.9423 -11.702C-84.0518 -11.702 -85.7619 -13.4167 -85.7619 -15.5318Z" fill="#C4C4C4" fill-opacity="0.05"/>
<path d="M-85.7619 -30.851C-85.7619 -32.9661 -84.0518 -34.6807 -81.9423 -34.6807C-79.8328 -34.6807 -78.1227 -32.9661 -78.1227 -30.851C-78.1227 -28.7358 -79.8328 -27.0212 -81.9423 -27.0212C-84.0518 -27.0212 -85.7619 -28.7358 -85.7619 -30.851Z" fill="#C4C4C4" fill-opacity="0.05"/>
<path d="M-85.7619 -46.1701C-85.7619 -48.2852 -84.0518 -49.9999 -81.9423 -49.9999C-79.8328 -49.9999 -78.1227 -48.2852 -78.1227 -46.1701C-78.1227 -44.055 -79.8328 -42.3403 -81.9423 -42.3403C-84.0518 -42.3403 -85.7619 -44.055 -85.7619 -46.1701Z" fill="#C4C4C4" fill-opacity="0.05"/>
</svg>
